<svg xmlns="http://www.w3.org/2000/svg" version="1.1" width="600px" height="600px" xlink="http://www.w3.org/1999/xlink" style="overflow:hidden!important;"><g id="svga-group-wrapper" transform="scale(3 3)"><g id="svga-group-backs-single"></g><g id="svga-group-subwrapper"><g id="svga-group-hair-back"><path stroke="none" opacity="1" stroke-width="none" fill="#351f15" d="M146.969 104.885c-46.51-1.001-92.949 0.02-93.95 0.02 -2.675 4.014-4.176 11.498-3.28 15.61 0.934 4.212 4.441 8.009 5.66 16.46 0.07 0.83-0.04 1.71 0.3 2.76 0.35 1.001 2.022 3.206 3.34 3.44 0.129-0.016 0.381-0.046 0.5-0.061 0.523 0.935 1.48 1.218 2.11 0.91 1.516 2.89 3.099-0.453 5.14 1.32 3.383 2.757 3.832 0.049 6.58-0.931 2.146-0.04 5.034 3.43 7.71 0.761 5.499-5.354 8.082 4.5 12.97 1.869 1-0.506 3.922-2.7 5.96-1.42 3.889-2.455 5.717 5.161 11.56-0.05 5.623-5.015 6.653 1.352 10.72 0.51 1.852-0.43 2.478-1.777 4.35-1.67 2.654 1.003 3.25 3.637 6.57 0.931 2.014-1.75 3.577 1.521 5.141-1.32 0.62 0.311 1.589 0.028 2.109-0.91 0.12 0.015 0.38 0.045 0.51 0.061 1.243-0.235 2.975-2.42 3.341-3.44 0.488-1.559-0.315-5.524 3.609-13.46C151.914 118.111 151.265 110.834 146.969 104.885z" id="SvgjsPath163739"></path><path stroke="none" opacity="1" stroke-width="none" fill="#26130b" d="M146.969 104.885c-46.51-1.001-92.949 0.02-93.95 0.02 -2.675 4.014-4.176 11.498-3.28 15.61 0.934 4.212 4.441 8.009 5.66 16.46 0.07 0.83-0.04 1.71 0.3 2.76 0.35 1.001 2.022 3.206 3.34 3.44 0.129-0.016 0.381-0.046 0.5-0.061 0.523 0.935 1.48 1.218 2.11 0.91 1.516 2.89 3.099-0.453 5.14 1.32 3.383 2.757 3.832 0.049 6.58-0.931 2.146-0.04 5.034 3.43 7.71 0.761 5.499-5.354 8.082 4.5 12.97 1.869 1-0.506 3.922-2.7 5.96-1.42 3.889-2.455 5.717 5.161 11.56-0.05 5.623-5.015 6.653 1.352 10.72 0.51 1.852-0.43 2.478-1.777 4.35-1.67 2.654 1.003 3.25 3.637 6.57 0.931 2.014-1.75 3.577 1.521 5.141-1.32 0.62 0.311 1.589 0.028 2.109-0.91 0.12 0.015 0.38 0.045 0.51 0.061 1.243-0.235 2.975-2.42 3.341-3.44 0.488-1.559-0.315-5.524 3.609-13.46C151.914 118.111 151.265 110.834 146.969 104.885zM147.039 125.775c-5.513 10.228-2.238 14.543-6.01 16.14 -0.05 0-0.09 0.011-0.141 0.03 -0.312-0.07-0.85-0.322-1.14-0.46 -0.006 0.015-0.19 0.59-0.36 1.04 -0.058 0.078-0.041 0.102-0.199 0.26 -0.051 0.021-0.09 0.05-0.13 0.08 -0.37 0.084-0.932-0.389-1.28-0.63 -0.951 2.268-1.016 1.841-1.86 1.57 -2.987-0.938-3.279 0.839-4.62 1.39 -1.356 0.511-2.175-1.354-4.46-2.03 -2.538-0.171-3.387 1.449-4.89 1.75 -2.598 0.548-5.365-5.445-11.05 0.08 -5.063 4.924-6.429-2.163-10.91 0.24 -4.396-2.515-5.807 4.695-10.95-0.3 -5.512-5.221-8.704-0.136-9.84 0.01 -1.911 0.413-2.582-1.3-5.19-1.8 -2.841 0-3.702 2.653-5.31 2.05 -1.344-0.553-1.628-2.329-4.62-1.39 -1 0.32-1.005 0.471-1.86-1.57 -0.344 0.238-0.908 0.715-1.28 0.63 -0.04-0.03-0.08-0.06-0.13-0.08 -0.379-0.509-0.325-0.681-0.56-1.3 0.191-0.098-0.692 0.358-1.14 0.46 -0.04-0.02-0.09-0.03-0.13-0.03 -0.2-0.08-0.47-0.35-0.73-0.67 -1.661-2.134-1.418-1.179-1.63-4.35 -1.82-12.19-11.412-17.353-3.55-31.81 30.144 0.618 62.703 0.696 93.88 0.02C151.487 113.794 150.327 119.547 147.039 125.775z" id="SvgjsPath163740"></path></g><g id="svga-group-humanbody-single"><path stroke="none" opacity="1" stroke-width="none" fill="#e19e95" d="M195.417 199.778c-2.196-4.746-8.195-11.779-14.86-13.722 -8.239-2.403-26.837-5.308-33.733-6.923 -5.528-1.296-16.662-11.294-20.564-14.65 -0.7-0.6-1.273-1.839-1.287-2.76 -0.139-10.864 4.195-39.724 4.195-39.724H100 70.833c0 0 4.334 28.859 4.193 39.724 -0.011 0.921-0.587 2.16-1.285 2.76 -3.902 3.356-15.036 13.354-20.564 14.65 -6.897 1.615-25.495 4.619-33.733 7.022 -6.667 1.942-12.664 8.876-14.86 13.622 -3.708 8.008-4.584 22.5-4.584 35h100 100C200 222.278 199.123 207.786 195.417 199.778z" id="SvgjsPath163580"></path><path stroke="none" opacity="1" stroke-width="none" fill="#f0beb7" d="M159.156 184.058c24.342 3.542 34.586 8.708 37.794 50.721H200c0-12.5-0.877-26.992-4.583-35 -2.196-4.746-8.195-11.779-14.86-13.722 -8.239-2.403-26.837-5.308-33.733-6.923 -5.528-1.296-18.242-12.069-21.643-16.35 3.36 4.704 12.791 15.605 21.054 18.46C150.188 182.61 153.48 183.232 159.156 184.058zM53.766 181.244c8.263-2.854 17.693-13.756 21.054-18.46 -3.4 4.28-16.114 15.054-21.643 16.35 -6.896 1.615-25.494 4.619-33.733 7.022 -6.665 1.942-12.664 8.876-14.86 13.622 -3.706 8.008-4.583 22.5-4.583 35h3.05c3.188-41.744 13.475-47.183 37.794-50.721C46.52 183.232 49.813 182.61 53.766 181.244z" id="SvgjsPath163581"></path><path stroke="none" opacity="1" stroke-width="none" fill="#d28176" d="M95.646 197.62c0 0-5.074-1.609-7.083-2.379 -10.449-4.009-44.395-6.607-44.395-6.607s35.754 1.419 43.644 2.779c-0.458-4.767-3.017-20.004-3.017-20.004s5.149 16.815 6.409 21.057C91.878 194.734 95.646 197.62 95.646 197.62zM106.445 196.278c-0.089 0.073-0.191 0.168-0.302 0.268C106.256 196.461 106.358 196.372 106.445 196.278zM95.646 197.62c0 0 2.893 2.992 4.347 3.03 1.91 0.051 4.828-2.899 6.151-4.104 -1.265 0.957-4.159 1.391-5.31 1.436C99.504 198.033 95.646 197.62 95.646 197.62zM116.664 190.101c-1.545 0.248-4.386 0.789-4.386 0.789l2.287-14.89c-0.646 3.071-4.474 16.211-8.12 20.278 1.91-1.616 6.158-2.391 8.324-2.704 10.236-1.484 10.232-1.483 41.062-4.94C155.831 188.634 126.76 188.479 116.664 190.101z" id="SvgjsPath163582"></path><path opacity="1" stroke-width="1.5" stroke="#b34e41" fill="none" d="M195.417 199.778c-2.196-4.746-8.195-11.779-14.86-13.722 -8.239-2.403-26.837-5.308-33.733-6.923 -5.528-1.296-16.662-11.294-20.564-14.65 -0.7-0.6-1.273-1.839-1.287-2.76 -0.139-10.864 4.195-39.724 4.195-39.724H100 70.833c0 0 4.334 28.859 4.193 39.724 -0.011 0.921-0.587 2.16-1.285 2.76 -3.902 3.356-15.036 13.354-20.564 14.65 -6.897 1.615-25.495 4.619-33.733 7.022 -6.667 1.942-12.664 8.876-14.86 13.622 -3.708 8.008-4.584 22.5-4.584 35h100 100C200 222.278 199.123 207.786 195.417 199.778z" id="SvgjsPath163583"></path></g><g id="svga-group-chinshadow-single"><path opacity="1" fill="url(#SvgjsLinearGradient163864)" d="M109.536 170.861c4.446-1.662 9.623-5.664 14.692-10.57 0.134-7.874 1.927-22.141 3.129-30.907 -15.727-1.816-38.988-1.81-54.712 0.013 1.201 8.766 2.992 23.017 3.125 30.887 5.071 4.909 10.251 8.915 14.699 10.578C94.942 172.534 105.063 172.534 109.536 170.861z" id="SvgjsPath163863"></path></g><g id="svga-group-clothes-single"><path stroke="none" opacity="1" stroke-width="none" fill="#1e78a2" d="M-4.807 234.6c1.472-10.806-0.208-11.777 4.116-33.015 1.228-7.384 2.66-13.32 8.141-10.607 4.045-6.008 15.513-6.566 57.339-20.658v-0.258c0.278-1.001 2.706-4.267 3.099-9.897 0.383-5.449 2.718-9.56 5.614-11.604 -6.746 23.685 23.144 14.953 24.208 31.108 0.084 1.273-0.974 10.149-0.813 10.969 3.355-0.679 6.721-0.684 10.359-0.645 -3.928-15.24-0.545-16.872 7.344-19.838 9.564-3.591 12.873-7.169 12.01-20.697 4.57 4.109 1.516 9.7 7.174 17.534 36.249 13.159 50.02 16.863 56.963 21.507 5.981-4.517 9.697 2.65 17.292 46.103C136.218 235.212 54.269 235.12-4.807 234.6z" id="SvgjsPath163848"></path><path stroke="none" opacity="1" stroke-width="none" fill="#0c6893" d="M92.119 197.235c0.304-0.029 3.375-5.505 3.375-5.505 5.764-2.145 18.375 2.005 34.019-10.176C117.994 199.61 97.143 186.737 92.119 197.235zM70.115 179.378c8.754 10.018 23.629 13.732 26.773 10.686C96.885 190.135 79.619 189.396 70.115 179.378z" id="SvgjsPath163849"></path><path stroke="none" opacity="1" stroke-width="none" fill="#005a83" d="M73.607 149.423c0 0 0.705 6.944 0.82 11.739C72.326 156.482 71.897 155.232 73.607 149.423z" id="SvgjsPath163850"></path><path stroke="none" opacity="1" stroke-width="none" fill="#3389b1" d="M4.781 194.15C0 207.902-0.398 222.744-3.298 234.612c-0.693-0.006-0.823 0.293-1.509 0.287 1.472-10.806-0.208-12.355 4.116-33.593 1.228-7.384 2.66-13.32 8.141-10.607 4.045-6.008 15.513-6.566 57.339-20.658v-0.258c0.278-1.001 2.706-4.267 3.099-9.897 0.345-4.904 2.622-9.431 5.25-11.325 -5.936 6.453-1.918 18.345-8.092 22.976C53.103 178.967 18.588 187.846 4.781 194.15zM190.747 188.499c-6.943-4.644-20.714-8.348-56.963-21.507 -5.658-7.834-2.604-13.425-7.174-17.534 0.063 1.001-0.018 0.613 0 1.51 2.161-0.43 2.695 15.819 7.443 18.193 19 9 45.261 17.317 59.521 22.632 6.636 10.021 8.157 26.964 13.401 42.817 1.067-0.009 0 0 1.063-0.009C200.444 191.149 196.729 183.982 190.747 188.499zM125.992 162.465c-7.33 12.798-21.646 4.662-20.242 19.81C108.488 167.635 121.171 175.921 125.992 162.465zM97.372 184.295c2.628-16.491-15.517-13.785-23.633-23.296C78.812 171.409 95.553 168.227 97.372 184.295z" id="SvgjsPath163851"></path><path stroke="none" opacity="1" stroke-width="none" fill="#004f74" d="M196.139 187.915c-1.581-1.609-3.779-1.259-5.409-0.029 -7.133-4.756-26.235-9.496-56.63-21.609 0 0-2.289-2.963-3.469-8.017 -0.783-3.353-0.308-7.087-4.192-9.838 -0.749 9.286-0.411 16.736-9.51 20.304 -8.959 3.582-14.71 3.744-10.319 20.76 -2.301-0.026-6.457-0.018-9.318 0.563 -0.058-0.295 1.027-8.769 0.918-10.412 -1.014-15.376-28.515-9.625-24.93-27.551 0.33-1.649 0.454-2.542 0.187-3.81 -3.67 1.92-5.337 6.074-5.847 9.51 -0.556 3.889 0.319 4.852-3.32 12.13 0 0.011-0.01 0.021-0.01 0.03 -0.17 0.05-0.35 0.11-0.53 0.17 -41.434 13.791-52.827 14.785-56.48 20.22 -5.931-2.941-7.458 5.121-8.46 11.15 -4.398 21.597-2.602 22.344-4.2 33.61 1 0 109.661 0.96 212.96 0.01 0.36 0 0.71-0.01 1.06-0.01C208.319 233.75 202.222 193.853 196.139 187.915zM117.52 170.155c9.877-4.015 9.506-9.654 9.367-19.766 3.437 1.52 0.914 8.914 6.792 16.516 0 4.854-1.267 9.955-4.229 13.46 -5.51 6.101-14.719 9.317-22.23 9.13C104.685 173.337 107.914 174.091 117.52 170.155zM68.349 159.005c0.062-2.714 2.16-8.263 4.9-10.1 -8.723 23.076 22.427 15.489 23.73 31.92 0.027 0.457-0.38 8.333-0.39 8.84 -16.104-1.896-23.674-5.555-31.64-19.189 0.02-0.04 0.04-0.08 0.06-0.12 0.01 0.01 0.01 0 0.01 0C67.547 165.299 68.017 164.151 68.349 159.005zM-4.591 234.455c1.436-5.179 1.375-14.908 4.04-28.63 1.58-7.847 1.629-17.345 7.48-15.03 0.02 0 0.03 0.011 0.04 0.011 3.516 8.49 11.016 31.499 11.33 32.5 0.155 0.456 2.074 8.248 2.56 9.89 -2.124-16.99-11.493-39.731-12.99-42.14 4.051-4.15 3.094-2.325 35.92-12.7 7.099-2.245 19.409-7.106 20.27-7.601 9.185 19.855 28.548 19.105 32.33 19.521 -11.02 3.397-4.729 31.249-3.77 40.96 -0.163-7.896-3.465-29.31 1.25-36.84 0 0 0.648-1.301 3.14-2.38 6.946-2.627 15.325 2.951 29.95-7.34 4.758-4.518 7.13-7.39 7.13-17.53 24.029 11.337 46.962 16.747 56.11 21.7 -0.013 0.081-0.05 0.414-0.05 0.42 -1.544 13.248 1.243-1.169-4.4 28.689 -1.47 8.541-0.406 5.667-1.13 13.28 1.481-7.851-0.067-3.756 2.12-13.12 4.586-19.338 3.858-22.946 4.16-29.39 3.326-2.396 5.107 0.213 6.399 3.96 4.836 14.695 7.982 34.133 10.09 41.76C141.558 233.843 61.242 233.874-4.591 234.455zM107.847 202.681c-3.239 1.259-7.306 0.944-10.905 0.433C103.167 202.238 107.208 202.645 107.847 202.681z" id="SvgjsPath163852"></path></g><g id="svga-group-head"><g id="svga-group-ears-left"><path opacity="1" stroke-width="1.5" stroke="#b34e41" fill="#e19e95" d="M47.34 82.506c-1.378-2.405-9.403-6.675-11.855-6.501 -4.229 0.299-5.137 5.269-5.446 7.648 -0.609 4.696 0.645 10 1.485 13.201 0.687 2.615 2.874 7.578 4.214 9.883 1.197 2.062 4.145 5.792 5.733 7.525 1.398 1.529 4.73 4.311 7.248 3.632 2.769-0.744 6.015-3.945 6.239-5.312C56.165 105.172 50.926 88.763 47.34 82.506z" id="SvgjsPath163843"></path><path stroke="none" opacity="1" stroke-width="none" fill="#b34e41" d="M42.903 99.38c-0.142-0.584 0.007-1.569 0.151-2.521 0.131-0.868 0.255-1.686 0.18-2.265 -0.284-2.169-1.888-6.29-2.936-8.524 -1.206-2.568-3.157-5.803-5.602-6.639 -1.011-0.346-2.073-0.522-2.145-0.241 -0.611 1.943-0.563 7.341-0.212 11.338 0.987 11.242 10.375 19.34 11.872 21.045 0.276 0.314 0.566 0.501 0.637 0.426 0.072-0.076-0.1-0.388-0.375-0.704 -1.477-1.692-8.314-8.684-9.27-13.098 -1.012-4.685 3-12.386 3.776-13.855 0.397 0.69 0.732 1.352 0.991 1.904 0.204 0.434 0.429 0.941 0.66 1.489 -0.456 0.767-3.656 6.36-2.489 10.836 0.431 1.651 2.379 3.778 3.67 4.362 0.71 0.321 0.978 0.801 1.287 1.355 0.359 0.645 0.765 1.374 1.946 1.903 0.24 0.108 0.457 0.151 0.649 0.151 0.333 0 0.586-0.135 0.773-0.295 0.019 0.282-0.349 2.52-0.357 2.853 -0.012 0.431 0.045 0.787 0.146 0.796 0.101 0.008 0.207-0.334 0.221-0.766 0.016-0.529 0.379-3.061 0.289-3.372 -0.264-0.923-1.073-1.964-1.93-3.068C43.994 101.407 43.122 100.284 42.903 99.38zM34.428 95.416c-2.316-7.184 1.456-13.479 1.977-14.464 0.906 0.826 1.704 1.932 2.354 3.015C38.286 84.83 34.526 90.584 34.428 95.416zM45.187 105.831c-1.069-0.479-1.427-1.12-1.774-1.742 -0.313-0.562-0.637-1.143-1.458-1.515 -0.179-0.082-0.375-0.204-0.576-0.346 -2.646-6.304 0.289-9.059 1.025-9.625 0.226 0.771 0.394 1.478 0.468 2.045 0.067 0.521-0.058 1.348-0.179 2.148 -0.149 0.992-0.305 2.018-0.144 2.681 0.239 0.989 1.137 2.146 2.005 3.263 0.771 0.993 1.562 2.015 1.832 2.849C46.271 105.757 45.905 106.155 45.187 105.831z" id="SvgjsPath163844"></path></g><g id="svga-group-ears-right"><path opacity="1" stroke-width="1.5" stroke="#b34e41" fill="#e19e95" d="M152.398 82.506c1.377-2.405 9.402-6.675 11.855-6.501 4.229 0.299 5.137 5.269 5.445 7.648 0.609 4.696-0.645 10-1.484 13.201 -0.688 2.615-2.875 7.578-4.215 9.883 -1.197 2.062-4.145 5.792-5.732 7.525 -1.398 1.529-4.73 4.311-7.248 3.632 -2.77-0.744-6.016-3.945-6.238-5.312C143.574 105.172 148.813 88.763 152.398 82.506z" id="SvgjsPath163845"></path><path stroke="none" opacity="1" stroke-width="none" fill="#b34e41" d="M154.902 102.491c-0.855 1.104-1.666 2.146-1.93 3.068 -0.09 0.312 0.273 2.843 0.289 3.372 0.014 0.432 0.119 0.773 0.221 0.766 0.102-0.009 0.158-0.365 0.146-0.796 -0.01-0.333-0.377-2.57-0.357-2.853 0.188 0.16 0.439 0.295 0.771 0.295 0.193 0 0.41-0.043 0.65-0.151 1.182-0.53 1.588-1.259 1.945-1.903 0.311-0.555 0.578-1.034 1.287-1.355 1.291-0.584 3.24-2.711 3.67-4.362 1.168-4.476-2.031-10.07-2.488-10.836 0.23-0.548 0.457-1.056 0.66-1.489 0.26-0.552 0.594-1.214 0.99-1.904 0.777 1.469 4.789 9.17 3.777 13.855 -0.955 4.415-7.793 11.406-9.27 13.098 -0.275 0.316-0.447 0.628-0.375 0.704 0.072 0.075 0.361-0.111 0.637-0.426 1.498-1.705 10.885-9.803 11.873-21.045 0.35-3.997 0.396-9.395-0.213-11.338 -0.072-0.281-1.135-0.104-2.145 0.241 -2.445 0.836-4.396 4.071-5.604 6.639 -1.047 2.234-2.65 6.354-2.936 8.524 -0.076 0.579 0.049 1.397 0.18 2.265 0.145 0.951 0.293 1.936 0.15 2.521C156.617 100.284 155.744 101.407 154.902 102.491zM160.979 83.966c0.65-1.083 1.449-2.188 2.355-3.015 0.52 0.986 4.291 7.28 1.977 14.464C165.211 90.584 161.453 84.83 160.979 83.966zM153.352 105.59c0.271-0.834 1.063-1.856 1.832-2.849 0.869-1.118 1.766-2.274 2.006-3.263 0.16-0.663 0.006-1.689-0.145-2.681 -0.121-0.8-0.246-1.627-0.178-2.148 0.074-0.567 0.242-1.273 0.467-2.045 0.736 0.566 3.672 3.321 1.025 9.625 -0.201 0.142-0.396 0.264-0.576 0.346 -0.82 0.372-1.145 0.953-1.457 1.515 -0.348 0.622-0.705 1.263-1.775 1.742C153.834 106.155 153.467 105.757 153.352 105.59z" id="SvgjsPath163846"></path></g><g id="svga-group-faceshape-wrap"><g id="svga-group-faceshape-single"><path opacity="1" stroke-width="none" fill="#e19e95" d="M144.004 126.306c-6.87 10.846-23.072 30.329-34.468 34.563 -4.474 1.663-14.594 1.663-19.067 0 -11.396-4.235-27.596-23.719-34.467-34.563 -6.753-10.657-14.852-48.287-14.863-48.341 -1.3-4.961-1.996-10.168-2.004-15.538C39.082 28.614 66.289 1.169 99.907 1.116c33.621-0.053 60.913 27.306 60.963 61.119 0.009 5.37-0.669 10.579-1.952 15.544C158.901 77.832 150.78 115.606 144.004 126.306z" id="SvgjsPath163860"></path><path opacity="1" stroke-width="none" fill="#d98f85" d="M110.152 1.978c26.994 6.303 47.097 30.644 47.052 59.708 -0.009 5.369-0.704 10.577-2.004 15.537 -0.012 0.054-7.377 37.684-14.13 48.341 -6.872 10.844-22.339 29.588-33.734 33.823 -1.476 0.549-5.027 1.103-7.334 1.103 -2.307 0-5.857-0.554-7.333-1.103 -11.396-4.235-26.863-22.979-33.734-33.823 -6.753-10.657-14.119-48.287-14.13-48.341 -1.3-4.96-1.996-10.168-2.004-15.537C42.756 32.622 62.857 8.281 89.853 1.978 61.03 6.845 39.087 32.061 39.134 62.427c0.008 5.369 0.704 10.576 2.004 15.538 0.012 0.054 8.11 37.684 14.863 48.341 6.871 10.845 23.072 30.328 34.467 34.563 2.239 0.833 5.889 1.247 9.537 1.244 3.646 0.001 7.292-0.411 9.53-1.244 11.396-4.235 27.596-23.719 34.468-34.563 6.753-10.657 14.852-48.287 14.862-48.341 1.3-4.961 1.996-10.168 2.004-15.538C160.918 32.061 138.975 6.845 110.152 1.978z" id="SvgjsPath163861"></path><path opacity="1" stroke-width="1.5" stroke="#b34e41" fill="none" d="M144.004 126.306c-6.87 10.846-23.072 30.329-34.468 34.563 -4.474 1.663-14.594 1.663-19.067 0 -11.396-4.235-27.596-23.719-34.467-34.563 -6.753-10.657-14.852-48.287-14.863-48.341 -1.3-4.961-1.996-10.168-2.004-15.538C39.082 28.614 66.289 1.169 99.907 1.116c33.621-0.053 60.913 27.306 60.963 61.119 0.009 5.37-0.669 10.579-1.952 15.544C158.901 77.832 150.78 115.606 144.004 126.306z" id="SvgjsPath163862"></path></g></g><g id="svga-group-mouth-single"><path opacity="1" fill="url(#SvgjsLinearGradient163837)" d="M100.389 141.808c-3.458 0-4.907-2.678-4.907-2.678l9.74-0.188C105.222 138.941 103.433 141.808 100.389 141.808z" id="SvgjsPath163836"></path><path stroke="none" opacity="1" stroke-width="none" fill="#b34e41" d="M98.82 139.206c-1.781 0-3.136-0.171-3.231-0.184 -0.146-0.02-0.248-0.146-0.228-0.282 0.02-0.138 0.157-0.227 0.301-0.214 0.04 0.006 6.084 0.5 9.357-0.195 0.156-0.03 0.289 0.057 0.321 0.189 0.031 0.135-0.06 0.269-0.202 0.299C103.729 139.118 100.096 139.206 98.82 139.206zM84.391 133.824c-0.365-0.663 4.097 0.111 6.79-0.551 2.98-0.732 6.101 0.208 9.133 0.479 2.382 0.213 4.838-0.975 7.191-0.436 3.261 0.747 8.236-0.196 7.843 0.594 -0.273 0.548-4.893 1.05-7.524 0.604 -2.301-0.39-4.683 0.556-7.006 0.73 -2.885 0.217-5.767-1.385-8.614-0.933C88.922 134.832 84.701 134.388 84.391 133.824z" id="SvgjsPath163840"></path></g><g id="svga-group-eyes-left"><g id="svga-group-eyesback-left"><path opacity="1" fill="url(#SvgjsRadialGradient163764)" d="M83.071 89.125c-3.293-0.784-4.969 1.059-9.809 1.166 -8.057 0.177-9.938-0.618-11.199-2.638 -0.523-0.837-1.023-1.928-1.264-2.601l-0.1-4.149c1.328-3.949 19.541-4.352 25.9 1.784 0.287 0.666 0.433 1.287 0.465 1.867 -0.19 0.958-0.512 1.878-0.947 2.749C85.411 88.113 84.355 88.729 83.071 89.125z" id="SvgjsPath163763"></path></g><g transform="translate(0.25 0.25)" id="svga-group-eyesiriswrapper-left"><g id="svga-group-eyesiriscontrol-left"><g id="svga-group-eyesiris-left"><path opacity="1" stroke-width="0.5" stroke="#1f1105" fill="#4d3623" d="M79.788 85.588c-0.869 3.192-4.162 5.073-7.361 4.196 -3.197-0.876-5.084-4.178-4.214-7.371 0.869-3.195 4.168-5.076 7.365-4.198C78.772 79.09 80.659 82.392 79.788 85.588z" id="SvgjsPath163821"></path><path opacity="0.7" fill="url(#SvgjsLinearGradient163823)" d="M78.717 82.673c-0.569 0.873-2.036 0.925-3.276 0.117 -1.24-0.808-1.784-2.17-1.215-3.043 0.568-0.872 2.036-0.924 3.276-0.117C78.74 80.439 79.284 81.802 78.717 82.673L78.717 82.673z" id="SvgjsPath163822"></path></g></g></g><g id="svga-group-eyesfront-left"><path stroke="none" opacity="1" stroke-width="none" fill="#e19e95" d="M53.729 84.098c-0.382 3.304 9.854 22.004 20.071 22.004s19.5-5.292 19.5-22.003c0-17.789-9.283-22.001-19.5-22.001S55.626 67.704 53.729 84.098zM60.8 85.053l-0.1-4.149c1.328-3.949 19.541-4.352 25.9 1.784 1.396 3.231-0.409 5.477-3.529 6.438 -3.293-0.784-4.969 1.059-9.809 1.166 -8.057 0.177-9.938-0.618-11.199-2.638C61.54 86.816 61.04 85.726 60.8 85.053z" id="SvgjsPath163788"></path><path opacity="1" fill="url(#SvgjsRadialGradient163790)" d="M59.698 82.412c0.023 7.534 7.646 13.604 17.038 13.566 9.389-0.043 16.985-6.179 16.961-13.713 -0.023-7.533-7.647-13.605-17.04-13.566C67.265 68.743 59.673 74.878 59.698 82.412zM60.8 85.053l-0.1-4.149c1.328-3.949 19.541-4.352 25.9 1.784 1.396 3.231-0.409 5.477-3.529 6.438 -3.293-0.784-4.969 1.059-9.809 1.166 -8.057 0.177-9.938-0.618-11.199-2.638C61.54 86.816 61.04 85.726 60.8 85.053z" id="SvgjsPath163789"></path><path opacity="1" fill="url(#SvgjsRadialGradient163795)" d="M62.063 87.654c-0.523-0.837-1.023-1.928-1.264-2.601l-0.1-4.149c1.328-3.949 19.541-4.352 25.9 1.784 1.396 3.231-0.409 5.477-3.529 6.438 -3.293-0.784-4.969 1.059-9.809 1.166C65.206 90.469 63.324 89.673 62.063 87.654z" id="SvgjsPath163794"></path><path stroke="none" opacity="1" stroke-width="none" fill="#b34e41" d="M89.465 81.193c-9.617-5.761-16.701-6.128-28.117-5.394C70.877 74.298 81.852 75.387 89.465 81.193z" id="SvgjsPath163798"></path><path stroke="none" opacity="1" stroke-width="none" fill="#210d34" d="M88.23 85.283c-3.24-8.315-25.943-8.364-27.431-4.181v3.895c-1.021-1.539-1.047-1.633-1.483-3.404l-2.195 0.746c0 0 2.746-3.873 5.299-4.381C84.606 73.539 88.04 83.949 88.23 85.283zM84.743 89.42c-4.625-1.98-5.94 0.378-11.563 0.495 -8.004 0.168-9.567-0.766-11.125-2.476 0.813 2.091 1.375 3.085 10.875 3.027C78.306 90.433 81.243 88.212 84.743 89.42z" id="SvgjsPath163799"></path></g></g><g id="svga-group-eyes-right"><g id="svga-group-eyesback-right"><path opacity="1" fill="url(#SvgjsRadialGradient163772)" d="M116.529 89.125c3.293-0.784 4.969 1.059 9.809 1.166 8.057 0.177 9.938-0.618 11.199-2.638 0.523-0.837 1.023-1.928 1.264-2.601l0.1-4.149c-1.328-3.949-19.541-4.352-25.9 1.784 -0.287 0.666-0.433 1.287-0.465 1.867 0.19 0.958 0.512 1.878 0.947 2.749C114.189 88.113 115.245 88.729 116.529 89.125z" id="SvgjsPath163771"></path></g><g transform="translate(-0.25 0.25)" id="svga-group-eyesiriswrapper-right"><g id="svga-group-eyesiriscontrol-right"><g id="svga-group-eyesiris-right"><path opacity="1" stroke-width="0.5" stroke="#1f1105" fill="#4d3623" d="M131.788 85.588c-0.869 3.192-4.162 5.073-7.362 4.196 -3.196-0.876-5.084-4.178-4.214-7.371 0.869-3.195 4.169-5.076 7.365-4.198C130.772 79.09 132.658 82.392 131.788 85.588z" id="SvgjsPath163826"></path><path opacity="0.7" fill="url(#SvgjsLinearGradient163828)" d="M130.717 82.673c-0.569 0.873-2.036 0.925-3.276 0.117 -1.239-0.808-1.784-2.17-1.215-3.043 0.568-0.872 2.035-0.924 3.275-0.117C130.74 80.439 131.284 81.802 130.717 82.673L130.717 82.673z" id="SvgjsPath163827"></path></g></g></g><g id="svga-group-eyesfront-right"><path stroke="none" opacity="1" stroke-width="none" fill="#e19e95" d="M125.801 62.098c-10.217 0-19.5 4.212-19.5 22.001 0 16.711 9.283 22.003 19.5 22.003s19.891-18.032 20.07-22.004C146.617 67.611 136.018 62.098 125.801 62.098zM137.537 87.654c-1.261 2.02-3.143 2.815-11.199 2.638 -4.84-0.107-6.516-1.95-9.809-1.166 -3.12-0.961-4.925-3.207-3.529-6.438 6.359-6.136 24.572-5.733 25.9-1.784l-0.1 4.149C138.561 85.726 138.061 86.816 137.537 87.654z" id="SvgjsPath163809"></path><path opacity="1" fill="url(#SvgjsRadialGradient163811)" d="M122.943 68.699c-9.393-0.04-17.016 6.033-17.039 13.566 -0.025 7.535 7.572 13.67 16.961 13.713 9.391 0.037 17.014-6.033 17.037-13.566C139.928 74.878 132.336 68.743 122.943 68.699zM137.537 87.654c-1.261 2.02-3.143 2.815-11.199 2.638 -4.84-0.107-6.516-1.95-9.809-1.166 -3.12-0.961-4.925-3.207-3.529-6.438 6.359-6.136 24.572-5.733 25.9-1.784l-0.1 4.149C138.561 85.726 138.061 86.816 137.537 87.654z" id="SvgjsPath163810"></path><path opacity="1" fill="url(#SvgjsRadialGradient163816)" d="M137.537 87.654c0.523-0.837 1.023-1.928 1.264-2.601l0.1-4.149c-1.328-3.949-19.541-4.352-25.9 1.784 -1.396 3.231 0.409 5.477 3.529 6.438 3.293-0.784 4.969 1.059 9.809 1.166C134.395 90.469 136.276 89.673 137.537 87.654z" id="SvgjsPath163815"></path><path stroke="none" opacity="1" stroke-width="none" fill="#b34e41" d="M110.136 81.193c9.617-5.761 16.701-6.128 28.117-5.394C128.724 74.298 117.749 75.387 110.136 81.193z" id="SvgjsPath163819"></path><path stroke="none" opacity="1" stroke-width="none" fill="#210d34" d="M137.181 77.957c2.553 0.508 5.299 4.381 5.299 4.381l-2.195-0.746c-0.437 1.771-0.463 1.865-1.483 3.404v-3.895c-1.487-4.183-24.19-4.134-27.431 4.181C111.561 83.949 114.994 73.539 137.181 77.957zM126.67 90.467c9.5 0.058 10.063-0.937 10.875-3.027 -1.558 1.71-3.121 2.644-11.125 2.476 -5.622-0.117-6.938-2.476-11.563-0.495C118.357 88.212 121.295 90.433 126.67 90.467z" id="SvgjsPath163820"></path></g></g><g id="svga-group-facehighlight-single"><path opacity="1" fill="url(#SvgjsRadialGradient163573)" d="M141 113.974c0.035 22.622-18.292 40.994-40.938 41.025 -22.642 0.037-41.028-18.273-41.063-40.9 -0.035-22.62 18.292-41.064 40.937-41.1C122.579 72.964 140.967 91.349 141 113.974z" id="SvgjsPath163572"></path><path opacity="1" fill="url(#SvgjsRadialGradient163577)" d="M137.5 53.999c0 20.711-16.789 37.5-37.499 37.5 -20.711 0-37.501-16.789-37.501-37.5s16.79-37.5 37.501-37.5C120.711 16.499 137.5 33.288 137.5 53.999z" id="SvgjsPath163576"></path></g><g id="svga-group-eyebrows-left"><path stroke="none" opacity="1" stroke-width="none" fill="#543c32" d="M54.872 71.479c0 0.55 13.681-0.174 15.036-0.312 23.276-2.375 24.726-7.885 21.625-7.963 -2.49-0.063-3.619 2.32-21.219 5.462C69.895 68.742 54.872 71.906 54.872 71.479z" id="SvgjsPath163831"></path></g><g id="svga-group-eyebrows-right"><path stroke="none" opacity="1" stroke-width="none" fill="#543c32" d="M145.13 71.479c0 0.55-13.681-0.174-15.036-0.312 -23.276-2.375-24.726-7.885-21.625-7.963 2.49-0.063 3.619 2.32 21.219 5.462C130.107 68.742 145.13 71.906 145.13 71.479z" id="SvgjsPath163832"></path></g><g id="svga-group-nose-single"><path stroke="none" opacity="1" stroke-width="none" fill="#b34e41" d="M99.757 119.999c-0.91 0-1.88 0.006-2.721-0.371 -0.899-0.405-1.498-0.567-2.429-0.902 -0.899-0.324-1.98 0.466-2.88 0.541 -0.728 0.06-1.559-0.149-2.003-0.719 -1.499-1.917 0.286-3.096 0.286-3.096s-0.583 1.346-0.212 1.942c0.319 0.509 0.789 0.925 1.369 1.063 0.968 0.235 1.889-0.476 2.839-0.55 1.062-0.083 1.833-0.102 2.602 0.519 0.767 0.619 1.606 0.737 2.582 0.787 0.906 0.049 1.857 0.088 2.708-0.263 0.743-0.303 1.365-0.835 2.062-1.226 1.482-0.831 2.647 0.212 4.194 0.633 1.238 0.338 2.575-0.86 2.09-2.225 -0.277-0.777-0.232-1.24-0.232-1.24s1.181 0.535 1.11 1.854c-0.089 1.642-1.521 2.794-3.137 2.361 -0.794-0.21-1.65-0.808-2.493-0.656 -0.857 0.153-1.517 0.154-2.229 0.622C102.187 119.781 101.047 119.999 99.757 119.999z" id="SvgjsPath163841"></path><path stroke="none" opacity="1" stroke-width="none" fill="#d98f85" d="M93.316 110.211c0 0 3.245-4.518 6.193-4.573 2.73-0.05 6.324 3.968 6.324 3.968s-3.311-1.387-6.588-1.156C96.32 108.655 93.316 110.211 93.316 110.211z" id="SvgjsPath163842"></path></g><g id="svga-group-beardwrap"><g id="svga-group-beard-single"><path opacity="1" stroke-width="none" fill="#2a232b" d="M100,18.13L100,18.13L100,18.13L100,18.13z" id="SvgjsPath163590"></path></g></g><g id="svga-group-mustache-single"><path opacity="1" stroke-width="none" fill="#2a232b" d="M100,18.13L100,18.13L100,18.13L100,18.13z" id="SvgjsPath163588"></path></g><g id="svga-group-hair-front"><path stroke="none" opacity="1" stroke-width="none" fill="#543c32" d="M45.066 90.479c-1.663-4.941-4.339-12.356-8.735-15.286 -2.688-14.785-7.848-34.075 7.836-52.385 3.342-3.917 7.695-7.354 12.827-8.128C69.672-4.083 84.836-12.747 119.576-1.432c52.479 15.34 43.691 53.39 41.853 76.293 -2.476 2.597-4.824 9.932-6.139 14.359 -1.17-25.195-10.647-60.91-38.688-60.91 -14.208 0-17.067 5.674-37.26 3.394C42.051 28.826 48.983 73.242 45.066 90.479z" id="SvgjsPath163742"></path><path stroke="none" opacity="1" stroke-width="none" fill="#351f15" d="M102.566 19.442C88.011 22.011 80 16 83 5c-5.661 3.59-7.699 9.31-6.903 14.442C72.65 15.482 72.796 8.737 74.843 1c-8.02 8.578-9.465 16.139-7.549 23.801 -5.012-5.458-8.708-12.687-3.697-18.978 -2.321 2.513-4.498 5.343-6.603 8.459 -0.479 0.072-4.142 2.217-4.142 2.217 2.935 0 9.319 2.98 13.005 9.154 -4.542-1.424-10.958 0.219-13.534 2.379 -9.399 7.885-14.204 20.903-7.164 61.423 2.253-11.969 1.543-23.55 3.268-33.198 2.885-16.144 10.068-26.874 30.916-24.951 20.192 2.28 23.052-3.394 37.26-3.394 28.04 0 37.518 35.715 38.688 60.91 1.314-4.427 3.663-11.762 6.139-14.359 0.302-3.759 0.416-3.52 0.79-7.927C153.869 28.485 133.09 14.055 102.566 19.442z" id="SvgjsPath163743"></path><path stroke="none" opacity="1" stroke-width="none" fill="#452c22" d="M39.369 61.985c-3.731-41.197 18.025-41.045 21-38.75C56.222 22.745 42.114 19.045 39.369 61.985zM86.619 9.485c1.66 4.085 4.553 6.995 10.868 7.394 0 0 1.125 0.776 17.403-2.094 2.292-0.411 3.952-0.545 4.729-0.549C107.662 13.148 93.121 20.9 86.619 9.485zM150.391 26.592c0 0-0.389-0.601-1.072-1.436 -9.444-11.944-25.151-12.229-24.199-11.171 -0.937-1.19 19.347 2.377 26.987 18.344 4.835 8.836 1.414 2.542 5.513 10.656C154.017 31.66 152.175 29.292 150.391 26.592zM130.182 17.505c0 0-1.276-0.383-2.578-0.662 -1.301-0.277-2.615-0.469-2.614-0.469 -3.583-0.505-6.562-0.275-8.37-0.138 6.199 0.063 15.622 1.509 20.75 5.5C135.201 19.539 132.727 18.172 130.182 17.505zM37.369 44.735c-1.341 9.794-1.69 21.234 3.25 29.75C37.33 66.374 37.256 53.492 37.369 44.735zM73.543 28.958c0.823 0.173 1.125 0.078 1.125 0.078s-0.278 0.029-1.063-0.253c-6.856-2.076-9.987-15.147 1.013-27.297C61.436 11.777 64.929 27.814 73.543 28.958zM82.619 5.235C78.885 8.15 76.356 11.463 75.917 16c-0.636 7.067 3.239 12.869 10.953 13.485C74.702 26.658 75.11 13.108 82.619 5.235zM109.42 10.36c0 0-8.481 0.526-16.551-2.875 8.332 4.85 17.038 4.377 27 2.5C115.675 10.167 113.511 10.273 109.42 10.36z" id="SvgjsPath163744"></path><path stroke="none" opacity="1" stroke-width="none" fill="#634e45" d="M122.869 8.069c-10.39 0.727-12.784 0.221-17.333-2.333C111.313 8.266 113.479 7.609 122.869 8.069zM86.367 16.514c-5.562-5.748-3.748-8.528-3.748-8.528s-2.659 7.062 6.636 11.581c5.177 2.818 14.232 0.009 16.864-0.331C102.686 19.224 91.563 21.687 86.367 16.514zM59.369 25.235c-18.715 0.179-19.006 29.31-16.603 47.764C43.266 55.375 42.898 27.77 59.369 25.235zM160.737 62.366c-2.301-13.429-7.88-28.915-19.618-35.88C150.653 34.103 157.559 51.017 160.737 62.366zM159.619 44.235c-0.742-13.17-7.966-23.253-18.114-30.338C150.438 22.187 157.423 32.042 159.619 44.235zM133.869 8.735c-11.854-6.716-22.503-11.642-36.5-7.5C110.17-0.881 120.844 3.054 133.869 8.735zM82.869-2.015c-10.119 0.956-17.762 5.85-18.528 15.99C65.948 3.828 73.604-0.092 82.869-2.015zM75.254 13.19C77.523 1.846 85.291-0.489 94.426-2.125 84.84-1.67 75.651 1.79 75.254 13.19z" id="SvgjsPath163745"></path><path stroke="none" opacity="1" stroke-width="none" fill="#26130b" d="M119.669-2.115c-35.293-11.496-50.395-2.204-62.85 16.12 -5.104 0.782-9.536 4.29-12.88 8.21 -15.82 18.468-10.556 38.009-7.88 52.76 4.675 3.016 7.39 11.212 9.05 16.18 4.515-16.777-3.539-62.465 34.2-59.55 20.792 2.347 23.297-3.704 38.46-3.38 25.709-1.096 36.541 36.643 37.29 62.45 1.127-3.874 3.839-13.236 6.659-16.08C163.233 55.411 174.156 13.812 119.669-2.115zM160.739 74.995c-2.396 2.86-4.208 7.944-5.22 11.51 0.247-23.89-10.323-61.938-37.74-61.06 -15.95-0.254-17.956 5.64-38.19 3.59 -18.563-1.35-28.966 9.705-32.23 26.71 -1.966 9.824-0.408 22.838-2.2 33.51 -1.491-4.808-4.014-11.26-8.21-14.08 -1.698-18.831-5.956-33.256 8.28-51.85 3.022-3.928 8.035-7.64 12.89-8.72 6.947-7.295 15.002-29.315 60.86-14.46C167.916 14.516 162.6 50.069 160.739 74.995z" id="SvgjsPath163746"></path></g><g id="svga-group-glasses-single"><path opacity="0.2" stroke-width="none" fill="#ffffff" d="M142.29 97.41c-4.18 2.89-9.99 4.5-16.48 3.86 -10.05-0.98-16.01-7.51-18.24-13.28 -1.93-4.85-1.14-8.25 2.64-11.36 2.87-2.36 8.27-4.17 14.16-4.76C135.43 75.65 145.22 86.87 142.29 97.41zM67.01 71.94c-6.66 0.84-12.69 3.67-15.12 9.47 -4.22 10.71 7.21 21.33 22.29 19.86 4.2-0.41 7.68-1.8 10.48-3.69C87.73 87.06 78.04 75.82 67.01 71.94z" id="SvgjsPath163833"></path><path opacity="0.4" stroke-width="none" fill="#ffffff" d="M142.29 97.41c2.93-10.54-6.86-21.75-17.91-25.54 9.5-0.95 20.27 1.28 23.73 9.54C150.51 87.51 147.83 93.58 142.29 97.41zM89.78 76.62c-4.25-3.5-14.06-5.79-22.77-4.68 11.03 3.88 20.72 15.12 17.65 25.64 3.89-2.63 6.46-6.23 7.76-9.6C94.36 83.14 93.57 79.74 89.78 76.62z" id="SvgjsPath163834"></path><path stroke="none" opacity="1" stroke-width="none" fill="#604ab3" d="M153.71 83.76c-0.2-0.95-0.69-2.01-1.04-2.35 -0.7-0.7-2.57-1.14-3.87-1.19 -6.82-14.51-37.85-11.21-42.69-0.22 -3.34-1.97-8.87-1.98-12.23 0 -4.85-11-35.88-14.29-42.69 0.22 -1.3 0.05-3.17 0.49-3.87 1.19 -0.34 0.34-0.84 1.4-1.04 2.35 -0.13 0.63-0.6 1.16-0.44 1.53 0.44 1 1.33 0.38 1.71 0.13 0.29-0.1 1.55 0.06 2.36 0.69 0.08 9.47 10.7 17.59 24.38 16.25 13.97-1.36 21.1-13.38 20.15-20.44 1.91-1.42 9.19-1.43 11.11 0 -0.95 7.05 6.18 19.07 20.15 20.44 13.67 1.34 24.3-6.78 24.38-16.25 0.81-0.63 2.06-0.79 2.36-0.69 0.38 0.25 1.28 0.87 1.72-0.13C154.31 84.92 153.84 84.39 153.71 83.76zM50.03 84.34c-0.7-0.33-1.46-0.53-2.11-0.53 0.14-0.52 0.37-1.11 0.53-1.27 0.26-0.26 1.12-0.64 2.07-0.61C50.28 82.71 50.12 83.52 50.03 84.34zM91.98 87.81c-2.16 5.6-7.98 12.01-17.83 12.98 -14.85 1.45-25.84-8.92-21.8-19.2 0.1-0.24 0.15-0.35 0.22-0.54C58.11 68.82 82.13 70.96 89.48 77 92.8 79.73 93.99 82.75 91.98 87.81zM125.86 100.79c-9.85-0.96-15.68-7.38-17.84-12.98 -2.02-5.06-0.82-8.08 2.5-10.81 7.35-6.04 31.36-8.17 36.91 4.04 0.07 0.2 0.13 0.3 0.22 0.54C151.7 91.86 140.7 102.24 125.86 100.79zM149.97 84.34c-0.1-0.82-0.25-1.63-0.49-2.41 0.95-0.03 1.81 0.34 2.07 0.61 0.16 0.17 0.39 0.75 0.53 1.27C151.43 83.82 150.67 84.01 149.97 84.34z" id="SvgjsPath163835"></path></g></g></g><rect style="display:none;" opacity="0.5" fill="#ecf0f1" y="185" x="0" height="15" width="200" id="SvgjsRect163557"></rect><text y="185" x="100" fill="#000000" font-weight="400" text-anchor="middle" font-size="0.84em" style="font-size:0.84em;font-family:&quot;Roboto&quot;, &quot;Helvetica Neue&quot;, Helvetica, Arial, sans-serif;text-anchor:middle;font-weight:400;display:none;" font-family="&quot;Roboto&quot;, &quot;Helvetica Neue&quot;, Helvetica, Arial, sans-serif" id="SvgjsText163558"><tspan style="font-size:0.84em;font-family:&quot;Roboto&quot;, &quot;Helvetica Neue&quot;, Helvetica, Arial, sans-serif;text-anchor:middle;font-weight:400;" x="100" dy="1.2em" id="SvgjsTspan163559">Created on todream.eu</tspan></text></g><defs id="SvgjsDefs163522"><radialGradient class="svga-on-canvas-facehighlight-gradient-single-0" gradientUnits="userSpaceOnUse" r="41" cy="114" cx="100" id="SvgjsRadialGradient163573"><stop offset="0" stop-color="#f0beb7" stop-opacity="0.5" id="SvgjsStop163574"></stop><stop offset="0.9" stop-color="#e19e95" stop-opacity="0" id="SvgjsStop163575"></stop></radialGradient><radialGradient class="svga-on-canvas-facehighlight-gradient-single-1" gradientUnits="userSpaceOnUse" r="37" cy="54" cx="100" id="SvgjsRadialGradient163577"><stop offset="0" stop-color="#f0beb7" stop-opacity="0.5" id="SvgjsStop163578"></stop><stop offset="0.9" stop-color="#e19e95" stop-opacity="0" id="SvgjsStop163579"></stop></radialGradient><radialGradient class="svga-on-canvas-eyesiris-gradient-left-2" gradientUnits="userSpaceOnUse" gradientTransform="matrix(0.0991 8.856319e-004 -0.0011 0.0991 131.1134 135.9855)" r="59.745" cy="-519.099" cx="-582.838" id="SvgjsRadialGradient163666"><stop offset="0" stop-color="#ffffff" stop-opacity="1" id="SvgjsStop163667"></stop><stop offset="1" stop-color="#ffffff" stop-opacity="0" id="SvgjsStop163668"></stop></radialGradient><linearGradient class="svga-on-canvas-eyesiris-gradient-left-5" gradientUnits="userSpaceOnUse" gradientTransform="matrix(1 0 0 1 -52 0)" y2="87.152" x2="123.606" y1="88.268" x1="122.67" id="SvgjsLinearGradient163672"><stop offset="0" stop-color="#ffffff" stop-opacity="1" id="SvgjsStop163673"></stop><stop offset="1" stop-color="#ffffff" stop-opacity="0" id="SvgjsStop163674"></stop></linearGradient><linearGradient class="svga-on-canvas-eyesiris-gradient-left-6" gradientUnits="userSpaceOnUse" gradientTransform="matrix(1 0 0 1 -52 0)" y2="83.189" x2="126.463" y1="82.296" x1="127.212" id="SvgjsLinearGradient163676"><stop offset="0" stop-color="#ffffff" stop-opacity="1" id="SvgjsStop163677"></stop><stop offset="1" stop-color="#ffffff" stop-opacity="0" id="SvgjsStop163678"></stop></linearGradient><linearGradient class="svga-on-canvas-eyesiris-gradient-left-7" gradientUnits="userSpaceOnUse" gradientTransform="matrix(1 0 0 1 -52 0)" y2="81.879" x2="127.91" y1="79.822" x1="129.636" id="SvgjsLinearGradient163680"><stop offset="0" stop-color="#ffffff" stop-opacity="1" id="SvgjsStop163681"></stop><stop offset="1" stop-color="#ffffff" stop-opacity="0" id="SvgjsStop163682"></stop></linearGradient><radialGradient class="svga-on-canvas-eyesiris-gradient-right-2" gradientUnits="userSpaceOnUse" gradientTransform="matrix(0.0991 8.856319e-004 -0.0011 0.0991 183.1126 135.9856)" r="59.747" cy="-519.102" cx="-582.833" id="SvgjsRadialGradient163689"><stop offset="0" stop-color="#ffffff" stop-opacity="1" id="SvgjsStop163690"></stop><stop offset="1" stop-color="#ffffff" stop-opacity="0" id="SvgjsStop163691"></stop></radialGradient><linearGradient class="svga-on-canvas-eyesiris-gradient-right-5" gradientUnits="userSpaceOnUse" y2="87.152" x2="123.606" y1="88.268" x1="122.67" id="SvgjsLinearGradient163695"><stop offset="0" stop-color="#ffffff" stop-opacity="1" id="SvgjsStop163696"></stop><stop offset="1" stop-color="#ffffff" stop-opacity="0" id="SvgjsStop163697"></stop></linearGradient><linearGradient class="svga-on-canvas-eyesiris-gradient-right-6" gradientUnits="userSpaceOnUse" y2="83.189" x2="126.463" y1="82.296" x1="127.212" id="SvgjsLinearGradient163699"><stop offset="0" stop-color="#ffffff" stop-opacity="1" id="SvgjsStop163700"></stop><stop offset="1" stop-color="#ffffff" stop-opacity="0" id="SvgjsStop163701"></stop></linearGradient><linearGradient class="svga-on-canvas-eyesiris-gradient-right-7" gradientUnits="userSpaceOnUse" y2="81.879" x2="127.91" y1="79.822" x1="129.636" id="SvgjsLinearGradient163703"><stop offset="0" stop-color="#ffffff" stop-opacity="1" id="SvgjsStop163704"></stop><stop offset="1" stop-color="#ffffff" stop-opacity="0" id="SvgjsStop163705"></stop></linearGradient><radialGradient class="svga-on-canvas-eyesback-gradient-left-0" gradientUnits="userSpaceOnUse" gradientTransform="matrix(-1.0592 4.000000e-004 -4.000000e-004 0.9318 206.5112 5.1767)" r="12.84" cy="82.93" cx="125.379" id="SvgjsRadialGradient163764"><stop offset="0" stop-color="#ffffff" stop-opacity="1" id="SvgjsStop163765"></stop><stop offset="0.544" stop-color="#fdfefe" stop-opacity="1" id="SvgjsStop163766"></stop><stop offset="0.74" stop-color="#f6f8f9" stop-opacity="1" id="SvgjsStop163767"></stop><stop offset="0.879" stop-color="#eaeff2" stop-opacity="1" id="SvgjsStop163768"></stop><stop offset="0.992" stop-color="#d9e3e8" stop-opacity="1" id="SvgjsStop163769"></stop><stop offset="1" stop-color="#d8e2e7" stop-opacity="1" id="SvgjsStop163770"></stop></radialGradient><radialGradient class="svga-on-canvas-eyesback-gradient-right-0" gradientUnits="userSpaceOnUse" gradientTransform="matrix(1.0592 4.000000e-004 4.000000e-004 0.9318 -6.5112 5.1767)" r="12.841" cy="82.93" cx="125.001" id="SvgjsRadialGradient163772"><stop offset="0" stop-color="#ffffff" stop-opacity="1" id="SvgjsStop163773"></stop><stop offset="0.544" stop-color="#fdfefe" stop-opacity="1" id="SvgjsStop163774"></stop><stop offset="0.74" stop-color="#f6f8f9" stop-opacity="1" id="SvgjsStop163775"></stop><stop offset="0.879" stop-color="#eaeff2" stop-opacity="1" id="SvgjsStop163776"></stop><stop offset="0.992" stop-color="#d9e3e8" stop-opacity="1" id="SvgjsStop163777"></stop><stop offset="1" stop-color="#d8e2e7" stop-opacity="1" id="SvgjsStop163778"></stop></radialGradient><radialGradient class="svga-on-canvas-eyesfront-gradient-left-0" gradientUnits="userSpaceOnUse" gradientTransform="matrix(-1.0592 4.000000e-004 -4.000000e-004 0.9318 206.5112 5.1767)" r="12.84" cy="82.93" cx="125.379" id="SvgjsRadialGradient163780"><stop offset="0" stop-color="#ffffff" stop-opacity="1" id="SvgjsStop163781"></stop><stop offset="0.544" stop-color="#fdfefe" stop-opacity="1" id="SvgjsStop163782"></stop><stop offset="0.74" stop-color="#f6f8f9" stop-opacity="1" id="SvgjsStop163783"></stop><stop offset="0.879" stop-color="#eaeff2" stop-opacity="1" id="SvgjsStop163784"></stop><stop offset="0.992" stop-color="#d9e3e8" stop-opacity="1" id="SvgjsStop163785"></stop><stop offset="1" stop-color="#d8e2e7" stop-opacity="1" id="SvgjsStop163786"></stop></radialGradient><radialGradient class="svga-on-canvas-eyesfront-gradient-left-3" gradientUnits="userSpaceOnUse" gradientTransform="matrix(0.9998 0.0183 0.0166 -0.7038 -47.7588 136.6255)" r="17.898" fy="77.197" fx="133.802" cy="81.096" cx="123.218" id="SvgjsRadialGradient163790"><stop offset="0" stop-color="#d28176" stop-opacity="1" id="SvgjsStop163791"></stop><stop offset="0.7" stop-color="#d28176" stop-opacity="0.3" id="SvgjsStop163792"></stop><stop offset="1" stop-color="#e19e95" stop-opacity="0" id="SvgjsStop163793"></stop></radialGradient><radialGradient class="svga-on-canvas-eyesfront-gradient-left-4" gradientUnits="userSpaceOnUse" gradientTransform="matrix(1.0971 -0.0499 0.0576 0.9543 -20.1632 27.912)" r="23.208" cy="81.496" cx="79.496" id="SvgjsRadialGradient163795"><stop offset="0.9" stop-color="#000000" stop-opacity="0" id="SvgjsStop163796"></stop><stop offset="1" stop-color="#000000" stop-opacity="0.2" id="SvgjsStop163797"></stop></radialGradient><radialGradient class="svga-on-canvas-eyesfront-gradient-right-0" gradientUnits="userSpaceOnUse" gradientTransform="matrix(1.0592 4.000000e-004 4.000000e-004 0.9318 -6.5112 5.1767)" r="12.841" cy="82.93" cx="125.001" id="SvgjsRadialGradient163801"><stop offset="0" stop-color="#ffffff" stop-opacity="1" id="SvgjsStop163802"></stop><stop offset="0.544" stop-color="#fdfefe" stop-opacity="1" id="SvgjsStop163803"></stop><stop offset="0.74" stop-color="#f6f8f9" stop-opacity="1" id="SvgjsStop163804"></stop><stop offset="0.879" stop-color="#eaeff2" stop-opacity="1" id="SvgjsStop163805"></stop><stop offset="0.992" stop-color="#d9e3e8" stop-opacity="1" id="SvgjsStop163806"></stop><stop offset="1" stop-color="#d8e2e7" stop-opacity="1" id="SvgjsStop163807"></stop></radialGradient><radialGradient class="svga-on-canvas-eyesfront-gradient-right-3" gradientUnits="userSpaceOnUse" gradientTransform="matrix(-0.9998 0.0183 -0.0166 -0.7038 246.9601 136.6328)" r="17.898" fy="77.197" fx="133.402" cy="81.096" cx="122.818" id="SvgjsRadialGradient163811"><stop offset="0" stop-color="#d28176" stop-opacity="1" id="SvgjsStop163812"></stop><stop offset="0.7" stop-color="#d28176" stop-opacity="0.3" id="SvgjsStop163813"></stop><stop offset="1" stop-color="#e19e95" stop-opacity="0" id="SvgjsStop163814"></stop></radialGradient><radialGradient class="svga-on-canvas-eyesfront-gradient-right-4" gradientUnits="userSpaceOnUse" gradientTransform="matrix(-1.0971 -0.0499 -0.0576 0.9543 220.163 27.9157)" r="23.208" cy="81.511" cx="79.859" id="SvgjsRadialGradient163816"><stop offset="0.9" stop-color="#000000" stop-opacity="0" id="SvgjsStop163817"></stop><stop offset="1" stop-color="#000000" stop-opacity="0.2" id="SvgjsStop163818"></stop></radialGradient><linearGradient class="svga-on-canvas-eyesiris-gradient-left-1" gradientUnits="userSpaceOnUse" gradientTransform="matrix(1 0 0 1 -50 0)" y2="81.88" x2="125.91" y1="79.822" x1="127.637" id="SvgjsLinearGradient163823"><stop offset="0" stop-color="#ffffff" stop-opacity="1" id="SvgjsStop163824"></stop><stop offset="1" stop-color="#ffffff" stop-opacity="0" id="SvgjsStop163825"></stop></linearGradient><linearGradient class="svga-on-canvas-eyesiris-gradient-right-1" gradientUnits="userSpaceOnUse" y2="81.881" x2="127.91" y1="79.823" x1="129.637" id="SvgjsLinearGradient163828"><stop offset="0" stop-color="#ffffff" stop-opacity="1" id="SvgjsStop163829"></stop><stop offset="1" stop-color="#ffffff" stop-opacity="0" id="SvgjsStop163830"></stop></linearGradient><linearGradient class="svga-on-canvas-mouth-gradient-single-0" gradientUnits="userSpaceOnUse" y2="139" x2="100" y1="142" x1="100" id="SvgjsLinearGradient163837"><stop offset="0.1" stop-color="#d98f85" stop-opacity="1" id="SvgjsStop163838"></stop><stop offset="1" stop-color="#d28176" stop-opacity="1" id="SvgjsStop163839"></stop></linearGradient><linearGradient class="svga-on-canvas-chinshadow-gradient-single-0" gradientUnits="userSpaceOnUse" y2="128" x2="100" y1="171" x1="100" id="SvgjsLinearGradient163864"><stop offset="0" stop-color="#d28176" stop-opacity="0.8" id="SvgjsStop163865"></stop><stop offset="0.7" stop-color="#b34e41" stop-opacity="1" id="SvgjsStop163866"></stop></linearGradient></defs></svg>