<svg xmlns="http://www.w3.org/2000/svg" version="1.1" width="600px" height="600px" xlink="http://www.w3.org/1999/xlink" style="overflow:hidden!important;"><g id="svga-group-wrapper" transform="scale(3 3)"><g id="svga-group-backs-single"></g><g id="svga-group-subwrapper"><g id="svga-group-hair-back"><path stroke="none" opacity="1" stroke-width="none" fill="#6b4e40" d="M100.5,100.5h-1v-1h1V100.5z" id="SvgjsPath162703"></path></g><g id="svga-group-humanbody-single"><path stroke="none" opacity="1" stroke-width="none" fill="#f6e4e2" d="M195.417 199.778c-2.196-4.746-8.195-11.779-14.86-13.722 -8.239-2.403-26.837-5.308-33.733-6.923 -5.528-1.296-16.662-11.294-20.564-14.65 -0.7-0.6-1.273-1.839-1.287-2.76 -0.139-10.864 4.195-39.724 4.195-39.724H100 70.833c0 0 4.334 28.859 4.193 39.724 -0.011 0.921-0.587 2.16-1.285 2.76 -3.902 3.356-15.036 13.354-20.564 14.65 -6.897 1.615-25.495 4.619-33.733 7.022 -6.667 1.942-12.664 8.876-14.86 13.622 -3.708 8.008-4.584 22.5-4.584 35h100 100C200 222.278 199.123 207.786 195.417 199.778z" id="SvgjsPath162544"></path><path stroke="none" opacity="1" stroke-width="none" fill="#ffffff" d="M159.156 184.058c24.342 3.542 34.586 8.708 37.794 50.721H200c0-12.5-0.877-26.992-4.583-35 -2.196-4.746-8.195-11.779-14.86-13.722 -8.239-2.403-26.837-5.308-33.733-6.923 -5.528-1.296-18.242-12.069-21.643-16.35 3.36 4.704 12.791 15.605 21.054 18.46C150.188 182.61 153.48 183.232 159.156 184.058zM53.766 181.244c8.263-2.854 17.693-13.756 21.054-18.46 -3.4 4.28-16.114 15.054-21.643 16.35 -6.896 1.615-25.494 4.619-33.733 7.022 -6.665 1.942-12.664 8.876-14.86 13.622 -3.706 8.008-4.583 22.5-4.583 35h3.05c3.188-41.744 13.475-47.183 37.794-50.721C46.52 183.232 49.813 182.61 53.766 181.244z" id="SvgjsPath162545"></path><path stroke="none" opacity="1" stroke-width="none" fill="#e7c1bd" d="M95.646 197.62c0 0-5.074-1.609-7.083-2.379 -10.449-4.009-44.395-6.607-44.395-6.607s35.754 1.419 43.644 2.779c-0.458-4.767-3.017-20.004-3.017-20.004s5.149 16.815 6.409 21.057C91.878 194.734 95.646 197.62 95.646 197.62zM106.445 196.278c-0.089 0.073-0.191 0.168-0.302 0.268C106.256 196.461 106.358 196.372 106.445 196.278zM95.646 197.62c0 0 2.893 2.992 4.347 3.03 1.91 0.051 4.828-2.899 6.151-4.104 -1.265 0.957-4.159 1.391-5.31 1.436C99.504 198.033 95.646 197.62 95.646 197.62zM116.664 190.101c-1.545 0.248-4.386 0.789-4.386 0.789l2.287-14.89c-0.646 3.071-4.474 16.211-8.12 20.278 1.91-1.616 6.158-2.391 8.324-2.704 10.236-1.484 10.232-1.483 41.062-4.94C155.831 188.634 126.76 188.479 116.664 190.101z" id="SvgjsPath162546"></path><path opacity="1" stroke-width="1.5" stroke="#c8837c" fill="none" d="M195.417 199.778c-2.196-4.746-8.195-11.779-14.86-13.722 -8.239-2.403-26.837-5.308-33.733-6.923 -5.528-1.296-16.662-11.294-20.564-14.65 -0.7-0.6-1.273-1.839-1.287-2.76 -0.139-10.864 4.195-39.724 4.195-39.724H100 70.833c0 0 4.334 28.859 4.193 39.724 -0.011 0.921-0.587 2.16-1.285 2.76 -3.902 3.356-15.036 13.354-20.564 14.65 -6.897 1.615-25.495 4.619-33.733 7.022 -6.667 1.942-12.664 8.876-14.86 13.622 -3.708 8.008-4.584 22.5-4.584 35h100 100C200 222.278 199.123 207.786 195.417 199.778z" id="SvgjsPath162547"></path></g><g id="svga-group-chinshadow-single"><path opacity="1" fill="url(#SvgjsLinearGradient162831)" d="M103.705 170.189c5.292-1.558 13.31-7.012 20.631-12.852 0.352-6.636 1.433-15.887 2.396-23.284 -14.957-2.455-38.464-2.408-53.454 0.081 0.95 7.3 2.01 16.38 2.372 22.974 7.055 5.816 14.789 11.372 20.685 13.087C97.144 170.431 102.896 170.428 103.705 170.189z" id="SvgjsPath162830"></path></g><g id="svga-group-clothes-single"><path stroke="none" opacity="1" stroke-width="none" fill="#591956" d="M-4.807 234.6c1.472-10.806-0.208-11.777 4.116-33.015 1.228-7.384 2.66-13.32 8.141-10.607 4.045-6.008 15.513-6.566 57.339-20.658v-0.258c0.278-1.001 2.706-4.267 3.099-9.897 0.383-5.449 2.718-9.56 5.614-11.604 -6.746 23.685 23.144 14.953 24.208 31.108 0.084 1.273-0.974 10.149-0.813 10.969 3.355-0.679 6.721-0.684 10.359-0.645 -3.928-15.24-0.545-16.872 7.344-19.838 9.564-3.591 12.873-7.169 12.01-20.697 4.57 4.109 1.516 9.7 7.174 17.534 36.249 13.159 50.02 16.863 56.963 21.507 5.981-4.517 9.697 2.65 17.292 46.103C136.218 235.212 54.269 235.12-4.807 234.6z" id="SvgjsPath162815"></path><path stroke="none" opacity="1" stroke-width="none" fill="#4a0d47" d="M92.119 197.235c0.304-0.029 3.375-5.505 3.375-5.505 5.764-2.145 18.375 2.005 34.019-10.176C117.994 199.61 97.143 186.737 92.119 197.235zM70.115 179.378c8.754 10.018 23.629 13.732 26.773 10.686C96.885 190.135 79.619 189.396 70.115 179.378z" id="SvgjsPath162816"></path><path stroke="none" opacity="1" stroke-width="none" fill="#3a0538" d="M73.607 149.423c0 0 0.705 6.944 0.82 11.739C72.326 156.482 71.897 155.232 73.607 149.423z" id="SvgjsPath162817"></path><path stroke="none" opacity="1" stroke-width="none" fill="#682865" d="M4.781 194.15C0 207.902-0.398 222.744-3.298 234.612c-0.693-0.006-0.823 0.293-1.509 0.287 1.472-10.806-0.208-12.355 4.116-33.593 1.228-7.384 2.66-13.32 8.141-10.607 4.045-6.008 15.513-6.566 57.339-20.658v-0.258c0.278-1.001 2.706-4.267 3.099-9.897 0.345-4.904 2.622-9.431 5.25-11.325 -5.936 6.453-1.918 18.345-8.092 22.976C53.103 178.967 18.588 187.846 4.781 194.15zM190.747 188.499c-6.943-4.644-20.714-8.348-56.963-21.507 -5.658-7.834-2.604-13.425-7.174-17.534 0.063 1.001-0.018 0.613 0 1.51 2.161-0.43 2.695 15.819 7.443 18.193 19 9 45.261 17.317 59.521 22.632 6.636 10.021 8.157 26.964 13.401 42.817 1.067-0.009 0 0 1.063-0.009C200.444 191.149 196.729 183.982 190.747 188.499zM125.992 162.465c-7.33 12.798-21.646 4.662-20.242 19.81C108.488 167.635 121.171 175.921 125.992 162.465zM97.372 184.295c2.628-16.491-15.517-13.785-23.633-23.296C78.812 171.409 95.553 168.227 97.372 184.295z" id="SvgjsPath162818"></path><path stroke="none" opacity="1" stroke-width="none" fill="#2b0029" d="M196.139 187.915c-1.581-1.609-3.779-1.259-5.409-0.029 -7.133-4.756-26.235-9.496-56.63-21.609 0 0-2.289-2.963-3.469-8.017 -0.783-3.353-0.308-7.087-4.192-9.838 -0.749 9.286-0.411 16.736-9.51 20.304 -8.959 3.582-14.71 3.744-10.319 20.76 -2.301-0.026-6.457-0.018-9.318 0.563 -0.058-0.295 1.027-8.769 0.918-10.412 -1.014-15.376-28.515-9.625-24.93-27.551 0.33-1.649 0.454-2.542 0.187-3.81 -3.67 1.92-5.337 6.074-5.847 9.51 -0.556 3.889 0.319 4.852-3.32 12.13 0 0.011-0.01 0.021-0.01 0.03 -0.17 0.05-0.35 0.11-0.53 0.17 -41.434 13.791-52.827 14.785-56.48 20.22 -5.931-2.941-7.458 5.121-8.46 11.15 -4.398 21.597-2.602 22.344-4.2 33.61 1 0 109.661 0.96 212.96 0.01 0.36 0 0.71-0.01 1.06-0.01C208.319 233.75 202.222 193.853 196.139 187.915zM117.52 170.155c9.877-4.015 9.506-9.654 9.367-19.766 3.437 1.52 0.914 8.914 6.792 16.516 0 4.854-1.267 9.955-4.229 13.46 -5.51 6.101-14.719 9.317-22.23 9.13C104.685 173.337 107.914 174.091 117.52 170.155zM68.349 159.005c0.062-2.714 2.16-8.263 4.9-10.1 -8.723 23.076 22.427 15.489 23.73 31.92 0.027 0.457-0.38 8.333-0.39 8.84 -16.104-1.896-23.674-5.555-31.64-19.189 0.02-0.04 0.04-0.08 0.06-0.12 0.01 0.01 0.01 0 0.01 0C67.547 165.299 68.017 164.151 68.349 159.005zM-4.591 234.455c1.436-5.179 1.375-14.908 4.04-28.63 1.58-7.847 1.629-17.345 7.48-15.03 0.02 0 0.03 0.011 0.04 0.011 3.516 8.49 11.016 31.499 11.33 32.5 0.155 0.456 2.074 8.248 2.56 9.89 -2.124-16.99-11.493-39.731-12.99-42.14 4.051-4.15 3.094-2.325 35.92-12.7 7.099-2.245 19.409-7.106 20.27-7.601 9.185 19.855 28.548 19.105 32.33 19.521 -11.02 3.397-4.729 31.249-3.77 40.96 -0.163-7.896-3.465-29.31 1.25-36.84 0 0 0.648-1.301 3.14-2.38 6.946-2.627 15.325 2.951 29.95-7.34 4.758-4.518 7.13-7.39 7.13-17.53 24.029 11.337 46.962 16.747 56.11 21.7 -0.013 0.081-0.05 0.414-0.05 0.42 -1.544 13.248 1.243-1.169-4.4 28.689 -1.47 8.541-0.406 5.667-1.13 13.28 1.481-7.851-0.067-3.756 2.12-13.12 4.586-19.338 3.858-22.946 4.16-29.39 3.326-2.396 5.107 0.213 6.399 3.96 4.836 14.695 7.982 34.133 10.09 41.76C141.558 233.843 61.242 233.874-4.591 234.455zM107.847 202.681c-3.239 1.259-7.306 0.944-10.905 0.433C103.167 202.238 107.208 202.645 107.847 202.681z" id="SvgjsPath162819"></path></g><g id="svga-group-head"><g id="svga-group-ears-left"><path opacity="1" stroke-width="1.5" stroke="#c8837c" fill="#f6e4e2" d="M47.34 82.506c-1.378-2.405-9.403-6.675-11.855-6.501 -4.229 0.299-5.137 5.269-5.446 7.648 -0.609 4.696 0.645 10 1.485 13.201 0.687 2.615 2.874 7.578 4.214 9.883 1.197 2.062 4.145 5.792 5.733 7.525 1.398 1.529 4.73 4.311 7.248 3.632 2.769-0.744 6.015-3.945 6.239-5.312C56.165 105.172 50.926 88.763 47.34 82.506z" id="SvgjsPath162810"></path><path stroke="none" opacity="1" stroke-width="none" fill="#c8837c" d="M42.903 99.38c-0.142-0.584 0.007-1.569 0.151-2.521 0.131-0.868 0.255-1.686 0.18-2.265 -0.284-2.169-1.888-6.29-2.936-8.524 -1.206-2.568-3.157-5.803-5.602-6.639 -1.011-0.346-2.073-0.522-2.145-0.241 -0.611 1.943-0.563 7.341-0.212 11.338 0.987 11.242 10.375 19.34 11.872 21.045 0.276 0.314 0.566 0.501 0.637 0.426 0.072-0.076-0.1-0.388-0.375-0.704 -1.477-1.692-8.314-8.684-9.27-13.098 -1.012-4.685 3-12.386 3.776-13.855 0.397 0.69 0.732 1.352 0.991 1.904 0.204 0.434 0.429 0.941 0.66 1.489 -0.456 0.767-3.656 6.36-2.489 10.836 0.431 1.651 2.379 3.778 3.67 4.362 0.71 0.321 0.978 0.801 1.287 1.355 0.359 0.645 0.765 1.374 1.946 1.903 0.24 0.108 0.457 0.151 0.649 0.151 0.333 0 0.586-0.135 0.773-0.295 0.019 0.282-0.349 2.52-0.357 2.853 -0.012 0.431 0.045 0.787 0.146 0.796 0.101 0.008 0.207-0.334 0.221-0.766 0.016-0.529 0.379-3.061 0.289-3.372 -0.264-0.923-1.073-1.964-1.93-3.068C43.994 101.407 43.122 100.284 42.903 99.38zM34.428 95.416c-2.316-7.184 1.456-13.479 1.977-14.464 0.906 0.826 1.704 1.932 2.354 3.015C38.286 84.83 34.526 90.584 34.428 95.416zM45.187 105.831c-1.069-0.479-1.427-1.12-1.774-1.742 -0.313-0.562-0.637-1.143-1.458-1.515 -0.179-0.082-0.375-0.204-0.576-0.346 -2.646-6.304 0.289-9.059 1.025-9.625 0.226 0.771 0.394 1.478 0.468 2.045 0.067 0.521-0.058 1.348-0.179 2.148 -0.149 0.992-0.305 2.018-0.144 2.681 0.239 0.989 1.137 2.146 2.005 3.263 0.771 0.993 1.562 2.015 1.832 2.849C46.271 105.757 45.905 106.155 45.187 105.831z" id="SvgjsPath162811"></path></g><g id="svga-group-ears-right"><path opacity="1" stroke-width="1.5" stroke="#c8837c" fill="#f6e4e2" d="M152.398 82.506c1.377-2.405 9.402-6.675 11.855-6.501 4.229 0.299 5.137 5.269 5.445 7.648 0.609 4.696-0.645 10-1.484 13.201 -0.688 2.615-2.875 7.578-4.215 9.883 -1.197 2.062-4.145 5.792-5.732 7.525 -1.398 1.529-4.73 4.311-7.248 3.632 -2.77-0.744-6.016-3.945-6.238-5.312C143.574 105.172 148.813 88.763 152.398 82.506z" id="SvgjsPath162812"></path><path stroke="none" opacity="1" stroke-width="none" fill="#c8837c" d="M154.902 102.491c-0.855 1.104-1.666 2.146-1.93 3.068 -0.09 0.312 0.273 2.843 0.289 3.372 0.014 0.432 0.119 0.773 0.221 0.766 0.102-0.009 0.158-0.365 0.146-0.796 -0.01-0.333-0.377-2.57-0.357-2.853 0.188 0.16 0.439 0.295 0.771 0.295 0.193 0 0.41-0.043 0.65-0.151 1.182-0.53 1.588-1.259 1.945-1.903 0.311-0.555 0.578-1.034 1.287-1.355 1.291-0.584 3.24-2.711 3.67-4.362 1.168-4.476-2.031-10.07-2.488-10.836 0.23-0.548 0.457-1.056 0.66-1.489 0.26-0.552 0.594-1.214 0.99-1.904 0.777 1.469 4.789 9.17 3.777 13.855 -0.955 4.415-7.793 11.406-9.27 13.098 -0.275 0.316-0.447 0.628-0.375 0.704 0.072 0.075 0.361-0.111 0.637-0.426 1.498-1.705 10.885-9.803 11.873-21.045 0.35-3.997 0.396-9.395-0.213-11.338 -0.072-0.281-1.135-0.104-2.145 0.241 -2.445 0.836-4.396 4.071-5.604 6.639 -1.047 2.234-2.65 6.354-2.936 8.524 -0.076 0.579 0.049 1.397 0.18 2.265 0.145 0.951 0.293 1.936 0.15 2.521C156.617 100.284 155.744 101.407 154.902 102.491zM160.979 83.966c0.65-1.083 1.449-2.188 2.355-3.015 0.52 0.986 4.291 7.28 1.977 14.464C165.211 90.584 161.453 84.83 160.979 83.966zM153.352 105.59c0.271-0.834 1.063-1.856 1.832-2.849 0.869-1.118 1.766-2.274 2.006-3.263 0.16-0.663 0.006-1.689-0.145-2.681 -0.121-0.8-0.246-1.627-0.178-2.148 0.074-0.567 0.242-1.273 0.467-2.045 0.736 0.566 3.672 3.321 1.025 9.625 -0.201 0.142-0.396 0.264-0.576 0.346 -0.82 0.372-1.145 0.953-1.457 1.515 -0.348 0.622-0.705 1.263-1.775 1.742C153.834 106.155 153.467 105.757 153.352 105.59z" id="SvgjsPath162813"></path></g><g id="svga-group-faceshape-wrap"><g id="svga-group-faceshape-single"><path opacity="1" stroke-width="none" fill="#f6e4e2" d="M138.275 134.933c-7.56 7.762-25.273 22.52-34.57 25.257 -0.809 0.238-6.561 0.241-7.37 0.006 -10.402-3.025-26.524-18.002-34.545-25.284 -0.698-0.634-1.876-2.14-2.323-2.97 -6.875-12.77-18.452-54.948-18.462-54.995 -1.3-4.911-1.996-10.066-2.004-15.382C38.949 28.09 66.155 0.919 99.773 0.867c33.621-0.052 60.913 27.033 60.964 60.507 0.009 5.316-0.669 10.473-1.952 15.389 -0.015 0.047-11.729 42.121-18.293 55.052C140.06 132.667 138.942 134.247 138.275 134.933z" id="SvgjsPath162827"></path><path opacity="1" stroke-width="none" fill="#eed2cf" d="M122.923 5.375c19.396 9.496 32.911 30.588 32.944 55.131 0.009 5.316-0.615 10.473-1.796 15.389 -0.013 0.047-10.79 42.121-16.829 55.053 -0.398 0.852-1.426 2.432-2.039 3.117 -6.955 7.762-23.252 22.52-31.805 25.258 -0.744 0.238-6.036 0.24-6.781 0.006 -9.57-3.025-24.402-18.002-31.782-25.285 -0.642-0.633-1.726-2.139-2.137-2.969 -6.325-12.77-16.976-54.948-16.985-54.996 -1.196-4.911-1.836-10.066-1.844-15.382C43.835 36.099 57.351 14.919 76.79 5.389c-22.202 9.066-37.828 30.804-37.789 56.176 0.008 5.316 0.704 10.471 2.004 15.382 0.01 0.047 11.587 42.226 18.462 54.995 0.447 0.83 1.625 2.336 2.323 2.97 8.021 7.282 24.144 22.259 34.545 25.284 0.809 0.235 6.562 0.232 7.37-0.006 9.297-2.737 27.011-17.495 34.57-25.257 0.667-0.686 1.784-2.266 2.217-3.118 6.564-12.932 18.278-55.005 18.293-55.052 1.283-4.916 1.961-10.072 1.952-15.389C160.699 36.059 145.075 14.408 122.923 5.375z" id="SvgjsPath162828"></path><path opacity="1" stroke-width="1.5" stroke="#c8837c" fill="none" d="M138.275 134.933c-7.56 7.762-25.273 22.52-34.57 25.257 -0.809 0.238-6.561 0.241-7.37 0.006 -10.402-3.025-26.524-18.002-34.545-25.284 -0.698-0.634-1.876-2.14-2.323-2.97 -6.875-12.77-18.452-54.948-18.462-54.995 -1.3-4.911-1.996-10.066-2.004-15.382C38.949 28.09 66.155 0.919 99.773 0.867c33.621-0.052 60.913 27.033 60.964 60.507 0.009 5.316-0.669 10.473-1.952 15.389 -0.015 0.047-11.729 42.121-18.293 55.052C140.06 132.667 138.942 134.247 138.275 134.933z" id="SvgjsPath162829"></path></g></g><g id="svga-group-mouth-single"><path stroke="none" opacity="1" stroke-width="none" fill="#c8837c" d="M100.34 141.925c-1.526 0-2.998-0.193-3.9-0.547 -0.257-0.102-0.384-0.392-0.283-0.648 0.101-0.257 0.39-0.383 0.648-0.283 1.664 0.653 5.855 0.676 7.704-0.193 0.251-0.117 0.548-0.01 0.665 0.239 0.118 0.25 0.011 0.548-0.239 0.665C103.815 141.684 102.044 141.925 100.34 141.925zM115.025 133.444c0.398-0.171 0.584-0.632 0.413-1.031s-0.635-0.583-1.031-0.413c-11.666 4.992-28.742 0.338-28.912 0.292 -0.417-0.116-0.852 0.127-0.968 0.546 -0.116 0.418 0.128 0.851 0.546 0.968 0.463 0.128 7.692 2.1 16.034 2.1C105.727 135.905 110.685 135.301 115.025 133.444z" id="SvgjsPath162806"></path></g><g id="svga-group-eyes-left"><g id="svga-group-eyesback-left"><path opacity="1" fill="url(#SvgjsRadialGradient162725)" d="M84.244 90.599c1.022 0 1.972-0.528 2.513-1.396 0.54-0.868 0.594-1.953 0.143-2.871l-3.079-6.258 -17.826-1.93 -5.955 6.134 4.864 6.321H84.244z" id="SvgjsPath162724"></path></g><g transform="translate(0.5 0.5)" id="svga-group-eyesiriswrapper-left"><g id="svga-group-eyesiriscontrol-left"><g id="svga-group-eyesiris-left"><path stroke="none" opacity="1" stroke-width="none" fill="#7b5c33" d="M80 84c0 3.313-2.687 5.999-6 5.999S68 87.313 68 84c0-3.316 2.687-6.001 6-6.001S80 80.685 80 84z" id="SvgjsPath162782"></path><path stroke="none" opacity="1" stroke-width="none" fill="#8a6d47" d="M70.512 86.805c0.875-0.072 0.1-0.306 0.1-0.306 -0.433-0.233-1.248-0.592-1.248-0.921 0-1.031 1.414-1.299-0.034-1.705 -1.504-1.38 1.167-1.352 1.147-1.398 -0.975-2.376 0.299-1.071 0.835-1.773 1.988-2.599 0.554 0.267 1.633 0 0.391-0.096-0.78-1.531 0.034-1.33 0.539 0.132 0.662 0.58 0.662 0.58 0.393-0.077 1.008-0.682 1.008-0.682 0.749 0.226 1.275 1.29 1.043 1.091 0.368-0.045 0.884-0.221 1.286-0.341 0 0 0.07-0.239 0.139-0.033 0.917 2.661 3.284 2.47 0.559 3.24 0 0-0.176 0 0.382 0.442 2.71 2.164-2.102 1.495 0.451 2.49 0.104-0.104-1.53 0.965-1.53 1.261 0 0.501-1.042 1.818-1.946 1.3 -0.504-0.288-0.581 0.6-0.877 0.19 -0.581-0.803-1.742-0.035-1.313-0.773 0.634-0.521-0.654 0.204-0.904 0.204 -0.828 0 1.083-2.783 3.894-0.715 0.822 0.602-0.864-1.433 0.625-1.433 0.149 0.049 0.104-0.521 0.104-0.682 -0.774-0.151 1.39-0.003 1.39-1.262 0.137 0.027 0.509-0.35-1.635 0 0 0-0.068-0.75-0.034-0.886 0.11-0.438 1.214-0.298 0.904-0.75 0-0.001-0.799-1.604-0.799-1.604 -2.573-0.414-1.102-0.672-2.711-0.341 -0.076 0.378-3.445 1.984-3.338 2.729 0.1 0.702 2.115 0.938 0.208 2.182C73.405 91.051 68.437 85.454 70.512 86.805z" id="SvgjsPath162783"></path><path stroke="none" opacity="1" stroke-width="none" fill="#5c3d14" d="M74 78.749l0.171 4.393 1.837-3.993 -1.523 4.123 3.227-2.985 -2.985 3.226 4.124-1.523 -3.992 1.839 4.392 0.17 -4.392 0.17 3.992 1.839 -4.124-1.523 2.985 3.226 -3.227-2.985 1.523 4.123 -1.837-3.993L74 89.249l-0.171-4.393 -1.838 3.993 1.522-4.123 -3.226 2.985 2.985-3.226 -4.124 1.523 3.992-1.839 -4.39-0.17 4.39-0.17 -3.992-1.839 4.124 1.523 -2.985-3.226 3.226 2.985 -1.522-4.123 1.838 3.993L74 78.749z" id="SvgjsPath162784"></path><path stroke="none" opacity="1" stroke-width="none" fill="#4d3009" d="M74.796 80.067l-0.539 3.315 1.981-2.711 -1.766 2.857 2.87-1.748 -2.725 1.964 3.319-0.515L74.668 84l3.266 0.794 -3.317-0.538 2.712 1.982 -2.858-1.765 1.748 2.869 -1.964-2.725 0.516 3.319 -0.771-3.27 -0.795 3.264 0.539-3.315 -1.984 2.711 1.768-2.857 -2.869 1.748 2.725-1.964 -3.319 0.516 3.269-0.771 -3.264-0.793 3.315 0.537 -2.712-1.982 2.858 1.765 -1.747-2.869 1.964 2.725 -0.516-3.318 0.772 3.27L74.796 80.067z" id="SvgjsPath162785"></path><path opacity="0.9" stroke-width="none" fill="#000000" d="M76.25 84c0 1.243-1.008 2.25-2.25 2.25s-2.25-1.007-2.25-2.25 1.008-2.25 2.25-2.25S76.25 82.757 76.25 84z" id="SvgjsPath162786"></path><path opacity="0.7" stroke-width="none" fill="#ffffff" d="M71.637 88.311c-0.331 0.332-0.985 0.215-1.46-0.261 -0.476-0.475-0.593-1.129-0.261-1.461 0.331-0.331 0.985-0.214 1.46 0.261C71.852 87.326 71.969 87.979 71.637 88.311z" id="SvgjsPath162787"></path><path opacity="0.9" stroke-width="none" fill="#ffffff" d="M78.806 82.818c-0.496 0.496-1.697 0.1-2.682-0.886 -0.986-0.986-1.382-2.187-0.886-2.683 0.496-0.496 1.697-0.1 2.682 0.886C78.906 81.122 79.302 82.322 78.806 82.818z" id="SvgjsPath162788"></path></g></g></g><g id="svga-group-eyesfront-left"><path stroke="none" opacity="1" stroke-width="none" fill="#f6e4e2" d="M55 84.999c0 13.807 8.507 25 19 25s19-11.193 19-25 -8.507-25-19-25S55 71.192 55 84.999zM60.039 84.278l5.955-6.134 17.826 1.93 3.079 6.258c0.451 0.917 0.397 2.002-0.144 2.871 -0.54 0.868-1.49 1.396-2.513 1.396h-19.34L60.039 84.278z" id="SvgjsPath162749"></path><path opacity="1" fill="url(#SvgjsRadialGradient162751)" d="M58.897 86.046c-0.075 6.904 8.647 12.467 18.038 12.434 9.389-0.04 16.987-5.663 16.962-12.568 -0.023-6.903-7.647-12.467-17.04-12.431C67.465 73.519 58.999 76.602 58.897 86.046zM60.039 84.278l5.955-6.134 17.826 1.93 3.079 6.258c0.451 0.917 0.397 2.002-0.144 2.871 -0.54 0.868-1.49 1.396-2.513 1.396h-19.34L60.039 84.278z" id="SvgjsPath162750"></path><path opacity="1" fill="url(#SvgjsRadialGradient162756)" d="M84.244 90.599c1.022 0 1.972-0.528 2.513-1.396 0.54-0.868 0.594-1.953 0.143-2.871l-3.079-6.258 -17.826-1.93 -5.955 6.134 4.864 6.321H84.244z" id="SvgjsPath162755"></path><path stroke="none" opacity="1" stroke-width="none" fill="#c8837c" d="M87.406,93.211l-4.187,0.361l3.807-1.033l1.474-0.749L87.406,93.211z" id="SvgjsPath162759"></path><path stroke="none" opacity="1" stroke-width="none" fill="#2c1630" d="M87.898 88.238l-4.959-7.203c-2.389-1.422-6.495-2.125-16.609-2.35l-5.744 5.691c1.69 2.556 3.31 4.38 4.949 5.509h20.999l-0.999 0.844 -21.026 1.201c-4.976-5.845-4.522-5.929-8.697-12.515l3.238 3.155 5.766-6.146c7.559 0.671 12.526 1.137 19.386 2.52l3.992 2.397 -3.316-0.185L87.898 88.238z" id="SvgjsPath162760"></path></g></g><g id="svga-group-eyes-right"><g id="svga-group-eyesback-right"><path opacity="1" fill="url(#SvgjsRadialGradient162733)" d="M115.358 90.599c-1.022 0-1.973-0.528-2.513-1.396 -0.541-0.868-0.595-1.953-0.144-2.871l3.079-6.258 17.826-1.93 5.955 6.134 -4.864 6.321H115.358z" id="SvgjsPath162732"></path></g><g transform="translate(-0.5 0.5)" id="svga-group-eyesiriswrapper-right"><g id="svga-group-eyesiriscontrol-right"><g id="svga-group-eyesiris-right"><path stroke="none" opacity="1" stroke-width="none" fill="#7b5c33" d="M132,83.999c0,3.316-2.684,6-6,6s-6-2.684-6-6s2.684-6,6-6S132,80.683,132,83.999z" id="SvgjsPath162789"></path><path stroke="none" opacity="1" stroke-width="none" fill="#8a6d47" d="M122.508 86.806c0.879-0.076 0.105-0.305 0.105-0.305 -0.434-0.234-1.254-0.592-1.254-0.926 0-1.031 1.418-1.295-0.023-1.705 -1.512-1.377 1.16-1.348 1.137-1.395 -0.973-2.379 0.305-1.072 0.844-1.775 1.98-2.596 0.551 0.27 1.629 0 0.387-0.094-0.785-1.529 0.035-1.33 0.539 0.135 0.656 0.58 0.656 0.58 0.398-0.076 1.008-0.68 1.008-0.68 0.75 0.223 1.277 1.289 1.043 1.09 0.375-0.047 0.891-0.223 1.289-0.34 0 0 0.07-0.24 0.141-0.035 0.914 2.66 3.281 2.473 0.563 3.24 0 0-0.176 0 0.375 0.439 2.707 2.168-2.098 1.494 0.457 2.49 0.105-0.1-1.535 0.967-1.535 1.266 0 0.498-1.043 1.816-1.945 1.295 -0.504-0.287-0.586 0.604-0.879 0.193 -0.574-0.803-1.746-0.035-1.313-0.773 0.633-0.521-0.656 0.205-0.902 0.205 -0.832 0 1.078-2.783 3.891-0.715 0.82 0.598-0.867-1.436 0.633-1.436 0.141 0.047 0.105-0.521 0.105-0.68 -0.785-0.152 1.383-0.006 1.383-1.266 0.141 0.029 0.516-0.346-1.629 0 0 0-0.07-0.75-0.035-0.885 0.105-0.439 1.207-0.299 0.902-0.75l-0.797-1.605c-2.578-0.41-1.102-0.668-2.719-0.34 -0.07 0.381-3.445 1.986-3.34 2.73 0.105 0.703 2.121 0.938 0.211 2.18C125.402 91.054 120.434 85.452 122.508 86.806z" id="SvgjsPath162790"></path><path stroke="none" opacity="1" stroke-width="none" fill="#5c3d14" d="M126 78.749l0.176 4.395 1.828-3.996 -1.523 4.125 3.234-2.988 -2.988 3.229 4.125-1.523 -3.996 1.84 4.395 0.17 -4.395 0.17 3.996 1.84 -4.125-1.523 2.988 3.229 -3.234-2.988 1.523 4.125 -1.828-3.996L126 89.249l-0.176-4.395 -1.84 3.996 1.523-4.125 -3.223 2.988 2.988-3.229 -4.125 1.523 3.996-1.84 -4.395-0.17 4.395-0.17 -3.996-1.84 4.125 1.523 -2.988-3.229 3.223 2.988 -1.523-4.125 1.84 3.996L126 78.749z" id="SvgjsPath162791"></path><path stroke="none" opacity="1" stroke-width="none" fill="#4d3009" d="M126.797 80.067l-0.539 3.316 1.98-2.713 -1.77 2.859 2.871-1.752 -2.719 1.969 3.316-0.516 -3.27 0.768 3.27 0.797 -3.316-0.539 2.707 1.98 -2.859-1.764 1.746 2.871 -1.957-2.725 0.516 3.316L126 84.667l-0.797 3.264 0.539-3.316 -1.98 2.713 1.77-2.859 -2.871 1.752 2.719-1.969 -3.316 0.516 3.27-0.768 -3.27-0.797 3.316 0.539 -2.707-1.98 2.859 1.764 -1.746-2.871 1.957 2.725 -0.516-3.316 0.773 3.27L126.797 80.067z" id="SvgjsPath162792"></path><path opacity="0.9" stroke-width="none" fill="#000000" d="M128.25 83.999c0 1.242-1.008 2.25-2.25 2.25s-2.25-1.008-2.25-2.25 1.008-2.25 2.25-2.25S128.25 82.757 128.25 83.999z" id="SvgjsPath162793"></path><path opacity="0.7" stroke-width="none" fill="#ffffff" d="M123.633 88.312c-0.328 0.328-0.984 0.217-1.453-0.264 -0.48-0.475-0.598-1.125-0.258-1.459 0.328-0.328 0.984-0.211 1.453 0.264C123.855 87.327 123.973 87.978 123.633 88.312z" id="SvgjsPath162794"></path><path opacity="0.9" stroke-width="none" fill="#ffffff" d="M130.805 82.815c-0.492 0.498-1.699 0.105-2.684-0.885 -0.984-0.984-1.383-2.186-0.879-2.678 0.492-0.498 1.688-0.105 2.672 0.885C130.91 81.122 131.297 82.323 130.805 82.815z" id="SvgjsPath162795"></path></g></g></g><g id="svga-group-eyesfront-right"><path stroke="none" opacity="1" stroke-width="none" fill="#f6e4e2" d="M125.602 59.999c-10.493 0-19 11.193-19 25s8.507 25 19 25 19-11.193 19-25S136.095 59.999 125.602 59.999zM134.698 90.599h-19.34c-1.022 0-1.973-0.528-2.513-1.396 -0.541-0.868-0.595-1.953-0.144-2.871l3.079-6.258 17.826-1.93 5.955 6.134L134.698 90.599z" id="SvgjsPath162770"></path><path opacity="1" fill="url(#SvgjsRadialGradient162772)" d="M122.744 73.48c-9.393-0.036-17.017 5.528-17.04 12.431 -0.025 6.906 7.573 12.529 16.962 12.568 9.391 0.034 18.113-5.529 18.038-12.434C140.603 76.602 132.137 73.519 122.744 73.48zM134.698 90.599h-19.34c-1.022 0-1.973-0.528-2.513-1.396 -0.541-0.868-0.595-1.953-0.144-2.871l3.079-6.258 17.826-1.93 5.955 6.134L134.698 90.599z" id="SvgjsPath162771"></path><path opacity="1" fill="url(#SvgjsRadialGradient162777)" d="M115.358 90.599c-1.022 0-1.973-0.528-2.513-1.396 -0.541-0.868-0.595-1.953-0.144-2.871l3.079-6.258 17.826-1.93 5.955 6.134 -4.864 6.321H115.358z" id="SvgjsPath162776"></path><path stroke="none" opacity="1" stroke-width="none" fill="#c8837c" d="M111.102,91.791l1.474,0.749l3.807,1.033l-4.187-0.361L111.102,91.791z" id="SvgjsPath162780"></path><path stroke="none" opacity="1" stroke-width="none" fill="#2c1630" d="M111.703 88.238l4.959-7.203c2.389-1.422 6.495-2.125 16.609-2.35l5.744 5.691c-1.69 2.556-3.31 4.38-4.949 5.509h-20.999l0.999 0.844 21.026 1.201c4.976-5.845 4.522-5.929 8.697-12.515l-3.238 3.155 -5.766-6.146c-7.559 0.671-12.526 1.137-19.386 2.52l-3.992 2.397 3.316-0.185L111.703 88.238z" id="SvgjsPath162781"></path></g></g><g id="svga-group-facehighlight-single"><path opacity="1" fill="url(#SvgjsRadialGradient162537)" d="M141 113.974c0.035 22.622-18.292 40.994-40.938 41.025 -22.642 0.037-41.028-18.273-41.063-40.9 -0.035-22.62 18.292-41.064 40.937-41.1C122.579 72.964 140.967 91.349 141 113.974z" id="SvgjsPath162536"></path><path opacity="1" fill="url(#SvgjsRadialGradient162541)" d="M137.5 53.999c0 20.711-16.789 37.5-37.499 37.5 -20.711 0-37.501-16.789-37.501-37.5s16.79-37.5 37.501-37.5C120.711 16.499 137.5 33.288 137.5 53.999z" id="SvgjsPath162540"></path></g><g id="svga-group-eyebrows-left"><path opacity="1" stroke-width="none" fill="#2a232b" d="M54 74.189c9.954-9.974 16.761-5.915 30.589-3.264 0.845 0.162 6.32 1.539 5.31 3.469 -0.483 0.924-2.036 0.814-2.903 0.798C73.308 74.936 66.652 65.197 54 74.189z" id="SvgjsPath162670"></path></g><g id="svga-group-eyebrows-right"><path opacity="1" stroke-width="none" fill="#2a232b" d="M146 74.189c-9.953-9.974-16.761-5.915-30.589-3.264 -0.846 0.162-6.32 1.539-5.311 3.469 0.483 0.924 2.036 0.814 2.903 0.798C126.691 74.936 133.348 65.197 146 74.189z" id="SvgjsPath162671"></path></g><g id="svga-group-nose-single"><path stroke="none" opacity="1" stroke-width="none" fill="#fef7f6" d="M106.875 113.602c0.883 7.516-4.979 4.153-7.005 4.481 -1.619 0.264-8.75 2.319-7.19-4.58 0.209-0.924 3.23-6.504 7.057-6.504C103.318 106.999 106.526 110.634 106.875 113.602z" id="SvgjsPath162807"></path><path stroke="none" opacity="1" stroke-width="none" fill="#e7c1bd" d="M104.726 115.406c0.037 0.119-2.054 2.09-2.157 1.992 -0.545 0.393-1.476 0.759-2.501 0.767 -0.691 0.007-1.31-0.38-1.81-0.327 -0.019-0.078-4.518-1.747-4.794-2.395 -0.414 0.095-0.714 0.293-0.833 0.591 -0.308 0.773 0.702 1.917 2.255 2.556 0.768 0.315 1.936 0.537 2.54 0.498 0.411 0.593 1.123 0.922 2.459 0.911 1.476-0.015 2.896-0.352 3.161-1.044 0.36 0.22 1.734-0.087 2.248-0.336 0.565-0.273 1.505-1.062 1.528-2.022C106.838 115.78 105.605 115.252 104.726 115.406z" id="SvgjsPath162808"></path><path stroke="none" opacity="1" stroke-width="none" fill="#c8837c" d="M98.24 118.314c-0.091 0.224-0.292 0.382-0.556 0.487 -0.354-0.579-1.084-1.174-2.026-1.585 -1.097-0.478-2.167-0.568-2.814-0.312 -0.225-0.364-0.301-0.72-0.176-1.018 0.321-0.768 1.83-0.842 3.371-0.172C97.578 116.385 98.563 117.551 98.24 118.314zM106.021 116.457c0.19-0.052 0.347 0.015 0.497 0.046 0.089-0.736-0.514-1.269-1.534-1.244 -1.195 0.029-2.502 0.815-2.913 1.755 -0.349 0.8 0.065 1.446 0.931 1.605C103.014 118.49 103.591 117.128 106.021 116.457z" id="SvgjsPath162809"></path></g><g id="svga-group-beardwrap"><g id="svga-group-beard-single"><path opacity="1" stroke-width="none" fill="#2a232b" d="M100,18.13L100,18.13L100,18.13L100,18.13z" id="SvgjsPath162554"></path></g></g><g id="svga-group-mustache-single"><path opacity="1" stroke-width="none" fill="#2a232b" d="M100,18.13L100,18.13L100,18.13L100,18.13z" id="SvgjsPath162552"></path></g><g id="svga-group-hair-front"><path stroke="none" opacity="1" stroke-width="none" fill="#6b4e40" d="M57.01 18.11c-9.29 3.25-23.25 29-19.24 55.05 1.43 9.27 0.15 4.2 6.29 19.67l4.49 0.3c1.51-4.33-7.32-18.26-4.23-29.88C46.7 54.28 47.46 35.3 57.01 18.11zM155.68 63.24c3.09 11.62-5.74 25.56-4.23 29.88l4.49-0.3c6.13-15.47 4.86-10.4 6.29-19.67 4.01-26.05-9.95-51.8-19.24-55.05C152.54 35.3 153.3 54.28 155.68 63.24z" id="SvgjsPath162705"></path><path stroke="none" opacity="1" stroke-width="none" fill="#5c3d2e" d="M57.01 18.11c-0.91 1.47-1.71 2.96-2.42 4.45 -4.5 3.24-7.95 7.8-11.32 12.53C47.33 26.04 52.68 19.63 57.01 18.11zM38.53 63.85c0-0.01 0.01-0.02 0.01-0.03C38.43 63.98 38.44 63.96 38.53 63.85zM38.26 75c2.63-4.58 2.68-8.41 4.71-10.92 -0.54 4.46 0.81 9.25 1.01 11.92 0.25 3.33 4.14 16.26 4.58 17.12C50.06 88.8 42.2 75 44.72 63.24c1.42-6.64 3.09-15.94 4.72-25.93l-0.05-0.11c-1 0.35-8.23 5.87-10.63 14.29 3.27-5.93 9.35-13.16 10.46-14 -1.37 4.54-3.62 7.54-4.24 14.98 -2.93 2.1-5.68 7.93-7.3 12.72 0.94-1.3 1.04-5.26 7.19-12.14 -0.57 4.24-0.24 6.21-1.78 10.23C40.4 65.55 39.68 69.97 38.26 75zM156.74 35.09c-3.37-4.72-6.83-9.29-11.32-12.53 -0.71-1.49-1.51-2.98-2.42-4.45C147.32 19.63 152.67 26.04 156.74 35.09zM161.46 63.82c0 0.01 0.01 0.02 0.01 0.03C161.56 63.96 161.57 63.98 161.46 63.82zM156.92 63.27c-1.54-4.02-1.21-5.99-1.78-10.23 6.16 6.88 6.25 10.84 7.19 12.14 -1.62-4.79-4.37-10.62-7.3-12.72 -0.62-7.45-2.87-10.44-4.24-14.98 1.11 0.84 7.18 8.07 10.46 14 -2.4-8.41-9.63-13.93-10.63-14.29l-0.05 0.11c1.63 9.99 3.29 19.29 4.72 25.93 2.52 11.76-5.34 25.56-3.83 29.88 0.44-0.86 4.33-13.8 4.58-17.12 0.2-2.67 1.56-7.46 1.01-11.92 2.02 2.52 2.07 6.34 4.71 10.92C160.32 69.97 159.6 65.55 156.92 63.27z" id="SvgjsPath162706"></path><path stroke="none" opacity="1" stroke-width="none" fill="#3d2012" d="M44.06 92.83c-2.53-7.48-4.06-9.89-4.99-17.47 -2.24-20.53 1.92-31.89 1.92-31.89 2.25-7.64 8.02-22.11 16.02-25.2 -9.45 3.14-22.48 23.89-19.5 54.51C38.19 81.36 41.43 86.18 44.06 92.83zM162.49 72.79c2.98-30.63-10.05-51.38-19.5-54.51 8 3.08 13.77 17.56 16.02 25.2 0 0 4.16 11.37 1.92 31.89 -0.93 7.58-2.46 9.99-4.99 17.47C158.57 86.18 161.81 81.36 162.49 72.79z" id="SvgjsPath162707"></path></g><g id="svga-group-glasses-single"><path opacity="1" fill="url(#SvgjsLinearGradient162797)" d="M124.34 99.99c-0.82 0-1.66-0.03-2.49-0.1 -3.5-0.26-15.01-2.23-16.05-16.5 -0.26-3.57 7.6-6.09 23.34-7.49 0.79-0.07 1.61-0.15 2.46-0.23 3.85-0.36 8.21-0.77 11.65-0.77 4.5 0 6.58 0.68 6.73 2.22 0.36 3.45-1.67 10.82-8.72 17C136.96 97.91 130.95 99.99 124.34 99.99z" id="SvgjsPath162796"></path><path opacity="1" fill="url(#SvgjsLinearGradient162801)" d="M75.66 99.99c0.82 0 1.66-0.03 2.49-0.1 3.5-0.26 15.01-2.23 16.05-16.5 0.26-3.57-7.6-6.09-23.34-7.49 -0.79-0.07-1.61-0.15-2.46-0.23 -3.85-0.36-8.21-0.77-11.65-0.77 -4.5 0-6.58 0.68-6.73 2.22 -0.36 3.45 1.67 10.82 8.72 17C63.04 97.91 69.05 99.99 75.66 99.99z" id="SvgjsPath162800"></path><path stroke="none" opacity="1" stroke-width="none" fill="#268135" d="M147.99 73.03c-5.98 0.68-19.67 1.5-27.04 2.16 -4.68 0.41-12.81 2.65-20.95 2.65 -8.14 0-16.27-2.23-20.95-2.65 -7.37-0.65-21.06-1.48-27.04-2.16 -2.7-0.31-6.42 0.95-5.97 3.51 0.34 1.91 3.15 10.2 11.86 18.2 5.94 5.45 15.9 8.17 26.2 5.12 9.68-2.87 11.7-11.13 12.66-13.23 0.85-1.85 1.76-2.67 3.24-2.67s2.4 0.82 3.24 2.67c0.96 2.09 2.98 10.36 12.66 13.23 10.3 3.05 20.26 0.33 26.2-5.12 8.71-8 11.52-16.29 11.86-18.2C154.41 73.98 150.69 72.72 147.99 73.03zM78.11 99.4c-7.54 0.57-14.31-1.48-19.05-5.64 -6.87-6.03-8.9-13.22-8.56-16.58 0.3-2.93 12.22-1.5 20.3-0.78 8.08 0.72 23.21 2.55 22.89 6.96C92.83 95.34 84.45 98.92 78.11 99.4zM140.94 93.76c-4.74 4.16-11.51 6.21-19.05 5.64 -6.34-0.48-14.72-4.05-15.59-16.04 -0.32-4.41 14.81-6.24 22.89-6.96 8.08-0.72 20-2.15 20.3 0.78C149.84 80.53 147.81 87.73 140.94 93.76z" id="SvgjsPath162804"></path><path stroke="none" opacity="1" stroke-width="none" fill="#399047" d="M73.61 99.42c-16.31-0.67-21.96-14.11-23.63-18 -1.6-3.73-0.3-5.07 1.95-5.88 -0.89 0.62-1.62 1.23-1.64 2.61C50.1 84.21 58.21 98.57 73.61 99.42zM93.58 87.22c0.94-2.29 1.76-3.96 1.3-5.25 -0.74-2.1-5.84-2.97-7.71-3.36C93.62 80.48 95.43 81.06 93.58 87.22zM82.14 77.14c-4.22-1.31-16.69-2.69-20.76-2.42C65.7 75.13 77.56 76.01 82.14 77.14zM126.39 99.42c16.31-0.67 21.96-14.11 23.63-18 1.6-3.73 0.3-5.07-1.94-5.88 0.89 0.62 1.62 1.23 1.64 2.61C149.9 84.21 141.79 98.57 126.39 99.42zM112.83 78.6c-1.87 0.39-6.97 1.26-7.71 3.36 -0.45 1.29 0.37 2.96 1.3 5.25C104.57 81.06 106.38 80.48 112.83 78.6zM138.62 74.73c-4.07-0.27-16.54 1.11-20.76 2.42C122.44 76.01 134.3 75.13 138.62 74.73z" id="SvgjsPath162805"></path></g></g></g><rect style="display:none;" opacity="0.5" fill="#ecf0f1" y="185" x="0" height="15" width="200" id="SvgjsRect162521"></rect><text y="185" x="100" fill="#000000" font-weight="400" text-anchor="middle" font-size="0.84em" style="font-size:0.84em;font-family:&quot;Roboto&quot;, &quot;Helvetica Neue&quot;, Helvetica, Arial, sans-serif;text-anchor:middle;font-weight:400;display:none;" font-family="&quot;Roboto&quot;, &quot;Helvetica Neue&quot;, Helvetica, Arial, sans-serif" id="SvgjsText162522"><tspan style="font-size:0.84em;font-family:&quot;Roboto&quot;, &quot;Helvetica Neue&quot;, Helvetica, Arial, sans-serif;text-anchor:middle;font-weight:400;" x="100" dy="1.2em" id="SvgjsTspan162523">Created on todream.eu</tspan></text></g><defs id="SvgjsDefs162486"><radialGradient class="svga-on-canvas-facehighlight-gradient-single-0" gradientUnits="userSpaceOnUse" r="41" cy="114" cx="100" id="SvgjsRadialGradient162537"><stop offset="0" stop-color="#ffffff" stop-opacity="0.5" id="SvgjsStop162538"></stop><stop offset="0.9" stop-color="#f6e4e2" stop-opacity="0" id="SvgjsStop162539"></stop></radialGradient><radialGradient class="svga-on-canvas-facehighlight-gradient-single-1" gradientUnits="userSpaceOnUse" r="37" cy="54" cx="100" id="SvgjsRadialGradient162541"><stop offset="0" stop-color="#ffffff" stop-opacity="0.5" id="SvgjsStop162542"></stop><stop offset="0.9" stop-color="#f6e4e2" stop-opacity="0" id="SvgjsStop162543"></stop></radialGradient><radialGradient class="svga-on-canvas-eyesiris-gradient-left-1" gradientUnits="userSpaceOnUse" gradientTransform="matrix(0.096 -0.0248 0.0245 0.0961 141.2814 119.9893)" r="59.751" cy="-521.042" cx="-568.659" id="SvgjsRadialGradient162626"><stop offset="0" stop-color="#ffffff" stop-opacity="1" id="SvgjsStop162627"></stop><stop offset="1" stop-color="#ffffff" stop-opacity="0" id="SvgjsStop162628"></stop></radialGradient><radialGradient class="svga-on-canvas-eyesiris-gradient-left-2" gradientUnits="userSpaceOnUse" gradientTransform="matrix(0.0991 8.856319e-004 -0.0011 0.0991 131.1134 135.9855)" r="59.745" cy="-519.099" cx="-582.838" id="SvgjsRadialGradient162630"><stop offset="0" stop-color="#ffffff" stop-opacity="1" id="SvgjsStop162631"></stop><stop offset="1" stop-color="#ffffff" stop-opacity="0" id="SvgjsStop162632"></stop></radialGradient><linearGradient class="svga-on-canvas-eyesiris-gradient-left-5" gradientUnits="userSpaceOnUse" gradientTransform="matrix(1 0 0 1 -52 0)" y2="87.152" x2="123.606" y1="88.268" x1="122.67" id="SvgjsLinearGradient162636"><stop offset="0" stop-color="#ffffff" stop-opacity="1" id="SvgjsStop162637"></stop><stop offset="1" stop-color="#ffffff" stop-opacity="0" id="SvgjsStop162638"></stop></linearGradient><linearGradient class="svga-on-canvas-eyesiris-gradient-left-6" gradientUnits="userSpaceOnUse" gradientTransform="matrix(1 0 0 1 -52 0)" y2="83.189" x2="126.463" y1="82.296" x1="127.212" id="SvgjsLinearGradient162640"><stop offset="0" stop-color="#ffffff" stop-opacity="1" id="SvgjsStop162641"></stop><stop offset="1" stop-color="#ffffff" stop-opacity="0" id="SvgjsStop162642"></stop></linearGradient><linearGradient class="svga-on-canvas-eyesiris-gradient-left-7" gradientUnits="userSpaceOnUse" gradientTransform="matrix(1 0 0 1 -52 0)" y2="81.879" x2="127.91" y1="79.822" x1="129.636" id="SvgjsLinearGradient162644"><stop offset="0" stop-color="#ffffff" stop-opacity="1" id="SvgjsStop162645"></stop><stop offset="1" stop-color="#ffffff" stop-opacity="0" id="SvgjsStop162646"></stop></linearGradient><radialGradient class="svga-on-canvas-eyesiris-gradient-right-1" gradientUnits="userSpaceOnUse" gradientTransform="matrix(0.096 -0.0248 0.0245 0.0961 193.2804 119.9894)" r="59.752" cy="-521.042" cx="-568.654" id="SvgjsRadialGradient162649"><stop offset="0" stop-color="#ffffff" stop-opacity="1" id="SvgjsStop162650"></stop><stop offset="1" stop-color="#ffffff" stop-opacity="0" id="SvgjsStop162651"></stop></radialGradient><radialGradient class="svga-on-canvas-eyesiris-gradient-right-2" gradientUnits="userSpaceOnUse" gradientTransform="matrix(0.0991 8.856319e-004 -0.0011 0.0991 183.1126 135.9856)" r="59.747" cy="-519.102" cx="-582.833" id="SvgjsRadialGradient162653"><stop offset="0" stop-color="#ffffff" stop-opacity="1" id="SvgjsStop162654"></stop><stop offset="1" stop-color="#ffffff" stop-opacity="0" id="SvgjsStop162655"></stop></radialGradient><linearGradient class="svga-on-canvas-eyesiris-gradient-right-5" gradientUnits="userSpaceOnUse" y2="87.152" x2="123.606" y1="88.268" x1="122.67" id="SvgjsLinearGradient162659"><stop offset="0" stop-color="#ffffff" stop-opacity="1" id="SvgjsStop162660"></stop><stop offset="1" stop-color="#ffffff" stop-opacity="0" id="SvgjsStop162661"></stop></linearGradient><linearGradient class="svga-on-canvas-eyesiris-gradient-right-6" gradientUnits="userSpaceOnUse" y2="83.189" x2="126.463" y1="82.296" x1="127.212" id="SvgjsLinearGradient162663"><stop offset="0" stop-color="#ffffff" stop-opacity="1" id="SvgjsStop162664"></stop><stop offset="1" stop-color="#ffffff" stop-opacity="0" id="SvgjsStop162665"></stop></linearGradient><linearGradient class="svga-on-canvas-eyesiris-gradient-right-7" gradientUnits="userSpaceOnUse" y2="81.879" x2="127.91" y1="79.822" x1="129.636" id="SvgjsLinearGradient162667"><stop offset="0" stop-color="#ffffff" stop-opacity="1" id="SvgjsStop162668"></stop><stop offset="1" stop-color="#ffffff" stop-opacity="0" id="SvgjsStop162669"></stop></linearGradient><linearGradient class="svga-on-canvas-mouth-gradient-single-0" gradientUnits="userSpaceOnUse" y2="139" x2="100" y1="142" x1="100" id="SvgjsLinearGradient162675"><stop offset="0.1" stop-color="#eed2cf" stop-opacity="1" id="SvgjsStop162676"></stop><stop offset="1" stop-color="#e7c1bd" stop-opacity="1" id="SvgjsStop162677"></stop></linearGradient><radialGradient class="svga-on-canvas-eyesback-gradient-left-0" gradientUnits="userSpaceOnUse" gradientTransform="matrix(-1 0 0 1 200 0)" r="10.565" cy="84.372" cx="126.379" id="SvgjsRadialGradient162725"><stop offset="0" stop-color="#ffffff" stop-opacity="1" id="SvgjsStop162726"></stop><stop offset="0.544" stop-color="#fdfefe" stop-opacity="1" id="SvgjsStop162727"></stop><stop offset="0.74" stop-color="#f6f8f9" stop-opacity="1" id="SvgjsStop162728"></stop><stop offset="0.879" stop-color="#eaeff2" stop-opacity="1" id="SvgjsStop162729"></stop><stop offset="0.992" stop-color="#d9e3e8" stop-opacity="1" id="SvgjsStop162730"></stop><stop offset="1" stop-color="#d8e2e7" stop-opacity="1" id="SvgjsStop162731"></stop></radialGradient><radialGradient class="svga-on-canvas-eyesback-gradient-right-0" gradientUnits="userSpaceOnUse" r="10.565" cy="84.372" cx="125.981" id="SvgjsRadialGradient162733"><stop offset="0" stop-color="#ffffff" stop-opacity="1" id="SvgjsStop162734"></stop><stop offset="0.544" stop-color="#fdfefe" stop-opacity="1" id="SvgjsStop162735"></stop><stop offset="0.74" stop-color="#f6f8f9" stop-opacity="1" id="SvgjsStop162736"></stop><stop offset="0.879" stop-color="#eaeff2" stop-opacity="1" id="SvgjsStop162737"></stop><stop offset="0.992" stop-color="#d9e3e8" stop-opacity="1" id="SvgjsStop162738"></stop><stop offset="1" stop-color="#d8e2e7" stop-opacity="1" id="SvgjsStop162739"></stop></radialGradient><radialGradient class="svga-on-canvas-eyesfront-gradient-left-0" gradientUnits="userSpaceOnUse" gradientTransform="matrix(-1 0 0 1 200 0)" r="10.565" cy="84.372" cx="126.379" id="SvgjsRadialGradient162741"><stop offset="0" stop-color="#ffffff" stop-opacity="1" id="SvgjsStop162742"></stop><stop offset="0.544" stop-color="#fdfefe" stop-opacity="1" id="SvgjsStop162743"></stop><stop offset="0.74" stop-color="#f6f8f9" stop-opacity="1" id="SvgjsStop162744"></stop><stop offset="0.879" stop-color="#eaeff2" stop-opacity="1" id="SvgjsStop162745"></stop><stop offset="0.992" stop-color="#d9e3e8" stop-opacity="1" id="SvgjsStop162746"></stop><stop offset="1" stop-color="#d8e2e7" stop-opacity="1" id="SvgjsStop162747"></stop></radialGradient><radialGradient class="svga-on-canvas-eyesfront-gradient-left-3" gradientUnits="userSpaceOnUse" gradientTransform="matrix(0.9998 0.0208 0.0166 -0.7998 -48.4257 151.2949)" r="16.667" fy="85.522" fx="135.233" cy="85.489" cx="123.515" id="SvgjsRadialGradient162751"><stop offset="0" stop-color="#e7c1bd" stop-opacity="1" id="SvgjsStop162752"></stop><stop offset="0.7" stop-color="#e7c1bd" stop-opacity="0.3" id="SvgjsStop162753"></stop><stop offset="1" stop-color="#f6e4e2" stop-opacity="0" id="SvgjsStop162754"></stop></radialGradient><radialGradient class="svga-on-canvas-eyesfront-gradient-left-4" gradientUnits="userSpaceOnUse" gradientTransform="matrix(-0.8988 -0.4384 -0.32 0.6561 220.1689 89.0045)" r="26.851" cy="101.945" cx="123.064" id="SvgjsRadialGradient162756"><stop offset="0.9" stop-color="#000000" stop-opacity="0" id="SvgjsStop162757"></stop><stop offset="1" stop-color="#000000" stop-opacity="0.2" id="SvgjsStop162758"></stop></radialGradient><radialGradient class="svga-on-canvas-eyesfront-gradient-right-0" gradientUnits="userSpaceOnUse" r="10.565" cy="84.372" cx="125.981" id="SvgjsRadialGradient162762"><stop offset="0" stop-color="#ffffff" stop-opacity="1" id="SvgjsStop162763"></stop><stop offset="0.544" stop-color="#fdfefe" stop-opacity="1" id="SvgjsStop162764"></stop><stop offset="0.74" stop-color="#f6f8f9" stop-opacity="1" id="SvgjsStop162765"></stop><stop offset="0.879" stop-color="#eaeff2" stop-opacity="1" id="SvgjsStop162766"></stop><stop offset="0.992" stop-color="#d9e3e8" stop-opacity="1" id="SvgjsStop162767"></stop><stop offset="1" stop-color="#d8e2e7" stop-opacity="1" id="SvgjsStop162768"></stop></radialGradient><radialGradient class="svga-on-canvas-eyesfront-gradient-right-3" gradientUnits="userSpaceOnUse" gradientTransform="matrix(-0.9998 0.0208 -0.0166 -0.7998 247.6288 151.3032)" r="16.667" fy="85.522" fx="134.835" cy="85.489" cx="123.116" id="SvgjsRadialGradient162772"><stop offset="0" stop-color="#e7c1bd" stop-opacity="1" id="SvgjsStop162773"></stop><stop offset="0.7" stop-color="#e7c1bd" stop-opacity="0.3" id="SvgjsStop162774"></stop><stop offset="1" stop-color="#f6e4e2" stop-opacity="0" id="SvgjsStop162775"></stop></radialGradient><radialGradient class="svga-on-canvas-eyesfront-gradient-right-4" gradientUnits="userSpaceOnUse" gradientTransform="matrix(0.8988 -0.4384 0.32 0.6561 -20.2092 88.8298)" r="26.851" cy="101.945" cx="122.665" id="SvgjsRadialGradient162777"><stop offset="0.9" stop-color="#000000" stop-opacity="0" id="SvgjsStop162778"></stop><stop offset="1" stop-color="#000000" stop-opacity="0.2" id="SvgjsStop162779"></stop></radialGradient><linearGradient class="svga-on-canvas-glasses-gradient-single-0" gradientUnits="userSpaceOnUse" y2="98" x2="130" y1="77" x1="130" id="SvgjsLinearGradient162797"><stop offset="0" stop-color="#26120b" stop-opacity="1" id="SvgjsStop162798"></stop><stop offset="1" stop-color="#26120b" stop-opacity="0.5" id="SvgjsStop162799"></stop></linearGradient><linearGradient class="svga-on-canvas-glasses-gradient-single-1" gradientUnits="userSpaceOnUse" gradientTransform="matrix(-1 0 0 1 200 0)" y2="98" x2="130" y1="77" x1="130" id="SvgjsLinearGradient162801"><stop offset="0" stop-color="#26120b" stop-opacity="1" id="SvgjsStop162802"></stop><stop offset="1" stop-color="#26120b" stop-opacity="0.5" id="SvgjsStop162803"></stop></linearGradient><linearGradient class="svga-on-canvas-chinshadow-gradient-single-0" gradientUnits="userSpaceOnUse" y2="132" x2="100" y1="170" x1="100" id="SvgjsLinearGradient162831"><stop offset="0" stop-color="#e7c1bd" stop-opacity="0.8" id="SvgjsStop162832"></stop><stop offset="0.7" stop-color="#c8837c" stop-opacity="1" id="SvgjsStop162833"></stop></linearGradient></defs></svg>