<svg xmlns="http://www.w3.org/2000/svg" version="1.1" width="600px" height="600px" xlink="http://www.w3.org/1999/xlink" style="overflow:hidden!important;"><g id="svga-group-wrapper" transform="scale(3 3)"><g id="svga-group-backs-single"></g><g id="svga-group-subwrapper"><g id="svga-group-hair-back"><path stroke="none" opacity="1" stroke-width="none" fill="#6b4e40" d="M100.5,100.5h-1v-1h1V100.5z" id="SvgjsPath183089"></path></g><g id="svga-group-humanbody-single"><path stroke="none" opacity="1" stroke-width="none" fill="#f6e4e2" d="M195.417 199.778c-2.196-4.746-8.195-11.779-14.86-13.722 -8.239-2.403-26.837-5.308-33.733-6.923 -5.528-1.296-16.662-11.294-20.564-14.65 -0.7-0.6-1.273-1.839-1.287-2.76 -0.139-10.864 4.195-39.724 4.195-39.724H100 70.833c0 0 4.334 28.859 4.193 39.724 -0.011 0.921-0.587 2.16-1.285 2.76 -3.902 3.356-15.036 13.354-20.564 14.65 -6.897 1.615-25.495 4.619-33.733 7.022 -6.667 1.942-12.664 8.876-14.86 13.622 -3.708 8.008-4.584 22.5-4.584 35h100 100C200 222.278 199.123 207.786 195.417 199.778z" id="SvgjsPath182930"></path><path stroke="none" opacity="1" stroke-width="none" fill="#ffffff" d="M159.156 184.058c24.342 3.542 34.586 8.708 37.794 50.721H200c0-12.5-0.877-26.992-4.583-35 -2.196-4.746-8.195-11.779-14.86-13.722 -8.239-2.403-26.837-5.308-33.733-6.923 -5.528-1.296-18.242-12.069-21.643-16.35 3.36 4.704 12.791 15.605 21.054 18.46C150.188 182.61 153.48 183.232 159.156 184.058zM53.766 181.244c8.263-2.854 17.693-13.756 21.054-18.46 -3.4 4.28-16.114 15.054-21.643 16.35 -6.896 1.615-25.494 4.619-33.733 7.022 -6.665 1.942-12.664 8.876-14.86 13.622 -3.706 8.008-4.583 22.5-4.583 35h3.05c3.188-41.744 13.475-47.183 37.794-50.721C46.52 183.232 49.813 182.61 53.766 181.244z" id="SvgjsPath182931"></path><path stroke="none" opacity="1" stroke-width="none" fill="#e7c1bd" d="M95.646 197.62c0 0-5.074-1.609-7.083-2.379 -10.449-4.009-44.395-6.607-44.395-6.607s35.754 1.419 43.644 2.779c-0.458-4.767-3.017-20.004-3.017-20.004s5.149 16.815 6.409 21.057C91.878 194.734 95.646 197.62 95.646 197.62zM106.445 196.278c-0.089 0.073-0.191 0.168-0.302 0.268C106.256 196.461 106.358 196.372 106.445 196.278zM95.646 197.62c0 0 2.893 2.992 4.347 3.03 1.91 0.051 4.828-2.899 6.151-4.104 -1.265 0.957-4.159 1.391-5.31 1.436C99.504 198.033 95.646 197.62 95.646 197.62zM116.664 190.101c-1.545 0.248-4.386 0.789-4.386 0.789l2.287-14.89c-0.646 3.071-4.474 16.211-8.12 20.278 1.91-1.616 6.158-2.391 8.324-2.704 10.236-1.484 10.232-1.483 41.062-4.94C155.831 188.634 126.76 188.479 116.664 190.101z" id="SvgjsPath182932"></path><path opacity="1" stroke-width="1.5" stroke="#c8837c" fill="none" d="M195.417 199.778c-2.196-4.746-8.195-11.779-14.86-13.722 -8.239-2.403-26.837-5.308-33.733-6.923 -5.528-1.296-16.662-11.294-20.564-14.65 -0.7-0.6-1.273-1.839-1.287-2.76 -0.139-10.864 4.195-39.724 4.195-39.724H100 70.833c0 0 4.334 28.859 4.193 39.724 -0.011 0.921-0.587 2.16-1.285 2.76 -3.902 3.356-15.036 13.354-20.564 14.65 -6.897 1.615-25.495 4.619-33.733 7.022 -6.667 1.942-12.664 8.876-14.86 13.622 -3.708 8.008-4.584 22.5-4.584 35h100 100C200 222.278 199.123 207.786 195.417 199.778z" id="SvgjsPath182933"></path></g><g id="svga-group-chinshadow-single"><path opacity="1" fill="url(#SvgjsLinearGradient183202)" d="M75.464 163.188c5.276 4.256 10.716 8.678 24.538 8.678 13.815 0 19.256-4.418 24.531-8.672 -0.188-0.49-0.305-0.997-0.312-1.461 -0.088-6.889 1.573-20.711 2.835-30.131 -15.695-2.201-38.418-2.201-54.113 0 1.261 9.421 2.922 23.242 2.833 30.13C75.771 162.188 75.654 162.695 75.464 163.188z" id="SvgjsPath183201"></path></g><g id="svga-group-clothes-single"><path stroke="none" opacity="1" stroke-width="none" fill="#653220" d="M-4.807 234.6c1.472-10.806-0.208-11.777 4.116-33.015 1.228-7.384 2.66-13.32 8.141-10.607 4.045-6.008 15.513-6.566 57.339-20.658v-0.258c0.278-1.001 2.706-4.267 3.099-9.897 0.383-5.449 2.718-9.56 5.614-11.604 -6.746 23.685 23.144 14.953 24.208 31.108 0.084 1.273-0.974 10.149-0.813 10.969 3.355-0.679 6.721-0.684 10.359-0.645 -3.928-15.24-0.545-16.872 7.344-19.838 9.564-3.591 12.873-7.169 12.01-20.697 4.57 4.109 1.516 9.7 7.174 17.534 36.249 13.159 50.02 16.863 56.963 21.507 5.981-4.517 9.697 2.65 17.292 46.103C136.218 235.212 54.269 235.12-4.807 234.6z" id="SvgjsPath183186"></path><path stroke="none" opacity="1" stroke-width="none" fill="#562413" d="M92.119 197.235c0.304-0.029 3.375-5.505 3.375-5.505 5.764-2.145 18.375 2.005 34.019-10.176C117.994 199.61 97.143 186.737 92.119 197.235zM70.115 179.378c8.754 10.018 23.629 13.732 26.773 10.686C96.885 190.135 79.619 189.396 70.115 179.378z" id="SvgjsPath183187"></path><path stroke="none" opacity="1" stroke-width="none" fill="#461808" d="M73.607 149.423c0 0 0.705 6.944 0.82 11.739C72.326 156.482 71.897 155.232 73.607 149.423z" id="SvgjsPath183188"></path><path stroke="none" opacity="1" stroke-width="none" fill="#744230" d="M4.781 194.15C0 207.902-0.398 222.744-3.298 234.612c-0.693-0.006-0.823 0.293-1.509 0.287 1.472-10.806-0.208-12.355 4.116-33.593 1.228-7.384 2.66-13.32 8.141-10.607 4.045-6.008 15.513-6.566 57.339-20.658v-0.258c0.278-1.001 2.706-4.267 3.099-9.897 0.345-4.904 2.622-9.431 5.25-11.325 -5.936 6.453-1.918 18.345-8.092 22.976C53.103 178.967 18.588 187.846 4.781 194.15zM190.747 188.499c-6.943-4.644-20.714-8.348-56.963-21.507 -5.658-7.834-2.604-13.425-7.174-17.534 0.063 1.001-0.018 0.613 0 1.51 2.161-0.43 2.695 15.819 7.443 18.193 19 9 45.261 17.317 59.521 22.632 6.636 10.021 8.157 26.964 13.401 42.817 1.067-0.009 0 0 1.063-0.009C200.444 191.149 196.729 183.982 190.747 188.499zM125.992 162.465c-7.33 12.798-21.646 4.662-20.242 19.81C108.488 167.635 121.171 175.921 125.992 162.465zM97.372 184.295c2.628-16.491-15.517-13.785-23.633-23.296C78.812 171.409 95.553 168.227 97.372 184.295z" id="SvgjsPath183189"></path><path stroke="none" opacity="1" stroke-width="none" fill="#370f01" d="M196.139 187.915c-1.581-1.609-3.779-1.259-5.409-0.029 -7.133-4.756-26.235-9.496-56.63-21.609 0 0-2.289-2.963-3.469-8.017 -0.783-3.353-0.308-7.087-4.192-9.838 -0.749 9.286-0.411 16.736-9.51 20.304 -8.959 3.582-14.71 3.744-10.319 20.76 -2.301-0.026-6.457-0.018-9.318 0.563 -0.058-0.295 1.027-8.769 0.918-10.412 -1.014-15.376-28.515-9.625-24.93-27.551 0.33-1.649 0.454-2.542 0.187-3.81 -3.67 1.92-5.337 6.074-5.847 9.51 -0.556 3.889 0.319 4.852-3.32 12.13 0 0.011-0.01 0.021-0.01 0.03 -0.17 0.05-0.35 0.11-0.53 0.17 -41.434 13.791-52.827 14.785-56.48 20.22 -5.931-2.941-7.458 5.121-8.46 11.15 -4.398 21.597-2.602 22.344-4.2 33.61 1 0 109.661 0.96 212.96 0.01 0.36 0 0.71-0.01 1.06-0.01C208.319 233.75 202.222 193.853 196.139 187.915zM117.52 170.155c9.877-4.015 9.506-9.654 9.367-19.766 3.437 1.52 0.914 8.914 6.792 16.516 0 4.854-1.267 9.955-4.229 13.46 -5.51 6.101-14.719 9.317-22.23 9.13C104.685 173.337 107.914 174.091 117.52 170.155zM68.349 159.005c0.062-2.714 2.16-8.263 4.9-10.1 -8.723 23.076 22.427 15.489 23.73 31.92 0.027 0.457-0.38 8.333-0.39 8.84 -16.104-1.896-23.674-5.555-31.64-19.189 0.02-0.04 0.04-0.08 0.06-0.12 0.01 0.01 0.01 0 0.01 0C67.547 165.299 68.017 164.151 68.349 159.005zM-4.591 234.455c1.436-5.179 1.375-14.908 4.04-28.63 1.58-7.847 1.629-17.345 7.48-15.03 0.02 0 0.03 0.011 0.04 0.011 3.516 8.49 11.016 31.499 11.33 32.5 0.155 0.456 2.074 8.248 2.56 9.89 -2.124-16.99-11.493-39.731-12.99-42.14 4.051-4.15 3.094-2.325 35.92-12.7 7.099-2.245 19.409-7.106 20.27-7.601 9.185 19.855 28.548 19.105 32.33 19.521 -11.02 3.397-4.729 31.249-3.77 40.96 -0.163-7.896-3.465-29.31 1.25-36.84 0 0 0.648-1.301 3.14-2.38 6.946-2.627 15.325 2.951 29.95-7.34 4.758-4.518 7.13-7.39 7.13-17.53 24.029 11.337 46.962 16.747 56.11 21.7 -0.013 0.081-0.05 0.414-0.05 0.42 -1.544 13.248 1.243-1.169-4.4 28.689 -1.47 8.541-0.406 5.667-1.13 13.28 1.481-7.851-0.067-3.756 2.12-13.12 4.586-19.338 3.858-22.946 4.16-29.39 3.326-2.396 5.107 0.213 6.399 3.96 4.836 14.695 7.982 34.133 10.09 41.76C141.558 233.843 61.242 233.874-4.591 234.455zM107.847 202.681c-3.239 1.259-7.306 0.944-10.905 0.433C103.167 202.238 107.208 202.645 107.847 202.681z" id="SvgjsPath183190"></path></g><g id="svga-group-head"><g id="svga-group-ears-left"><path opacity="1" stroke-width="1.5" stroke="#c8837c" fill="#f6e4e2" d="M47.001 83.231c-1.376-2.453-5.638-8.48-9.98-7.003 -2.749 0.935-3.293 3.993-3.735 6.693 -0.588 3.591 0.471 10.694 1.389 13.26 0.881 2.467 3.533 7.23 5.264 9.045 2.13 2.225 4.775 9.324 5.194 10.061 0.66 1.162 1.536 2.911 4.122 2.692 2.853-0.244 4.584-1.85 5.856-2.121C58.253 115.192 50.582 89.616 47.001 83.231z" id="SvgjsPath183181"></path><path stroke="none" opacity="1" stroke-width="none" fill="#c8837c" d="M44.197 98.104c-0.132-0.581 0.007-1.56 0.142-2.504 0.124-0.861 0.24-1.675 0.169-2.251 -0.267-2.154-1.773-6.249-2.757-8.467 -1.132-2.554-2.963-5.77-5.262-6.599 -0.95-0.343-1.575 0.067-1.938 0.484 -0.266 0.305-0.325 0.665-0.238 0.707 0.086 0.042 0.285-0.254 0.572-0.535 0.235-0.229 0.579-0.426 1.051-0.385 -0.19 1.073-1.167 6.883-0.744 10.845 0.333 3.115 1.593 5.442 1.79 5.791 0.029 0.367 0.077 0.726 0.148 1.075 0.929 4.547 4.971 9.717 6.378 11.409 0.259 0.313 0.531 0.497 0.598 0.423 0.066-0.076-0.094-0.387-0.353-0.7 -1.388-1.679-5.391-6.831-6.289-11.218 -0.952-4.656 2.318-11.556 3.048-13.017 0.371 0.685 0.687 1.344 0.93 1.893 0.19 0.431 0.402 0.936 0.619 1.479 -0.429 0.762-3.434 6.32-2.338 10.767 0.406 1.641 2.235 3.755 3.447 4.333 0.667 0.32 0.919 0.797 1.209 1.349 0.336 0.64 0.718 1.365 1.828 1.892 0.225 0.108 0.429 0.151 0.61 0.151 0.313 0 0.551-0.135 0.725-0.293 0.018 0.28 0.017 0.64 0.009 0.97 -0.012 0.431 0.042 0.783 0.137 0.791 0.094 0.008 0.196-0.332 0.207-0.76 0.016-0.526 0.013-1.177-0.072-1.488 -0.248-0.917-1.008-1.953-1.813-3.048C45.221 100.116 44.403 99.003 44.197 98.104zM36.95 94.073c-2.177-7.139 0.656-13.3 1.144-14.28 0.85 0.822 1.6 1.919 2.21 2.995C39.86 83.646 37.041 89.271 36.95 94.073zM46.341 104.515c-1.004-0.475-1.339-1.115-1.666-1.733 -0.293-0.559-0.598-1.136-1.369-1.505 -0.168-0.081-0.352-0.203-0.542-0.343 -2.486-6.263 0.272-9.001 0.963-9.562 0.211 0.766 0.369 1.468 0.439 2.031 0.063 0.517-0.052 1.339-0.167 2.134 -0.142 0.985-0.286 2.004-0.137 2.664 0.226 0.982 1.069 2.131 1.884 3.242 0.723 0.986 1.466 2.003 1.721 2.832C47.359 104.439 47.017 104.836 46.341 104.515z" id="SvgjsPath183182"></path></g><g id="svga-group-ears-right"><path opacity="1" stroke-width="1.5" stroke="#c8837c" fill="#f6e4e2" d="M152.736 83.231c1.377-2.453 5.639-8.48 9.98-7.003 2.75 0.935 3.293 3.993 3.736 6.693 0.588 3.591-0.471 10.694-1.389 13.26 -0.881 2.467-3.533 7.23-5.266 9.045 -2.129 2.225-4.775 9.324-5.193 10.061 -0.658 1.162-1.535 2.911-4.121 2.692 -2.854-0.244-4.584-1.85-5.857-2.121C141.484 115.192 149.156 89.616 152.736 83.231z" id="SvgjsPath183183"></path><path stroke="none" opacity="1" stroke-width="none" fill="#c8837c" d="M153.727 101.196c-0.805 1.096-1.564 2.131-1.813 3.048 -0.086 0.311-0.088 0.962-0.072 1.488 0.012 0.428 0.113 0.768 0.207 0.76s0.148-0.36 0.137-0.791c-0.008-0.331-0.008-0.69 0.01-0.97 0.174 0.158 0.412 0.293 0.725 0.293 0.182 0 0.385-0.043 0.609-0.151 1.109-0.526 1.492-1.252 1.828-1.892 0.289-0.552 0.543-1.028 1.209-1.349 1.213-0.578 3.041-2.692 3.447-4.333 1.096-4.447-1.908-10.005-2.338-10.767 0.217-0.544 0.43-1.049 0.619-1.479 0.244-0.549 0.559-1.208 0.93-1.893 0.73 1.46 4 8.361 3.049 13.017 -0.896 4.387-4.9 9.539-6.289 11.218 -0.258 0.313-0.418 0.624-0.352 0.7 0.066 0.074 0.338-0.109 0.598-0.423 1.406-1.692 5.449-6.862 6.379-11.409 0.07-0.35 0.117-0.708 0.146-1.075 0.197-0.349 1.459-2.676 1.791-5.791 0.422-3.961-0.555-9.772-0.744-10.845 0.473-0.042 0.814 0.156 1.051 0.385 0.287 0.281 0.486 0.577 0.572 0.535 0.086-0.042 0.027-0.402-0.238-0.707 -0.363-0.417-0.988-0.827-1.938-0.484 -2.299 0.83-4.131 4.045-5.262 6.599 -0.984 2.218-2.49 6.313-2.758 8.467 -0.072 0.576 0.045 1.39 0.17 2.251 0.135 0.945 0.273 1.924 0.141 2.504C155.336 99.003 154.518 100.116 153.727 101.196zM159.434 82.787c0.611-1.075 1.361-2.173 2.211-2.995 0.488 0.98 3.32 7.141 1.145 14.28C162.697 89.271 159.879 83.646 159.434 82.787zM152.27 104.275c0.254-0.829 0.998-1.846 1.721-2.832 0.816-1.111 1.658-2.26 1.885-3.242 0.148-0.66 0.004-1.679-0.137-2.664 -0.115-0.795-0.23-1.617-0.166-2.134 0.068-0.563 0.227-1.266 0.438-2.031 0.691 0.561 3.449 3.299 0.965 9.562 -0.191 0.14-0.375 0.263-0.543 0.343 -0.771 0.369-1.074 0.946-1.369 1.505 -0.326 0.618-0.662 1.258-1.666 1.733C152.721 104.836 152.379 104.439 152.27 104.275z" id="SvgjsPath183184"></path></g><g id="svga-group-faceshape-wrap"><g id="svga-group-faceshape-single"><path opacity="1" stroke-width="none" fill="#f6e4e2" d="M100.002 0.867C66.384 0.92 39.082 28.536 39.134 62.56c0.008 5.403 0.704 10.643 2.002 15.634h0.001c0.012 0.054 11.542 38.591 14.02 51.25 1.382 7.06 9.063 15.656 16.531 20.849 6.967 4.845 11.263 11.574 28.313 11.574s21.346-6.729 28.313-11.574c7.468-5.192 15.149-13.789 16.531-20.849 2.479-12.658 14.009-51.196 14.02-51.25h0.002c1.298-4.992 1.994-10.231 2.002-15.634C160.923 28.536 133.62 0.92 100.002 0.867z" id="SvgjsPath183198"></path><path opacity="1" stroke-width="none" fill="#eed2cf" d="M146.772 23.096c7.478 10.35 11.917 23.245 11.898 37.227 -0.009 5.403-0.679 10.643-1.93 15.634h-0.002c-0.011 0.054-11.124 38.591-13.512 51.25 -1.335 7.06-8.737 15.656-15.935 20.849 -6.718 4.845-10.854 11.575-27.291 11.575 -16.434 0-20.575-6.73-27.291-11.575 -7.197-5.192-14.602-13.789-15.931-20.849 -2.391-12.658-13.504-51.195-13.515-51.25h0c-1.252-4.992-1.922-10.231-1.931-15.634 -0.021-13.978 4.416-26.868 11.889-37.217 -8.812 10.697-14.112 24.45-14.089 39.453 0.008 5.403 0.704 10.643 2.002 15.634h0.001c0.012 0.054 11.542 38.591 14.02 51.25 1.382 7.06 9.063 15.656 16.531 20.849 6.967 4.845 11.263 11.574 28.313 11.574s21.346-6.729 28.313-11.574c7.468-5.192 15.149-13.789 16.531-20.849 2.479-12.658 14.009-51.196 14.02-51.25h0.002c1.298-4.992 1.994-10.231 2.002-15.634C160.894 47.552 155.589 33.795 146.772 23.096z" id="SvgjsPath183199"></path><path opacity="1" stroke-width="1.5" stroke="#c8837c" fill="none" d="M100.002 0.867C66.384 0.92 39.082 28.536 39.134 62.56c0.008 5.403 0.704 10.643 2.002 15.634h0.001c0.012 0.054 11.542 38.591 14.02 51.25 1.382 7.06 9.063 15.656 16.531 20.849 6.967 4.845 11.263 11.574 28.313 11.574s21.346-6.729 28.313-11.574c7.468-5.192 15.149-13.789 16.531-20.849 2.479-12.658 14.009-51.196 14.02-51.25h0.002c1.298-4.992 1.994-10.231 2.002-15.634C160.923 28.536 133.62 0.92 100.002 0.867z" id="SvgjsPath183200"></path></g></g><g id="svga-group-mouth-single"><path stroke="none" opacity="1" stroke-width="none" fill="#e7c1bd" d="M94.859 137.427c0.259 0.002 11.018-0.099 11.018-0.099s-3.174 0.714-5.865 0.688C97.688 137.997 94.859 137.427 94.859 137.427z" id="SvgjsPath183177"></path><path stroke="none" opacity="1" stroke-width="none" fill="#c8837c" d="M86.537 135.998c-0.649-0.642 3.796-2.875 5.987-3.547 2.769-0.882 5.481-0.17 8.3-0.383 2.571-0.195 4.901-0.735 7.421 0.076 2.277 0.733 6.579 3.048 6.292 3.601 -0.289 0.558-4.189-1.703-6.378-2.18 -2.508-0.534-4.781 0.241-7.28 0.488 -2.558 0.254-5.083-0.713-7.64-0.307C90.92 134.114 86.894 136.351 86.537 135.998z" id="SvgjsPath183178"></path></g><g id="svga-group-eyes-left"><g id="svga-group-eyesback-left"><path opacity="1" fill="url(#SvgjsRadialGradient183112)" d="M74.8 71.999c7.18 0 13 5.82 13 13 0 7.18-5.82 13-13 13s-13-5.82-13-13C61.8 77.819 67.62 71.999 74.8 71.999z" id="SvgjsPath183111"></path></g><g transform="translate(1 1)" id="svga-group-eyesiriswrapper-left"><g id="svga-group-eyesiriscontrol-left"><g id="svga-group-eyesiris-left"><path opacity="1" stroke-width="0.5" stroke="#576aab" fill="#b0b9d9" d="M79.788 85.588c-0.869 3.192-4.16 5.073-7.358 4.196 -3.195-0.876-5.083-4.178-4.212-7.371 0.868-3.195 4.167-5.076 7.362-4.198C78.773 79.09 80.658 82.392 79.788 85.588z" id="SvgjsPath183149"></path><path stroke="none" opacity="1" stroke-width="none" fill="#d4d8e8" d="M73.265 80.413l-0.156-0.279c-0.548 0.218-1.076 0.445-1.575 0.687l0.37 0.894 -0.047 0.517 -1.426-0.839c-0.466 0.259-0.898 0.529-1.318 0.804l0.004 0.009 -0.489 0.55 0.781 0.799 -1.052 0.574 0.398 0.657 1.857 0.185 -1.741 1.181 1.863-0.103 -0.982 1.693 2.297-1.39 -0.618 2.364 1.329-2.184 0.256 2.343 0.384-2.072 0.353-0.043 0.5 2.35 0.152-0.705c0.201-0.052 0.718 0.704 0.915 0.651L74.736 86.5l1.282 2.556 -0.52-2.651 1.578 2.05c0.057-0.018 0.196-0.85 0.252-0.867l-0.982-1.469 1.785 0.539 -1.071-1.16 -0.86-0.712 3.586 0.803 -1.997-1.217 1.411-0.577 -3.055-0.309 3.021-1.602 -2.734 0.698 -0.736-0.399 -0.181-0.354 0.052-0.846 0.061-1.389 -1.248 2.198 -0.11-1.609 -0.157-0.421c-0.25 0.087-0.495 0.172-0.736 0.265L73.265 80.413z" id="SvgjsPath183150"></path><path stroke="none" opacity="0.9" stroke-width="none" fill="#8f9cca" d="M79.856 82.755c-5.242 0.239-7.907 1.36-11.707 2.631 -0.732-3.229 1.298-6.438 4.53-7.164S79.125 79.525 79.856 82.755z" id="SvgjsPath183151"></path><path opacity="0.8" stroke-width="none" fill="#000000" d="M74.869 81.998c-1.319-0.378-2.666 0.375-3.005 1.69 -0.342 1.308 0.452 2.678 1.771 3.056 1.32 0.379 2.667-0.375 3.009-1.684C76.987 83.745 76.19 82.376 74.869 81.998z" id="SvgjsPath183152"></path><path opacity="1" stroke-width="0.75" stroke="#576aab" fill="none" d="M74.869 81.998c-1.319-0.378-2.666 0.375-3.005 1.69 -0.342 1.308 0.452 2.678 1.771 3.056 1.32 0.379 2.667-0.375 3.009-1.684C76.987 83.745 76.19 82.376 74.869 81.998z" id="SvgjsPath183153"></path><path opacity="0.4" stroke-width="none" fill="#ffffff" d="M69.631 87.56c0.613 0.973 1.426 1.706 2.578 1.95 1.326 0.281 1.477-1.483 0.528-1.685 -0.72-0.152-1.176-0.505-1.552-1.102C70.497 85.63 69.079 86.684 69.631 87.56L69.631 87.56z" id="SvgjsPath183154"></path><path opacity="1" fill="url(#SvgjsLinearGradient183156)" d="M75.033 81.493c0.929 0.187 1.469 0.768 1.938 1.64 0.862 1.604 3.299 0.178 2.437-1.425 -0.757-1.408-2.019-2.613-3.625-2.938C73.726 78.355 73.438 81.171 75.033 81.493L75.033 81.493z" id="SvgjsPath183155"></path></g></g></g><g id="svga-group-eyesfront-left"><path stroke="none" opacity="1" stroke-width="none" fill="#f6e4e2" d="M56.198 84.999c0 13.807 8.507 25 19 25s19-11.193 19-25 -8.507-25-19-25S56.198 71.192 56.198 84.999zM61.8 84.999c0-7.18 5.82-13 13-13s13 5.82 13 13c0 7.18-5.82 13-13 13S61.8 92.179 61.8 84.999z" id="SvgjsPath183136"></path><path stroke="none" opacity="1" stroke-width="none" fill="#1b2a40" d="M61.8 84.999c0 7.18 5.82 13 13 13s13-5.82 13-13c0-7.18-5.82-13-13-13S61.8 77.819 61.8 84.999zM62.8 84.999c0-6.627 5.373-12 12-12s12 5.373 12 12c0 6.628-5.373 12-12 12S62.8 91.627 62.8 84.999z" id="SvgjsPath183137"></path></g></g><g id="svga-group-eyes-right"><g id="svga-group-eyesback-right"><path opacity="1" fill="url(#SvgjsRadialGradient183120)" d="M137.801 84.999c0 7.18-5.82 13-13 13s-13-5.82-13-13c0-7.18 5.82-13 13-13S137.801 77.819 137.801 84.999z" id="SvgjsPath183119"></path></g><g transform="translate(-1 1)" id="svga-group-eyesiriswrapper-right"><g id="svga-group-eyesiriscontrol-right"><g id="svga-group-eyesiris-right"><path opacity="1" stroke-width="0.5" stroke="#576aab" fill="#b0b9d9" d="M131.788 85.587c-0.869 3.193-4.16 5.074-7.358 4.196 -3.195-0.876-5.082-4.178-4.212-7.371 0.867-3.195 4.167-5.076 7.361-4.198C130.774 79.091 132.658 82.393 131.788 85.587z" id="SvgjsPath183159"></path><path stroke="none" opacity="1" stroke-width="none" fill="#d4d8e8" d="M125.266 80.413l-0.155-0.278c-0.548 0.217-1.076 0.445-1.576 0.686l0.37 0.894 -0.047 0.517 -1.426-0.839c-0.467 0.259-0.898 0.529-1.317 0.804l0.004 0.009 -0.49 0.551 0.782 0.799 -1.052 0.573 0.397 0.657 1.857 0.185 -1.741 1.181 1.863-0.103 -0.982 1.692 2.296-1.39 -0.616 2.364 1.328-2.184 0.257 2.343 0.384-2.073 0.353-0.043 0.501 2.35 0.151-0.704c0.201-0.052 0.719 0.703 0.915 0.651l-0.585-2.556 1.283 2.556 -0.521-2.651 1.577 2.05c0.057-0.018 0.197-0.85 0.253-0.867l-0.982-1.469 1.786 0.538 -1.071-1.16 -0.859-0.712 3.586 0.802 -1.997-1.216 1.411-0.577 -3.054-0.308 3.021-1.603 -2.734 0.698 -0.736-0.399 -0.18-0.354 0.052-0.847 0.061-1.388 -1.247 2.198 -0.11-1.609 -0.156-0.422c-0.25 0.087-0.495 0.173-0.735 0.265L125.266 80.413z" id="SvgjsPath183160"></path><path stroke="none" opacity="0.9" stroke-width="none" fill="#8f9cca" d="M131.855 82.755c-5.24 0.239-7.906 1.36-11.706 2.631 -0.731-3.229 1.298-6.438 4.53-7.164C127.911 77.495 131.126 79.525 131.855 82.755z" id="SvgjsPath183161"></path><path opacity="0.8" stroke-width="none" fill="#000000" d="M126.87 81.998c-1.319-0.378-2.666 0.376-3.005 1.69 -0.343 1.308 0.451 2.678 1.77 3.056 1.322 0.379 2.668-0.375 3.009-1.684C128.987 83.745 128.189 82.376 126.87 81.998z" id="SvgjsPath183162"></path><path opacity="1" stroke-width="0.75" stroke="#576aab" fill="none" d="M126.87 81.998c-1.319-0.378-2.666 0.376-3.005 1.69 -0.343 1.308 0.451 2.678 1.77 3.056 1.322 0.379 2.668-0.375 3.009-1.684C128.987 83.745 128.189 82.376 126.87 81.998z" id="SvgjsPath183163"></path><path opacity="0.4" stroke-width="none" fill="#ffffff" d="M121.632 87.56c0.612 0.973 1.426 1.706 2.577 1.95 1.326 0.281 1.478-1.482 0.528-1.685 -0.72-0.152-1.177-0.504-1.552-1.102C122.498 85.63 121.079 86.684 121.632 87.56L121.632 87.56z" id="SvgjsPath183164"></path><path opacity="1" fill="url(#SvgjsLinearGradient183166)" d="M127.034 81.493c0.929 0.187 1.469 0.767 1.938 1.639 0.862 1.604 3.3 0.178 2.437-1.425 -0.757-1.408-2.018-2.613-3.625-2.938C125.727 78.355 125.438 81.171 127.034 81.493L127.034 81.493z" id="SvgjsPath183165"></path></g></g></g><g id="svga-group-eyesfront-right"><path stroke="none" opacity="1" stroke-width="none" fill="#f6e4e2" d="M124.402 59.999c-10.493 0-19 11.193-19 25s8.507 25 19 25 19-11.193 19-25S134.896 59.999 124.402 59.999zM124.801 98c-7.18 0-13-5.82-13-13 0-7.18 5.82-13 13-13s13 5.82 13 13C137.801 92.179 131.98 98 124.801 98z" id="SvgjsPath183147"></path><path stroke="none" opacity="1" stroke-width="none" fill="#1b2a40" d="M124.801 71.999c-7.18 0-13 5.82-13 13 0 7.18 5.82 13 13 13s13-5.82 13-13C137.801 77.819 131.98 71.999 124.801 71.999zM124.801 96.999c-6.627 0-12-5.372-12-12 0-6.627 5.373-12 12-12s12 5.373 12 12C136.801 91.627 131.428 96.999 124.801 96.999z" id="SvgjsPath183148"></path></g></g><g id="svga-group-facehighlight-single"><path opacity="1" fill="url(#SvgjsRadialGradient182923)" d="M141 113.974c0.035 22.622-18.292 40.994-40.938 41.025 -22.642 0.037-41.028-18.273-41.063-40.9 -0.035-22.62 18.292-41.064 40.937-41.1C122.579 72.964 140.967 91.349 141 113.974z" id="SvgjsPath182922"></path><path opacity="1" fill="url(#SvgjsRadialGradient182927)" d="M137.5 53.999c0 20.711-16.789 37.5-37.499 37.5 -20.711 0-37.501-16.789-37.501-37.5s16.79-37.5 37.501-37.5C120.711 16.499 137.5 33.288 137.5 53.999z" id="SvgjsPath182926"></path></g><g id="svga-group-eyebrows-left"><path stroke="none" opacity="1" stroke-width="none" fill="#6b4e40" d="M90.857 74.446c-12.948-4.229-18.875-4.225-33.252-2.519 -0.434 0.051-2.459 0.548-2.637 0.221 11.896-2.694 21.942-3.566 33.164 0.925C88.531 73.233 90.911 74.118 90.857 74.446z" id="SvgjsPath183169"></path></g><g id="svga-group-eyebrows-right"><path stroke="none" opacity="1" stroke-width="none" fill="#6b4e40" d="M108.978 74.414c9.882-6.264 21.947-6.458 33.14-3.238 0.444 0.128 2.899 0.624 2.915 1.026C120.586 66.812 108.978 74.414 108.978 74.414z" id="SvgjsPath183170"></path></g><g id="svga-group-nose-single"><path stroke="none" opacity="1" stroke-width="none" fill="#e7c1bd" d="M101.1 120.646c-0.471 0.511-0.856 0.45-1.301-0.08l-4.95-5.988H107L101.1 120.646z" id="SvgjsPath183179"></path><path stroke="none" opacity="1" stroke-width="none" fill="#c8837c" d="M93.461 115.507l6.435 5.235c0.537 0.437 0.744 0.271 0.464-0.367l-2.295-5.2c-0.112-0.252-0.146-0.676-0.078-0.943l1.676-26.41 -6.383 25.917C92.844 114.276 92.925 115.071 93.461 115.507z" id="SvgjsPath183180"></path></g><g id="svga-group-beardwrap"><g id="svga-group-beard-single"><path opacity="1" stroke-width="none" fill="#2a232b" d="M100,18.13L100,18.13L100,18.13L100,18.13z" id="SvgjsPath182940"></path></g></g><g id="svga-group-mustache-single"><path opacity="1" stroke-width="none" fill="#2a232b" d="M100,18.13L100,18.13L100,18.13L100,18.13z" id="SvgjsPath182938"></path></g><g id="svga-group-hair-front"><path stroke="none" opacity="1" stroke-width="none" fill="#6b4e40" d="M47.026 91.499C36.463 75.132 33.771 45.712 41.42 29.37c3.677-8.152 11.5-16.87 19.933-22.212 3.296-1.755 14.915-7.519 25.207-7.519 2.41 0 4.566 0.328 6.409 0.976l0.128 0.045 0.117-0.068c2.99-1.725 6.747-2.046 14.581-2.148l0.25-0.003c1.869 0 3.991 0.519 6.679 1.175 2.018 0.493 4.305 1.052 7.044 1.532 14.452 2.091 25.214 9.782 31.994 22.861 11.354 21.899 7.755 51.169 2.551 61.403 -1.005 1.71-2.747 3.986-3.457 4.895 -2.569-6.597-2.109-9.274-1.58-12.363 0.486-2.823 1.035-6.024-0.416-12.708 -1.813-9.123-1.767-9.825-1.657-11.519 0.071-1.119 0.169-2.653-0.163-7.04 -1.297-8.593-4.051-18.792-13.937-21.607l-0.787-0.224 0.465 0.674c1.439 2.09 2.693 3.223 4.146 4.534 1.005 0.907 2.043 1.844 3.289 3.227 -0.877 0.208-1.729 0.307-2.646 0.307 -0.667 0-1.372-0.052-2.153-0.158l-0.747-0.102 0.482 0.582c0.824 0.995 2.164 2.119 3.241 3.022 0.251 0.21 0.489 0.411 0.706 0.597 -1.888 0.188-5.86 0.565-8.83 0.565 -0.9 0-1.652-0.035-2.233-0.102 -12.426-0.972-21.939-4-33.822-16.606l-0.219-0.233 -0.213 0.238c-2.139 2.382-3.451 3.556-5.765 5.442C79.22 35.362 60.993 42.51 51.347 44.644c2.717-3.577 3.516-6.073 3.868-7.173l0.08-0.245 -0.5-0.286c-1.06 1.211-1.746 1.854-2.594 2.512 0.01-0.048 0.021-0.097 0.031-0.147 0.235-1.119 0.629-2.991 1.007-6.871l0.109-1.112 -0.642 0.915c-4.648 6.618-4.203 16.015-3.811 24.306 0.209 4.41 0.407 8.576-0.191 11.822 -0.241 1.31-0.404 2.164-0.523 2.786 -0.193 1.004-0.272 1.42-0.372 2.184 -0.42 2.467-0.084 4.289 0.271 6.218C48.625 82.514 49.189 85.575 47.026 91.499z" id="SvgjsPath183091"></path><path stroke="none" opacity="1" stroke-width="none" fill="#5c3d2e" d="M156.313 85.41c-1.005 1.71-2.747 3.986-3.457 4.895 -4.851-12.454 1.084-10.881-1.996-25.071 -1.813-9.123-1.767-9.825-1.657-11.519 0.071-1.119 0.169-2.653-0.163-7.04 -2.384-15.797-7.969-19.74-14.626-21.635 3.238 4.701 4.341 4.399 7.802 8.238 -2.017 0.48-3.552 0.319-5.546 0.047 1.524 1.839 1.919 2.045 4.43 4.2 -20.885 2.083-32.607-3.115-45.104-16.376C84.298 34.184 60.663 42.583 51.347 44.644c2.298-3.023 3.205-5.132 3.947-7.418l-0.5-0.286c-1.06 1.211-1.746 1.854-2.594 2.512 0.636-3.031 0.833-4.916 1.146-8.13 -4.916 6.998-4.992 13.839-4.453 25.221 0.436 9.196 0.166 10.015-0.714 14.607 -1.88 9.786 2.647 9.943-1.153 20.35C36.463 75.132 33.771 45.712 41.42 29.37c1.542-3.419 3.821-6.936 6.562-10.265 -9.116 17.321-6.863 36.097-3.914 54.259 3.183-14.974-4.985-36.988 12.672-48.76 -0.251 4.011 0.04 4.3-1.274 8.526 1.999-1.542 4.529-3.101 7.099-5.442 0 4.905-2.439 7.648-5.505 12.554 8.215-3.434 32.004-13.243 38.019-28.679 8.829 11.772 22.562 20.601 38.257 22.563 -3.924-1.962-4.904-5.886-6.866-8.829 1.329 1.994 3.557 2.636 5.771 3.148 -3.475-3.993-2.631-5.865-3.475-10.928 8.321 5.933 13.512 6.156 18.417 13.022 8.089 14.409 9.959 31.208 8.187 48.006 3.777-22.269 4.31-50.502-11.041-67.09C165.663 31.031 163.301 71.67 156.313 85.41zM93.642 10.649c-7.696 9.673-18.75 16.569-29.838 23.461C83.652 24.708 89.941 16.459 93.642 10.649zM65.194 20.461C70.966 13.814 81.8 9.921 90.699 9.017 82.568 10.689 71.246 14.978 65.194 20.461zM44.92 35.176c3.365-11.42 12.869-21.716 27.794-26.159C58.992 14.661 49.245 24.915 44.92 35.176zM125.605 28.961c-11.956-3.481-22.122-11.056-27.059-17.983C104.801 17.909 117.104 25.159 125.605 28.961zM128.679 15.19c-14.388-6.021-18.71-7.194-28.497-7.809C111.377 6.862 117.438 8.883 128.679 15.19zM152.827 34.195c-3.864-10.752-15.955-22.29-29.429-25.505C138.173 10.557 150.093 22.106 152.827 34.195z" id="SvgjsPath183092"></path><path stroke="none" opacity="1" stroke-width="none" fill="#73574a" d="M94.097 3.715c14.096-8.107 44.343 1.048 57.75 17.071 -5.559-9.81-19.544-18.116-30.079-19.64 -6.662-1.167-10.443-2.744-13.973-2.704C99.573-1.45 96.131-1.095 93.097 0.659c-9.233-3.216-23.166 1.931-31.744 6.499 -2.624 1.662-7.658 6.118-10.056 8.315C68.464 3.783 84.65-2.185 94.097 3.715z" id="SvgjsPath183093"></path><path stroke="none" opacity="1" stroke-width="none" fill="#3d2012" d="M121.818 0.856c-6.584-1.154-10.664-2.793-14.027-2.708 -7.737 0.1-11.611 0.391-14.724 2.187C84.095-2.815 70.164 2.13 61.194 6.909c-8.02 5.081-16.169 13.751-20.041 22.337 -8.027 17.149-4.684 49.433 5.944 62.9 3.936-10.303-0.077-12.436 1-18.776 0.159-1.218 0.262-1.515 0.893-4.954 1.729-9.384-3.103-25.966 3.954-36.012 -0.499 5.102-1.016 6.692-1.178 7.74 1.253-0.918 1.984-1.569 3.247-3.012 -0.327 0.981-1.062 3.779-4.395 7.966 9.303-1.88 28.306-9.127 39.583-18.04 2.392-1.951 3.708-3.148 5.797-5.474 11.396 12.089 20.639 15.651 34.001 16.696 3.146 0.369 9.898-0.339 11.8-0.529 -1.059-0.97-3.264-2.633-4.424-4.032 1.894 0.257 3.62 0.234 5.356-0.285h0.01c-0.083-0.123-0.218-0.244-0.274-0.313 -3.09-3.438-5.032-4.266-7.446-7.77 9.221 2.625 12.299 11.911 13.724 21.346 0.852 11.268-1.146 3.633 1.825 18.6 3.108 14.311-3.034 12.512 2.198 25.593 0 0 2.492-3.111 3.806-5.346C165.161 68.663 167.408 7.454 121.818 0.856zM159.891 63.864c-1.55 19.571-3.241 21.057-6.994 26.369 -0.645-1.984-1.137-3.356-1.334-4.169 -1.516-5.478 2.872-9.442 0.353-21.042 -2.856-14.166-1.015-7.291-1.814-18.491 -1.686-10.32-5.623-19.876-16.03-21.611 1.051 2.778 6.656 7.095 8.124 8.407 -2.439 0.315-4.725 0.001-5.759-0.049 0.789 1.27 3.118 3.265 4.325 4.199 -21.423 0.401-32.106-4.996-44.506-16.177 -0.019-0.01-0.029-0.029-0.049-0.039 -0.137-0.127-0.274-0.246-0.401-0.373 -6.678 7.605-28.276 18.658-44.487 23.857 2.4-2.865 3.952-5.566 4.493-9.221 -0.858 0.981-1.332 1.814-3.453 3.777 0.713-2.228 1.159-6.304 1.236-8.662 -10.057 11.69-4.527 26.921-5.915 35.58 -0.379 3.881-1.742 6.671-0.981 11.831 0.654 3.077 2.125 6.251 0.235 13.165 -10.358-16.29-11.652-45.732-4.355-61.32 4.289-9.495 15.193-21.164 27.291-25.82 7.128-2.506 16.146-5.732 23.161-3.394 4.046-2.016 7.167-1.611 12.449-1.716 6.179-0.163 8.392 1.685 16.106 3.168 9.354 1.753 17.338 6.065 21.366 9.781C156.198 23.404 160.854 46.289 159.891 63.864z" id="SvgjsPath183094"></path></g><g id="svga-group-glasses-single"><path opacity="0.6" stroke-width="none" fill="#5b1d0d" d="M149.6 87.26c0 9.03-7.39 16.52-16.42 16.52h-3.7c-3.38 0-9.1-2.02-14.66-7.3 -3.04-2.88-7.19-10.12-8.29-14.36 -0.51-1.96 0.43-4.67 0.7-5.17l2.69-5.08c0.48-0.91 2.3-1.92 3.33-2.08 2.79-0.43 10.45-1.09 10.45-1.09 5.18 0.27 11.62 0.61 17.11 3.1 5.88 2.67 8.79 7.34 8.79 14.1V87.26zM50.4 85.9c0-6.77 2.91-11.43 8.79-14.1 5.48-2.49 11.93-2.83 17.11-3.1 0 0 7.67 0.66 10.45 1.09 1.02 0.16 2.84 1.16 3.33 2.08l2.69 5.08c0.27 0.5 1.21 3.21 0.7 5.17 -1.11 4.24-5.26 11.48-8.29 14.36 -5.56 5.28-11.28 7.3-14.66 7.3h-3.7c-9.03 0-16.42-7.5-16.42-16.52V85.9z" id="SvgjsPath183171"></path><path opacity="0.1" stroke-width="none" fill="#ffffff" d="M149.6 87.26c0 0.65-0.05 1.29-0.12 1.92 -12.99-3.95-27.98-6.71-43.09-8.52 0.04-1.65 0.63-3.34 0.84-3.72l2.69-5.08c0.48-0.91 2.3-1.92 3.33-2.08 2.79-0.43 10.45-1.09 10.45-1.09 5.18 0.27 11.62 0.61 17.11 3.1 5.88 2.67 8.79 7.34 8.79 14.1V87.26zM90.09 71.86c-0.48-0.91-2.3-1.92-3.33-2.08 -2.79-0.43-10.45-1.09-10.45-1.09 -5.18 0.27-11.62 0.61-17.11 3.1 -3.18 1.45-5.49 3.48-6.94 6.11 12.16-0.23 26.49 0.18 41.23 1.44 -0.2-1.14-0.55-2.12-0.7-2.4L90.09 71.86z" id="SvgjsPath183172"></path><path stroke="none" opacity="1" stroke-width="none" fill="#d1472e" d="M104.15 81.18l4.15 9.35L107.37 91c-2.02-0.56-2.97-6.13-4.37-8.05 -0.96-1.32-5.05-1.32-6.01 0 -1.4 1.92-2.36 7.49-4.37 8.05l-0.93-0.47 4.15-9.35C96.77 79.1 103.22 79.09 104.15 81.18zM93.75 71.62c0.14-0.63 0.7-1.07 1.35-1.07 3.54 0 6.26 0 9.8 0 0.65 0 1.2 0.45 1.35 1.07l0.12 0.54 2.52-4.34c-2.58 0-15.21 0-17.79 0l2.52 4.34L93.75 71.62zM95.55 75.4v1.36c2.17-1.11 6.73-1.11 8.89 0V75.4C102.12 74.22 97.91 74.2 95.55 75.4z" id="SvgjsPath183173"></path><path stroke="none" opacity="1" stroke-width="none" fill="#e05f48" d="M121.06 67.31l-10.59-0.21c-1.53-0.03-2.95 0.8-3.67 2.16l-2.69 5.08c-0.37 0.69-0.56 1.46-0.56 2.24 0.5 19.18 18.71 28.31 25.93 28.31 0 0 2.46 0 3.7 0 9.74 0 17.64-7.9 17.64-17.64V85.9C150.82 69.7 135.43 67.79 121.06 67.31zM149.6 87.26c0 9.03-7.39 16.52-16.42 16.52h-3.7c-3.38 0-9.1-2.02-14.66-7.3 -3.04-2.88-7.19-10.12-8.29-14.36 -0.51-1.96 0.43-4.67 0.7-5.17l2.69-5.08c0.48-0.91 2.3-1.92 3.33-2.08 2.79-0.43 9.01-1.09 13.26-0.87 2.74 0.14 8.82 0.39 14.3 2.88 5.88 2.67 8.79 7.34 8.79 14.1V87.26zM49.18 85.9v1.36c0 9.74 7.9 17.64 17.64 17.64 1.24 0 3.7 0 3.7 0 7.23 0 25.43-9.13 25.93-28.31 0-0.78-0.19-1.55-0.56-2.24l-2.69-5.08c-0.72-1.35-2.14-2.19-3.67-2.16l-10.59 0.21C64.57 67.79 49.18 69.7 49.18 85.9zM50.4 85.9c0-6.77 2.91-11.43 8.79-14.1 5.48-2.49 11.56-2.73 14.3-2.88 4.25-0.22 10.48 0.44 13.26 0.87 1.02 0.16 2.84 1.16 3.33 2.08l2.69 5.08c0.27 0.5 1.21 3.21 0.7 5.17 -1.11 4.24-5.26 11.48-8.29 14.36 -5.56 5.28-11.28 7.3-14.66 7.3h-3.7c-9.03 0-16.42-7.5-16.42-16.52V85.9z" id="SvgjsPath183174"></path><path stroke="none" opacity="1" stroke-width="none" fill="#ef7a65" d="M106.33 75.78c-0.4 0.4-1.04 0.4-1.44 0s-0.4-1.04 0-1.44 1.04-0.4 1.44 0S106.73 75.38 106.33 75.78zM109.44 69.94c0-0.56-0.46-1.02-1.02-1.02s-1.02 0.46-1.02 1.02 0.46 1.02 1.02 1.02S109.44 70.5 109.44 69.94zM94.39 74.04c0.56 0 1.02 0.46 1.02 1.02s-0.46 1.02-1.02 1.02 -1.02-0.46-1.02-1.02C93.37 74.49 93.82 74.03 94.39 74.04zM90.85 70.64c0.39 0.41 1.04 0.42 1.44 0.03s0.42-1.04 0.03-1.44c-0.39-0.41-1.04-0.42-1.44-0.03S90.46 70.23 90.85 70.64z" id="SvgjsPath183175"></path><path stroke="none" opacity="1" stroke-width="none" fill="#d1472e" d="M156 83.47l-6 1.58 -0.4-3.78 6.4-1V83.47zM108.68 70.81v-1.79h-0.51v1.79H108.68zM106.43 75.5l-1.27-1.27 -0.36 0.36 1.27 1.27L106.43 75.5zM44 80.28l6.4 1L50 85.06l-6-1.58V80.28zM90.79 69.49l1.26 1.26 0.36-0.36 -1.26-1.26L90.79 69.49zM93.5 75.31h1.8v-0.51h-1.8V75.31z" id="SvgjsPath183176"></path></g></g></g><rect style="display:none;" opacity="0.5" fill="#ecf0f1" y="185" x="0" height="15" width="200" id="SvgjsRect182907"></rect><text y="185" x="100" fill="#000000" font-weight="400" text-anchor="middle" font-size="0.84em" style="font-size:0.84em;font-family:&quot;Roboto&quot;, &quot;Helvetica Neue&quot;, Helvetica, Arial, sans-serif;text-anchor:middle;font-weight:400;display:none;" font-family="&quot;Roboto&quot;, &quot;Helvetica Neue&quot;, Helvetica, Arial, sans-serif" id="SvgjsText182908"><tspan style="font-size:0.84em;font-family:&quot;Roboto&quot;, &quot;Helvetica Neue&quot;, Helvetica, Arial, sans-serif;text-anchor:middle;font-weight:400;" x="100" dy="1.2em" id="SvgjsTspan182909">Created on todream.eu</tspan></text></g><defs id="SvgjsDefs182872"><radialGradient class="svga-on-canvas-facehighlight-gradient-single-0" gradientUnits="userSpaceOnUse" r="41" cy="114" cx="100" id="SvgjsRadialGradient182923"><stop offset="0" stop-color="#ffffff" stop-opacity="0.5" id="SvgjsStop182924"></stop><stop offset="0.9" stop-color="#f6e4e2" stop-opacity="0" id="SvgjsStop182925"></stop></radialGradient><radialGradient class="svga-on-canvas-facehighlight-gradient-single-1" gradientUnits="userSpaceOnUse" r="37" cy="54" cx="100" id="SvgjsRadialGradient182927"><stop offset="0" stop-color="#ffffff" stop-opacity="0.5" id="SvgjsStop182928"></stop><stop offset="0.9" stop-color="#f6e4e2" stop-opacity="0" id="SvgjsStop182929"></stop></radialGradient><radialGradient class="svga-on-canvas-eyesfront-gradient-left-3" gradientUnits="userSpaceOnUse" gradientTransform="matrix(0.9998 0.0208 0.0166 -0.7998 -45.3195 145.9395)" r="16.003" fy="82.527" fx="133.239" cy="82.496" cx="121.986" id="SvgjsRadialGradient182980"><stop offset="0" stop-color="#e7c1bd" stop-opacity="1" id="SvgjsStop182981"></stop><stop offset="0.7" stop-color="#e7c1bd" stop-opacity="0.3" id="SvgjsStop182982"></stop><stop offset="1" stop-color="#f6e4e2" stop-opacity="0" id="SvgjsStop182983"></stop></radialGradient><radialGradient class="svga-on-canvas-eyesfront-gradient-left-4" gradientUnits="userSpaceOnUse" gradientTransform="matrix(1.0336 0 0 1.0336 -1.6796 1.3127)" r="29.524" cy="105.995" cx="68.931" id="SvgjsRadialGradient182985"><stop offset="0.95" stop-color="#000000" stop-opacity="0" id="SvgjsStop182986"></stop><stop offset="1" stop-color="#000000" stop-opacity="0.2" id="SvgjsStop182987"></stop></radialGradient><radialGradient class="svga-on-canvas-eyesfront-gradient-right-3" gradientUnits="userSpaceOnUse" gradientTransform="matrix(-0.9998 0.0208 -0.0166 -0.7998 244.5208 145.9478)" r="16.003" fy="82.527" fx="132.839" cy="82.496" cx="121.587" id="SvgjsRadialGradient183000"><stop offset="0" stop-color="#e7c1bd" stop-opacity="1" id="SvgjsStop183001"></stop><stop offset="0.7" stop-color="#e7c1bd" stop-opacity="0.3" id="SvgjsStop183002"></stop><stop offset="1" stop-color="#f6e4e2" stop-opacity="0" id="SvgjsStop183003"></stop></radialGradient><radialGradient class="svga-on-canvas-eyesfront-gradient-right-4" gradientUnits="userSpaceOnUse" gradientTransform="matrix(-1.0336 0 0 1.0336 201.6796 1.3127)" r="29.524" cy="105.995" cx="69.316" id="SvgjsRadialGradient183005"><stop offset="0.95" stop-color="#000000" stop-opacity="0" id="SvgjsStop183006"></stop><stop offset="1" stop-color="#000000" stop-opacity="0.2" id="SvgjsStop183007"></stop></radialGradient><radialGradient class="svga-on-canvas-eyesiris-gradient-left-1" gradientUnits="userSpaceOnUse" gradientTransform="matrix(0.096 -0.0248 0.0245 0.0961 141.2814 119.9893)" r="59.751" cy="-521.042" cx="-568.659" id="SvgjsRadialGradient183012"><stop offset="0" stop-color="#ffffff" stop-opacity="1" id="SvgjsStop183013"></stop><stop offset="1" stop-color="#ffffff" stop-opacity="0" id="SvgjsStop183014"></stop></radialGradient><radialGradient class="svga-on-canvas-eyesiris-gradient-left-2" gradientUnits="userSpaceOnUse" gradientTransform="matrix(0.0991 8.856319e-004 -0.0011 0.0991 131.1134 135.9855)" r="59.745" cy="-519.099" cx="-582.838" id="SvgjsRadialGradient183016"><stop offset="0" stop-color="#ffffff" stop-opacity="1" id="SvgjsStop183017"></stop><stop offset="1" stop-color="#ffffff" stop-opacity="0" id="SvgjsStop183018"></stop></radialGradient><linearGradient class="svga-on-canvas-eyesiris-gradient-left-5" gradientUnits="userSpaceOnUse" gradientTransform="matrix(1 0 0 1 -52 0)" y2="87.152" x2="123.606" y1="88.268" x1="122.67" id="SvgjsLinearGradient183022"><stop offset="0" stop-color="#ffffff" stop-opacity="1" id="SvgjsStop183023"></stop><stop offset="1" stop-color="#ffffff" stop-opacity="0" id="SvgjsStop183024"></stop></linearGradient><linearGradient class="svga-on-canvas-eyesiris-gradient-left-7" gradientUnits="userSpaceOnUse" gradientTransform="matrix(1 0 0 1 -52 0)" y2="81.879" x2="127.91" y1="79.822" x1="129.636" id="SvgjsLinearGradient183030"><stop offset="0" stop-color="#ffffff" stop-opacity="1" id="SvgjsStop183031"></stop><stop offset="1" stop-color="#ffffff" stop-opacity="0" id="SvgjsStop183032"></stop></linearGradient><radialGradient class="svga-on-canvas-eyesiris-gradient-right-1" gradientUnits="userSpaceOnUse" gradientTransform="matrix(0.096 -0.0248 0.0245 0.0961 193.2804 119.9894)" r="59.752" cy="-521.042" cx="-568.654" id="SvgjsRadialGradient183035"><stop offset="0" stop-color="#ffffff" stop-opacity="1" id="SvgjsStop183036"></stop><stop offset="1" stop-color="#ffffff" stop-opacity="0" id="SvgjsStop183037"></stop></radialGradient><radialGradient class="svga-on-canvas-eyesiris-gradient-right-2" gradientUnits="userSpaceOnUse" gradientTransform="matrix(0.0991 8.856319e-004 -0.0011 0.0991 183.1126 135.9856)" r="59.747" cy="-519.102" cx="-582.833" id="SvgjsRadialGradient183039"><stop offset="0" stop-color="#ffffff" stop-opacity="1" id="SvgjsStop183040"></stop><stop offset="1" stop-color="#ffffff" stop-opacity="0" id="SvgjsStop183041"></stop></radialGradient><linearGradient class="svga-on-canvas-eyesiris-gradient-right-5" gradientUnits="userSpaceOnUse" y2="87.152" x2="123.606" y1="88.268" x1="122.67" id="SvgjsLinearGradient183045"><stop offset="0" stop-color="#ffffff" stop-opacity="1" id="SvgjsStop183046"></stop><stop offset="1" stop-color="#ffffff" stop-opacity="0" id="SvgjsStop183047"></stop></linearGradient><linearGradient class="svga-on-canvas-eyesiris-gradient-right-7" gradientUnits="userSpaceOnUse" y2="81.879" x2="127.91" y1="79.822" x1="129.636" id="SvgjsLinearGradient183053"><stop offset="0" stop-color="#ffffff" stop-opacity="1" id="SvgjsStop183054"></stop><stop offset="1" stop-color="#ffffff" stop-opacity="0" id="SvgjsStop183055"></stop></linearGradient><linearGradient class="svga-on-canvas-mouth-gradient-single-0" gradientUnits="userSpaceOnUse" y2="139" x2="100" y1="142" x1="100" id="SvgjsLinearGradient183061"><stop offset="0.1" stop-color="#eed2cf" stop-opacity="1" id="SvgjsStop183062"></stop><stop offset="1" stop-color="#e7c1bd" stop-opacity="1" id="SvgjsStop183063"></stop></linearGradient><radialGradient class="svga-on-canvas-eyesback-gradient-left-0" gradientUnits="userSpaceOnUse" gradientTransform="matrix(-1 0 0 1 200 0)" r="13" cy="85" cx="125.2" id="SvgjsRadialGradient183112"><stop offset="0" stop-color="#ffffff" stop-opacity="1" id="SvgjsStop183113"></stop><stop offset="0.544" stop-color="#fdfefe" stop-opacity="1" id="SvgjsStop183114"></stop><stop offset="0.74" stop-color="#f6f8f9" stop-opacity="1" id="SvgjsStop183115"></stop><stop offset="0.879" stop-color="#eaeff2" stop-opacity="1" id="SvgjsStop183116"></stop><stop offset="0.992" stop-color="#d9e3e8" stop-opacity="1" id="SvgjsStop183117"></stop><stop offset="1" stop-color="#d8e2e7" stop-opacity="1" id="SvgjsStop183118"></stop></radialGradient><radialGradient class="svga-on-canvas-eyesback-gradient-right-0" gradientUnits="userSpaceOnUse" r="13" cy="85" cx="124.801" id="SvgjsRadialGradient183120"><stop offset="0" stop-color="#ffffff" stop-opacity="1" id="SvgjsStop183121"></stop><stop offset="0.544" stop-color="#fdfefe" stop-opacity="1" id="SvgjsStop183122"></stop><stop offset="0.74" stop-color="#f6f8f9" stop-opacity="1" id="SvgjsStop183123"></stop><stop offset="0.879" stop-color="#eaeff2" stop-opacity="1" id="SvgjsStop183124"></stop><stop offset="0.992" stop-color="#d9e3e8" stop-opacity="1" id="SvgjsStop183125"></stop><stop offset="1" stop-color="#d8e2e7" stop-opacity="1" id="SvgjsStop183126"></stop></radialGradient><radialGradient class="svga-on-canvas-eyesfront-gradient-left-0" gradientUnits="userSpaceOnUse" gradientTransform="matrix(-1 0 0 1 200 0)" r="13" cy="85" cx="125.2" id="SvgjsRadialGradient183128"><stop offset="0" stop-color="#ffffff" stop-opacity="1" id="SvgjsStop183129"></stop><stop offset="0.544" stop-color="#fdfefe" stop-opacity="1" id="SvgjsStop183130"></stop><stop offset="0.74" stop-color="#f6f8f9" stop-opacity="1" id="SvgjsStop183131"></stop><stop offset="0.879" stop-color="#eaeff2" stop-opacity="1" id="SvgjsStop183132"></stop><stop offset="0.992" stop-color="#d9e3e8" stop-opacity="1" id="SvgjsStop183133"></stop><stop offset="1" stop-color="#d8e2e7" stop-opacity="1" id="SvgjsStop183134"></stop></radialGradient><radialGradient class="svga-on-canvas-eyesfront-gradient-right-0" gradientUnits="userSpaceOnUse" r="13" cy="85" cx="124.801" id="SvgjsRadialGradient183139"><stop offset="0" stop-color="#ffffff" stop-opacity="1" id="SvgjsStop183140"></stop><stop offset="0.544" stop-color="#fdfefe" stop-opacity="1" id="SvgjsStop183141"></stop><stop offset="0.74" stop-color="#f6f8f9" stop-opacity="1" id="SvgjsStop183142"></stop><stop offset="0.879" stop-color="#eaeff2" stop-opacity="1" id="SvgjsStop183143"></stop><stop offset="0.992" stop-color="#d9e3e8" stop-opacity="1" id="SvgjsStop183144"></stop><stop offset="1" stop-color="#d8e2e7" stop-opacity="1" id="SvgjsStop183145"></stop></radialGradient><linearGradient class="svga-on-canvas-eyesiris-gradient-left-6" gradientUnits="userSpaceOnUse" gradientTransform="matrix(1 0 0 1 -50 0)" y2="84" x2="126" y1="78" x1="132" id="SvgjsLinearGradient183156"><stop offset="0" stop-color="#ffffff" stop-opacity="1" id="SvgjsStop183157"></stop><stop offset="1" stop-color="#ffffff" stop-opacity="0" id="SvgjsStop183158"></stop></linearGradient><linearGradient class="svga-on-canvas-eyesiris-gradient-right-6" gradientUnits="userSpaceOnUse" y2="84" x2="126" y1="78" x1="132" id="SvgjsLinearGradient183166"><stop offset="0" stop-color="#ffffff" stop-opacity="1" id="SvgjsStop183167"></stop><stop offset="1" stop-color="#ffffff" stop-opacity="0" id="SvgjsStop183168"></stop></linearGradient><linearGradient class="svga-on-canvas-chinshadow-gradient-single-0" gradientUnits="userSpaceOnUse" y2="130" x2="100" y1="172" x1="100" id="SvgjsLinearGradient183202"><stop offset="0" stop-color="#e7c1bd" stop-opacity="0.8" id="SvgjsStop183203"></stop><stop offset="0.7" stop-color="#c8837c" stop-opacity="1" id="SvgjsStop183204"></stop></linearGradient></defs></svg>