<svg xmlns="http://www.w3.org/2000/svg" version="1.1" width="600px" height="600px" xlink="http://www.w3.org/1999/xlink" style="overflow:hidden!important;"><g id="svga-group-wrapper" transform="scale(3 3)"><g id="svga-group-backs-single"></g><g id="svga-group-subwrapper"><g id="svga-group-hair-back"><path stroke="none" opacity="1" stroke-width="none" fill="#080806" d="M100.5,100.5h-1v-1h1V100.5z" id="SvgjsPath178627"></path></g><g id="svga-group-humanbody-single"><path stroke="none" opacity="1" stroke-width="none" fill="#d9a494" d="M195.417 199.778c-2.196-4.746-8.195-11.779-14.86-13.722 -8.239-2.403-26.837-5.308-33.733-6.923 -5.528-1.296-16.662-11.294-20.564-14.65 -0.7-0.6-1.273-1.839-1.287-2.76 -0.139-10.864 4.195-39.724 4.195-39.724H100 70.833c0 0 4.334 28.859 4.193 39.724 -0.011 0.921-0.587 2.16-1.285 2.76 -3.902 3.356-15.036 13.354-20.564 14.65 -6.897 1.615-25.495 4.619-33.733 7.022 -6.667 1.942-12.664 8.876-14.86 13.622 -3.708 8.008-4.584 22.5-4.584 35h100 100C200 222.278 199.123 207.786 195.417 199.778z" id="SvgjsPath178472"></path><path stroke="none" opacity="1" stroke-width="none" fill="#e8c1b6" d="M159.156 184.058c24.342 3.542 34.586 8.708 37.794 50.721H200c0-12.5-0.877-26.992-4.583-35 -2.196-4.746-8.195-11.779-14.86-13.722 -8.239-2.403-26.837-5.308-33.733-6.923 -5.528-1.296-18.242-12.069-21.643-16.35 3.36 4.704 12.791 15.605 21.054 18.46C150.188 182.61 153.48 183.232 159.156 184.058zM53.766 181.244c8.263-2.854 17.693-13.756 21.054-18.46 -3.4 4.28-16.114 15.054-21.643 16.35 -6.896 1.615-25.494 4.619-33.733 7.022 -6.665 1.942-12.664 8.876-14.86 13.622 -3.706 8.008-4.583 22.5-4.583 35h3.05c3.188-41.744 13.475-47.183 37.794-50.721C46.52 183.232 49.813 182.61 53.766 181.244z" id="SvgjsPath178473"></path><path stroke="none" opacity="1" stroke-width="none" fill="#ca8975" d="M95.646 197.62c0 0-5.074-1.609-7.083-2.379 -10.449-4.009-44.395-6.607-44.395-6.607s35.754 1.419 43.644 2.779c-0.458-4.767-3.017-20.004-3.017-20.004s5.149 16.815 6.409 21.057C91.878 194.734 95.646 197.62 95.646 197.62zM106.445 196.278c-0.089 0.073-0.191 0.168-0.302 0.268C106.256 196.461 106.358 196.372 106.445 196.278zM95.646 197.62c0 0 2.893 2.992 4.347 3.03 1.91 0.051 4.828-2.899 6.151-4.104 -1.265 0.957-4.159 1.391-5.31 1.436C99.504 198.033 95.646 197.62 95.646 197.62zM116.664 190.101c-1.545 0.248-4.386 0.789-4.386 0.789l2.287-14.89c-0.646 3.071-4.474 16.211-8.12 20.278 1.91-1.616 6.158-2.391 8.324-2.704 10.236-1.484 10.232-1.483 41.062-4.94C155.831 188.634 126.76 188.479 116.664 190.101z" id="SvgjsPath178474"></path><path opacity="1" stroke-width="1.5" stroke="#ab5a41" fill="none" d="M195.417 199.778c-2.196-4.746-8.195-11.779-14.86-13.722 -8.239-2.403-26.837-5.308-33.733-6.923 -5.528-1.296-16.662-11.294-20.564-14.65 -0.7-0.6-1.273-1.839-1.287-2.76 -0.139-10.864 4.195-39.724 4.195-39.724H100 70.833c0 0 4.334 28.859 4.193 39.724 -0.011 0.921-0.587 2.16-1.285 2.76 -3.902 3.356-15.036 13.354-20.564 14.65 -6.897 1.615-25.495 4.619-33.733 7.022 -6.667 1.942-12.664 8.876-14.86 13.622 -3.708 8.008-4.584 22.5-4.584 35h100 100C200 222.278 199.123 207.786 195.417 199.778z" id="SvgjsPath178475"></path></g><g id="svga-group-chinshadow-single"><path opacity="1" fill="url(#SvgjsLinearGradient178691)" d="M103.705 170.189c5.292-1.558 13.31-7.012 20.631-12.852 0.352-6.636 1.433-15.887 2.396-23.284 -14.957-2.455-38.464-2.408-53.454 0.081 0.95 7.3 2.01 16.38 2.372 22.974 7.055 5.816 14.789 11.372 20.685 13.087C97.144 170.431 102.896 170.428 103.705 170.189z" id="SvgjsPath178690"></path></g><g id="svga-group-clothes-single"><path stroke="none" opacity="1" stroke-width="none" fill="#6a3a47" d="M-4.807 234.6c1.472-10.806-0.208-11.777 4.116-33.015 1.228-7.384 2.66-13.32 8.141-10.607 4.045-6.008 15.513-6.566 57.339-20.658v-0.258c0.278-1.001 2.706-4.267 3.099-9.897 0.383-5.449 2.718-9.56 5.614-11.604 -6.746 23.685 23.144 14.953 24.208 31.108 0.084 1.273-0.974 10.149-0.813 10.969 3.355-0.679 6.721-0.684 10.359-0.645 -3.928-15.24-0.545-16.872 7.344-19.838 9.564-3.591 12.873-7.169 12.01-20.697 4.57 4.109 1.516 9.7 7.174 17.534 36.249 13.159 50.02 16.863 56.963 21.507 5.981-4.517 9.697 2.65 17.292 46.103C136.218 235.212 54.269 235.12-4.807 234.6z" id="SvgjsPath178675"></path><path stroke="none" opacity="1" stroke-width="none" fill="#5b2936" d="M92.119 197.235c0.304-0.029 3.375-5.505 3.375-5.505 5.764-2.145 18.375 2.005 34.019-10.176C117.994 199.61 97.143 186.737 92.119 197.235zM70.115 179.378c8.754 10.018 23.629 13.732 26.773 10.686C96.885 190.135 79.619 189.396 70.115 179.378z" id="SvgjsPath178676"></path><path stroke="none" opacity="1" stroke-width="none" fill="#4b1a27" d="M73.607 149.423c0 0 0.705 6.944 0.82 11.739C72.326 156.482 71.897 155.232 73.607 149.423z" id="SvgjsPath178677"></path><path stroke="none" opacity="1" stroke-width="none" fill="#794e5a" d="M4.781 194.15C0 207.902-0.398 222.744-3.298 234.612c-0.693-0.006-0.823 0.293-1.509 0.287 1.472-10.806-0.208-12.355 4.116-33.593 1.228-7.384 2.66-13.32 8.141-10.607 4.045-6.008 15.513-6.566 57.339-20.658v-0.258c0.278-1.001 2.706-4.267 3.099-9.897 0.345-4.904 2.622-9.431 5.25-11.325 -5.936 6.453-1.918 18.345-8.092 22.976C53.103 178.967 18.588 187.846 4.781 194.15zM190.747 188.499c-6.943-4.644-20.714-8.348-56.963-21.507 -5.658-7.834-2.604-13.425-7.174-17.534 0.063 1.001-0.018 0.613 0 1.51 2.161-0.43 2.695 15.819 7.443 18.193 19 9 45.261 17.317 59.521 22.632 6.636 10.021 8.157 26.964 13.401 42.817 1.067-0.009 0 0 1.063-0.009C200.444 191.149 196.729 183.982 190.747 188.499zM125.992 162.465c-7.33 12.798-21.646 4.662-20.242 19.81C108.488 167.635 121.171 175.921 125.992 162.465zM97.372 184.295c2.628-16.491-15.517-13.785-23.633-23.296C78.812 171.409 95.553 168.227 97.372 184.295z" id="SvgjsPath178678"></path><path stroke="none" opacity="1" stroke-width="none" fill="#3c0f1b" d="M196.139 187.915c-1.581-1.609-3.779-1.259-5.409-0.029 -7.133-4.756-26.235-9.496-56.63-21.609 0 0-2.289-2.963-3.469-8.017 -0.783-3.353-0.308-7.087-4.192-9.838 -0.749 9.286-0.411 16.736-9.51 20.304 -8.959 3.582-14.71 3.744-10.319 20.76 -2.301-0.026-6.457-0.018-9.318 0.563 -0.058-0.295 1.027-8.769 0.918-10.412 -1.014-15.376-28.515-9.625-24.93-27.551 0.33-1.649 0.454-2.542 0.187-3.81 -3.67 1.92-5.337 6.074-5.847 9.51 -0.556 3.889 0.319 4.852-3.32 12.13 0 0.011-0.01 0.021-0.01 0.03 -0.17 0.05-0.35 0.11-0.53 0.17 -41.434 13.791-52.827 14.785-56.48 20.22 -5.931-2.941-7.458 5.121-8.46 11.15 -4.398 21.597-2.602 22.344-4.2 33.61 1 0 109.661 0.96 212.96 0.01 0.36 0 0.71-0.01 1.06-0.01C208.319 233.75 202.222 193.853 196.139 187.915zM117.52 170.155c9.877-4.015 9.506-9.654 9.367-19.766 3.437 1.52 0.914 8.914 6.792 16.516 0 4.854-1.267 9.955-4.229 13.46 -5.51 6.101-14.719 9.317-22.23 9.13C104.685 173.337 107.914 174.091 117.52 170.155zM68.349 159.005c0.062-2.714 2.16-8.263 4.9-10.1 -8.723 23.076 22.427 15.489 23.73 31.92 0.027 0.457-0.38 8.333-0.39 8.84 -16.104-1.896-23.674-5.555-31.64-19.189 0.02-0.04 0.04-0.08 0.06-0.12 0.01 0.01 0.01 0 0.01 0C67.547 165.299 68.017 164.151 68.349 159.005zM-4.591 234.455c1.436-5.179 1.375-14.908 4.04-28.63 1.58-7.847 1.629-17.345 7.48-15.03 0.02 0 0.03 0.011 0.04 0.011 3.516 8.49 11.016 31.499 11.33 32.5 0.155 0.456 2.074 8.248 2.56 9.89 -2.124-16.99-11.493-39.731-12.99-42.14 4.051-4.15 3.094-2.325 35.92-12.7 7.099-2.245 19.409-7.106 20.27-7.601 9.185 19.855 28.548 19.105 32.33 19.521 -11.02 3.397-4.729 31.249-3.77 40.96 -0.163-7.896-3.465-29.31 1.25-36.84 0 0 0.648-1.301 3.14-2.38 6.946-2.627 15.325 2.951 29.95-7.34 4.758-4.518 7.13-7.39 7.13-17.53 24.029 11.337 46.962 16.747 56.11 21.7 -0.013 0.081-0.05 0.414-0.05 0.42 -1.544 13.248 1.243-1.169-4.4 28.689 -1.47 8.541-0.406 5.667-1.13 13.28 1.481-7.851-0.067-3.756 2.12-13.12 4.586-19.338 3.858-22.946 4.16-29.39 3.326-2.396 5.107 0.213 6.399 3.96 4.836 14.695 7.982 34.133 10.09 41.76C141.558 233.843 61.242 233.874-4.591 234.455zM107.847 202.681c-3.239 1.259-7.306 0.944-10.905 0.433C103.167 202.238 107.208 202.645 107.847 202.681z" id="SvgjsPath178679"></path></g><g id="svga-group-head"><g id="svga-group-ears-left"><path opacity="1" stroke-width="1.5" stroke="#ab5a41" fill="#d9a494" d="M46.778 83.613c-2.623-1.48-8.575-8.52-11.138-7.517 -1.655 0.646-2.377 5.504-2.638 7.47 -0.333 2.525-0.929 7.711-0.328 10.185 0.725 2.985 3.631 8.507 5.37 11.027 1.468 2.122 5.211 5.797 6.407 8.088 0.759 1.454 1.493 5.373 4.083 5.12 1.674-0.164 5.537-3.072 5.744-4.452C55.406 106.057 51.943 86.528 46.778 83.613z" id="SvgjsPath178670"></path><path stroke="none" opacity="1" stroke-width="none" fill="#ab5a41" d="M43.313 99.76c-0.125-0.556 0.006-1.491 0.133-2.395 0.115-0.824 0.224-1.601 0.158-2.151 -0.251-2.06-1.66-5.975-2.578-8.097 -1.059-2.44-2.771-5.515-4.919-6.307 -0.888-0.33-1.473 0.063-1.813 0.461 -0.248 0.292-0.305 0.636-0.223 0.676 0.082 0.041 0.266-0.244 0.535-0.512 0.219-0.219 0.542-0.407 0.983-0.368 -0.178 1.026-1.091 6.582-0.696 10.369 0.311 2.978 1.489 5.202 1.673 5.536 0.028 0.352 0.073 0.695 0.139 1.028 0.869 4.347 4.648 9.29 5.963 10.908 0.243 0.298 0.496 0.476 0.56 0.404 0.062-0.074-0.087-0.368-0.33-0.668 -1.298-1.609-5.042-6.533-5.879-10.728 -0.89-4.45 2.167-11.048 2.849-12.443 0.348 0.655 0.643 1.285 0.87 1.809 0.179 0.412 0.378 0.894 0.581 1.414 -0.402 0.729-3.211 6.042-2.187 10.295 0.38 1.568 2.088 3.589 3.223 4.143 0.624 0.306 0.859 0.761 1.13 1.288 0.314 0.613 0.673 1.307 1.708 1.81 0.211 0.101 0.402 0.144 0.571 0.144 0.293 0 0.515-0.126 0.679-0.281 0.017 0.268 0.016 0.611 0.007 0.928 -0.01 0.411 0.041 0.747 0.129 0.756 0.088 0.008 0.182-0.318 0.192-0.726 0.016-0.503 0.013-1.125-0.067-1.422 -0.232-0.877-0.942-1.867-1.694-2.915C44.27 101.685 43.504 100.618 43.313 99.76zM36.538 95.905c-2.035-6.825 0-13.093 0.458-14.029 0.795 0.785 2.108 2.213 2.679 3.239C39.258 85.938 36.623 91.315 36.538 95.905zM45.318 105.891c-0.938-0.456-1.253-1.067-1.557-1.657 -0.275-0.535-0.56-1.087-1.281-1.44 -0.157-0.077-0.33-0.193-0.505-0.328 -2.324-5.988 0.254-8.606 0.899-9.142 0.199 0.731 0.346 1.403 0.411 1.941 0.061 0.495-0.05 1.28-0.156 2.041 -0.132 0.942-0.268 1.916-0.127 2.546 0.211 0.94 0.999 2.038 1.76 3.1 0.677 0.943 1.373 1.915 1.609 2.708C46.271 105.818 45.949 106.195 45.318 105.891z" id="SvgjsPath178671"></path></g><g id="svga-group-ears-right"><path opacity="1" stroke-width="1.5" stroke="#ab5a41" fill="#d9a494" d="M152.961 83.613c2.623-1.48 8.574-8.52 11.137-7.517 1.656 0.646 2.379 5.504 2.639 7.47 0.334 2.525 0.928 7.711 0.328 10.185 -0.725 2.985-3.631 8.507-5.371 11.027 -1.467 2.122-5.211 5.797-6.406 8.088 -0.76 1.454-1.492 5.373-4.084 5.12 -1.674-0.164-5.535-3.072-5.744-4.452C144.332 106.057 147.795 86.528 152.961 83.613z" id="SvgjsPath178672"></path><path stroke="none" opacity="1" stroke-width="none" fill="#ab5a41" d="M154.729 102.716c-0.752 1.047-1.463 2.038-1.695 2.915 -0.078 0.297-0.082 0.919-0.066 1.422 0.012 0.407 0.105 0.733 0.193 0.726 0.088-0.009 0.139-0.345 0.129-0.756 -0.01-0.316-0.01-0.66 0.006-0.928 0.164 0.155 0.387 0.281 0.68 0.281 0.168 0 0.359-0.043 0.57-0.144 1.035-0.503 1.395-1.196 1.709-1.81 0.271-0.527 0.506-0.982 1.131-1.288 1.133-0.554 2.842-2.575 3.223-4.143 1.023-4.253-1.785-9.566-2.188-10.295 0.203-0.52 0.402-1.002 0.582-1.414 0.225-0.524 0.521-1.154 0.869-1.809 0.682 1.395 3.738 7.993 2.848 12.443 -0.838 4.195-4.582 9.118-5.879 10.728 -0.242 0.3-0.393 0.594-0.33 0.668 0.064 0.071 0.318-0.106 0.561-0.404 1.314-1.618 5.094-6.561 5.963-10.908 0.066-0.333 0.111-0.677 0.139-1.028 0.184-0.334 1.363-2.558 1.674-5.536 0.395-3.788-0.518-9.343-0.695-10.369 0.441-0.039 0.764 0.149 0.982 0.368 0.268 0.268 0.453 0.552 0.535 0.512 0.08-0.041 0.023-0.384-0.223-0.676 -0.342-0.397-0.926-0.791-1.813-0.461 -2.148 0.792-3.861 3.867-4.92 6.307 -0.92 2.123-2.326 6.037-2.578 8.097 -0.066 0.55 0.043 1.328 0.158 2.151 0.127 0.904 0.256 1.839 0.133 2.395C156.234 100.618 155.469 101.685 154.729 102.716zM160.064 85.115c0.57-1.026 1.883-2.455 2.678-3.239 0.457 0.936 2.494 7.204 0.459 14.029C163.115 91.315 160.48 85.938 160.064 85.115zM153.367 105.66c0.236-0.793 0.932-1.765 1.609-2.708 0.762-1.063 1.549-2.16 1.76-3.1 0.141-0.631 0.006-1.604-0.127-2.546 -0.105-0.76-0.217-1.546-0.156-2.041 0.066-0.539 0.213-1.21 0.412-1.941 0.645 0.536 3.223 3.154 0.898 9.142 -0.176 0.134-0.348 0.25-0.504 0.328 -0.723 0.353-1.008 0.905-1.281 1.44 -0.305 0.59-0.619 1.201-1.559 1.657C153.789 106.195 153.467 105.818 153.367 105.66z" id="SvgjsPath178673"></path></g><g id="svga-group-faceshape-wrap"><g id="svga-group-faceshape-single"><path opacity="1" stroke-width="none" fill="#d9a494" d="M138.275 134.933c-7.56 7.762-25.273 22.52-34.57 25.257 -0.809 0.238-6.561 0.241-7.37 0.006 -10.402-3.025-26.524-18.002-34.545-25.284 -0.698-0.634-1.876-2.14-2.323-2.97 -6.875-12.77-18.452-54.948-18.462-54.995 -1.3-4.911-1.996-10.066-2.004-15.382C38.949 28.09 66.155 0.919 99.773 0.867c33.621-0.052 60.913 27.033 60.964 60.507 0.009 5.316-0.669 10.473-1.952 15.389 -0.015 0.047-11.729 42.121-18.293 55.052C140.06 132.667 138.942 134.247 138.275 134.933z" id="SvgjsPath178687"></path><path opacity="1" stroke-width="none" fill="#d19684" d="M122.923 5.375c19.396 9.496 32.911 30.588 32.944 55.131 0.009 5.316-0.615 10.473-1.796 15.389 -0.013 0.047-10.79 42.121-16.829 55.053 -0.398 0.852-1.426 2.432-2.039 3.117 -6.955 7.762-23.252 22.52-31.805 25.258 -0.744 0.238-6.036 0.24-6.781 0.006 -9.57-3.025-24.402-18.002-31.782-25.285 -0.642-0.633-1.726-2.139-2.137-2.969 -6.325-12.77-16.976-54.948-16.985-54.996 -1.196-4.911-1.836-10.066-1.844-15.382C43.835 36.099 57.351 14.919 76.79 5.389c-22.202 9.066-37.828 30.804-37.789 56.176 0.008 5.316 0.704 10.471 2.004 15.382 0.01 0.047 11.587 42.226 18.462 54.995 0.447 0.83 1.625 2.336 2.323 2.97 8.021 7.282 24.144 22.259 34.545 25.284 0.809 0.235 6.562 0.232 7.37-0.006 9.297-2.737 27.011-17.495 34.57-25.257 0.667-0.686 1.784-2.266 2.217-3.118 6.564-12.932 18.278-55.005 18.293-55.052 1.283-4.916 1.961-10.072 1.952-15.389C160.699 36.059 145.075 14.408 122.923 5.375z" id="SvgjsPath178688"></path><path opacity="1" stroke-width="1.5" stroke="#ab5a41" fill="none" d="M138.275 134.933c-7.56 7.762-25.273 22.52-34.57 25.257 -0.809 0.238-6.561 0.241-7.37 0.006 -10.402-3.025-26.524-18.002-34.545-25.284 -0.698-0.634-1.876-2.14-2.323-2.97 -6.875-12.77-18.452-54.948-18.462-54.995 -1.3-4.911-1.996-10.066-2.004-15.382C38.949 28.09 66.155 0.919 99.773 0.867c33.621-0.052 60.913 27.033 60.964 60.507 0.009 5.316-0.669 10.473-1.952 15.389 -0.015 0.047-11.729 42.121-18.293 55.052C140.06 132.667 138.942 134.247 138.275 134.933z" id="SvgjsPath178689"></path></g></g><g id="svga-group-mouth-single"><path opacity="1" fill="url(#SvgjsLinearGradient178666)" d="M100.389 141.808c-3.458 0-4.907-2.678-4.907-2.678l9.74-0.188C105.222 138.941 103.433 141.808 100.389 141.808z" id="SvgjsPath178665"></path><path stroke="none" opacity="1" stroke-width="none" fill="#ab5a41" d="M98.82 139.206c-1.781 0-3.136-0.171-3.231-0.184 -0.146-0.02-0.248-0.146-0.228-0.282 0.02-0.138 0.157-0.227 0.301-0.214 0.04 0.006 6.084 0.5 9.357-0.195 0.156-0.03 0.289 0.057 0.321 0.189 0.031 0.135-0.06 0.269-0.202 0.299C103.729 139.118 100.096 139.206 98.82 139.206zM84.391 133.824c-0.365-0.663 4.097 0.111 6.79-0.551 2.98-0.732 6.101 0.208 9.133 0.479 2.382 0.213 4.838-0.975 7.191-0.436 3.261 0.747 8.236-0.196 7.843 0.594 -0.273 0.548-4.893 1.05-7.524 0.604 -2.301-0.39-4.683 0.556-7.006 0.73 -2.885 0.217-5.767-1.385-8.614-0.933C88.922 134.832 84.701 134.388 84.391 133.824z" id="SvgjsPath178669"></path></g><g id="svga-group-eyes-left"><g id="svga-group-eyesback-left"><path opacity="1" fill="url(#SvgjsRadialGradient178636)" d="M59.782 80.154c0 3.552 5.88 11.295 15.32 11.458 7.043 0.123 12.184-3.747 12.184-7.301 0-3.552-1.83-5.008-12.283-4.747C67.962 79.742 58.67 78.157 59.782 80.154z" id="SvgjsPath178635"></path></g><g transform="translate(0.5 0)" id="svga-group-eyesiriswrapper-left"><g id="svga-group-eyesiriscontrol-left"><g id="svga-group-eyesiris-left"><path opacity="1" stroke-width="0.5" stroke="#36441a" fill="#66724e" d="M79.788 85.588c-0.869 3.192-4.162 5.073-7.361 4.196 -3.197-0.876-5.084-4.178-4.214-7.371 0.869-3.195 4.168-5.076 7.365-4.198C78.772 79.09 80.659 82.392 79.788 85.588z" id="SvgjsPath178651"></path><path stroke="none" opacity="1" stroke-width="none" fill="#788165" d="M78.855 85.662c-0.849 2.452-3.407 3.881-5.899 3.199 -2.3-0.631-3.752-2.838-3.563-5.171 0.853-0.067 1.787-0.087 2.756-0.04 -0.01 0.033-0.027 0.062-0.036 0.096 -0.306 1.125 0.407 2.305 1.592 2.63 1.189 0.326 2.401-0.326 2.707-1.451 0.039-0.147 0.06-0.294 0.065-0.439C77.29 84.782 78.088 85.165 78.855 85.662z" id="SvgjsPath178652"></path><path opacity="0.9" stroke-width="none" fill="#000000" d="M74.813 82.21c-1.203-0.344-2.429 0.342-2.739 1.54 -0.311 1.191 0.412 2.438 1.614 2.783 1.204 0.345 2.43-0.342 2.741-1.534C76.742 83.801 76.016 82.555 74.813 82.21zM75.075 86.442c-0.5 0.156-1.017-0.051-1.154-0.462 -0.133-0.411 0.163-0.867 0.667-1.019 0.503-0.156 1.019 0.051 1.157 0.459C75.881 85.831 75.582 86.287 75.075 86.442z" id="SvgjsPath178653"></path><path opacity="0.6" stroke-width="none" fill="#ffffff" d="M70.811 87.159c-0.37 0.222-0.922 0.023-1.238-0.447 -0.316-0.466-0.269-1.024 0.102-1.247 0.368-0.219 0.925-0.021 1.239 0.446C71.226 86.378 71.181 86.938 70.811 87.159z" id="SvgjsPath178654"></path><path opacity="0.8" stroke-width="none" fill="#ffffff" d="M78.71 83.74c-0.846 0.507-2.117 0.051-2.837-1.02 -0.72-1.072-0.612-2.352 0.234-2.857 0.844-0.509 2.118-0.053 2.834 1.019C79.66 81.954 79.556 83.232 78.71 83.74z" id="SvgjsPath178655"></path></g></g></g><g id="svga-group-eyesfront-left"><path stroke="none" opacity="1" stroke-width="none" fill="#d9a494" d="M53.294 83c0.809 10.899 11.637 23.583 20.506 22.236 10.498 0.106 20.864-7.868 20.864-22.305s-5.087-26.528-21.127-26.528C62.037 56.402 53.294 68.563 53.294 83zM61.752 82.523c-0.506-2.285 5.191-3.973 12.711-3.051 7.518 0.923 12.738 5.524 12.052 7.844 -0.38 1.286-10.639 3.245-14.253 2.847C68.598 89.758 62.974 88.04 61.752 82.523z" id="SvgjsPath178520"></path><path opacity="1" fill="url(#SvgjsRadialGradient178522)" d="M72.262 90.163c3.614 0.398 13.873-1.561 14.253-2.847 0.687-2.32-4.534-6.921-12.052-7.844C68.003 78.68 62.9 79.816 61.907 81.6c0.898-6.4 7.7-11.397 15.987-11.434 8.911-0.037 16.148 5.676 16.172 12.765 0.021 7.088-7.185 12.862-16.095 12.902 -8.913 0.037-16.149-5.676-16.173-12.764 0-0.105 0.016-0.208 0.019-0.313C63.147 88.083 68.651 89.764 72.262 90.163z" id="SvgjsPath178521"></path><path opacity="1" fill="url(#SvgjsRadialGradient178527)" d="M61.752 82.523c-0.506-2.285 5.191-3.973 12.711-3.051 7.518 0.923 12.738 5.524 12.052 7.844 -0.38 1.286-10.639 3.245-14.253 2.847C68.598 89.758 62.974 88.04 61.752 82.523z" id="SvgjsPath178526"></path><path stroke="none" opacity="1" stroke-width="none" fill="#ab5a41" d="M62.148 77.417c4.208-1.978 9.35-2.16 13.838-1.005 2.404 0.561 4.965 1.285 7.063 2.638 1.945 1.135 3.525 2.5 5.002 4.19 -1.342-1.701-2.773-3.118-4.623-4.27 -2.276-1.416-4.769-2.294-7.364-2.916C71.478 74.928 66.342 75.184 62.148 77.417z" id="SvgjsPath178530"></path><path stroke="none" opacity="1" stroke-width="none" fill="#000000" d="M62.769 78.02c0.88-0.352 4.065-1 5.456-1.066 1.687-0.082 5.073 0.125 6.735 0.424 3.374 0.608 9.251 2.483 11.678 7.184 0.746 1.445 0.074 2.456-0.123 2.675 0.3-2.426-4.838-6.746-12.052-7.604 -7.52-0.894-13.217 0.743-12.711 2.958 1.222 5.348 6.846 7.013 10.51 7.405 4.099 0.439 11.684-1.539 12.686-1.753 -1.999 1.009-7.524 2.095-9.767 2.303 -0.744 0.07-2.24 0.104-2.986 0.085 -5.949-0.158-10.169-3.175-11.729-7.26C59.464 80.745 60.56 78.902 62.769 78.02z" id="SvgjsPath178531"></path></g></g><g id="svga-group-eyes-right"><g id="svga-group-eyesback-right"><path opacity="1" fill="url(#SvgjsRadialGradient178644)" d="M139.818 80.154c0 3.552-5.88 11.295-15.32 11.458 -7.043 0.123-12.184-3.747-12.184-7.301 0-3.552 1.83-5.008 12.283-4.747C131.639 79.742 140.931 78.157 139.818 80.154z" id="SvgjsPath178643"></path></g><g transform="translate(-0.5 0)" id="svga-group-eyesiriswrapper-right"><g id="svga-group-eyesiriscontrol-right"><g id="svga-group-eyesiris-right"><path opacity="1" stroke-width="0.5" stroke="#36441a" fill="#66724e" d="M131.788 85.588c-0.869 3.192-4.162 5.073-7.362 4.196 -3.196-0.876-5.084-4.178-4.214-7.371 0.869-3.195 4.169-5.076 7.365-4.198C130.772 79.09 132.658 82.392 131.788 85.588z" id="SvgjsPath178656"></path><path stroke="none" opacity="1" stroke-width="none" fill="#788165" d="M130.855 85.662c-0.849 2.452-3.408 3.881-5.899 3.199 -2.3-0.631-3.753-2.838-3.563-5.171 0.854-0.067 1.787-0.087 2.756-0.04 -0.01 0.033-0.027 0.062-0.036 0.096 -0.306 1.125 0.407 2.305 1.593 2.63 1.189 0.326 2.401-0.326 2.707-1.451 0.038-0.147 0.06-0.294 0.065-0.439C129.29 84.782 130.089 85.165 130.855 85.662z" id="SvgjsPath178657"></path><path opacity="0.9" stroke-width="none" fill="#000000" d="M126.813 82.21c-1.202-0.344-2.429 0.342-2.738 1.54 -0.312 1.191 0.412 2.438 1.613 2.783 1.204 0.345 2.431-0.342 2.742-1.534C128.741 83.801 128.016 82.555 126.813 82.21zM127.075 86.442c-0.5 0.156-1.018-0.051-1.154-0.462 -0.133-0.411 0.163-0.867 0.667-1.019 0.503-0.156 1.019 0.051 1.157 0.459C127.881 85.831 127.582 86.287 127.075 86.442z" id="SvgjsPath178658"></path><path opacity="0.6" stroke-width="none" fill="#ffffff" d="M122.812 87.159c-0.37 0.222-0.923 0.023-1.238-0.447 -0.316-0.466-0.27-1.024 0.102-1.247 0.367-0.219 0.926-0.021 1.239 0.446C123.227 86.378 123.181 86.938 122.812 87.159z" id="SvgjsPath178659"></path><path opacity="0.8" stroke-width="none" fill="#ffffff" d="M130.71 83.74c-0.846 0.507-2.116 0.051-2.837-1.02 -0.72-1.072-0.612-2.352 0.234-2.857 0.845-0.509 2.117-0.053 2.834 1.019C131.66 81.954 131.557 83.232 130.71 83.74z" id="SvgjsPath178660"></path></g></g></g><g id="svga-group-eyesfront-right"><path stroke="none" opacity="1" stroke-width="none" fill="#d9a494" d="M126.063 56.402c-16.04 0-21.127 12.091-21.127 26.528s10.366 22.412 20.864 22.305c8.869 1.347 19.697-11.337 20.506-22.236C146.307 68.563 137.563 56.402 126.063 56.402zM127.339 90.163c-3.614 0.398-13.873-1.561-14.253-2.847 -0.687-2.32 4.534-6.921 12.052-7.844 7.52-0.922 13.217 0.767 12.711 3.051C136.627 88.04 131.003 89.758 127.339 90.163z" id="SvgjsPath178540"></path><path opacity="1" fill="url(#SvgjsRadialGradient178542)" d="M127.339 90.163c-3.614 0.398-13.873-1.561-14.253-2.847 -0.687-2.32 4.534-6.921 12.052-7.844 6.46-0.792 11.563 0.345 12.556 2.128 -0.898-6.4-7.7-11.397-15.987-11.434 -8.911-0.037-16.148 5.676-16.172 12.765 -0.021 7.088 7.185 12.862 16.095 12.902 8.913 0.037 16.149-5.676 16.173-12.764 0-0.105-0.016-0.208-0.019-0.313C136.453 88.083 130.949 89.764 127.339 90.163z" id="SvgjsPath178541"></path><path opacity="1" fill="url(#SvgjsRadialGradient178547)" d="M137.849 82.523c0.506-2.285-5.191-3.973-12.711-3.051 -7.518 0.923-12.738 5.524-12.052 7.844 0.38 1.286 10.639 3.245 14.253 2.847C131.003 89.758 136.627 88.04 137.849 82.523z" id="SvgjsPath178546"></path><path stroke="none" opacity="1" stroke-width="none" fill="#ab5a41" d="M137.452 77.417c-4.208-1.978-9.35-2.16-13.838-1.005 -2.404 0.561-4.965 1.285-7.063 2.638 -1.945 1.135-3.525 2.5-5.002 4.19 1.342-1.701 2.773-3.118 4.623-4.27 2.276-1.416 4.769-2.294 7.364-2.916C128.123 74.928 133.259 75.184 137.452 77.417z" id="SvgjsPath178550"></path><path stroke="none" opacity="1" stroke-width="none" fill="#000000" d="M136.832 78.02c-0.88-0.352-4.065-1-5.456-1.066 -1.687-0.082-5.073 0.125-6.735 0.424 -3.374 0.608-9.251 2.483-11.678 7.184 -0.746 1.445-0.074 2.456 0.123 2.675 -0.3-2.426 4.838-6.746 12.052-7.604 7.52-0.894 13.217 0.743 12.711 2.958 -1.222 5.348-6.846 7.013-10.51 7.405 -4.099 0.439-11.684-1.539-12.686-1.753 1.999 1.009 7.524 2.095 9.767 2.303 0.744 0.07 2.24 0.104 2.986 0.085 5.949-0.158 10.169-3.175 11.729-7.26C140.137 80.745 139.041 78.902 136.832 78.02z" id="SvgjsPath178551"></path></g></g><g id="svga-group-facehighlight-single"><path opacity="1" fill="url(#SvgjsRadialGradient178465)" d="M141 113.974c0.035 22.622-18.292 40.994-40.938 41.025 -22.642 0.037-41.028-18.273-41.063-40.9 -0.035-22.62 18.292-41.064 40.937-41.1C122.579 72.964 140.967 91.349 141 113.974z" id="SvgjsPath178464"></path><path opacity="1" fill="url(#SvgjsRadialGradient178469)" d="M137.5 53.999c0 20.711-16.789 37.5-37.499 37.5 -20.711 0-37.501-16.789-37.501-37.5s16.79-37.5 37.501-37.5C120.711 16.499 137.5 33.288 137.5 53.999z" id="SvgjsPath178468"></path></g><g id="svga-group-eyebrows-left"><path opacity="1" stroke-width="none" fill="#2a232b" d="M54 74.189c9.954-9.974 16.761-5.915 30.589-3.264 0.845 0.162 6.32 1.539 5.31 3.469 -0.483 0.924-2.036 0.814-2.903 0.798C73.308 74.936 66.652 65.197 54 74.189z" id="SvgjsPath178598"></path></g><g id="svga-group-eyebrows-right"><path opacity="1" stroke-width="none" fill="#2a232b" d="M146 74.189c-9.953-9.974-16.761-5.915-30.589-3.264 -0.846 0.162-6.32 1.539-5.311 3.469 0.483 0.924 2.036 0.814 2.903 0.798C126.691 74.936 133.348 65.197 146 74.189z" id="SvgjsPath178599"></path></g><g id="svga-group-nose-single"><path stroke="none" opacity="1" stroke-width="none" fill="#ca8975" d="M91.115 115.499c-0.878 2.064 5.934 4.292 8.519 4.429 2.8 0.147 10.646-2.9 9.316-4.992 -1.399-2.195-6.643-0.286-8.906-0.286C97.792 114.649 92.291 112.745 91.115 115.499z" id="SvgjsPath178607"></path><path stroke="none" opacity="1" stroke-width="none" fill="#ab5a41" d="M101.857 117.058c-0.23-0.759 1.876-1.584 2.657-1.694 1.101-0.16 3.36 0.802 3.158 1.592 -0.184 0.698-2.148-0.533-2.86-0.429C104.078 116.634 102.075 117.769 101.857 117.058zM94.974 116.811c0.968 0 2.404 0.623 2.668 0.074 0.315-0.655-2.139-1.461-2.86-1.372 -0.596 0.07-2.733 1.315-2.439 1.839C92.617 117.833 93.698 116.811 94.974 116.811z" id="SvgjsPath178608"></path><path stroke="none" opacity="0.2" stroke-width="none" fill="#f8e1da" d="M100.089 111.999c0.607 0 1.742-0.74 1.792-2.23 0.201-6.008-0.956-23.833-1.792-23.77 -0.78 0.059-2.267 17.637-1.948 23.77C98.22 111.271 99.404 111.999 100.089 111.999z" id="SvgjsPath178609"></path></g><g id="svga-group-beardwrap"><g id="svga-group-beard-single"><path opacity="1" stroke-width="none" fill="#2a232b" d="M100,18.13L100,18.13L100,18.13L100,18.13z" id="SvgjsPath178482"></path></g></g><g id="svga-group-mustache-single"><path stroke="none" opacity="1" stroke-width="none" fill="#080806" d="M80.56 143.19c-7.87-11.92 1.64-21.9 10.5-21.9 3.27 0 5.65 1.63 8.98 1.65 3.11 0 6.01-1.58 9.11-1.49 6.34 0 14.64 5.28 13.09 13.41 -0.5 2.55-1.58 4.88-2.76 7.65 -2.9-13.79-9.32-10.74-21.95-11.35 -5.81-0.28-11.06-0.54-14.67 4.44C81.42 137.83 80.65 141.46 80.56 143.19" id="SvgjsPath178632"></path><path stroke="none" opacity="1" stroke-width="none" fill="#000000" d="M114.64 122.65c6.79 5.52 7.15 10.66 5.4 15.4 -0.54-6.99-7.47-13.3-20.26-10.03C86.98 124 80.33 131.2 79.7 138.9c-0.94-5.92 0.12-12.47 7.58-17.01 -7.52 2.33-13.72 11.17-6.62 21.62 0-1.41 0.73-5.43 2.29-7.85 3.98-5.49 9.98-4.55 16.6-4.3 9.78 0.62 16.95-2.77 19.86 11.28 0.01 0.08 0.03 0.15 0.05 0.22 0.08-0.18 0.16-0.38 0.25-0.59 0.04-0.1 0.09-0.2 0.13-0.31 0.97-2.27 2.02-4.56 2.51-7.06C123.48 128.87 119.34 124.62 114.64 122.65z" id="SvgjsPath178633"></path><path stroke="none" opacity="1" stroke-width="none" fill="#000000" d="M109.15 121.36c-3.11-0.11-6.08 1.52-9.23 1.48 -2.44-0.05-4.81-1.07-6.76-1.45 -9.31-1.81-21.46 8.97-12.51 22.12 0-1.41 0.73-5.43 2.29-7.85 3.98-5.49 9.98-4.55 16.6-4.3 9.78 0.62 16.95-2.77 19.86 11.28 0.01 0.08 0.03 0.15 0.05 0.22 0.08-0.18 0.16-0.38 0.25-0.59 0.04-0.1 0.09-0.2 0.13-0.31 0.97-2.27 2.02-4.56 2.51-7.06C123.93 126.52 115.3 121.36 109.15 121.36zM119.66 141.92c-1.54-14.71-12.16-11.49-20.06-11.91 -5.88-0.22-10.44-0.85-14.95 2.23 -3.33 2.74-4.26 6.2-4.26 10.61 -7.32-12.58 4.24-22.14 12.55-20.57 3.98 0.87 5.66 2.25 10.84 0.96 1.21-0.3 4.72-1.27 6.2-0.9 5.17 0.42 10.29 4.09 11.59 8.08C122.85 134.19 120.53 139.41 119.66 141.92z" id="SvgjsPath178634"></path></g><g id="svga-group-hair-front"><path stroke="none" opacity="1" stroke-width="none" fill="#000000" d="M164.354 50.741c-0.165-3.292-1.526-8.266-2.485-11.305 -1.113 1.915-1.224 1.915-1.877 2.927 -0.21-1.212-1.637-13.946-6.382-21.2 -0.544 1.912 0.056 4.105-1.088 5.567 -2.565-5.342-6.325-14.564-14.831-20.638 0.87 2.274 0.411 2.914 0.605 3.684 -2.516-3.628-5.512-5.54-10.311-8.295 0 1.687 0.163 2.755 0.163 2.755 -1.758-2.027-5.78-7.704-10.939-10.969 0.243 0.876-0.251 2.776-0.075 3.715 -1.69-3.599-6.87-10.572-11.955-9.723 -1.45-1.439-2.657-3.886-3.964-5.516 -0.82 4.329-7.635 13.833-14.676 18.103 0.232-1.79-0.102-3.37-0.543-5.19 -1.27 2.61-5.393 7.668-8.387 8.851C77.91 2.195 77.677-0.3 77.677-0.3c-1.589 2.085-2.963 3.242-5.06 5.084 0.026-1.172 0.624-3.642 0.979-4.879 -3.298 1.462-6.569 5.342-8.968 8.154 -0.261-1.604 0.271-4.964 0.813-5.703C53.647 10.157 48.067 16.424 42.691 31.51c-0.351-0.752-0.593-1.671-0.707-4.166 -6.725 10.937-10.54 18.516-3.459 45.811 -1.445-0.857-2.233-1.482-3.38-2.611 1.693 11.378 4.166 15.151 12.679 24.861 4.188-4.89 1.939-13.492 1.253-17.578 0.099-6.172 1.819-5.103 2.072-7.899 0.114-1.255 0.776-3.367 0.659-4.622 -0.472-5.024 1.132-13.964 3.475-19.847 3.592-5.277 7.713-8.823 13.048-12.029 8.422-1.67 16.253 1.805 18.647 2.425 4.326 1.12 21.693 1.12 26.021 0 2.995-0.775 11.371-4.294 20.026-1.996 6.533 3.737 10.179 7.242 12.862 14.031 1.712 5.4 2.685 12.117 2.28 16.415 -0.117 1.255 0.449 4.367 0.563 5.623 0.104 1.147 1.568 3.689 1.842 4.807 1.123 4.612-1.238 16.915-1.238 16.915 -0.065 1.727 0.09 3.432 0.646 5.076 6.195-3.866 6.614-6.152 7.502-9.064 0.732-2.409 4.626-11.52 4.744-13.19 -0.79 0.872-2.409 1.954-3.271 2.362 0.708-2.756 3.952-7.96 4.58-10.966C164.64 60.571 164.625 56.232 164.354 50.741z" id="SvgjsPath178629"></path><path stroke="none" opacity="1" stroke-width="none" fill="#080806" d="M164.354 50.741c-0.165-3.292-1.526-8.266-2.485-11.305 -1.113 1.915-1.224 1.915-1.877 2.927 -0.21-1.212-1.637-13.946-6.382-21.2 -0.544 1.912 0.056 4.105-1.088 5.567 -2.565-5.342-6.325-14.564-14.831-20.638 0.87 2.274 0.411 2.914 0.605 3.684 -2.516-3.628-5.512-5.54-10.311-8.295 0 1.687 0.163 2.755 0.163 2.755 -1.758-2.027-5.78-7.704-10.939-10.969 0.243 0.876-0.251 2.776-0.075 3.715 -1.69-3.599-6.87-10.572-11.955-9.723 -1.45-1.439-2.657-3.886-3.964-5.516 -0.82 4.329-7.635 13.833-14.676 18.103 0.232-1.79-0.102-3.37-0.543-5.19 -1.27 2.61-5.393 7.668-8.387 8.851C77.91 2.195 77.677-0.3 77.677-0.3c-1.589 2.085-2.963 3.242-5.06 5.084 0.026-1.172 0.624-3.642 0.979-4.879 -3.298 1.462-6.569 5.342-8.968 8.154 -0.261-1.604 0.271-4.964 0.813-5.703C53.647 10.157 48.067 16.424 42.691 31.51c-0.351-0.752-0.593-1.671-0.707-4.166 -6.725 10.937-10.54 18.516-3.459 45.811 -1.445-0.857-2.233-1.482-3.38-2.611 1.646 11.061 4.046 14.951 11.998 24.078C43.336 88.193 38.709 82.69 37 75c2 1 5 3 7 4 -5-14-10-32-3-45 1 4 3.536 8.736 5.536 11.736C42.163 33.861 52 19 59 10c0 5-1 11 1 16 0-7 5-11 8-17 0 4-1 7 1 11 1-5 2-10 5-14 2 4 1 8 3 12 0-6 3-9 4-14 2.203 5.069 4 6 5 10C85 3 100.203 2.069 101.203-8.931 102.203-1.931 104 3 103 11c4-5 6-11 7-18 7 6 5 14 8 21 2-4 2-9 3-14 4 7 8 15 11 23 1-5 2.869-7.264 0-15 7 5 12 14 11 23 1-5 2-10 2-15 1 11 8 21 7 33 2-5 4-10 4-16 0.914 10.055 2.649 20.944-0.112 31.143C157.422 60.349 160 56.819 160 52c3 11-7 20-6 31 0-1.705 2.9-2.685 3.757-4.176 0.081-0.275 0.161-0.549 0.243-0.824 0 0.295-0.095 0.566-0.243 0.824 -1.587 5.382-2.937 10.756-4.976 15.966 3.552-2.768 3.972-4.738 4.7-7.128 0.732-2.409 4.626-11.52 4.744-13.19 -0.79 0.872-2.409 1.954-3.271 2.362 0.708-2.756 3.952-7.96 4.58-10.966C164.64 60.571 164.625 56.232 164.354 50.741z" id="SvgjsPath178630"></path><path stroke="none" opacity="1" stroke-width="none" fill="#000000" d="M161.665 37.305c-0.379 1.596-0.486 1.958-1.128 3.53 -0.481-5.606-2.956-14.695-7.356-21.02 -0.135 2.162-0.249 3.328-0.582 5.35 -1.185-4.271-6.48-13.985-15.768-20.25 0.117 0.35 0.243 0.7 0.368 1.05v0.01c0.269 0.782 0.497 1.646 0.749 2.51 -3.827-4.758-7.283-5.571-10.618-7.87 0.17 0.983 0.271 1.968 0.281 2.04 -4.046-5.492-7.033-7.687-10.743-9.77 0.037 0.462 0.146 2.427 0.123 3.628 -2.432-5.127-4.641-8.986-11.875-9.698 -0.518-1-2.313-4.095-4.139-5.98 -2.3 8.074-8.614 13.707-14.156 18.47 0-1.865-0.302-3.701-0.718-5.49 -2.252 4.016-3.98 6.186-8.262 9.45 0.077-0.766 0.157-3.07 0.097-4.47 -1.174 1.616-3.048 3.649-5.119 5.41 0 0 1.164-4.899 1.174-4.95 -0.156 0.08-0.313 0.15-0.476 0.25 -0.97 0.244-5.192 2.951-8.911 7.81 0.362-3.423 1.047-4.68 1.29-5.68C54.794 7.997 45.986 17.907 42.5 30.575c-0.183-1.78-0.263-3.29-0.263-3.85 -5.115 6.421-7.534 13.02-7.872 14.68 -2.056 9.273 0.458 24.735 3.51 31.24 -1.917-1.524-0.184 0.004-3.2-2.73 0 4.709 1 8.023 2.725 12.09 2.438 5.747 5.88 9.351 10.424 13.4 -4.686-5.73-11.09-13.702-12.354-24.13 0.847 0.833 1.34 1.163 2.793 2.27h0.01c0 0.01 0 0.01 0 0.01 0.647 0.445 0.262 0.244 1.017 0.67 -7.5-27.167-2.066-37.896 2.511-46.39 0.124 3.95 0.819 5.709 2.144 7.9 -0.678-1.744-0.593-1.174-1.116-3.29 3.622-11.552 12.162-20.972 21.352-28.78 0.241-0.2 0.474-0.39 0.717-0.57 -0.32 0.826-0.824 3.42-0.824 5.01 -2.103 2.984-2.484 5.539-2.676 6.63 0.333-1 0.693-2.642 2.686-5.36v-0.01c2.599-4.016 7.259-7.938 9.27-9.3 -1.309 4.38-1.364 6.104-1.289 9.34 0.189-1.823 0.17-1.918 0.61-4.38 1.673-1.295 3.37-2.965 4.868-4.95 -0.109 2.301 0.029 5.486-1.271 8.33 1.1-1.655 1.532-3.7 1.532-4.7 1.309-0.804 4.459-2.157 8.106-8.4 0.789 5.342 0.201 8.289-0.592 10.43 0.645-1.211 1.512-2.889 1.512-5.79 6.763-4.663 11.506-8.768 14.235-16.83 0.076-0.31 0.156-0.61 0.212-0.91 1.518 2.183 7.604 11.9 6.382 14.49 1.547-1.57-1.223-7.455-2.308-9.47 7.645 1.914 8.36 4.039 13.572 14.82 -0.604-2.008-1.115-3.768-1.461-4.75 0.128-1.828 0.006-2.7-0.091-3.7 5.226 4.036 13.838 13.564 13.838 20.81 0.431-2.713 0.241-5.092-1.939-9.13 -0.271-0.49-0.543-0.97-0.836-1.39 -0.071-0.628-0.337-1.92-0.337-1.92 1.802 1.904 5.755 2.333 10.442 9.38 0.621 0.848 3.49 6.394 4.625 8.37 -2.375-6.62-3.041-7.672-3.878-9.23 -0.4-1.75-0.362-1.621-0.99-3.44 10.538 10.395 14.488 16.94 15.863 31.69 0.243-3.948 0.12-7.996-1.017-11.76 0.323-1.404 0.551-2.975 0.715-4.49 0.695 1.441 3.522 8.543 4.908 15.4 1.206 6.061 1.19 9.764 0.891 13.85 1.025-4.236 1.109-8.009 0.961-9.49 0.363-0.564 0.646-1.233 0.892-1.78 1.945 10.561 4.878 19.245-3.636 37.52 0.972-0.517 2.738-1.491 3.782-2.74 0 0-2.979 7.104-4.577 11.66 -2.787 6.939-2.47 6.195-7.099 9.82 5.116-2.12 6.527-5.081 8.205-9.4 3.162-9.217 2.862-6.158 5.255-15.11 -1.086 1.406-1.966 2.511-3.328 3.68C169.403 59.004 164.447 47.467 161.665 37.305z" id="SvgjsPath178631"></path></g><g id="svga-group-glasses-single"><path stroke="none" opacity="0.5" stroke-width="none" fill="#2c2c2c" d="M107.18 85.7c0.25 0.34 0.26 0.68 0.32 1.27 0.06 0.58 0.08 1.01 0.08 1.01s0.11 1.46 0.24 2.33c0.13 0.88 0 1.63-1.2 1.63 -1.48 0-1.56-3.82-1.69-4.67C104.62 85.27 105.99 84.07 107.18 85.7zM92.82 85.7c-0.25 0.34-0.26 0.68-0.32 1.27 -0.06 0.58-0.08 1.01-0.08 1.01s-0.11 1.46-0.24 2.33c-0.13 0.88 0 1.63 1.2 1.63 1.48 0 1.56-3.82 1.69-4.67C95.38 85.27 94.01 84.07 92.82 85.7z" id="SvgjsPath178661"></path><path opacity="0.2" stroke-width="none" fill="#ffffff" d="M148.51 85.14c-0.54 5.69-4.31 13.57-21.04 13.58h-0.04c-7.37 0-13.2-1.97-16.85-5.71 -2.77-2.83-4.15-6.52-4.15-10.94C116.3 76.92 140.48 77.34 148.51 85.14zM51.42 83.67c0.04 5.68 2.88 15.03 21.11 15.05h0.04c7.37 0 13.2-1.97 16.85-5.71 2.5-2.56 3.88-5.81 4.12-9.68C82.89 76.69 58.36 77.42 51.42 83.67z" id="SvgjsPath178662"></path><path opacity="0.4" stroke-width="none" fill="#ffffff" d="M148.59 83.53c0 0.51-0.02 1.05-0.08 1.6 -8.03-7.8-32.21-8.22-42.07-3.07 0-0.16-0.01-0.31-0.01-0.47 0-0.09 1.62-9.54 19.19-9.54C142.35 72.05 148.59 79.09 148.59 83.53zM74.38 72.05c-16.73 0-22.97 7.04-22.97 11.48 0 0.04 0 0.09 0 0.13 6.95-6.25 31.48-6.98 42.12-0.34 0.04-0.57 0.05-1.14 0.03-1.73C93.57 81.5 91.95 72.05 74.38 72.05z" id="SvgjsPath178663"></path><path stroke="none" opacity="1" stroke-width="none" fill="#2c2c2c" d="M125.62 71.84c-15.58 0-18.72 7.28-19.28 9.27 -0.84-0.18-1.19-0.23-1.73-0.74 -2.59-2.44-6.69-2.37-9.21 0 -0.54 0.51-0.9 0.56-1.73 0.74 -0.56-1.99-3.7-9.27-19.28-9.27 -16.89 0-23.18 7.17-23.18 11.69 0 5.75 2.77 15.4 21.33 15.4 18.84 0 21.17-11.69 21.25-17.04 1.38-0.29 1.78-0.33 2.51-1.01 2.23-2.09 5.19-2.11 7.42 0 0.74 0.69 1.14 0.72 2.51 1.01 0.08 5.35 2.41 17.04 21.25 17.04 18.55 0 21.33-9.65 21.33-15.4C148.8 79.01 142.51 71.84 125.62 71.84zM72.53 98.22c-17.93-0.02-20.61-9.2-20.61-14.69 0-4.24 6.1-10.98 22.47-10.98 17 0 18.69 8.96 18.69 9.06C93.31 92.22 85.3 98.23 72.53 98.22zM127.47 98.22c-12.77 0.01-20.79-6-20.54-16.61 0-0.09 1.69-9.06 18.69-9.06 16.37 0 22.47 6.74 22.47 10.98C148.09 89.02 145.41 98.2 127.47 98.22z" id="SvgjsPath178664"></path></g></g></g><rect style="display:none;" opacity="0.5" fill="#ecf0f1" y="185" x="0" height="15" width="200" id="SvgjsRect178449"></rect><text y="185" x="100" fill="#000000" font-weight="400" text-anchor="middle" font-size="0.84em" style="font-size:0.84em;font-family:&quot;Roboto&quot;, &quot;Helvetica Neue&quot;, Helvetica, Arial, sans-serif;text-anchor:middle;font-weight:400;display:none;" font-family="&quot;Roboto&quot;, &quot;Helvetica Neue&quot;, Helvetica, Arial, sans-serif" id="SvgjsText178450"><tspan style="font-size:0.84em;font-family:&quot;Roboto&quot;, &quot;Helvetica Neue&quot;, Helvetica, Arial, sans-serif;text-anchor:middle;font-weight:400;" x="100" dy="1.2em" id="SvgjsTspan178451">Created on todream.eu</tspan></text></g><defs id="SvgjsDefs178414"><radialGradient class="svga-on-canvas-facehighlight-gradient-single-0" gradientUnits="userSpaceOnUse" r="41" cy="114" cx="100" id="SvgjsRadialGradient178465"><stop offset="0" stop-color="#e8c1b6" stop-opacity="0.5" id="SvgjsStop178466"></stop><stop offset="0.9" stop-color="#d9a494" stop-opacity="0" id="SvgjsStop178467"></stop></radialGradient><radialGradient class="svga-on-canvas-facehighlight-gradient-single-1" gradientUnits="userSpaceOnUse" r="37" cy="54" cx="100" id="SvgjsRadialGradient178469"><stop offset="0" stop-color="#e8c1b6" stop-opacity="0.5" id="SvgjsStop178470"></stop><stop offset="0.9" stop-color="#d9a494" stop-opacity="0" id="SvgjsStop178471"></stop></radialGradient><radialGradient class="svga-on-canvas-eyesfront-gradient-left-0" gradientUnits="userSpaceOnUse" gradientTransform="matrix(-0.9945 0.1042 0.1042 0.9945 192.8281 -12.4633)" r="15.117" cy="83.945" cx="129.041" id="SvgjsRadialGradient178513"><stop offset="0" stop-color="#ffffff" stop-opacity="1" id="SvgjsStop178514"></stop><stop offset="0.316" stop-color="#fcfdfd" stop-opacity="1" id="SvgjsStop178515"></stop><stop offset="0.505" stop-color="#f4f7f8" stop-opacity="1" id="SvgjsStop178516"></stop><stop offset="0.661" stop-color="#e5ecef" stop-opacity="1" id="SvgjsStop178517"></stop><stop offset="0.76" stop-color="#d8e2e7" stop-opacity="1" id="SvgjsStop178518"></stop></radialGradient><radialGradient class="svga-on-canvas-eyesfront-gradient-left-3" gradientUnits="userSpaceOnUse" gradientTransform="matrix(0.9998 0.0208 0.0166 -0.7998 -45.3195 145.9395)" r="16.003" fy="82.527" fx="133.239" cy="82.496" cx="121.986" id="SvgjsRadialGradient178522"><stop offset="0" stop-color="#ca8975" stop-opacity="1" id="SvgjsStop178523"></stop><stop offset="0.7" stop-color="#ca8975" stop-opacity="0.3" id="SvgjsStop178524"></stop><stop offset="1" stop-color="#d9a494" stop-opacity="0" id="SvgjsStop178525"></stop></radialGradient><radialGradient class="svga-on-canvas-eyesfront-gradient-left-4" gradientUnits="userSpaceOnUse" gradientTransform="matrix(1.0336 0 0 1.0336 -1.6796 1.3127)" r="29.524" cy="105.995" cx="68.931" id="SvgjsRadialGradient178527"><stop offset="0.95" stop-color="#000000" stop-opacity="0" id="SvgjsStop178528"></stop><stop offset="1" stop-color="#000000" stop-opacity="0.2" id="SvgjsStop178529"></stop></radialGradient><radialGradient class="svga-on-canvas-eyesfront-gradient-right-0" gradientUnits="userSpaceOnUse" gradientTransform="matrix(0.9945 0.1042 -0.1042 0.9945 7.1738 -12.4633)" r="15.116" cy="83.986" cx="128.643" id="SvgjsRadialGradient178533"><stop offset="0" stop-color="#ffffff" stop-opacity="1" id="SvgjsStop178534"></stop><stop offset="0.316" stop-color="#fcfdfd" stop-opacity="1" id="SvgjsStop178535"></stop><stop offset="0.505" stop-color="#f4f7f8" stop-opacity="1" id="SvgjsStop178536"></stop><stop offset="0.661" stop-color="#e5ecef" stop-opacity="1" id="SvgjsStop178537"></stop><stop offset="0.76" stop-color="#d8e2e7" stop-opacity="1" id="SvgjsStop178538"></stop></radialGradient><radialGradient class="svga-on-canvas-eyesfront-gradient-right-3" gradientUnits="userSpaceOnUse" gradientTransform="matrix(-0.9998 0.0208 -0.0166 -0.7998 244.5208 145.9478)" r="16.003" fy="82.527" fx="132.839" cy="82.496" cx="121.587" id="SvgjsRadialGradient178542"><stop offset="0" stop-color="#ca8975" stop-opacity="1" id="SvgjsStop178543"></stop><stop offset="0.7" stop-color="#ca8975" stop-opacity="0.3" id="SvgjsStop178544"></stop><stop offset="1" stop-color="#d9a494" stop-opacity="0" id="SvgjsStop178545"></stop></radialGradient><radialGradient class="svga-on-canvas-eyesfront-gradient-right-4" gradientUnits="userSpaceOnUse" gradientTransform="matrix(-1.0336 0 0 1.0336 201.6796 1.3127)" r="29.524" cy="105.995" cx="69.316" id="SvgjsRadialGradient178547"><stop offset="0.95" stop-color="#000000" stop-opacity="0" id="SvgjsStop178548"></stop><stop offset="1" stop-color="#000000" stop-opacity="0.2" id="SvgjsStop178549"></stop></radialGradient><radialGradient class="svga-on-canvas-eyesiris-gradient-left-1" gradientUnits="userSpaceOnUse" gradientTransform="matrix(0.096 -0.0248 0.0245 0.0961 141.2814 119.9893)" r="59.751" cy="-521.042" cx="-568.659" id="SvgjsRadialGradient178554"><stop offset="0" stop-color="#ffffff" stop-opacity="1" id="SvgjsStop178555"></stop><stop offset="1" stop-color="#ffffff" stop-opacity="0" id="SvgjsStop178556"></stop></radialGradient><radialGradient class="svga-on-canvas-eyesiris-gradient-left-2" gradientUnits="userSpaceOnUse" gradientTransform="matrix(0.0991 8.856319e-004 -0.0011 0.0991 131.1134 135.9855)" r="59.745" cy="-519.099" cx="-582.838" id="SvgjsRadialGradient178558"><stop offset="0" stop-color="#ffffff" stop-opacity="1" id="SvgjsStop178559"></stop><stop offset="1" stop-color="#ffffff" stop-opacity="0" id="SvgjsStop178560"></stop></radialGradient><linearGradient class="svga-on-canvas-eyesiris-gradient-left-5" gradientUnits="userSpaceOnUse" gradientTransform="matrix(1 0 0 1 -52 0)" y2="87.152" x2="123.606" y1="88.268" x1="122.67" id="SvgjsLinearGradient178564"><stop offset="0" stop-color="#ffffff" stop-opacity="1" id="SvgjsStop178565"></stop><stop offset="1" stop-color="#ffffff" stop-opacity="0" id="SvgjsStop178566"></stop></linearGradient><linearGradient class="svga-on-canvas-eyesiris-gradient-left-6" gradientUnits="userSpaceOnUse" gradientTransform="matrix(1 0 0 1 -52 0)" y2="83.189" x2="126.463" y1="82.296" x1="127.212" id="SvgjsLinearGradient178568"><stop offset="0" stop-color="#ffffff" stop-opacity="1" id="SvgjsStop178569"></stop><stop offset="1" stop-color="#ffffff" stop-opacity="0" id="SvgjsStop178570"></stop></linearGradient><linearGradient class="svga-on-canvas-eyesiris-gradient-left-7" gradientUnits="userSpaceOnUse" gradientTransform="matrix(1 0 0 1 -52 0)" y2="81.879" x2="127.91" y1="79.822" x1="129.636" id="SvgjsLinearGradient178572"><stop offset="0" stop-color="#ffffff" stop-opacity="1" id="SvgjsStop178573"></stop><stop offset="1" stop-color="#ffffff" stop-opacity="0" id="SvgjsStop178574"></stop></linearGradient><radialGradient class="svga-on-canvas-eyesiris-gradient-right-1" gradientUnits="userSpaceOnUse" gradientTransform="matrix(0.096 -0.0248 0.0245 0.0961 193.2804 119.9894)" r="59.752" cy="-521.042" cx="-568.654" id="SvgjsRadialGradient178577"><stop offset="0" stop-color="#ffffff" stop-opacity="1" id="SvgjsStop178578"></stop><stop offset="1" stop-color="#ffffff" stop-opacity="0" id="SvgjsStop178579"></stop></radialGradient><radialGradient class="svga-on-canvas-eyesiris-gradient-right-2" gradientUnits="userSpaceOnUse" gradientTransform="matrix(0.0991 8.856319e-004 -0.0011 0.0991 183.1126 135.9856)" r="59.747" cy="-519.102" cx="-582.833" id="SvgjsRadialGradient178581"><stop offset="0" stop-color="#ffffff" stop-opacity="1" id="SvgjsStop178582"></stop><stop offset="1" stop-color="#ffffff" stop-opacity="0" id="SvgjsStop178583"></stop></radialGradient><linearGradient class="svga-on-canvas-eyesiris-gradient-right-5" gradientUnits="userSpaceOnUse" y2="87.152" x2="123.606" y1="88.268" x1="122.67" id="SvgjsLinearGradient178587"><stop offset="0" stop-color="#ffffff" stop-opacity="1" id="SvgjsStop178588"></stop><stop offset="1" stop-color="#ffffff" stop-opacity="0" id="SvgjsStop178589"></stop></linearGradient><linearGradient class="svga-on-canvas-eyesiris-gradient-right-6" gradientUnits="userSpaceOnUse" y2="83.189" x2="126.463" y1="82.296" x1="127.212" id="SvgjsLinearGradient178591"><stop offset="0" stop-color="#ffffff" stop-opacity="1" id="SvgjsStop178592"></stop><stop offset="1" stop-color="#ffffff" stop-opacity="0" id="SvgjsStop178593"></stop></linearGradient><linearGradient class="svga-on-canvas-eyesiris-gradient-right-7" gradientUnits="userSpaceOnUse" y2="81.879" x2="127.91" y1="79.822" x1="129.636" id="SvgjsLinearGradient178595"><stop offset="0" stop-color="#ffffff" stop-opacity="1" id="SvgjsStop178596"></stop><stop offset="1" stop-color="#ffffff" stop-opacity="0" id="SvgjsStop178597"></stop></linearGradient><radialGradient class="svga-on-canvas-eyesback-gradient-left-0" gradientUnits="userSpaceOnUse" r="10.708" cy="85.375" cx="73.488" id="SvgjsRadialGradient178636"><stop offset="0" stop-color="#ffffff" stop-opacity="1" id="SvgjsStop178637"></stop><stop offset="0.544" stop-color="#fdfefe" stop-opacity="1" id="SvgjsStop178638"></stop><stop offset="0.74" stop-color="#f6f8f9" stop-opacity="1" id="SvgjsStop178639"></stop><stop offset="0.879" stop-color="#eaeff2" stop-opacity="1" id="SvgjsStop178640"></stop><stop offset="0.992" stop-color="#d9e3e8" stop-opacity="1" id="SvgjsStop178641"></stop><stop offset="1" stop-color="#d8e2e7" stop-opacity="1" id="SvgjsStop178642"></stop></radialGradient><radialGradient class="svga-on-canvas-eyesback-gradient-right-0" gradientUnits="userSpaceOnUse" gradientTransform="matrix(-1 0 0 1 200 0)" r="10.708" cy="85.375" cx="73.888" id="SvgjsRadialGradient178644"><stop offset="0" stop-color="#ffffff" stop-opacity="1" id="SvgjsStop178645"></stop><stop offset="0.544" stop-color="#fdfefe" stop-opacity="1" id="SvgjsStop178646"></stop><stop offset="0.74" stop-color="#f6f8f9" stop-opacity="1" id="SvgjsStop178647"></stop><stop offset="0.879" stop-color="#eaeff2" stop-opacity="1" id="SvgjsStop178648"></stop><stop offset="0.992" stop-color="#d9e3e8" stop-opacity="1" id="SvgjsStop178649"></stop><stop offset="1" stop-color="#d8e2e7" stop-opacity="1" id="SvgjsStop178650"></stop></radialGradient><linearGradient class="svga-on-canvas-mouth-gradient-single-0" gradientUnits="userSpaceOnUse" y2="139" x2="100" y1="142" x1="100" id="SvgjsLinearGradient178666"><stop offset="0.1" stop-color="#d19684" stop-opacity="1" id="SvgjsStop178667"></stop><stop offset="1" stop-color="#ca8975" stop-opacity="1" id="SvgjsStop178668"></stop></linearGradient><linearGradient class="svga-on-canvas-chinshadow-gradient-single-0" gradientUnits="userSpaceOnUse" y2="132" x2="100" y1="170" x1="100" id="SvgjsLinearGradient178691"><stop offset="0" stop-color="#ca8975" stop-opacity="0.8" id="SvgjsStop178692"></stop><stop offset="0.7" stop-color="#ab5a41" stop-opacity="1" id="SvgjsStop178693"></stop></linearGradient></defs></svg>