<svg xmlns="http://www.w3.org/2000/svg" version="1.1" width="600px" height="600px" xlink="http://www.w3.org/1999/xlink" style="overflow:hidden!important;"><g id="svga-group-wrapper" transform="scale(3 3)"><g id="svga-group-backs-single"></g><g id="svga-group-subwrapper"><g id="svga-group-hair-back"><path stroke="none" opacity="1" stroke-width="none" fill="#982a13" d="M151.582 41.064l-99.508-5.662c0 0-25.074 182.88-25.074 188.596 0 0 100.899 0.72 143.907 0C170.103 216.079 151.582 41.064 151.582 41.064z" id="SvgjsPath10458"></path></g><g id="svga-group-humanbody-single"><path stroke="none" opacity="1" stroke-width="none" fill="#d9a494" d="M190.858 199.866c-6.008-10.158-13.474-11.973-19.628-13.936 -6.323-2.016-19.346-3.178-26.449-4.6 -6.86-1.373-23.153-5.789-23.339-13.488 -0.192-8.066 4.291-40.09 4.291-40.09H74.005c0 0 4.487 32.023 4.294 40.09 -0.184 7.699-16.48 12.115-23.341 13.488 -7.104 1.422-20.125 2.584-26.448 4.6 -6.156 1.963-13.624 3.777-19.632 13.936 -3.644 6.16-6.008 16.133-6.008 27.133h194C196.869 215.999 194.509 206.026 190.858 199.866z" id="SvgjsPath10301"></path><path stroke="none" opacity="1" stroke-width="none" fill="#e8c1b6" d="M121.442 167.843c2.495 10.929 18.165 13.698 26.293 15.325 21.909 4.379 33.772 5.134 42.297 19.539 2.903 4.916 5.459 15.864 5.962 24.153 1.835 0.291 0.531-17.432-5.136-26.994 -9.742-16.472-29.089-15.135-46.077-18.535C137.921 179.958 121.628 175.542 121.442 167.843L121.442 167.843zM78.558 167.843c-0.186 7.699-16.479 12.115-23.339 13.488 -16.988 3.4-36.335 2.063-46.077 18.535 -5.667 9.563-6.971 27.285-5.136 26.994 0.503-8.289 3.059-19.237 5.962-24.153 8.524-14.405 20.388-15.16 42.297-19.539C60.393 181.541 76.063 178.771 78.558 167.843L78.558 167.843z" id="SvgjsPath10302"></path><path stroke="none" opacity="1" stroke-width="none" fill="#ca8975" d="M51.206 189.513c0 0 28.641 0.299 33.473 1.885 2.314 0.758 8.372 5.633 8.372 5.633s-6.556-3.17-8.658-3.758C79.51 191.909 51.206 189.513 51.206 189.513zM99.795 199.999c2.053-0.041 7.887-3.799 7.887-3.799s-5.574 2.059-7.342 2.16c-1.491 0.086-6.366-1.238-6.366-1.238S98.112 200.032 99.795 199.999zM117.008 192.757c6.75-1.818 29.786-3.23 29.786-3.23s-23.791-0.516-30.51 1.725c-2.252 0.752-7.562 5.16-7.562 5.16S114.786 193.354 117.008 192.757z" id="SvgjsPath10303"></path><path opacity="1" stroke-width="1.5" stroke="#ab5a41" fill="none" d="M190.858 199.866c-9.741-16.471-29.122-15.142-46.077-18.535 -6.86-1.373-23.153-5.789-23.339-13.488 -0.192-8.066 4.291-40.09 4.291-40.09H74.005c0 0 4.487 32.023 4.294 40.09 -0.184 7.699-16.48 12.115-23.341 13.488 -7.104 1.422-20.125 2.584-26.448 4.6 -6.156 1.963-13.624 3.777-19.632 13.936 -3.644 6.16-6.008 16.133-6.008 27.133h194C196.869 215.999 194.509 206.026 190.858 199.866z" id="SvgjsPath10304"></path></g><g id="svga-group-chinshadow-single"><path opacity="1" fill="url(#SvgjsLinearGradient10587)" d="M74.767 128.517c0.594 4.297 3.11 22.794 3.929 33.496 6.172 3.567 11.423 8.992 21.307 8.992 9.736 0 14.976-5.264 21.031-8.831 0.805-10.679 3.341-29.34 3.938-33.657l0.017-0.113H74.751L74.767 128.517z" id="SvgjsPath10586"></path></g><g id="svga-group-clothes-single"><path opacity="1" stroke-width="none" fill="#92002a" d="M131.897 174.908c-0.71-5.501-7.712-10.543-9.75-12.442 -0.236 4.085-0.705 6.017 0.606 8.112 -2.489 5.646-14.874 8.832-17.736 16.158 -4.637 3.334-2.905 14.993-3.52 16.256 -0.487 2.981-0.519 2.893-0.978 4.772 -3.689-9.722-0.965-15.924-5.341-19.41 -0.775-8.344-16.73-10.325-19.263-16.676 0.044 0.023 0.081 0.056 0.13 0.07 1.999-1.699 1.916-4.357 1.692-6.688 -0.017-0.763 0.014-0.165-0.167-2.685 -1 0.218-8.943 7.903-9.563 12.353 -47.123 17.062-66.354-0.609-66.371 57.268 6.439 0.001 14.098 0.142 24.677 0.336 58.466 1.074 109.342 1.267 171.612 1.073C203.17 174.271 165.243 186.777 131.897 174.908z" id="SvgjsPath10600"></path><path opacity="1" stroke-width="none" fill="#730021" d="M77.752 165.168c0.502 3-0.564 5.945-1.705 6.581 -0.016-0.005-0.106 0.019-0.219 0.051C73.604 169.312 76.813 167.496 77.752 165.168zM121.952 165.255c-0.163 2.308-0.168 3.773 0.802 5.323C123.256 169.933 123.97 166.587 121.952 165.255z" id="SvgjsPath10601"></path><path opacity="1" stroke-width="none" fill="#830026" d="M103 195c0-2.728 0.938-5.447 2.163-7.857 -0.157 1.619-0.023 3.621-0.023 5.24C115.16 191.159 128 188 132 177 129 190 115 194 103 195zM94.745 192.708c-4.508 1.127-23.834-6.931-25.875-13.89 1.958 11.167 15.81 13.406 26.81 16.406 0.525-2.625 0.133-4.42-0.417-6.638C95.262 188.587 94.495 191.708 94.745 192.708zM164.039 226.686c0.069-1 1.299-4.924 0.91-10.45 -0.569-11.436-1.158-14.953-4.13-24.87 1.838 5.188 2.378 5.507 4.24 14.58C167.123 215.282 163.961 228.045 164.039 226.686zM39.309 188.136c-4.773 10.695-7.132 14.257-6.07 27l-0.01-0.021c0.089 1 0.533 6.777 1.02 9.73 -0.489-10.028-0.196-3.99-0.33-9.73 0-10 0 9.97 0-0.03C33.314 205.074 36.536 200 39.309 188.136zM12.049 220.966c-0.347-2.074 1.398-21.812 10.73-28.311 0.95-0.647 1.46-1.007 0.48-0.39C9.37 201.488 12.049 223.12 12.049 220.966z" id="SvgjsPath10602"></path><path opacity="1" stroke-width="none" fill="#a1103a" d="M123.271 170.918c-0.382 5.633-14.783 10.771-18.217 18.123C105.395 179.851 118.691 177.167 123.271 170.918zM94.875 189.728c0.874-7.739-14.001-12.106-19.817-18.3C78.375 179.783 87.87 178.72 94.875 189.728zM191.032 202.707c5.535 9.07 4.81 18.807 6.837 24.292 0-11-1.255-20.75-4.75-26.999 -10.75-19.222-20.933-12.19-61.891-25.213C170.494 190.11 180.681 185.745 191.032 202.707zM68.771 174.787C27.813 187.81 17.631 180.778 6.881 200c-3.495 6.249-4.75 15.999-4.75 26.999 2.027-5.485 1.302-15.222 6.837-24.292C19.319 185.745 29.506 190.11 68.771 174.787z" id="SvgjsPath10603"></path><path opacity="1" stroke-width="none" fill="#64001d" d="M131.989 174.835c-0.58-4.709-6.171-9.438-9.833-12.482l-0.019 0.242c10.193 9.529 9.228 12.276 8.212 15.74 -0.379 1.423-2.306 4.396-5.381 6.65 -5.775 4.592-18.388 7.196-19.76 7.3 -0.986-10.086 6.97-9.877 15.59-18.06 0.426-0.408 1.954-2.042 2.08-2.561 1.445-2.345 0.869-4.797-0.864-6.922l-0.026 0.539c5.861 9.314-13.443 12.09-17.029 21.373 -4.667 3.355-2.955 15.05-3.56 16.32 -0.527 3.224-0.562 3.035-0.9 4.45 -2.902-7.66-1.46-10.241-2.89-15.261 0-0.01 0-0.01 0-0.01 -0.421-1.474-1.108-2.883-2.33-3.81 -1.001-10.774-26.998-11.045-17.54-23.285l-0.035-0.506c-12.585 13.44 18.053 12.91 16.834 28.131 -3.949 0.233-4.683-1.386-9.07-2.51 -9.301-2.722-19.946-10.46-15.35-19.051 1.694-3.16 4.616-6.051 7.444-8.681l-0.015-0.252c-3.709 3.074-8.965 7.575-9.629 12.463 -10.404 3.77-6.731 2.755-14.67 4.64 -42.604 7.271-51.71 8.612-51.71 52.801 23.243 0 62.481 1.831 196.48 1.409C203.358 173.707 164.567 186.764 131.989 174.835zM1.729 231.855c0.37-22.729 0.68-40.048 30.82-47.5 14.567-3.776 16.128-1.387 35.34-9.25 -0.288 10.922 12.107 14.433 22.59 17.49 1.68 0.484 2.988 0.49 4.4 0.26 0.12-0.824 0.529-3.08 0.42-4.08 0.964 0.965 1.456 2.188 1.75 3.51 0.311 0.312 0.496 5.03 0.51 5.47 0.518 14.971 3.707 3.918 3.29 33.671C90.129 231.426 31.302 231.643 1.729 231.855zM101.819 231.426c0.793-10.911 1.635-12.78-0.36-21.19 1.847-6.996 1.21-9.104 1.21-14.23 -0.002-0.216 0.067-3.607 0.22-3.76 0.232-1.889 0.632-3.541 1.801-4.71 -0.334 1.382-0.086 3.574 0.14 4.95 13.034 0 28.936-8.348 27.2-17.2 30.37 12.298 64.938 3.99 65.64 46.101 0.187 2.804 0.154 4.91 0.22 11.77C121.583 231.592 110.039 231.381 101.819 231.426z" id="SvgjsPath10604"></path></g><g id="svga-group-head"><g style="display:none;" id="svga-group-ears-left"><path opacity="1" stroke-width="1.5" stroke="#ab5a41" fill="#d9a494" d="M45.443 81.864c-1.469-2.399-6.648-7.441-10.31-6.519 -2.979 0.752-6.032 3.199-6.032 7.37 -0.001 6.462 1.496 9.209 2.501 12.141 0.856 2.495 3.915 7.068 5.761 8.841 2.273 2.179 5.957 9.221 6.404 9.941 0.705 1.137 1.877 2.946 4.043 3.014 3.29 0.103 7.085-2.077 7.323-3.44C56.42 105.816 49.263 88.107 45.443 81.864z" id="SvgjsPath10563"></path><path stroke="none" opacity="1" stroke-width="none" fill="#ab5a41" d="M43.596 98.002c-0.142-0.549 0.007-1.474 0.152-2.367 0.131-0.814 0.255-1.583 0.18-2.126 -0.285-2.036-1.892-5.906-2.942-8.003 -1.208-2.412-4.117-5.452-6.568-6.235 -1.013-0.325-1.681 0.063-2.067 0.456 -0.284 0.289-0.347 0.628-0.254 0.668 0.093 0.04 0.304-0.241 0.61-0.505 0.25-0.217 0.617-0.402 1.122-0.364 -0.203 1.014-3.138 4.164-1.381 10.249 0.822 2.849 1.992 5.143 2.202 5.473 0.032 0.347 0.083 0.687 0.159 1.016 0.991 4.297 7.286 11.382 8.785 12.981 0.277 0.296 0.567 0.471 0.639 0.4 0.072-0.071-0.1-0.363-0.376-0.661 -1.48-1.589-7.734-8.657-8.69-12.803 -1.754-7.595 1.916-7.723 4.499-12.3 0.397 0.647 0.733 1.27 0.993 1.789 0.203 0.407 0.429 0.883 0.661 1.398 -0.458 0.719-5.059 5.972-3.889 10.175 0.433 1.55 3.779 3.548 5.073 4.096 0.712 0.302 0.979 0.752 1.289 1.273 0.359 0.605 0.767 2.758 1.95 3.254 0.241 0.101 0.458 0.143 0.651 0.143 0.334 0 0.587-0.126 0.774-0.276 0.019 0.264 0.018 0.604 0.008 0.917 -0.011 0.405 0.046 0.738 0.147 0.746s0.208-0.313 0.221-0.717c0.016-0.497 0.014-1.112-0.077-1.407 -0.265-0.867-1.076-1.845-1.934-2.88C44.688 101.372 43.815 98.852 43.596 98.002zM34.616 94.192c-2.322-6.746 0.993-12.568 1.514-13.495 0.908 0.776 2.662 1.815 3.314 2.83C36.33 88.848 34.811 85.147 34.616 94.192zM45.884 105.528c-1.072-0.449-1.431-2.52-1.778-3.104 -0.314-0.528-0.639-1.074-1.461-1.423 -0.179-0.076-0.376-0.191-0.578-0.324 -3.861-5.679 0.291-8.507 1.027-9.037 0.226 0.724 0.396 1.387 0.47 1.919 0.068 0.489-0.058 1.266-0.179 2.017 -0.15 0.931-0.306 1.894-0.145 2.518 0.24 0.928 1.14 3.481 2.01 4.531 0.772 0.933 1.564 1.893 1.835 2.676C46.97 105.458 46.604 105.83 45.884 105.528z" id="SvgjsPath10564"></path></g><g style="display:none;" id="svga-group-ears-right"><path opacity="1" stroke-width="1.5" stroke="#ab5a41" fill="#d9a494" d="M154.295 81.864c1.469-2.399 6.648-7.441 10.311-6.519 2.979 0.752 6.031 3.199 6.031 7.37 0.002 6.462-1.496 9.209-2.5 12.141 -0.857 2.495-3.916 7.068-5.762 8.841 -2.273 2.179-5.957 9.221-6.404 9.941 -0.705 1.137-1.877 2.946-4.043 3.014 -3.291 0.103-7.086-2.077-7.324-3.44C143.318 105.816 150.475 88.107 154.295 81.864z" id="SvgjsPath10565"></path><path stroke="none" opacity="1" stroke-width="none" fill="#ab5a41" d="M154.205 102.391c-0.857 1.036-1.668 2.013-1.934 2.88 -0.09 0.295-0.092 0.91-0.076 1.407 0.014 0.404 0.119 0.725 0.221 0.717s0.158-0.341 0.146-0.746c-0.01-0.313-0.01-0.653 0.01-0.917 0.186 0.15 0.439 0.276 0.773 0.276 0.193 0 0.41-0.042 0.65-0.143 1.184-0.496 1.592-2.649 1.951-3.254 0.311-0.521 0.576-0.971 1.289-1.273 1.293-0.548 4.639-2.545 5.072-4.096 1.17-4.204-3.432-9.456-3.889-10.175 0.232-0.515 0.457-0.991 0.66-1.398 0.26-0.519 0.596-1.141 0.994-1.789 2.582 4.577 6.252 4.705 4.498 12.3 -0.957 4.146-7.209 11.214-8.689 12.803 -0.275 0.298-0.447 0.59-0.377 0.661 0.072 0.07 0.361-0.104 0.639-0.4 1.5-1.6 7.795-8.685 8.785-12.981 0.076-0.33 0.129-0.669 0.16-1.016 0.209-0.33 1.379-2.624 2.201-5.473 1.758-6.085-1.178-9.235-1.381-10.249 0.504-0.039 0.871 0.147 1.123 0.364 0.305 0.265 0.518 0.545 0.609 0.505 0.094-0.041 0.029-0.379-0.254-0.668 -0.387-0.393-1.055-0.781-2.068-0.456 -2.451 0.783-5.359 3.823-6.568 6.235 -1.049 2.097-2.656 5.967-2.941 8.003 -0.074 0.544 0.049 1.313 0.18 2.126 0.145 0.894 0.293 1.818 0.152 2.367C155.924 98.852 155.051 101.372 154.205 102.391zM160.295 83.528c0.652-1.015 2.406-2.054 3.313-2.83 0.521 0.926 3.836 6.749 1.516 13.495C164.928 85.147 163.408 88.848 160.295 83.528zM152.652 105.301c0.271-0.783 1.064-1.743 1.836-2.676 0.869-1.05 1.77-3.603 2.01-4.531 0.16-0.624 0.006-1.586-0.145-2.518 -0.121-0.751-0.248-1.528-0.18-2.017 0.074-0.532 0.244-1.195 0.471-1.919 0.734 0.53 4.887 3.358 1.025 9.037 -0.201 0.133-0.398 0.248-0.578 0.324 -0.822 0.349-1.146 0.895-1.461 1.423 -0.346 0.584-0.705 2.655-1.777 3.104C153.135 105.83 152.768 105.458 152.652 105.301z" id="SvgjsPath10566"></path></g><g id="svga-group-faceshape-wrap"><g id="svga-group-faceshape-single"><path opacity="1" stroke-width="none" fill="#d9a494" d="M100.002 0.867C66.384 0.919 39.082 28.09 39.134 61.564c0.009 5.316 0.704 10.471 2.002 15.382h0.001c0.012 0.053 8.12 35.231 11.82 46.756 2.775 8.646 14.288 21.634 22.398 24.913 7.826 3.165 13.039 10.654 24.646 10.654s16.82-7.489 24.646-10.654c8.11-3.279 19.624-16.268 22.398-24.913 3.7-11.524 11.809-46.703 11.819-46.756h0.002c1.298-4.911 1.994-10.066 2.002-15.382C160.923 28.09 133.62 0.919 100.002 0.867z" id="SvgjsPath10583"></path><path opacity="1" stroke-width="none" fill="#d19684" d="M140.727 16.481c10.424 10.984 16.867 26.145 16.844 42.883 -0.009 5.316-0.666 10.471-1.894 15.382h-0.001c-0.011 0.053-7.681 35.231-11.18 46.756 -2.623 8.646-13.515 21.634-21.184 24.913 -7.403 3.164-12.333 10.654-23.31 10.654 -10.978 0-15.908-7.49-23.309-10.654 -7.671-3.279-18.56-16.268-21.184-24.913 -3.5-11.524-11.168-46.703-11.18-46.756h-0.001c-1.229-4.911-1.886-10.066-1.894-15.382 -0.025-16.736 6.418-31.896 16.84-42.88 -12.382 11.111-20.168 27.193-20.141 45.08 0.009 5.316 0.704 10.471 2.002 15.382h0.001c0.012 0.053 8.12 35.231 11.82 46.756 2.775 8.646 14.288 21.634 22.398 24.913 7.826 3.165 13.039 10.654 24.646 10.654s16.82-7.489 24.646-10.654c8.11-3.279 19.624-16.268 22.398-24.913 3.7-11.524 11.809-46.703 11.819-46.756h0.002c1.298-4.911 1.994-10.066 2.002-15.382C160.898 43.676 153.111 27.593 140.727 16.481z" id="SvgjsPath10584"></path><path opacity="1" stroke-width="1.5" stroke="#ab5a41" fill="none" d="M100.002 0.867C66.384 0.919 39.082 28.09 39.134 61.564c0.009 5.316 0.704 10.471 2.002 15.382h0.001c0.012 0.053 8.12 35.231 11.82 46.756 2.775 8.646 14.288 21.634 22.398 24.913 7.826 3.165 13.039 10.654 24.646 10.654s16.82-7.489 24.646-10.654c8.11-3.279 19.624-16.268 22.398-24.913 3.7-11.524 11.809-46.703 11.819-46.756h0.002c1.298-4.911 1.994-10.066 2.002-15.382C160.923 28.09 133.62 0.919 100.002 0.867z" id="SvgjsPath10585"></path></g></g><g id="svga-group-mouth-single"><path opacity="1" fill="url(#SvgjsLinearGradient10555)" d="M100.126 141.95c-2.835 0-3.5-2.934-3.5-2.934s3.898 0.763 7 0C103.626 139.017 102.621 141.95 100.126 141.95z" id="SvgjsPath10554"></path><path stroke="none" opacity="1" stroke-width="none" fill="#ab5a41" d="M100.523 139.779c-1.987 0-3.757-0.267-3.868-0.283 -0.137-0.021-0.23-0.147-0.209-0.284 0.021-0.137 0.154-0.226 0.285-0.209 0.041 0.005 4.071 0.61 6.747 0.002 0.133-0.025 0.27 0.055 0.3 0.189s-0.054 0.268-0.188 0.299C102.643 139.708 101.554 139.779 100.523 139.779z" id="SvgjsPath10558"></path><path opacity="1" stroke-width="none" fill="#ffffff" d="M84 130c0 0 11.487 1.189 15.325 1.199C103.499 131.208 117 130 117 130c-3.903 2.826-8.199 5.543-17.926 5.597C90.373 135.646 88.145 132.889 84 130z" id="SvgjsPath10559"></path><path opacity="1" stroke-width="0.75" stroke="#c92066" fill="none" d="M84 130c0 0 11.487 1.189 15.325 1.199C103.499 131.208 117 130 117 130c-3.903 2.826-8.199 5.543-17.926 5.597C90.373 135.646 88.145 132.889 84 130z" id="SvgjsPath10560"></path></g><g id="svga-group-eyes-left"><g id="svga-group-eyesback-left"><path opacity="1" fill="url(#SvgjsRadialGradient10482)" d="M60.606 84.841c9.825-9.869 20.004-8.215 25.751-1.317 0.702 1.373 0.997 2.864 0.875 4.343 -0.187 2.243-2.023 4.452-2.862 4.886 -2.361 1.221-4.936 1.942-7.547 2.09 -1.004 0.057-1.597 0.079-2.459 0 -1.709-0.157-3.145-0.513-4.85-1.213 -2.795-1.148-5.434-3.113-7.677-6.048 -0.033-0.042-0.081-0.067-0.132-0.068s-0.1 0.022-0.134 0.062l-0.089 0.108c-0.05 0.06-0.054 0.142-0.021 0.211 -0.252-0.344-0.478-0.689-0.673-1.036 0.007 0.004 0.011 0.006 0.018 0.01C60.344 86.035 60.365 85.193 60.606 84.841z" id="SvgjsPath10481"></path></g><g transform="translate(0 -0.5)" id="svga-group-eyesiriswrapper-left"><g id="svga-group-eyesiriscontrol-left"><g id="svga-group-eyesiris-left"><path opacity="1" stroke-width="0.5" stroke="#152975" fill="#4e60a3" d="M85.129 90.705c-1.521 7.45-7.283 11.838-12.882 9.792 -5.594-2.044-8.899-9.75-7.376-17.2 1.521-7.454 7.296-11.841 12.89-9.794C83.351 75.546 86.652 83.251 85.129 90.705z" id="SvgjsPath10620"></path><path stroke="none" opacity="1" stroke-width="none" fill="#6777b2" d="M83.496 90.879c-1.484 5.719-5.964 9.057-10.323 7.465 -4.024-1.474-6.565-6.625-6.235-12.067 1.495-0.156 3.126-0.205 4.822-0.093 -0.017 0.078-0.047 0.145-0.063 0.225 -0.533 2.626 0.713 5.377 2.787 6.138 2.081 0.759 4.202-0.764 4.738-3.387 0.066-0.343 0.103-0.687 0.113-1.025C80.757 88.826 82.153 89.72 83.496 90.879z" id="SvgjsPath10621"></path><path opacity="0.9" stroke-width="none" fill="#000000" d="M76.421 82.826c-2.102-0.804-4.249 0.797-4.791 3.59 -0.544 2.781 0.721 5.689 2.823 6.493 2.107 0.805 4.254-0.797 4.797-3.577C79.798 86.537 78.527 83.627 76.421 82.826zM76.882 92.7c-0.875 0.362-1.78-0.119-2.021-1.079 -0.232-0.958 0.286-2.022 1.167-2.377 0.881-0.362 1.782 0.12 2.025 1.073C78.29 91.271 77.769 92.337 76.882 92.7z" id="SvgjsPath10622"></path><path opacity="0.6" stroke-width="none" fill="#ffffff" d="M69.42 94.372c-0.648 0.518-1.613 0.056-2.168-1.042 -0.554-1.088-0.47-2.391 0.181-2.911 0.641-0.51 1.618-0.047 2.168 1.042C70.145 92.551 70.067 93.855 69.42 94.372z" id="SvgjsPath10623"></path><path opacity="0.9" stroke-width="none" fill="#ffffff" d="M83.243 86.395c-1.481 1.181-3.707 0.116-4.966-2.38 -1.26-2.5-1.07-5.489 0.41-6.667 1.478-1.188 3.704-0.123 4.958 2.378C84.904 82.226 84.723 85.209 83.243 86.395z" id="SvgjsPath10624"></path></g></g></g><g id="svga-group-eyesfront-left"><path stroke="none" opacity="1" stroke-width="none" fill="#d9a494" d="M55.5 87c0 13.808 8.283 24.999 18.5 24.999S92.5 100.808 92.5 87c0-13.809-8.283-25.001-18.5-25.001S55.5 73.191 55.5 87zM60.79 86.86c0.007 0.004 0.011 0.006 0.018 0.01 -0.464-0.835-0.442-1.677-0.201-2.029 9.825-9.869 20.004-8.215 25.751-1.317 0.702 1.373 0.997 2.864 0.875 4.343 -0.187 2.243-2.023 4.452-2.862 4.886 -2.361 1.221-4.936 1.942-7.547 2.09 -1.004 0.057-1.597 0.079-2.459 0 -1.709-0.157-3.145-0.513-4.85-1.213 -2.795-1.148-5.434-3.113-7.677-6.048 -0.033-0.042-0.081-0.067-0.132-0.068s-0.1 0.022-0.134 0.062l-0.089 0.108c-0.05 0.06-0.054 0.142-0.021 0.211C61.211 87.551 60.985 87.207 60.79 86.86z" id="SvgjsPath10506"></path><path opacity="1" fill="url(#SvgjsRadialGradient10508)" d="M59.397 85.083c0.023 8.56 7.646 15.459 17.038 15.416 9.389-0.049 16.985-7.022 16.961-15.583 -0.023-8.562-7.647-15.463-17.04-15.417C66.965 69.549 59.373 76.522 59.397 85.083zM60.79 86.86c0.007 0.004 0.011 0.006 0.018 0.01 -0.464-0.835-0.442-1.677-0.201-2.029 9.825-9.869 20.004-8.215 25.751-1.317 0.702 1.373 0.997 2.864 0.875 4.343 -0.187 2.243-2.023 4.452-2.862 4.886 -2.361 1.221-4.936 1.942-7.547 2.09 -1.004 0.057-1.597 0.079-2.459 0 -1.709-0.157-3.145-0.513-4.85-1.213 -2.795-1.148-5.434-3.113-7.677-6.048 -0.033-0.042-0.081-0.067-0.132-0.068s-0.1 0.022-0.134 0.062l-0.089 0.108c-0.05 0.06-0.054 0.142-0.021 0.211C61.211 87.551 60.985 87.207 60.79 86.86z" id="SvgjsPath10507"></path><path opacity="1" fill="url(#SvgjsRadialGradient10513)" d="M86.366 83.544c0.694 1.368 0.987 2.851 0.866 4.323 -0.187 2.243-2.023 4.452-2.862 4.886 -2.361 1.221-4.936 1.942-7.547 2.09 -1.004 0.057-1.597 0.079-2.459 0 -1.709-0.157-3.145-0.513-4.85-1.213 -2.795-1.148-5.434-3.113-7.677-6.048 -0.033-0.042-0.081-0.067-0.132-0.068s-0.1 0.022-0.134 0.062l-0.089 0.108c-0.05 0.06-0.054 0.142-0.021 0.211 -0.252-0.344-0.478-0.689-0.673-1.036 0.007 0.004 0.011 0.006 0.018 0.01 -0.464-0.835-0.442-1.677-0.201-2.029 5.075-5.098 10.243-7.115 14.848-6.929C79.788 78.271 83.639 80.365 86.366 83.544z" id="SvgjsPath10512"></path><path stroke="none" opacity="1" stroke-width="none" fill="#ab5a41" d="M88.72 80.246c-10.614-5.735-17.602-6.912-29.764 0.871C64.86 76.74 74.154 70.902 88.72 80.246z" id="SvgjsPath10516"></path><path stroke="none" opacity="1" stroke-width="none" fill="#2a150e" d="M83.382 93.339l0.818 0.22 -2.012 0.25 1.579 0.635c0 0-2.043-0.21-2.587-0.084 -6.677 1.549-13.526 0.203-17.381-3.689 -0.484-0.149-1.645 0.105-1.645 0.105l1.156-0.609c-0.339-0.63-0.965-0.497-2.986-0.403 0.95-0.306 1.928-0.601 1.85-0.834l-0.707-1.09c-0.045-0.069-0.038-0.159 0.016-0.221l0.089-0.102c0.033-0.039 0.082-0.061 0.133-0.06 0.052 0.001 0.1 0.024 0.132 0.064 6.175 7.677 15.34 8.45 22.533 4.914L83.382 93.339zM88.313 82.722c-1.012-0.981-1.752-1.504-2.806-2.059 0.774-0.323 1.857-0.513 1.857-0.513l-3.095-0.377c-6.089-3.332-9.937-3.585-16.336-1.394 -0.797 0.273-2.852-0.338-4.646-0.939l2.033 1.955c-1.244 0.038-2.207-0.3-3.541-0.559l2.2 1.259c-0.95 0.699-1.94 0.65-4.954 0.562l2.444 1.316c-1.067 0.404-1.521 0.275-2.982-0.047 0.489 0.504 0.92 0.862 1.498 1.162 -0.785 0.05-1.807 0.152-3.175-0.278 0.675 0.699 1.281 1.296 1.756 1.469l-1.07 0.44 1.516 0.559 -1.053 0.655c1.203 0.046 1.836 0.305 2.849 0.916 -0.464-0.793-0.442-1.594-0.201-1.928 10.473-9.996 21.35-7.552 26.829 0.108l-0.736-1.344 1.354 1.279 -1.242-1.732 1.12 0.596 -1.074-1.522L88.313 82.722z" id="SvgjsPath10517"></path></g></g><g id="svga-group-eyes-right"><g id="svga-group-eyesback-right"><path opacity="1" fill="url(#SvgjsRadialGradient10490)" d="M139.394 84.841c-9.825-9.869-20.004-8.215-25.751-1.317 -0.702 1.373-0.997 2.864-0.875 4.343 0.187 2.243 2.023 4.452 2.862 4.886 2.361 1.221 4.936 1.942 7.547 2.09 1.004 0.057 1.597 0.079 2.459 0 1.709-0.157 3.145-0.513 4.85-1.213 2.795-1.148 5.434-3.113 7.677-6.048 0.033-0.042 0.081-0.067 0.132-0.068s0.1 0.022 0.134 0.062l0.089 0.108c0.05 0.06 0.054 0.142 0.021 0.211 0.252-0.344 0.478-0.689 0.673-1.036 -0.007 0.004-0.011 0.006-0.018 0.01C139.656 86.035 139.635 85.193 139.394 84.841z" id="SvgjsPath10489"></path></g><g transform="translate(0 -0.5)" id="svga-group-eyesiriswrapper-right"><g id="svga-group-eyesiriscontrol-right"><g id="svga-group-eyesiris-right"><path opacity="1" stroke-width="0.5" stroke="#152975" fill="#4e60a3" d="M135.129 90.705c-1.521 7.45-7.283 11.838-12.882 9.792 -5.594-2.044-8.899-9.75-7.376-17.2 1.521-7.454 7.296-11.841 12.89-9.794C133.351 75.546 136.652 83.251 135.129 90.705z" id="SvgjsPath10625"></path><path stroke="none" opacity="1" stroke-width="none" fill="#6777b2" d="M133.496 90.879c-1.484 5.719-5.964 9.057-10.323 7.465 -4.024-1.474-6.565-6.625-6.235-12.067 1.495-0.156 3.126-0.205 4.822-0.093 -0.017 0.078-0.047 0.145-0.063 0.225 -0.533 2.626 0.713 5.377 2.787 6.138 2.081 0.759 4.202-0.764 4.738-3.387 0.066-0.343 0.103-0.687 0.113-1.025C130.757 88.826 132.153 89.72 133.496 90.879z" id="SvgjsPath10626"></path><path opacity="0.9" stroke-width="none" fill="#000000" d="M126.421 82.826c-2.102-0.804-4.249 0.797-4.791 3.59 -0.544 2.781 0.721 5.689 2.823 6.493 2.107 0.805 4.254-0.797 4.797-3.577C129.798 86.537 128.527 83.627 126.421 82.826zM126.882 92.7c-0.875 0.362-1.78-0.119-2.021-1.079 -0.232-0.958 0.286-2.022 1.167-2.377 0.881-0.362 1.782 0.12 2.025 1.073C128.29 91.271 127.769 92.337 126.882 92.7z" id="SvgjsPath10627"></path><path opacity="0.6" stroke-width="none" fill="#ffffff" d="M119.42 94.372c-0.648 0.518-1.613 0.056-2.168-1.042 -0.554-1.088-0.47-2.391 0.181-2.911 0.641-0.51 1.618-0.047 2.168 1.042C120.145 92.551 120.067 93.855 119.42 94.372z" id="SvgjsPath10628"></path><path opacity="0.9" stroke-width="none" fill="#ffffff" d="M133.243 86.395c-1.481 1.181-3.707 0.116-4.966-2.38 -1.26-2.5-1.07-5.489 0.41-6.667 1.478-1.188 3.704-0.123 4.958 2.378C134.904 82.226 134.723 85.209 133.243 86.395z" id="SvgjsPath10629"></path></g></g></g><g id="svga-group-eyesfront-right"><path stroke="none" opacity="1" stroke-width="none" fill="#d9a494" d="M126 61.999c-10.217 0-18.5 11.192-18.5 25.001 0 13.808 8.283 24.999 18.5 24.999S144.5 100.808 144.5 87C144.5 73.191 136.217 61.999 126 61.999zM138.537 87.896c0.033-0.069 0.029-0.152-0.021-0.211l-0.089-0.108c-0.034-0.04-0.083-0.063-0.134-0.062s-0.099 0.026-0.132 0.068c-2.243 2.935-4.882 4.9-7.677 6.048 -1.705 0.701-3.141 1.056-4.85 1.213 -0.862 0.08-1.455 0.058-2.459 0 -2.611-0.148-5.186-0.869-7.547-2.09 -0.839-0.434-2.676-2.643-2.862-4.886 -0.122-1.479 0.173-2.97 0.875-4.343 5.747-6.898 15.926-8.551 25.751 1.317 0.241 0.352 0.263 1.194-0.201 2.029 0.007-0.004 0.011-0.006 0.018-0.01C139.015 87.207 138.789 87.551 138.537 87.896z" id="SvgjsPath10527"></path><path opacity="1" fill="url(#SvgjsRadialGradient10529)" d="M123.644 69.499c-9.393-0.045-17.017 6.856-17.04 15.417 -0.024 8.56 7.572 15.533 16.961 15.583 9.392 0.043 17.015-6.856 17.038-15.416C140.627 76.522 133.035 69.549 123.644 69.499zM138.537 87.896c0.033-0.069 0.029-0.152-0.021-0.211l-0.089-0.108c-0.034-0.04-0.083-0.063-0.134-0.062s-0.099 0.026-0.132 0.068c-2.243 2.935-4.882 4.9-7.677 6.048 -1.705 0.701-3.141 1.056-4.85 1.213 -0.862 0.08-1.455 0.058-2.459 0 -2.611-0.148-5.186-0.869-7.547-2.09 -0.839-0.434-2.676-2.643-2.862-4.886 -0.122-1.479 0.173-2.97 0.875-4.343 5.747-6.898 15.926-8.551 25.751 1.317 0.241 0.352 0.263 1.194-0.201 2.029 0.007-0.004 0.011-0.006 0.018-0.01C139.015 87.207 138.789 87.551 138.537 87.896z" id="SvgjsPath10528"></path><path opacity="1" fill="url(#SvgjsRadialGradient10534)" d="M113.634 83.544c-0.694 1.368-0.987 2.851-0.866 4.323 0.187 2.243 2.023 4.452 2.862 4.886 2.361 1.221 4.936 1.942 7.547 2.09 1.004 0.057 1.597 0.079 2.459 0 1.709-0.157 3.145-0.513 4.85-1.213 2.795-1.148 5.434-3.113 7.677-6.048 0.033-0.042 0.081-0.067 0.132-0.068s0.1 0.022 0.134 0.062l0.089 0.108c0.05 0.06 0.054 0.142 0.021 0.211 0.252-0.344 0.478-0.689 0.673-1.036 -0.007 0.004-0.011 0.006-0.018 0.01 0.464-0.835 0.442-1.677 0.201-2.029 -5.075-5.098-10.243-7.115-14.848-6.929C120.212 78.271 116.361 80.365 113.634 83.544z" id="SvgjsPath10533"></path><path stroke="none" opacity="1" stroke-width="none" fill="#ab5a41" d="M111.28 80.246c10.614-5.735 17.602-6.912 29.764 0.871C135.14 76.74 125.846 70.902 111.28 80.246z" id="SvgjsPath10537"></path><path stroke="none" opacity="1" stroke-width="none" fill="#2a150e" d="M115.63 92.437c7.193 3.537 16.358 2.764 22.533-4.914 0.032-0.04 0.08-0.063 0.132-0.064 0.051-0.001 0.1 0.021 0.133 0.06l0.089 0.102c0.054 0.062 0.061 0.152 0.016 0.221l-0.707 1.09c-0.078 0.233 0.899 0.528 1.85 0.834 -2.021-0.094-2.647-0.227-2.986 0.403l1.156 0.609c0 0-1.16-0.254-1.645-0.105 -3.854 3.892-10.704 5.238-17.381 3.689 -0.544-0.126-2.587 0.084-2.587 0.084l1.579-0.635 -2.012-0.25 0.818-0.22L115.63 92.437zM113.144 82.303l-1.074 1.522 1.12-0.596 -1.242 1.732 1.354-1.279 -0.736 1.344c5.479-7.66 16.356-10.104 26.829-0.108 0.241 0.334 0.263 1.135-0.201 1.928 1.013-0.61 1.646-0.87 2.849-0.916l-1.053-0.655 1.516-0.559 -1.07-0.44c0.475-0.172 1.081-0.77 1.756-1.469 -1.368 0.43-2.39 0.328-3.175 0.278 0.578-0.299 1.009-0.657 1.498-1.162 -1.461 0.322-1.915 0.452-2.982 0.047l2.444-1.316c-3.014 0.088-4.004 0.137-4.954-0.562l2.2-1.259c-1.334 0.259-2.297 0.597-3.541 0.559l2.033-1.955c-1.795 0.601-3.85 1.212-4.646 0.939 -6.399-2.191-10.247-1.938-16.336 1.394l-3.095 0.377c0 0 1.083 0.19 1.857 0.513 -1.054 0.554-1.794 1.077-2.806 2.059L113.144 82.303z" id="SvgjsPath10538"></path></g></g><g id="svga-group-facehighlight-single"><path opacity="1" fill="url(#SvgjsRadialGradient10294)" d="M140.204 113.007c0.035 22.275-17.995 40.365-40.273 40.396 -22.274 0.036-40.361-17.993-40.396-40.272C59.501 90.857 77.53 72.77 99.808 72.735 122.083 72.701 140.171 90.73 140.204 113.007z" id="SvgjsPath10293"></path><path opacity="1" fill="url(#SvgjsRadialGradient10298)" d="M135,55.999c0,19.329-15.671,35-35,35c-19.329,0-35-15.671-35-35s15.671-35,35-35C119.329,20.999,135,36.67,135,55.999z" id="SvgjsPath10297"></path></g><g id="svga-group-eyebrows-left"><path stroke="none" opacity="1" stroke-width="none" fill="#b7513b" d="M54.351 74.996c9.743-15.115 36.491 5.148 38.018-1.191 0.299-1.271-0.407-2.015-1.564-2.492C77.184 65.807 59.156 61.18 54.351 74.996z" id="SvgjsPath10549"></path></g><g id="svga-group-eyebrows-right"><path stroke="none" opacity="1" stroke-width="none" fill="#b7513b" d="M145.649 74.996c-9.743-15.115-36.491 5.148-38.018-1.191 -0.299-1.271 0.407-2.015 1.564-2.492C122.816 65.807 140.844 61.18 145.649 74.996z" id="SvgjsPath10550"></path></g><g id="svga-group-nose-single"><path stroke="none" opacity="0.2" stroke-width="none" fill="#f8e1da" d="M97.39 114.129c-0.156 1.646 0.491 2.984 1.191 3.254 1.788 0.688 1.788-0.183 1.642-3 -0.226-4.351-0.216-20.289-0.216-20.289S97.756 110.262 97.39 114.129z" id="SvgjsPath10561"></path><path stroke="none" opacity="1" stroke-width="none" fill="#ab5a41" d="M97.861 111.305c0 0-1.589 3.146-1.34 4.228 0.323 1.404 1.89 2.524 4.601 2.355 -2.801-0.41-3.121-1.293-3.404-2.447C97.473 114.434 97.861 111.305 97.861 111.305z" id="SvgjsPath10562"></path></g><g id="svga-group-hair-front"><path stroke="none" opacity="0.1" stroke-width="none" fill="#b7513b" d="M38.854 237.82l9.88-202.719 105.496 1.162 1.025 203.314C155.255 239.577 50.052 239.114 38.854 237.82zM137.106 235.279c-4.241-47.633 1.152-84.777 5.499-114.713 2.44-16.806 4.572-31.486 4.458-44.428 -2.542 1.415-21.941 1.903-21.941 1.903 -14.513 2.338-25.333 0.387-25.782 0.438 -1.982-12.335-2.297-14.256-2.726-17.048 -1.333 11.235-0.355 13.67-1.37 15.249 -2.873 0.713-22.804-0.167-23.806-0.237 -5.478 2.035-9.035-2.194-12.427-1.241 -1.982 1.505-5.386 1.669-6.386 1.42 -1.023 20.123 2.42 35.283 6.058 51.303 9 39.633 8.399 50.872 5.508 104.881C64.192 232.806 126.452 234.934 137.106 235.279z" id="SvgjsPath10460"></path><path stroke="none" opacity="1" stroke-width="none" fill="#b7513b" d="M177.393 209.541c-15.107-60.344 3.552-108.071-9.179-151.026 -6.063-20.427-18.396-46.964-42.724-57.386 -6.483-2.787-12.601-3.207-19.46-2.256 -3.871-1.177-8.064-1.773-12.462-1.773 -30.232 0-49.746 25.833-59.244 54.789 -5.943 18.135-7.341 33.902-5.755 64.884 3.633 70.935-3.103 88.369-14.274 117.075 17.224 0.024 36.536 4.694 63.515 4.779 22.28 0.08 102.989 0.006 109.574-0.733C180.977 223.385 179.949 219.769 177.393 209.541zM139.306 237.354c-44.235-1.525-58.379 0.504-77.335-0.458 3.085-57.769 3.929-68.17-5.236-108.528 -3.815-16.8-7.374-32.516-5.986-53.916 1.84-0.071 3.204 0.365 4.861 1.224v0.005c0.079 0.043 0.154 0.086 0.23 0.131 0.05-0.268 0.105-0.577 0.162-0.836l0.118-0.089 -0.098-0.02c0.638-3.158 1.735-6.719 3.175-10.297l0.191 0.054c-0.49 2.876-0.772 5.765-0.838 8.586l-0.03 0.053c3.296-0.917 7.163 1.845 10.161 1.845 0.87-0.06 1.588-0.369 2.394-0.662 1.102-15.937 2.326-22.387 4.625-27.361l0.188 0.063c-1.329 6.207-1.753 14.946-1.297 26.715l-0.012 0.016c2.685-0.26 5.862 0.912 8.171 0.815 0-3.915 0.676-9.192 0.94-12.385l0.199 0.002c0.403 6.263 1.163 10.374 1.782 13.256 5.281-1.185 5.041-0.413 7.762-0.57 0.189-0.009 0.377-0.028 0.556-0.064l0.03-0.046 -0.1 0.008c-0.677-8.054 2.333-25.156 3.102-29.187l0.198 0.019c-0.008 7.96 0.718 11.325 3.793 30.548 1.722-0.197 4.705 0.844 6.717 1.081 0-3.986-0.013-3.709 0.01-5.85l0.199 0c0.033 2.019 0.142 3.989 0.735 5.933 3.159 0.066 5.395-1.403 8.343-1.122 0.369-16.421-1.055-25.078-1.897-32.829l0.196-0.037c4.08 15.22 5.452 31.663 5.565 33.095 0.38-0.028 1.758-0.133 2.461-0.246 0.431-3.141 2.143-21.364 1.309-26.247l0.194-0.046c2.643 8.591 2.331 15.253 2.524 25.565 2.552-0.785 6.706 0.343 9.615 0.015 -0.4-7.699-0.557-14.668-2.451-21.243l0.189-0.063c2.292 5.971 4.105 13.197 4.986 20.951l0.045-0.025c6.444 0.5 5.332-0.919 9.239-2.14C150.379 109.934 131.943 159.713 139.306 237.354z" id="SvgjsPath10461"></path><path stroke="none" opacity="1" stroke-width="none" fill="#a83c25" d="M180.326 238.184c-13.273 0.212-38.624-0.278-41.021-0.829 -2.923-30.82-1.775-57.236 0.579-80.211 3.563-34.778 9.895-61.65 9.112-83.836 0.153-1.482 2.837-0.396 3.497-1.095 -4.5-29.25-14.214-47.686-29.494-59.91 64.384 45.135 14.583 132.535 23.191 167.176 1.473-18.377 13.012-69.387 15.809-79.376 -5 36-17 78 3 112 -2.631-14.907-2.954-30.583-2.994-45.681C162.776 191.536 172.246 214.616 180.326 238.184zM58.674 65.947c0.174-0.459 0.336-0.917 0.522-1.377l0.191 0.054c-0.49 2.876-0.772 5.765-0.838 8.586l-0.03 0.053c0.829-0.23 1.694-0.228 2.572-0.096 0.46-12.512 2.842-25.349 9.909-35.065C62.39 45.146 60.52 55.867 58.674 65.947zM101 31.102c-4.32 7.921-5.012 16.878-5.807 25.753 0.705-4.999 1.486-9.358 1.828-11.146l0.198 0.019c-0.008 7.96 0.718 11.325 3.793 30.548 0.581-0.066 1.31 0.014 2.092 0.15C99.585 61.645 97.306 46.8 101 31.102zM107.107 77.255c0.21 0.036 0.428 0.078 0.622 0.101 0-3.986-0.013-3.709 0.01-5.85l0.199 0c0.033 2.019 0.142 3.989 0.735 5.933 0.322 0.007 0.628-0.012 0.933-0.033C109.008 70.885 109 64.846 109 58.102 107.081 64.817 107.919 70.614 107.107 77.255zM116.672 76.305c0.116 0.006 0.227 0 0.345 0.012 0.369-16.421-1.055-25.078-1.897-32.829l0.196-0.037c4.08 15.22 5.452 31.663 5.565 33.095 0.274-0.02 1.071-0.081 1.757-0.156 -1.144-16.075-3.59-31.982-11.638-46.289C114.768 45.173 114.988 61.131 116.672 76.305zM135.979 75.646c0.347-0.006 0.685-0.021 1.005-0.058 -0.4-7.699-0.557-14.668-2.451-21.243l0.189-0.063c2.292 5.971 4.105 13.197 4.986 20.951l0.045-0.025c0.782 0.061 1.449 0.092 2.031 0.1 -1.098-13.198-6.537-25.602-12.785-37.206C132.851 50.616 135.767 63.131 135.979 75.646zM124.84 56.501c0.076-2.761 0.039-5.108-0.189-6.448l0.194-0.046c2.643 8.591 2.331 15.253 2.524 25.565 0.555-0.17 1.193-0.239 1.87-0.264 0.08-12.715-1.994-25.322-6.239-37.208C123.654 43.994 124.731 50.313 124.84 56.501zM86 50.102c-3.781 7.562-3.098 16.018-4.701 24.521 0.509 0.058 0.997 0.089 1.45 0.07 0-3.915 0.676-9.192 0.94-12.385l0.199 0.002c0.403 6.263 1.163 10.374 1.782 13.256 0.642-0.144 1.2-0.258 1.694-0.35C85.62 67.168 84.213 59.034 86 50.102zM79 40.102c-8.426 9.362-8.087 23.107-8.83 34.67 0.297-0.103 0.594-0.213 0.904-0.326 1.102-15.937 2.326-22.387 4.625-27.361l0.188 0.063c-1.329 6.207-1.753 14.946-1.297 26.715l-0.012 0.016c0.748-0.072 1.534-0.029 2.329 0.063C76.446 62.338 74.534 50.821 79 40.102zM81 17.102c-25.15 16.485-39 47-35 75 5 37 11 73 6 110 3-31-2-62-8-93 5 34 5 68-4 101 3.177-16.681 0.047-32.73-1.376-49.151 0.141 25.13-5.941 50.009-14.846 73.181 16.549 0.846 36.42 3.267 38.192 2.766 3.085-57.769 3.929-68.17-5.236-108.528 -3.815-16.8-7.374-32.516-5.986-53.916C50.748 74.453 52.907 45.195 81 17.102z" id="SvgjsPath10462"></path><path stroke="none" opacity="1" stroke-width="none" fill="#c66854" d="M64.672 42.118C74.59 24.24 80.38 19.473 94.632 11.415c0.176-0.104-0.702 0.439-2.147 1.33C78.576 21.306 72.058 29.883 64.672 42.118zM135.742 37.113c9.163 18.181 9.775 30.657 9.025 24.705 -0.8-4.99-1.419-10.855-6.312-22.197 -5.369-11.776-14.072-23.532-25.283-30.441C119.437 13.431 126.959 20.108 135.742 37.113zM91.527 43.736c-1.861 13.125-1.499 23.37-1.487 22.57 0.06-9.996 2.285-23.7 4.771-33.506 2.673-9.599 5.599-14.82 6.494-16.746C97.408 23.369 93.199 32.769 91.527 43.736zM111.445 59.291c0.067 1.53 0.117 2.458 0.109 2.274 -0.562-6.037 1.766-16.643-5.494-38.71C109.065 33.412 110.842 42.398 111.445 59.291zM130.265 63.92c0.329 2.116 0.547 3.4 0.509 3.145 -1.188-7.196-0.94-20.108-7.805-34.964 -4.252-9.161-8.862-13.611-10.668-15.707C119.052 24.654 125.487 33.128 130.265 63.92zM79.303 60.814c0.534-8.417 1.123-9.623 1.675-12.166 3.557-14.121 5.869-18.655 10.179-25.844C78.031 42.895 79.303 60.814 79.303 60.814zM37.505 63.373c-0.024 0.471-0.016 2.812-0.008 2.419C38.081 45.747 61.782 11.076 77.827 5.21 62.315 10.191 39.336 38.968 37.505 63.373zM38.188 103.349c0.687 5.613 1.616 9.97 1.536 9.472 -3.8-17.919 1.102-58.568 12.54-73.07C43.945 49.745 35.375 75.813 38.188 103.349zM34.257 158.321c-0.697 3.996-0.614 3.458-0.165 1.388 3.824-18.365 0.212-50.656-1.332-66.366C32.761 92.337 35.675 142.412 34.257 158.321zM145.164 23.022c2.272 3.198 7.384 9.497 12.905 23.33 4.216 10.549-1.739-5.479-3.84-10.089 -7.777-18.021-18.42-26.645-36.157-33.313C133.49 9.586 138.051 14.323 145.164 23.022zM160.349 100.734c-1.174 11.388 1.192-7.638 1.439-10.115 2.257-19.967-1.41-33.458-8.753-46.237C159.271 56.404 163.33 68.177 160.349 100.734zM166.605 172.471c0.702 3.44 1.178 5.512 1.091 5.1 -4.749-24.438-0.502-87.206-0.472-89.487C166.943 94.275 160.133 142.839 166.605 172.471z" id="SvgjsPath10463"></path><path stroke="none" opacity="1" stroke-width="none" fill="#891b03" d="M177.489 209.517c-15.15-60.52 3.6-107.91-9.18-151.03 -7.061-23.79-20.16-47.76-42.78-57.45 -6.84-2.94-13.17-3.16-19.47-2.26 -7.271-2.21-16.46-2.55-25.811 0.07 -24.32 6.79-38.6 30.39-46.02 53.01 -5.61 17.12-7.43 32.3-5.76 64.92 3.57 69.692-2.795 87.556-14.32 117.17 17.259 0 36.599 4.694 63.66 4.779 22.157 0.084 104.198 0.003 109.72-0.75C181.142 223.517 180.077 219.868 177.489 209.517zM127.009 236.896c-28.229-0.85-46.33 0.71-64.63-0.079 -0.101-0.005-0.202-0.013-0.303-0.017 0.586-10.989 1.823-25.713 2.103-51.044 0.452-48.899-16.046-69.102-13.336-111.208 0.227-0.008 0.457-0.022 0.677-0.012 0.25 0.01 0.49 0.04 0.72 0.08 1.22 0.17 2.3 0.61 3.27 1.12 0 0.03 0 0.06-0.01 0.08 0.02-0.02 0.03-0.04 0.04-0.06 0.13 0.07 0.25 0.14 0.38 0.22 0-0.05 0.01-0.1 0.02-0.15 0.05-0.27 0.1-0.55 0.16-0.83 0-0.04 0.01-0.07 0.02-0.11 0.66-3.27 1.79-6.85 3.17-10.28 -0.54 3.17-0.78 6.05-0.84 8.6 0 0.06-0.01 0.12 0 0.18 0.24-0.07 0.48-0.13 0.72-0.16 3.13-0.44 6.75 2.02 9.58 1.98 0.67-0.05 1.31-0.28 1.95-0.51 0.16-0.07 0.31-0.12 0.47-0.18 0.31-4.51 0.82-9.25 1.05-11.59 0.53-5.39 1.31-10.91 3.57-15.8 -1.09 5.09-1.83 13.05-1.3 26.74 0 0.04 0.01 0.08 0.01 0.12 0.2-0.02 0.41-0.04 0.62-0.04 0.82-0.03 1.67 0.06 2.52 0.19 0.1 0.01 0.2 0.03 0.29 0.04 1.53 0.25 3.07 0.6 4.57 0.62 0.12 0 0.23 0 0.35-0.01 0-0.04 0-0.07 0-0.11 0.01-2.05 0.18-4.74 0.59-8.73 0.14-1.21 0.25-2.42 0.35-3.63 0.39 6.06 1.1 10.09 1.79 13.3 0 0.02 0.01 0.05 0.01 0.07 0.14-0.03 0.27-0.06 0.39-0.09 1.93-0.49 2.02-0.59 4.55-0.58 1.16 0 2.06 0.13 2.91 0.08 0.2-0.01 0.4-0.03 0.59-0.07 0-0.05-0.01-0.1-0.01-0.14 -0.17-2.02-0.24-3.89-0.18-5.14 0.14-3.1 1.56-15 3.28-24.02 -0.01 9.93 1.6 15.67 2.9 24.94 0.26 1.86 0.52 3.71 0.88 5.53 0.01 0.06 0.02 0.12 0.029 0.19 0.131-0.02 0.271-0.03 0.41-0.03 1.84-0.03 4 0.75 6.11 1.06 0.13 0.02 0.26 0.04 0.38 0.05 0-0.15 0-0.29 0-0.43 0-1.05 0-1.88 0-2.24 -0.01-1.27 0-2.36 0.01-3.29 0.04 2.49 0.19 3.89 0.63 5.58 0.04 0.14 0.08 0.29 0.131 0.45 0.159 0 0.319 0.01 0.47 0.01 0.149-0.01 0.29-0.01 0.43-0.02 1.79-0.11 3.5-0.72 5.26-1.02 0.62-0.11 1.2-0.15 1.75-0.12 0.2 0 0.4 0.02 0.601 0.04 0.01-0.08 0.01-0.17 0-0.25 0.029-1.56 0.029-3.4 0.01-5.6 -0.13-14.33-0.6-15.11-1.9-27.1 4.295 16.023 5.57 33.176 5.57 33.176s1.846-0.128 2.642-0.266c0.438-3.102 2.152-21.467 1.318-26.35 2.63 8.55 2.33 15.2 2.521 25.58 0.01 0.03 0.01 0.06 0.01 0.09 0.18-0.06 0.359-0.11 0.54-0.14 2.67-0.55 5.96 0.38 9 0.14 0.09-0.01 0.18-0.02 0.27-0.03 0-0.03-0.01-0.06-0.01-0.1 -0.4-8.32-0.64-14.98-2.45-21.26 2.181 5.68 4.08 13 4.95 20.66 0 0.02 0.01 0.04 0.01 0.07 0 0.05 0.011 0.1 0.011 0.15 0.01 0.03 0.01 0.06 0.02 0.1 0.08 0.01 0.16 0.01 0.25 0.02 1.23 0.11 2.47 0.19 3.65 0.05 1.994-0.247 3.513-1.582 5.379-2.165 0.667 15.533-3.643 42.797-5.319 54.003 -0.839 5.757-1.671 11.249-2.304 16.2 -4.776 36.774-4.247 71.054-2.08 93.846C135.446 237.146 131.398 237.029 127.009 236.896zM161.339 237.787c-1.8-7.09-3.66-14.75-4.26-17.54 -4.78-22.08-6.68-57.7-2.35-79.69 -4.511 19.601-5.551 53.73 1.359 80.94 0.95 3.74 2.66 9.79 4.641 16.28 -5.631-0.109-12.501-0.275-20.942-0.51 -0.994-13.384-1.845-33.824-0.302-56.421 2.255-36.467 10.913-86.177 9.76-107.737 0.274-0.075 0.549-0.15 0.834-0.203 0.24-0.05 0.48-0.09 0.72-0.13 0.96-0.15 1.94-0.25 2.9-0.38 0.12-0.02 0.25-0.04 0.37-0.06 -0.021-0.09-0.03-0.18-0.03-0.28 -0.74-6.93-2.86-22.16-9.47-35.44 -1.13-2.28-2.32-4.61-3.88-6.63 -3.04-3.91-13.34-16.09-17.87-17.71 5.41 2.95 13.46 13.25 17.09 18.32 3.9 5.53 11.52 24.85 13.56 40.08 0.061 0.47 0.131 0.95 0.19 1.42 -0.97 0.08-1.96 0.1-2.93 0.23 -0.24 0.03-0.471 0.06-0.7 0.11 -0.42 0.08-0.83 0.18-1.23 0.32 -1.93 0.68-3.449 2.17-5.54 2.4 -1.109 0.13-2.26 0.1-3.399 0.05 0-0.09-0.01-0.18-0.021-0.27 0.011-0.01 0.03-0.01 0.04-0.02 -0.01 0-0.029 0-0.04 0.01 -0.279-4.54-0.79-8.8-1.95-13.38 -0.579-2.27-2.67-7.84-5.1-12.25 -0.4-0.72-0.8-1.4-1.21-2.04 0.3 0.67 0.59 1.35 0.85 2.05 2.421 6.29 3.271 14.06 4.381 26.28 -2.79 0.02-6.21-0.83-8.98-0.13 0.23-8.92 0.4-16.72-3.11-26.27 -0.09-0.27-0.189-0.53-0.29-0.8 0 0.22 0 0.43 0 0.65 0.018 10.723-0.445 18.599-1.341 27.3 -0.002 0-1.868 0.208-1.868 0.208 -0.281-6.221-0.846-14.428-1.7-19.028 -1.32-7.09-2.931-12.55-4.62-17.04 -0.29-0.8-0.58-1.55-0.88-2.28 0.02 0.47 0.05 0.94 0.08 1.41 0.02 0.3 0.039 0.59 0.06 0.89 1.37 19.23 2.05 29.71 2.33 35.64 -0.43-0.02-0.91-0.01-1.45 0.05 -1.93 0.2-3.81 0.71-5.75 0.89 -0.1 0.01-0.2 0.02-0.31 0.01 -0.641-3.39-0.811-6.35-0.92-9.67 -0.011-0.01-0.011-0.03 0-0.04 -0.011-0.19-0.021-0.37-0.021-0.56 -0.08 0.39-0.15 0.79-0.21 1.18 -0.36 2.21-0.51 4.46-0.47 6.73 0.01 0.39 0.04 1.22 0.08 2.26 -1.971-0.27-4.221-1-6.13-0.84 -0.41-2.81-0.541-5.15-0.601-5.79 -0.5-5.21-2.49-17.76-2.67-28.99 -0.01-0.83-0.01-1.65 0-2.46 -0.03 0.08-0.06 0.17-0.09 0.26 -0.24 0.73-0.49 1.52-0.73 2.38 -2.43 8.47-4.82 22.83-3.8 33.37 -1.58 0.02-2.19-0.74-7.46 0.6 -0.66-4.44-1.37-9.72-1.83-16.91 -0.05-0.68-0.09-1.39-0.12-2.11 -0.13 0.69-0.27 1.39-0.4 2.12 -0.85 4.72-1.57 10.17-1.12 16.04 -1.97-0.09-3.37-0.38-4.54-0.6 -0.09-0.02-0.19-0.04-0.28-0.06 -0.91-0.17-1.7-0.29-2.55-0.22 0.04-9.19 0.5-23.44 1.29-27.48 0.05-0.24 0.1-0.48 0.15-0.72 0.04-0.19 0.08-0.38 0.13-0.57 -0.24 0.37-0.46 0.73-0.67 1.11 0 0 0 0 0 0.01 -2.87 5.07-4 11.09-4.68 16.86 -0.26 2.15-0.57 6.99-0.64 11.66 -0.66 0.18-1.32 0.34-1.98 0.36 -2.37 0.18-5.19-2.63-9.53-1.96 0.26-2.61 0.69-5.89 1.39-10.11 0.13-0.77 0.27-1.54 0.43-2.3 0.12-0.56 0.24-1.12 0.37-1.68 1.53-6.51 4.05-12.69 7.29-18.56 -4.84 7.94-7.48 15.26-8.86 21.6 -2.1 4.37-3.69 9.15-4.28 13.58 -0.96-0.58-2.05-1.07-3.28-1.24 -0.23-0.05-0.46-0.07-0.7-0.07 -0.67-0.05-1.38 0.01-2.14 0.2 1.06-5.01 2.81-10.72 4.72-16.16 0.05-0.14 0.1-0.27 0.14-0.41 2.31-6.51 4.81-12.58 6.62-16.49 4.05-8.76 9.38-13.92 17.64-22.9 -7.84 7.83-14.29 13.62-18.31 21.5 -2.34 4.59-4.76 9.25-6.34 14.17 -1.32 4.14-3.99 12.8-5.18 20.49 -0.02 0.08-0.03 0.16-0.04 0.23 0.24-0.08 0.47-0.13 0.7-0.18 0.484-0.101 0.939-0.145 1.384-0.166 -1.706 21.073 1.026 39.395 7.971 68.821 0 0 1.324 6.811 2.002 12.007 2.208 19.151 1.688 29.073 1.495 63.551 0.009 5.47-0.461 11.988-0.714 17.839 -5.923-0.293-11.821-0.83-17.718-1.401 0.91-2.79 1.93-5.59 2.73-8.08 4.77-14.79 7.95-48.95 1.23-86.431 4.23 28.811 3.22 58.641-0.75 81.271 -0.67 3.82-2.34 8.6-3.64 13.2 -6.5-0.63-12.99-1.271-19.51-1.61 -3.19-0.17-6.16-0.24-9.08-0.29 16.37-39.41 18.46-57.8 16.27-124.56 -0.68-20.86-1.4-40.54 8.37-65.61 16.17-41.49 46.03-49.89 65.84-44.35 0.189 0.04 0.38 0.1 0.57 0.15 0.27-0.03 0.54-0.07 0.81-0.1 9.23-1.1 16.92 0.36 26.6 7.13 23.62 16.52 35.21 48.19 36.87 76.97 1.65 28.58-4.13 64.52 0.98 100.85 1.78 12.64 5.04 24.949 8.85 37.12 0.44 1.51 3.83 9.34 6.96 16.529C183.339 237.917 177.659 238.097 161.339 237.787z" id="SvgjsPath10464"></path></g><g id="svga-group-glasses-single"><path stroke="none" opacity="1" stroke-width="none" fill="#107aa8" d="M100,18.13L100,18.13L100,18.13L100,18.13z" id="SvgjsPath10618"></path></g></g></g><rect style="display:none;" opacity="0.5" fill="#ecf0f1" y="185" x="0" height="15" width="200" id="SvgjsRect10278"></rect><text y="185" x="100" fill="#000000" font-weight="400" text-anchor="middle" font-size="0.84em" style="font-size:0.84em;font-family:&quot;Roboto&quot;, &quot;Helvetica Neue&quot;, Helvetica, Arial, sans-serif;text-anchor:middle;font-weight:400;display:none;" font-family="&quot;Roboto&quot;, &quot;Helvetica Neue&quot;, Helvetica, Arial, sans-serif" id="SvgjsText10279"><tspan style="font-size:0.84em;font-family:&quot;Roboto&quot;, &quot;Helvetica Neue&quot;, Helvetica, Arial, sans-serif;text-anchor:middle;font-weight:400;" x="100" dy="1.2em" id="SvgjsTspan10280">Created on todream.eu</tspan></text></g><defs id="SvgjsDefs10246"><radialGradient class="svga-on-canvas-facehighlight-gradient-single-0" gradientUnits="userSpaceOnUse" r="40" cy="113" cx="100" id="SvgjsRadialGradient10294"><stop offset="0" stop-color="#e8c1b6" stop-opacity="0.5" id="SvgjsStop10295"></stop><stop offset="0.9" stop-color="#d9a494" stop-opacity="0" id="SvgjsStop10296"></stop></radialGradient><radialGradient class="svga-on-canvas-facehighlight-gradient-single-1" gradientUnits="userSpaceOnUse" r="36" cy="57" cx="100" id="SvgjsRadialGradient10298"><stop offset="0" stop-color="#e8c1b6" stop-opacity="0.5" id="SvgjsStop10299"></stop><stop offset="0.9" stop-color="#d9a494" stop-opacity="0" id="SvgjsStop10300"></stop></radialGradient><radialGradient class="svga-on-canvas-eyesiris-gradient-left-1" gradientUnits="userSpaceOnUse" gradientTransform="matrix(0.096 -0.0248 0.0245 0.0961 140.5478 120.3577)" r="84.646" cy="-490.918" cx="-558.588" id="SvgjsRadialGradient10379"><stop offset="0" stop-color="#ffffff" stop-opacity="0.8" id="SvgjsStop10380"></stop><stop offset="1" stop-color="#ffffff" stop-opacity="0" id="SvgjsStop10381"></stop></radialGradient><radialGradient class="svga-on-canvas-eyesiris-gradient-left-2" gradientUnits="userSpaceOnUse" gradientTransform="matrix(0.0991 8.856325e-004 -0.0011 0.0991 130.3774 136.3533)" r="84.644" cy="-492.691" cx="-565.337" id="SvgjsRadialGradient10383"><stop offset="0" stop-color="#ffffff" stop-opacity="0.8" id="SvgjsStop10384"></stop><stop offset="1" stop-color="#ffffff" stop-opacity="0" id="SvgjsStop10385"></stop></radialGradient><linearGradient class="svga-on-canvas-eyesiris-gradient-left-5" gradientUnits="userSpaceOnUse" gradientTransform="matrix(1 0 0 1 -52 0)" y2="91.466" x2="123.61" y1="93.047" x1="122.283" id="SvgjsLinearGradient10389"><stop offset="0" stop-color="#ffffff" stop-opacity="1" id="SvgjsStop10390"></stop><stop offset="1" stop-color="#ffffff" stop-opacity="0" id="SvgjsStop10391"></stop></linearGradient><linearGradient class="svga-on-canvas-eyesiris-gradient-left-6" gradientUnits="userSpaceOnUse" gradientTransform="matrix(1 0 0 1 -50 0)" y2="87" x2="125" y1="85" x1="127" id="SvgjsLinearGradient10393"><stop offset="0" stop-color="#ffffff" stop-opacity="1" id="SvgjsStop10394"></stop><stop offset="1" stop-color="#ffffff" stop-opacity="0" id="SvgjsStop10395"></stop></linearGradient><linearGradient class="svga-on-canvas-eyesiris-gradient-left-7" gradientUnits="userSpaceOnUse" gradientTransform="matrix(1 0 0 1 -50 0)" y2="85" x2="126" y1="81" x1="130" id="SvgjsLinearGradient10397"><stop offset="0" stop-color="#ffffff" stop-opacity="1" id="SvgjsStop10398"></stop><stop offset="1" stop-color="#ffffff" stop-opacity="0" id="SvgjsStop10399"></stop></linearGradient><radialGradient class="svga-on-canvas-eyesiris-gradient-right-1" gradientUnits="userSpaceOnUse" gradientTransform="matrix(0.096 -0.0248 0.0245 0.0961 192.4794 119.8404)" r="84.646" cy="-490.73" cx="-578.76" id="SvgjsRadialGradient10402"><stop offset="0" stop-color="#ffffff" stop-opacity="0.8" id="SvgjsStop10403"></stop><stop offset="1" stop-color="#ffffff" stop-opacity="0" id="SvgjsStop10404"></stop></radialGradient><radialGradient class="svga-on-canvas-eyesiris-gradient-right-2" gradientUnits="userSpaceOnUse" gradientTransform="matrix(0.0991 8.856325e-004 -0.0011 0.0991 182.3104 135.839)" r="84.644" cy="-487.329" cx="-584.778" id="SvgjsRadialGradient10406"><stop offset="0" stop-color="#ffffff" stop-opacity="0.8" id="SvgjsStop10407"></stop><stop offset="1" stop-color="#ffffff" stop-opacity="0" id="SvgjsStop10408"></stop></radialGradient><linearGradient class="svga-on-canvas-eyesiris-gradient-right-5" gradientUnits="userSpaceOnUse" y2="91.467" x2="121.611" y1="93.047" x1="120.284" id="SvgjsLinearGradient10412"><stop offset="0" stop-color="#ffffff" stop-opacity="1" id="SvgjsStop10413"></stop><stop offset="1" stop-color="#ffffff" stop-opacity="0" id="SvgjsStop10414"></stop></linearGradient><linearGradient class="svga-on-canvas-eyesiris-gradient-right-6" gradientUnits="userSpaceOnUse" y2="87" x2="125" y1="85" x1="127" id="SvgjsLinearGradient10416"><stop offset="0" stop-color="#ffffff" stop-opacity="1" id="SvgjsStop10417"></stop><stop offset="1" stop-color="#ffffff" stop-opacity="0" id="SvgjsStop10418"></stop></linearGradient><linearGradient class="svga-on-canvas-eyesiris-gradient-right-7" gradientUnits="userSpaceOnUse" y2="85" x2="126" y1="81" x1="130" id="SvgjsLinearGradient10420"><stop offset="0" stop-color="#ffffff" stop-opacity="1" id="SvgjsStop10421"></stop><stop offset="1" stop-color="#ffffff" stop-opacity="0" id="SvgjsStop10422"></stop></linearGradient><radialGradient class="svga-on-canvas-eyesback-gradient-left-0" gradientUnits="userSpaceOnUse" gradientTransform="matrix(-1.0592 3.999999e-004 -4.000000e-004 1.0589 206.5114 -6.1261)" r="12.841" cy="87.442" cx="125.187" id="SvgjsRadialGradient10482"><stop offset="0" stop-color="#ffffff" stop-opacity="1" id="SvgjsStop10483"></stop><stop offset="0.544" stop-color="#fdfefe" stop-opacity="1" id="SvgjsStop10484"></stop><stop offset="0.74" stop-color="#f6f8f9" stop-opacity="1" id="SvgjsStop10485"></stop><stop offset="0.879" stop-color="#eaeff2" stop-opacity="1" id="SvgjsStop10486"></stop><stop offset="0.992" stop-color="#d9e3e8" stop-opacity="1" id="SvgjsStop10487"></stop><stop offset="1" stop-color="#d8e2e7" stop-opacity="1" id="SvgjsStop10488"></stop></radialGradient><radialGradient class="svga-on-canvas-eyesback-gradient-right-0" gradientUnits="userSpaceOnUse" gradientTransform="matrix(1.0592 4.000000e-004 4.000000e-004 1.0589 -6.5114 -6.1261)" r="12.841" cy="87.442" cx="125.187" id="SvgjsRadialGradient10490"><stop offset="0" stop-color="#ffffff" stop-opacity="1" id="SvgjsStop10491"></stop><stop offset="0.544" stop-color="#fdfefe" stop-opacity="1" id="SvgjsStop10492"></stop><stop offset="0.74" stop-color="#f6f8f9" stop-opacity="1" id="SvgjsStop10493"></stop><stop offset="0.879" stop-color="#eaeff2" stop-opacity="1" id="SvgjsStop10494"></stop><stop offset="0.992" stop-color="#d9e3e8" stop-opacity="1" id="SvgjsStop10495"></stop><stop offset="1" stop-color="#d8e2e7" stop-opacity="1" id="SvgjsStop10496"></stop></radialGradient><radialGradient class="svga-on-canvas-eyesfront-gradient-left-0" gradientUnits="userSpaceOnUse" gradientTransform="matrix(-1.0592 3.999999e-004 -4.000000e-004 1.0589 206.5114 -6.1261)" r="12.841" cy="87.442" cx="125.187" id="SvgjsRadialGradient10498"><stop offset="0" stop-color="#ffffff" stop-opacity="1" id="SvgjsStop10499"></stop><stop offset="0.544" stop-color="#fdfefe" stop-opacity="1" id="SvgjsStop10500"></stop><stop offset="0.74" stop-color="#f6f8f9" stop-opacity="1" id="SvgjsStop10501"></stop><stop offset="0.879" stop-color="#eaeff2" stop-opacity="1" id="SvgjsStop10502"></stop><stop offset="0.992" stop-color="#d9e3e8" stop-opacity="1" id="SvgjsStop10503"></stop><stop offset="1" stop-color="#d8e2e7" stop-opacity="1" id="SvgjsStop10504"></stop></radialGradient><radialGradient class="svga-on-canvas-eyesfront-gradient-left-3" gradientUnits="userSpaceOnUse" gradientTransform="matrix(0.9998 0.0208 0.0166 -0.7998 -48.4152 149.3183)" r="17.898" fy="84.426" fx="136.103" cy="84.391" cx="123.519" id="SvgjsRadialGradient10508"><stop offset="0" stop-color="#ca8975" stop-opacity="1" id="SvgjsStop10509"></stop><stop offset="0.7" stop-color="#ca8975" stop-opacity="0.3" id="SvgjsStop10510"></stop><stop offset="1" stop-color="#d9a494" stop-opacity="0" id="SvgjsStop10511"></stop></radialGradient><radialGradient class="svga-on-canvas-eyesfront-gradient-left-4" gradientUnits="userSpaceOnUse" gradientTransform="matrix(0.6987 -0.0371 0.0367 0.7092 13.8647 40.0943)" r="21.259" cy="80.739" cx="81.644" id="SvgjsRadialGradient10513"><stop offset="0.9" stop-color="#000000" stop-opacity="0" id="SvgjsStop10514"></stop><stop offset="1" stop-color="#000000" stop-opacity="0.3" id="SvgjsStop10515"></stop></radialGradient><radialGradient class="svga-on-canvas-eyesfront-gradient-right-0" gradientUnits="userSpaceOnUse" gradientTransform="matrix(1.0592 4.000000e-004 4.000000e-004 1.0589 -6.5114 -6.1261)" r="12.841" cy="87.442" cx="125.187" id="SvgjsRadialGradient10519"><stop offset="0" stop-color="#ffffff" stop-opacity="1" id="SvgjsStop10520"></stop><stop offset="0.544" stop-color="#fdfefe" stop-opacity="1" id="SvgjsStop10521"></stop><stop offset="0.74" stop-color="#f6f8f9" stop-opacity="1" id="SvgjsStop10522"></stop><stop offset="0.879" stop-color="#eaeff2" stop-opacity="1" id="SvgjsStop10523"></stop><stop offset="0.992" stop-color="#d9e3e8" stop-opacity="1" id="SvgjsStop10524"></stop><stop offset="1" stop-color="#d8e2e7" stop-opacity="1" id="SvgjsStop10525"></stop></radialGradient><radialGradient class="svga-on-canvas-eyesfront-gradient-right-3" gradientUnits="userSpaceOnUse" gradientTransform="matrix(-0.9998 0.0208 -0.0166 -0.7998 248.4152 149.3183)" r="17.898" fy="84.426" fx="136.103" cy="84.391" cx="123.519" id="SvgjsRadialGradient10529"><stop offset="0" stop-color="#ca8975" stop-opacity="1" id="SvgjsStop10530"></stop><stop offset="0.7" stop-color="#ca8975" stop-opacity="0.3" id="SvgjsStop10531"></stop><stop offset="1" stop-color="#d9a494" stop-opacity="0" id="SvgjsStop10532"></stop></radialGradient><radialGradient class="svga-on-canvas-eyesfront-gradient-right-4" gradientUnits="userSpaceOnUse" gradientTransform="matrix(-0.6987 -0.0371 -0.0367 0.7092 186.1353 40.0943)" r="21.259" cy="80.739" cx="81.644" id="SvgjsRadialGradient10534"><stop offset="0.9" stop-color="#000000" stop-opacity="0" id="SvgjsStop10535"></stop><stop offset="1" stop-color="#000000" stop-opacity="0.3" id="SvgjsStop10536"></stop></radialGradient><linearGradient class="svga-on-canvas-mouth-gradient-single-0" gradientUnits="userSpaceOnUse" y2="139" x2="100" y1="142" x1="100" id="SvgjsLinearGradient10555"><stop offset="0.1" stop-color="#d19684" stop-opacity="1" id="SvgjsStop10556"></stop><stop offset="1" stop-color="#ca8975" stop-opacity="1" id="SvgjsStop10557"></stop></linearGradient><linearGradient class="svga-on-canvas-chinshadow-gradient-single-0" gradientUnits="userSpaceOnUse" y2="136.351" x2="99.98" y1="171.27" x1="99.98" id="SvgjsLinearGradient10587"><stop offset="0" stop-color="#ca8975" stop-opacity="0.8" id="SvgjsStop10588"></stop><stop offset="0.7" stop-color="#ab5a41" stop-opacity="1" id="SvgjsStop10589"></stop></linearGradient></defs></svg>