<svg xmlns="http://www.w3.org/2000/svg" version="1.1" width="600px" height="600px" xlink="http://www.w3.org/1999/xlink" style="overflow:hidden!important;"><g id="svga-group-wrapper" transform="scale(3 3)"><g id="svga-group-backs-single"></g><g id="svga-group-subwrapper" ><g id="svga-group-hair-back" ><path id="SvgjsPath4628" d="M160.527 108.896c-0.826 32.13-5.272 102.953-58.469 102.589 -80.381-0.551-60.969-69.5-61.767-102.589 -1.15-47.67 26.917-86.339 60.118-86.339C133.611 22.558 161.753 61.229 160.527 108.896z" fill="#0c080c" stroke-width="none" opacity="1"></path></g><g id="svga-group-humanbody-single"><path id="SvgjsPath4470" d="M190.858 199.866c-6.008-10.158-13.474-11.973-19.628-13.936 -6.323-2.016-19.346-3.178-26.449-4.6 -6.86-1.373-23.153-5.789-23.339-13.488 -0.192-8.066 4.291-40.09 4.291-40.09H74.005c0 0 4.487 32.023 4.294 40.09 -0.184 7.699-16.48 12.115-23.341 13.488 -7.104 1.422-20.125 2.584-26.448 4.6 -6.156 1.963-13.624 3.777-19.632 13.936 -3.644 6.16-6.008 16.133-6.008 27.133h194C196.869 215.999 194.509 206.026 190.858 199.866z" fill="#93614a" stroke-width="none" opacity="1" stroke="none"></path><path id="SvgjsPath4471" d="M121.442 167.843c2.495 10.929 18.165 13.698 26.293 15.325 21.909 4.379 33.772 5.134 42.297 19.539 2.903 4.916 5.459 15.864 5.962 24.153 1.835 0.291 0.531-17.432-5.136-26.994 -9.742-16.472-29.089-15.135-46.077-18.535C137.921 179.958 121.628 175.542 121.442 167.843L121.442 167.843zM78.558 167.843c-0.186 7.699-16.479 12.115-23.339 13.488 -16.988 3.4-36.335 2.063-46.077 18.535 -5.667 9.563-6.971 27.285-5.136 26.994 0.503-8.289 3.059-19.237 5.962-24.153 8.524-14.405 20.388-15.16 42.297-19.539C60.393 181.541 76.063 178.771 78.558 167.843L78.558 167.843z" fill="#a27662" stroke-width="none" opacity="1" stroke="none"></path><path id="SvgjsPath4472" d="M51.206 189.513c0 0 28.641 0.299 33.473 1.885 2.314 0.758 8.372 5.633 8.372 5.633s-6.556-3.17-8.658-3.758C79.51 191.909 51.206 189.513 51.206 189.513zM99.795 199.999c2.053-0.041 7.887-3.799 7.887-3.799s-5.574 2.059-7.342 2.16c-1.491 0.086-6.366-1.238-6.366-1.238S98.112 200.032 99.795 199.999zM117.008 192.757c6.75-1.818 29.786-3.23 29.786-3.23s-23.791-0.516-30.51 1.725c-2.252 0.752-7.562 5.16-7.562 5.16S114.786 193.354 117.008 192.757z" fill="#844e35" stroke-width="none" opacity="1" stroke="none"></path><path id="SvgjsPath4473" d="M190.858 199.866c-9.741-16.471-29.122-15.142-46.077-18.535 -6.86-1.373-23.153-5.789-23.339-13.488 -0.192-8.066 4.291-40.09 4.291-40.09H74.005c0 0 4.487 32.023 4.294 40.09 -0.184 7.699-16.48 12.115-23.341 13.488 -7.104 1.422-20.125 2.584-26.448 4.6 -6.156 1.963-13.624 3.777-19.632 13.936 -3.644 6.16-6.008 16.133-6.008 27.133h194C196.869 215.999 194.509 206.026 190.858 199.866z" fill="none" stroke="#652e15" stroke-width="1.5" opacity="1"></path></g><g id="svga-group-chinshadow-single"><path id="SvgjsPath4756" d="M100.002 171.005c7.478 0 14.576-2.63 20.879-6.56 0.487-8.706 2.716-25.793 3.721-33.231 -14.77-1.574-34.756-1.565-49.463 0.027 1.001 7.405 3.205 24.29 3.711 33.034C85.222 168.3 92.418 171.005 100.002 171.005z" fill="url(#SvgjsLinearGradient4757)" opacity="1"></path></g><g id="svga-group-clothes-single" ><path id="SvgjsPath4741" d="M-4.807 234.6c1.472-10.806-0.208-11.777 4.116-33.015 1.228-7.384 2.66-13.32 8.141-10.607 4.045-6.008 15.513-6.566 57.339-20.658v-0.258c0.278-1.001 2.706-4.267 3.099-9.897 0.383-5.449 2.718-9.56 5.614-11.604 -6.746 23.685 23.144 14.953 24.208 31.108 0.084 1.273-0.974 10.149-0.813 10.969 3.355-0.679 6.721-0.684 10.359-0.645 -3.928-15.24-0.545-16.872 7.344-19.838 9.564-3.591 12.873-7.169 12.01-20.697 4.57 4.109 1.516 9.7 7.174 17.534 36.249 13.159 50.02 16.863 56.963 21.507 5.981-4.517 9.697 2.65 17.292 46.103C136.218 235.212 54.269 235.12-4.807 234.6z" fill="#3f82a4" stroke-width="none" opacity="1" stroke="none"></path><path id="SvgjsPath4742" d="M92.119 197.235c0.304-0.029 3.375-5.505 3.375-5.505 5.764-2.145 18.375 2.005 34.019-10.176C117.994 199.61 97.143 186.737 92.119 197.235zM70.115 179.378c8.754 10.018 23.629 13.732 26.773 10.686C96.885 190.135 79.619 189.396 70.115 179.378z" fill="#2a7195" stroke-width="none" opacity="1" stroke="none"></path><path id="SvgjsPath4743" d="M73.607 149.423c0 0 0.705 6.944 0.82 11.739C72.326 156.482 71.897 155.232 73.607 149.423z" fill="#196185" stroke-width="none" opacity="1" stroke="none"></path><path id="SvgjsPath4744" d="M4.781 194.15C0 207.902-0.398 222.744-3.298 234.612c-0.693-0.006-0.823 0.293-1.509 0.287 1.472-10.806-0.208-12.355 4.116-33.593 1.228-7.384 2.66-13.32 8.141-10.607 4.045-6.008 15.513-6.566 57.339-20.658v-0.258c0.278-1.001 2.706-4.267 3.099-9.897 0.345-4.904 2.622-9.431 5.25-11.325 -5.936 6.453-1.918 18.345-8.092 22.976C53.103 178.967 18.588 187.846 4.781 194.15zM190.747 188.499c-6.943-4.644-20.714-8.348-56.963-21.507 -5.658-7.834-2.604-13.425-7.174-17.534 0.063 1.001-0.018 0.613 0 1.51 2.161-0.43 2.695 15.819 7.443 18.193 19 9 45.261 17.317 59.521 22.632 6.636 10.021 8.157 26.964 13.401 42.817 1.067-0.009 0 0 1.063-0.009C200.444 191.149 196.729 183.982 190.747 188.499zM125.992 162.465c-7.33 12.798-21.646 4.662-20.242 19.81C108.488 167.635 121.171 175.921 125.992 162.465zM97.372 184.295c2.628-16.491-15.517-13.785-23.633-23.296C78.812 171.409 95.553 168.227 97.372 184.295z" fill="#5794b3" stroke-width="none" opacity="1" stroke="none"></path><path id="SvgjsPath4745" d="M196.139 187.915c-1.581-1.609-3.779-1.259-5.409-0.029 -7.133-4.756-26.235-9.496-56.63-21.609 0 0-2.289-2.963-3.469-8.017 -0.783-3.353-0.308-7.087-4.192-9.838 -0.749 9.286-0.411 16.736-9.51 20.304 -8.959 3.582-14.71 3.744-10.319 20.76 -2.301-0.026-6.457-0.018-9.318 0.563 -0.058-0.295 1.027-8.769 0.918-10.412 -1.014-15.376-28.515-9.625-24.93-27.551 0.33-1.649 0.454-2.542 0.187-3.81 -3.67 1.92-5.337 6.074-5.847 9.51 -0.556 3.889 0.319 4.852-3.32 12.13 0 0.011-0.01 0.021-0.01 0.03 -0.17 0.05-0.35 0.11-0.53 0.17 -41.434 13.791-52.827 14.785-56.48 20.22 -5.931-2.941-7.458 5.121-8.46 11.15 -4.398 21.597-2.602 22.344-4.2 33.61 1 0 109.661 0.96 212.96 0.01 0.36 0 0.71-0.01 1.06-0.01C208.319 233.75 202.222 193.853 196.139 187.915zM117.52 170.155c9.877-4.015 9.506-9.654 9.367-19.766 3.437 1.52 0.914 8.914 6.792 16.516 0 4.854-1.267 9.955-4.229 13.46 -5.51 6.101-14.719 9.317-22.23 9.13C104.685 173.337 107.914 174.091 117.52 170.155zM68.349 159.005c0.062-2.714 2.16-8.263 4.9-10.1 -8.723 23.076 22.427 15.489 23.73 31.92 0.027 0.457-0.38 8.333-0.39 8.84 -16.104-1.896-23.674-5.555-31.64-19.189 0.02-0.04 0.04-0.08 0.06-0.12 0.01 0.01 0.01 0 0.01 0C67.547 165.299 68.017 164.151 68.349 159.005zM-4.591 234.455c1.436-5.179 1.375-14.908 4.04-28.63 1.58-7.847 1.629-17.345 7.48-15.03 0.02 0 0.03 0.011 0.04 0.011 3.516 8.49 11.016 31.499 11.33 32.5 0.155 0.456 2.074 8.248 2.56 9.89 -2.124-16.99-11.493-39.731-12.99-42.14 4.051-4.15 3.094-2.325 35.92-12.7 7.099-2.245 19.409-7.106 20.27-7.601 9.185 19.855 28.548 19.105 32.33 19.521 -11.02 3.397-4.729 31.249-3.77 40.96 -0.163-7.896-3.465-29.31 1.25-36.84 0 0 0.648-1.301 3.14-2.38 6.946-2.627 15.325 2.951 29.95-7.34 4.758-4.518 7.13-7.39 7.13-17.53 24.029 11.337 46.962 16.747 56.11 21.7 -0.013 0.081-0.05 0.414-0.05 0.42 -1.544 13.248 1.243-1.169-4.4 28.689 -1.47 8.541-0.406 5.667-1.13 13.28 1.481-7.851-0.067-3.756 2.12-13.12 4.586-19.338 3.858-22.946 4.16-29.39 3.326-2.396 5.107 0.213 6.399 3.96 4.836 14.695 7.982 34.133 10.09 41.76C141.558 233.843 61.242 233.874-4.591 234.455zM107.847 202.681c-3.239 1.259-7.306 0.944-10.905 0.433C103.167 202.238 107.208 202.645 107.847 202.681z" fill="#0a5276" stroke-width="none" opacity="1" stroke="none"></path></g><g id="svga-group-head" ><g id="svga-group-ears-left" style="display:none;"><path id="SvgjsPath4736" d="M45.671 83.846c-1.485-2.408-6.327-8.995-10.031-8.071 -3.012 0.755-2.973 4.861-3.206 7.289 -0.34 3.563-0.464 9.771 0.525 12.29 0.951 2.418 3.96 7.092 5.828 8.874 2.299 2.185 5.97 9.15 6.422 9.872 0.711 1.142 2.137 2.776 4.325 2.647 3.071-0.181 5.724-3.018 5.965-4.386C56.8 104.941 49.536 90.11 45.671 83.846z" fill="#93614a" stroke="#652e15" stroke-width="1.5" opacity="1"></path><path id="SvgjsPath4737" d="M44.2 98.511c-0.143-0.55 0.007-1.479 0.154-2.375 0.133-0.817 0.258-1.588 0.182-2.134 -0.289-2.043-1.915-5.926-2.976-8.03 -1.223-2.421-3.199-5.471-5.679-6.257 -1.024-0.326-1.699 0.063-2.089 0.458 -0.288 0.29-0.353 0.63-0.259 0.671 0.095 0.04 0.307-0.242 0.617-0.508 0.254-0.217-0.508-0.039 0 0 -0.205 1.017-0.865 6.162-0.41 9.918 0.358 2.955 1.05 5.162 1.263 5.492 0.031 0.349 0.083 0.689 0.16 1.02 1.002 4.312 7.518 9.95 9.034 11.557 0.28 0.296 0.574 0.473 0.646 0.4 0.072-0.073-0.101-0.365-0.379-0.664 -1.498-1.595-7.971-7.214-8.939-11.375 -1.027-4.414 3.912-10.958 4.699-12.343 0.401 0.65 0.742 1.274 1.004 1.795 0.207 0.408 0.434 0.886 0.67 1.403 -0.463 0.721-5.118 5.992-3.934 10.21 0.438 1.556 3.822 3.561 5.131 4.11 0.72 0.303 0.99 0.754 1.304 1.277 0.364 0.608 0.033 2.179 1.23 2.677 0.244 0.103 0.464 0.144 0.659 0.144 0.338 0 0.594-0.127 0.783-0.278 0.02 0.266 0.019 0.605 0.009 0.921 -0.012 0.407 0.047 0.596 0.148 0.604 0.103 0.008 0.21-0.17 0.223-0.574 0.017-0.5 0.014-1.116-0.077-1.412 -0.269-0.868-1.088-1.851-1.957-2.89C44.563 101.304 44.422 99.364 44.2 98.511zM34.969 94.688c-2.348-6.77 1.283-12.936 1.81-13.865 1.012 0.39 2.562 2.145 3.221 3.163C39.52 84.802 35.067 90.135 34.969 94.688zM45.772 105.475c-1.084-0.451-0.706-1.939-1.056-2.525 -0.318-0.531-0.646-1.078-1.479-1.429 -0.18-0.076-0.379-0.191-0.583-0.325 -2.682-5.939 0.293-8.537 1.039-9.068 0.229 0.726 0.399 1.392 0.476 1.926 0.068 0.49-0.059 1.27-0.181 2.023 -0.153 0.934-0.31 1.901-0.147 2.526 0.244 0.931 0.411 2.904 1.291 3.958 0.781 0.935 1.583 1.899 1.857 2.685C46.871 105.403 46.5 105.778 45.772 105.475z" fill="#652e15" stroke-width="none" opacity="1" stroke="none"></path></g><g id="svga-group-ears-right" style="display:none;"><path id="SvgjsPath4738" d="M154.066 83.846c1.486-2.408 6.328-8.995 10.031-8.071 3.012 0.755 2.973 4.861 3.207 7.289 0.34 3.563 0.463 9.771-0.525 12.29 -0.951 2.418-3.961 7.092-5.828 8.874 -2.299 2.185-5.971 9.15-6.422 9.872 -0.711 1.142-2.137 2.776-4.326 2.647 -3.07-0.181-5.723-3.018-5.965-4.386C142.938 104.941 150.203 90.11 154.066 83.846z" fill="#93614a" stroke="#652e15" stroke-width="1.5" opacity="1"></path><path id="SvgjsPath4739" d="M154.322 102.327c-0.869 1.039-1.688 2.022-1.957 2.89 -0.092 0.296-0.094 0.912-0.078 1.412 0.014 0.404 0.121 0.582 0.225 0.574 0.102-0.008 0.16-0.196 0.148-0.604 -0.01-0.315-0.012-0.655 0.008-0.921 0.189 0.151 0.445 0.278 0.783 0.278 0.195 0 0.416-0.041 0.66-0.144 1.195-0.498 0.865-2.068 1.229-2.677 0.314-0.523 0.584-0.975 1.305-1.277 1.309-0.549 4.693-2.554 5.131-4.11 1.184-4.218-3.471-9.489-3.934-10.21 0.234-0.517 0.463-0.995 0.668-1.403 0.264-0.521 0.604-1.145 1.006-1.795 0.787 1.384 5.725 7.929 4.699 12.343 -0.969 4.161-7.441 9.781-8.939 11.375 -0.279 0.299-0.453 0.591-0.381 0.664 0.074 0.072 0.367-0.104 0.646-0.4 1.516-1.606 8.031-7.245 9.033-11.557 0.078-0.33 0.131-0.671 0.162-1.02 0.211-0.331 0.904-2.537 1.262-5.492 0.455-3.756-0.205-8.901-0.41-9.918 0.508-0.039-0.254-0.217 0 0 0.311 0.266 0.523 0.548 0.617 0.508 0.094-0.041 0.029-0.381-0.258-0.671 -0.391-0.394-1.066-0.784-2.09-0.458 -2.48 0.786-4.457 3.836-5.68 6.257 -1.061 2.104-2.686 5.987-2.975 8.03 -0.076 0.546 0.049 1.317 0.182 2.134 0.146 0.896 0.297 1.824 0.154 2.375C155.316 99.364 155.176 101.304 154.322 102.327zM159.738 83.987c0.66-1.019 2.209-2.773 3.221-3.163 0.527 0.929 4.158 7.095 1.811 13.865C164.672 90.135 160.219 84.802 159.738 83.987zM152.75 105.246c0.273-0.785 1.076-1.75 1.857-2.685 0.879-1.053 1.047-3.026 1.291-3.958 0.162-0.625 0.006-1.592-0.146-2.526 -0.123-0.754-0.25-1.534-0.182-2.023 0.076-0.535 0.246-1.201 0.475-1.926 0.746 0.531 3.721 3.128 1.039 9.068 -0.203 0.133-0.402 0.249-0.584 0.325 -0.832 0.351-1.16 0.898-1.479 1.429 -0.35 0.586 0.029 2.074-1.055 2.525C153.238 105.778 152.867 105.403 152.75 105.246z" fill="#652e15" stroke-width="none" opacity="1" stroke="none"></path></g><g id="svga-group-faceshape-wrap" ><g id="svga-group-faceshape-single" ><path id="SvgjsPath4753" d="M100.002 0.867C66.381 0.814 39.186 27.899 39.134 61.374c-0.008 5.316 0.669 10.473 1.953 15.389l0.004 0c0.011 0.053 8.713 38.607 14.519 50.351 6.073 12.285 23.814 32.157 44.392 32.157 20.582 0 38.32-19.872 44.392-32.157 5.805-11.743 14.507-50.297 14.519-50.351l0.005 0c1.283-4.916 1.961-10.072 1.952-15.389C160.819 27.899 133.623 0.814 100.002 0.867z" fill="#93614a" stroke-width="none" opacity="1"></path><path id="SvgjsPath4754" d="M120.754 4.453c21.441 9.336 36.411 30.632 36.45 55.454 0.008 5.316-0.669 10.473-1.953 15.389l-0.005 0c-0.011 0.053-8.713 38.607-14.519 50.352 -5.709 11.548-21.608 31.944-40.725 31.944s-35.016-20.396-40.725-31.944c-5.806-11.744-14.507-50.298-14.519-50.352l-0.004 0c-1.284-4.916-1.962-10.072-1.953-15.389 0.038-24.822 15.008-46.118 36.45-55.454 -23.386 8.412-40.076 30.705-40.117 56.92 -0.008 5.316 0.669 10.473 1.953 15.389l0.004 0c0.011 0.053 8.713 38.607 14.519 50.351 6.073 12.285 23.814 32.157 44.392 32.157 20.579 0 38.319-19.872 44.392-32.157 5.805-11.743 14.507-50.297 14.519-50.351l0.005 0c1.283-4.916 1.961-10.072 1.952-15.389C160.83 35.158 144.14 12.865 120.754 4.453z" fill="#8b573f" stroke-width="none" opacity="1"></path><path id="SvgjsPath4755" d="M100.002 0.867C66.381 0.814 39.186 27.899 39.134 61.374c-0.008 5.316 0.669 10.473 1.953 15.389l0.004 0c0.011 0.053 8.713 38.607 14.519 50.351 6.073 12.285 23.814 32.157 44.392 32.157 20.582 0 38.32-19.872 44.392-32.157 5.805-11.743 14.507-50.297 14.519-50.351l0.005 0c1.283-4.916 1.961-10.072 1.952-15.389C160.819 27.899 133.623 0.814 100.002 0.867z" fill="none" stroke="#652e15" stroke-width="1.5" opacity="1"></path></g></g><g id="svga-group-mouth-single" ><path id="SvgjsPath4727" d="M99.983 143.169c-3.24 0-4.753-3.102-4.753-3.102l9.279-0.067C104.509 140 102.832 143.169 99.983 143.169z" fill="url(#SvgjsLinearGradient4728)" opacity="1"></path><path id="SvgjsPath4731" d="M99.869 131.603c-6.552 0-9.471 2.347-12 5.397h24C109.771 133.875 106.703 131.603 99.869 131.603z" fill="#ffffff" stroke-width="none" opacity="1"></path><path id="SvgjsPath4732" d="M99.869 131.603c-6.552 0-9.471 2.347-12 5.397h24C109.771 133.875 106.703 131.603 99.869 131.603z" fill="none" stroke="#d12800" stroke-width="0.75" opacity="1"></path></g><g id="svga-group-eyes-left" ><g id="svga-group-eyesback-left"><path id="SvgjsPath4653" d="M60.606 84.841c9.825-9.869 20.004-8.215 25.751-1.317 0.702 1.373 0.997 2.864 0.875 4.343 -0.187 2.243-2.023 4.452-2.862 4.886 -2.361 1.221-4.936 1.942-7.547 2.09 -1.004 0.057-1.597 0.079-2.459 0 -1.709-0.157-3.145-0.513-4.85-1.213 -2.795-1.148-5.434-3.113-7.677-6.048 -0.033-0.042-0.081-0.067-0.132-0.068s-0.1 0.022-0.134 0.062l-0.089 0.108c-0.05 0.06-0.054 0.142-0.021 0.211 -0.252-0.344-0.478-0.689-0.673-1.036 0.007 0.004 0.011 0.006 0.018 0.01C60.344 86.035 60.365 85.193 60.606 84.841z" fill="url(#SvgjsRadialGradient4654)" opacity="1"></path></g><g id="svga-group-eyesiriswrapper-left" transform="translate(0 -0.5)"><g id="svga-group-eyesiriscontrol-left" ><g id="svga-group-eyesiris-left" ><path id="SvgjsPath4711" d="M83.199 89.25c-1.231 4.522-5.896 7.187-10.429 5.944 -4.528-1.241-7.203-5.918-5.97-10.442 1.23-4.526 5.905-7.19 10.434-5.947C81.761 80.045 84.433 84.723 83.199 89.25z" fill="#724f7c" stroke="#431a4e" stroke-width="0.5" opacity="1"></path><path id="SvgjsPath4712" d="M81.878 89.354c-1.202 3.473-4.827 5.499-8.357 4.531 -3.258-0.894-5.315-4.02-5.048-7.325 1.209-0.096 2.532-0.124 3.904-0.056 -0.014 0.047-0.039 0.087-0.051 0.136 -0.434 1.594 0.576 3.265 2.256 3.726 1.685 0.461 3.401-0.462 3.835-2.056 0.055-0.208 0.085-0.417 0.093-0.623C79.66 88.108 80.792 88.651 81.878 89.354z" fill="#83678b" stroke-width="none" opacity="1" stroke="none"></path><path id="SvgjsPath4713" d="M76.151 84.464c-1.703-0.487-3.44 0.485-3.88 2.181 -0.44 1.687 0.584 3.454 2.286 3.942 1.705 0.489 3.443-0.484 3.884-2.173C78.884 86.719 77.855 84.953 76.151 84.464zM76.523 90.46c-0.708 0.22-1.441-0.072-1.636-0.655 -0.188-0.582 0.231-1.228 0.945-1.443 0.712-0.22 1.442 0.073 1.639 0.651C77.665 89.593 77.241 90.24 76.523 90.46z" fill="#000000" stroke-width="none" opacity="0.9"></path><path id="SvgjsPath4714" d="M70.482 91.476c-0.523 0.314-1.307 0.034-1.754-0.633 -0.448-0.66-0.381-1.451 0.145-1.767 0.521-0.311 1.311-0.03 1.755 0.632C71.07 90.37 71.006 91.162 70.482 91.476z" fill="#ffffff" stroke-width="none" opacity="0.6"></path><path id="SvgjsPath4715" d="M81.673 86.632c-1.198 0.718-2.999 0.072-4.02-1.445 -1.02-1.518-0.867-3.331 0.332-4.047 1.196-0.721 3-0.074 4.015 1.444C83.019 84.101 82.871 85.913 81.673 86.632z" fill="#ffffff" stroke-width="none" opacity="0.9"></path></g></g></g><g id="svga-group-eyesfront-left"><path id="SvgjsPath4678" d="M55.5 87c0 13.808 8.283 24.999 18.5 24.999S92.5 100.808 92.5 87c0-13.809-8.283-25.001-18.5-25.001S55.5 73.191 55.5 87zM60.79 86.86c0.007 0.004 0.011 0.006 0.018 0.01 -0.464-0.835-0.442-1.677-0.201-2.029 9.825-9.869 20.004-8.215 25.751-1.317 0.702 1.373 0.997 2.864 0.875 4.343 -0.187 2.243-2.023 4.452-2.862 4.886 -2.361 1.221-4.936 1.942-7.547 2.09 -1.004 0.057-1.597 0.079-2.459 0 -1.709-0.157-3.145-0.513-4.85-1.213 -2.795-1.148-5.434-3.113-7.677-6.048 -0.033-0.042-0.081-0.067-0.132-0.068s-0.1 0.022-0.134 0.062l-0.089 0.108c-0.05 0.06-0.054 0.142-0.021 0.211C61.211 87.551 60.985 87.207 60.79 86.86z" fill="#93614a" stroke-width="none" opacity="1" stroke="none"></path><path id="SvgjsPath4679" d="M59.397 85.083c0.023 8.56 7.646 15.459 17.038 15.416 9.389-0.049 16.985-7.022 16.961-15.583 -0.023-8.562-7.647-15.463-17.04-15.417C66.965 69.549 59.373 76.522 59.397 85.083zM60.79 86.86c0.007 0.004 0.011 0.006 0.018 0.01 -0.464-0.835-0.442-1.677-0.201-2.029 9.825-9.869 20.004-8.215 25.751-1.317 0.702 1.373 0.997 2.864 0.875 4.343 -0.187 2.243-2.023 4.452-2.862 4.886 -2.361 1.221-4.936 1.942-7.547 2.09 -1.004 0.057-1.597 0.079-2.459 0 -1.709-0.157-3.145-0.513-4.85-1.213 -2.795-1.148-5.434-3.113-7.677-6.048 -0.033-0.042-0.081-0.067-0.132-0.068s-0.1 0.022-0.134 0.062l-0.089 0.108c-0.05 0.06-0.054 0.142-0.021 0.211C61.211 87.551 60.985 87.207 60.79 86.86z" fill="url(#SvgjsRadialGradient4680)" opacity="1"></path><path id="SvgjsPath4684" d="M86.366 83.544c0.694 1.368 0.987 2.851 0.866 4.323 -0.187 2.243-2.023 4.452-2.862 4.886 -2.361 1.221-4.936 1.942-7.547 2.09 -1.004 0.057-1.597 0.079-2.459 0 -1.709-0.157-3.145-0.513-4.85-1.213 -2.795-1.148-5.434-3.113-7.677-6.048 -0.033-0.042-0.081-0.067-0.132-0.068s-0.1 0.022-0.134 0.062l-0.089 0.108c-0.05 0.06-0.054 0.142-0.021 0.211 -0.252-0.344-0.478-0.689-0.673-1.036 0.007 0.004 0.011 0.006 0.018 0.01 -0.464-0.835-0.442-1.677-0.201-2.029 5.075-5.098 10.243-7.115 14.848-6.929C79.788 78.271 83.639 80.365 86.366 83.544z" fill="url(#SvgjsRadialGradient4685)" opacity="1"></path><path id="SvgjsPath4688" d="M88.72 80.246c-10.614-5.735-17.602-6.912-29.764 0.871C64.86 76.74 74.154 70.902 88.72 80.246z" fill="#652e15" stroke-width="none" opacity="1" stroke="none"></path><path id="SvgjsPath4689" d="M83.382 93.339l0.818 0.22 -2.012 0.25 1.579 0.635c0 0-2.043-0.21-2.587-0.084 -6.677 1.549-13.526 0.203-17.381-3.689 -0.484-0.149-1.645 0.105-1.645 0.105l1.156-0.609c-0.339-0.63-0.965-0.497-2.986-0.403 0.95-0.306 1.928-0.601 1.85-0.834l-0.707-1.09c-0.045-0.069-0.038-0.159 0.016-0.221l0.089-0.102c0.033-0.039 0.082-0.061 0.133-0.06 0.052 0.001 0.1 0.024 0.132 0.064 6.175 7.677 15.34 8.45 22.533 4.914L83.382 93.339zM88.313 82.722c-1.012-0.981-1.752-1.504-2.806-2.059 0.774-0.323 1.857-0.513 1.857-0.513l-3.095-0.377c-6.089-3.332-9.937-3.585-16.336-1.394 -0.797 0.273-2.852-0.338-4.646-0.939l2.033 1.955c-1.244 0.038-2.207-0.3-3.541-0.559l2.2 1.259c-0.95 0.699-1.94 0.65-4.954 0.562l2.444 1.316c-1.067 0.404-1.521 0.275-2.982-0.047 0.489 0.504 0.92 0.862 1.498 1.162 -0.785 0.05-1.807 0.152-3.175-0.278 0.675 0.699 1.281 1.296 1.756 1.469l-1.07 0.44 1.516 0.559 -1.053 0.655c1.203 0.046 1.836 0.305 2.849 0.916 -0.464-0.793-0.442-1.594-0.201-1.928 10.473-9.996 21.35-7.552 26.829 0.108l-0.736-1.344 1.354 1.279 -1.242-1.732 1.12 0.596 -1.074-1.522L88.313 82.722z" fill="#000000" stroke-width="none" opacity="1" stroke="none"></path></g></g><g id="svga-group-eyes-right" ><g id="svga-group-eyesback-right"><path id="SvgjsPath4661" d="M139.394 84.841c-9.825-9.869-20.004-8.215-25.751-1.317 -0.702 1.373-0.997 2.864-0.875 4.343 0.187 2.243 2.023 4.452 2.862 4.886 2.361 1.221 4.936 1.942 7.547 2.09 1.004 0.057 1.597 0.079 2.459 0 1.709-0.157 3.145-0.513 4.85-1.213 2.795-1.148 5.434-3.113 7.677-6.048 0.033-0.042 0.081-0.067 0.132-0.068s0.1 0.022 0.134 0.062l0.089 0.108c0.05 0.06 0.054 0.142 0.021 0.211 0.252-0.344 0.478-0.689 0.673-1.036 -0.007 0.004-0.011 0.006-0.018 0.01C139.656 86.035 139.635 85.193 139.394 84.841z" fill="url(#SvgjsRadialGradient4662)" opacity="1"></path></g><g id="svga-group-eyesiriswrapper-right" transform="translate(0 -0.5)"><g id="svga-group-eyesiriscontrol-right" ><g id="svga-group-eyesiris-right" ><path id="SvgjsPath4716" d="M133.199 89.25c-1.231 4.522-5.896 7.187-10.429 5.944 -4.528-1.241-7.203-5.918-5.97-10.442 1.23-4.526 5.905-7.19 10.434-5.947C131.761 80.045 134.433 84.723 133.199 89.25z" fill="#724f7c" stroke="#431a4e" stroke-width="0.5" opacity="1"></path><path id="SvgjsPath4717" d="M131.878 89.354c-1.202 3.473-4.827 5.499-8.357 4.531 -3.258-0.894-5.315-4.02-5.048-7.325 1.209-0.096 2.532-0.124 3.904-0.056 -0.014 0.047-0.039 0.087-0.051 0.136 -0.434 1.594 0.576 3.265 2.256 3.726 1.685 0.461 3.401-0.462 3.835-2.056 0.055-0.208 0.085-0.417 0.093-0.623C129.66 88.108 130.792 88.651 131.878 89.354z" fill="#83678b" stroke-width="none" opacity="1" stroke="none"></path><path id="SvgjsPath4718" d="M126.151 84.464c-1.703-0.487-3.44 0.485-3.88 2.181 -0.44 1.687 0.584 3.454 2.286 3.942 1.705 0.489 3.443-0.484 3.884-2.173C128.884 86.719 127.855 84.953 126.151 84.464zM126.523 90.46c-0.708 0.22-1.441-0.072-1.636-0.655 -0.188-0.582 0.231-1.228 0.945-1.443 0.712-0.22 1.442 0.073 1.639 0.651C127.665 89.593 127.241 90.24 126.523 90.46z" fill="#000000" stroke-width="none" opacity="0.9"></path><path id="SvgjsPath4719" d="M120.482 91.476c-0.523 0.314-1.307 0.034-1.754-0.633 -0.448-0.66-0.381-1.451 0.145-1.767 0.521-0.311 1.311-0.03 1.755 0.632C121.07 90.37 121.006 91.162 120.482 91.476z" fill="#ffffff" stroke-width="none" opacity="0.6"></path><path id="SvgjsPath4720" d="M131.673 86.632c-1.198 0.718-2.999 0.072-4.02-1.445 -1.02-1.518-0.867-3.331 0.332-4.047 1.196-0.721 3-0.074 4.015 1.444C133.019 84.101 132.871 85.913 131.673 86.632z" fill="#ffffff" stroke-width="none" opacity="0.9"></path></g></g></g><g id="svga-group-eyesfront-right"><path id="SvgjsPath4699" d="M126 61.999c-10.217 0-18.5 11.192-18.5 25.001 0 13.808 8.283 24.999 18.5 24.999S144.5 100.808 144.5 87C144.5 73.191 136.217 61.999 126 61.999zM138.537 87.896c0.033-0.069 0.029-0.152-0.021-0.211l-0.089-0.108c-0.034-0.04-0.083-0.063-0.134-0.062s-0.099 0.026-0.132 0.068c-2.243 2.935-4.882 4.9-7.677 6.048 -1.705 0.701-3.141 1.056-4.85 1.213 -0.862 0.08-1.455 0.058-2.459 0 -2.611-0.148-5.186-0.869-7.547-2.09 -0.839-0.434-2.676-2.643-2.862-4.886 -0.122-1.479 0.173-2.97 0.875-4.343 5.747-6.898 15.926-8.551 25.751 1.317 0.241 0.352 0.263 1.194-0.201 2.029 0.007-0.004 0.011-0.006 0.018-0.01C139.015 87.207 138.789 87.551 138.537 87.896z" fill="#93614a" stroke-width="none" opacity="1" stroke="none"></path><path id="SvgjsPath4700" d="M123.644 69.499c-9.393-0.045-17.017 6.856-17.04 15.417 -0.024 8.56 7.572 15.533 16.961 15.583 9.392 0.043 17.015-6.856 17.038-15.416C140.627 76.522 133.035 69.549 123.644 69.499zM138.537 87.896c0.033-0.069 0.029-0.152-0.021-0.211l-0.089-0.108c-0.034-0.04-0.083-0.063-0.134-0.062s-0.099 0.026-0.132 0.068c-2.243 2.935-4.882 4.9-7.677 6.048 -1.705 0.701-3.141 1.056-4.85 1.213 -0.862 0.08-1.455 0.058-2.459 0 -2.611-0.148-5.186-0.869-7.547-2.09 -0.839-0.434-2.676-2.643-2.862-4.886 -0.122-1.479 0.173-2.97 0.875-4.343 5.747-6.898 15.926-8.551 25.751 1.317 0.241 0.352 0.263 1.194-0.201 2.029 0.007-0.004 0.011-0.006 0.018-0.01C139.015 87.207 138.789 87.551 138.537 87.896z" fill="url(#SvgjsRadialGradient4701)" opacity="1"></path><path id="SvgjsPath4705" d="M113.634 83.544c-0.694 1.368-0.987 2.851-0.866 4.323 0.187 2.243 2.023 4.452 2.862 4.886 2.361 1.221 4.936 1.942 7.547 2.09 1.004 0.057 1.597 0.079 2.459 0 1.709-0.157 3.145-0.513 4.85-1.213 2.795-1.148 5.434-3.113 7.677-6.048 0.033-0.042 0.081-0.067 0.132-0.068s0.1 0.022 0.134 0.062l0.089 0.108c0.05 0.06 0.054 0.142 0.021 0.211 0.252-0.344 0.478-0.689 0.673-1.036 -0.007 0.004-0.011 0.006-0.018 0.01 0.464-0.835 0.442-1.677 0.201-2.029 -5.075-5.098-10.243-7.115-14.848-6.929C120.212 78.271 116.361 80.365 113.634 83.544z" fill="url(#SvgjsRadialGradient4706)" opacity="1"></path><path id="SvgjsPath4709" d="M111.28 80.246c10.614-5.735 17.602-6.912 29.764 0.871C135.14 76.74 125.846 70.902 111.28 80.246z" fill="#652e15" stroke-width="none" opacity="1" stroke="none"></path><path id="SvgjsPath4710" d="M115.63 92.437c7.193 3.537 16.358 2.764 22.533-4.914 0.032-0.04 0.08-0.063 0.132-0.064 0.051-0.001 0.1 0.021 0.133 0.06l0.089 0.102c0.054 0.062 0.061 0.152 0.016 0.221l-0.707 1.09c-0.078 0.233 0.899 0.528 1.85 0.834 -2.021-0.094-2.647-0.227-2.986 0.403l1.156 0.609c0 0-1.16-0.254-1.645-0.105 -3.854 3.892-10.704 5.238-17.381 3.689 -0.544-0.126-2.587 0.084-2.587 0.084l1.579-0.635 -2.012-0.25 0.818-0.22L115.63 92.437zM113.144 82.303l-1.074 1.522 1.12-0.596 -1.242 1.732 1.354-1.279 -0.736 1.344c5.479-7.66 16.356-10.104 26.829-0.108 0.241 0.334 0.263 1.135-0.201 1.928 1.013-0.61 1.646-0.87 2.849-0.916l-1.053-0.655 1.516-0.559 -1.07-0.44c0.475-0.172 1.081-0.77 1.756-1.469 -1.368 0.43-2.39 0.328-3.175 0.278 0.578-0.299 1.009-0.657 1.498-1.162 -1.461 0.322-1.915 0.452-2.982 0.047l2.444-1.316c-3.014 0.088-4.004 0.137-4.954-0.562l2.2-1.259c-1.334 0.259-2.297 0.597-3.541 0.559l2.033-1.955c-1.795 0.601-3.85 1.212-4.646 0.939 -6.399-2.191-10.247-1.938-16.336 1.394l-3.095 0.377c0 0 1.083 0.19 1.857 0.513 -1.054 0.554-1.794 1.077-2.806 2.059L113.144 82.303z" fill="#000000" stroke-width="none" opacity="1" stroke="none"></path></g></g><g id="svga-group-facehighlight-single" ><path id="SvgjsPath4462" d="M140.204 113.007c0.035 22.275-17.995 40.365-40.273 40.396 -22.274 0.036-40.361-17.993-40.396-40.272C59.501 90.857 77.53 72.77 99.808 72.735 122.083 72.701 140.171 90.73 140.204 113.007z" fill="url(#SvgjsRadialGradient4463)" opacity="1"></path><path id="SvgjsPath4466" d="M135,55.999c0,19.329-15.671,35-35,35c-19.329,0-35-15.671-35-35s15.671-35,35-35C119.329,20.999,135,36.67,135,55.999z" fill="url(#SvgjsRadialGradient4467)" opacity="1"></path></g><g id="svga-group-eyebrows-left" ><path id="SvgjsPath4721" d="M52.004 78c27.284-21.604 46.019-2.98 38.919-3.268C89.81 74.701 77.501 64.043 52.004 78z" fill="#2a232b" stroke-width="none" opacity="1"></path></g><g id="svga-group-eyebrows-right" ><path id="SvgjsPath4722" d="M147.996 78c-8.301-6.572-16.838-10.828-27.652-10.275 -13.949 0.957-14.771 9.377-9.785 6.334 2.781-1.698 6.721-2.98 10.842-3.132C130.288 70.405 139.611 73.413 147.996 78z" fill="#2a232b" stroke-width="none" opacity="1"></path></g><g id="svga-group-nose-single" ><path id="SvgjsPath4733" d="M97.363 92.602c0 0 0.055 7.962-0.458 9.512 -1.129 3.405-6.123 11.297-5.49 13.486 0.985 3.403 5.817 3.652 8.259 3.771 2.338 0.115 7.091-0.055 7.857-2.267 0.312-0.9-0.361-3.197-0.361-3.197s-2.165 2.228-7.266 1.98c-1.456-0.07-3.824-1.5-3.851-3.517 -0.036-2.734 1.805-5.87 2.135-8.583C98.438 101.726 97.363 92.602 97.363 92.602z" fill="#844e35" stroke-width="none" opacity="1" stroke="none"></path><path id="SvgjsPath4734" d="M104.209 117.032c0.881 0 1.119 0.234 1.119 0.522 0 0.29-0.274 0.735-1.119 0.522 -0.928-0.231-2.548-0.124-2.548-0.124S103.328 117.032 104.209 117.032zM95.8 117.032c-0.881 0.001-1.119 0.236-1.119 0.525 0 0.288 0.265 0.704 1.119 0.521 0.941-0.201 2.548-0.125 2.548-0.125S96.682 117.035 95.8 117.032zM107.169 113.906c0 0 1.22 1.384 0.966 2.847 -0.246 1.421-2.709 2.047-2.709 2.047s1.71-1.085 1.917-2.403C107.439 115.781 107.169 113.906 107.169 113.906zM92.12 112.482c0 0-0.89 1.938-0.632 3.117 0.467 2.13 3.032 2.982 3.032 2.982s-1.601-1.462-2.17-2.753C91.729 114.42 92.12 112.482 92.12 112.482z" fill="#652e15" stroke-width="none" opacity="1" stroke="none"></path><path id="SvgjsPath4735" d="M104.166 114.937c0.854-0.637 0.939-1 0.763-1.237 -0.176-0.238-0.688-0.389-1.403 0.379 -0.788 0.846-2.502 1.47-2.502 1.47S103.312 115.574 104.166 114.937z" fill="#a27662" stroke-width="none" opacity="1" stroke="none"></path></g><g id="svga-group-hair-front" ><path id="SvgjsPath4630" d="M137.933 141.731c16.512-55.946-2.844-86.784-5.085-96.474 -0.461-1.994-2.839-7.675-2.839-7.675 -8.857-4.884-13.91-5.96-24.344-5.96 -7.02 0-10.784 0.161-17.606 2.384 -7.164 7.132-27.936 32.674-36.394 51.778 4.185 15.866 6.826 68.128 4.833 72.716 -15.408 0.498-9.962-129.099-9.962-129.099 5.36 0 103.2-4.161 108.719-4.161C155.255 25.241 161.143 139.85 137.933 141.731z" fill="#2a232b" stroke-width="none" opacity="0.1"></path><path id="SvgjsPath4631" d="M129.421 235.813c7.562-15.873 5.54-26.495 3.584-36.774 -1.463-7.688-2.978-15.637-0.401-25.709 -0.845-13.438 2.629-24.662 6.307-36.547 7.017-22.68 14.97-48.384-6.036-96.463l-0.026-0.062 -0.061-0.033c-8.857-4.884-19.055-7.465-29.488-7.465 -7.02 0-14.039 1.127-20.861 3.351 -7.164 7.132-24.063 29.375-32.521 48.479 0.245 3.976 0.862 8.197 1.927 13.381 4.34 21.321 4.5 38.71 4.654 55.53 0.23 25.185 0.45 48.987 15.491 81.027 -1.855-1.622-3.654-3.18-5.397-4.688 -18.63-16.117-30.938-26.765-34.354-51.049l-0.398 0.021c0 0-0.33 9.248-0.47 13.14C21.141 141.693 19.924 101.158 25.877 60.5 30.869 26.402 62.752-6.334 88.302-6.334c5.36 0 10.53 0.952 15.365 2.83l0.073 0.028 0.072-0.029c6.084-2.401 11.969-3.619 17.488-3.619 16.125 0 29.904 7.554 39.849 27.521 11.614 23.322 17.796 59.631 16.534 97.126 -1.229 36.535-9.174 68.096-21.295 84.732 0.656-3.462 0.867-5.002 1.26-8.908l-0.388-0.089c-7.468 20.085-17.243 30.866-26.698 41.292C130.182 234.974 129.8 235.394 129.421 235.813z" fill="#2a232b" stroke-width="none" opacity="1"></path><path id="SvgjsPath4632" d="M50.023 86.038c0.295 3.558 0.885 7.374 1.822 11.934 4.341 21.321 4.5 38.712 4.654 55.53 0.231 25.185 0.45 48.987 15.491 81.027 -1.855-1.623-3.654-3.18-5.397-4.688 -9.569-8.279-17.466-15.118-23.351-23.1 -9.281-17.978-12.373-31.131-12.373-60.673 4.5 24.167 5.667 36.329 23.74 60.667C36.699 171.857 29.855 120.033 50.023 86.038zM175.502 121.842C173.57 134.101 170.613 161.006 166 173c2.684-17.925 2.144-23.32 2-41 -4 23-9.352 50.397-20 68 3.834-15.765 7.255-28.928 7.255-48.595C150.202 170.072 141.482 173.074 140 187c3.888-36.515 20.87-75.267 3.842-113.642 5.986 28.08 0.275 46.59-4.933 63.424 -3.679 11.885-7.15 23.11-6.308 36.547 -2.574 10.071-1.061 18.021 0.402 25.709 1.956 10.28 3.979 20.901-3.584 36.773 0.379-0.419 0.76-0.839 1.143-1.261 9.455-10.426 19.23-21.207 26.698-41.292l0.388 0.089c-0.393 3.906-0.604 5.446-1.26 8.908C168.029 186.278 173.814 156.535 175.502 121.842zM37.27 72.427c-2.445 5.423-6.514 62.265-3.284 74.552 0.046 0.17-0.056-0.172-0.268-0.912C28.817 130.232 34.444 77.602 37.27 72.427zM28.995 149.658c0.151 1.726 0.322 2.77 0.297 2.562 -0.132-0.51-1.95-44.056-1.492-44.315 0.1-0.021 0.069 0.018 0.102 0.025C26.832 108.215 27.775 136.716 28.995 149.658zM161.813 133.315c-1.464 16.704-5.294 35.469-2.028 18.988 5.737-27.943 7.126-52.795 0.201-80.288C162.865 85.764 164.776 96.6 161.813 133.315z" fill="#1b141c" stroke-width="none" opacity="1"></path><path id="SvgjsPath4633" d="M127 29c16.888 6.402 32 75 26 115 10.155-44 7.566-81.265-11-119 16.968 27.907 24.125 38.909 26.371 82.435 3.32-19.596 2.846-43.368-0.37-69.895 -2.007-6.258-4.298-12.015-6.852-17.143C151.206 0.43 137.427-7.124 121.302-7.124c-5.521 0-11.403 1.218-17.489 3.619l-0.071 0.029 -0.073-0.028c-4.835-1.878-10.005-2.83-15.365-2.83 -12.584 0-27.104 8.274-39.002 20.577C32.418 39.738 27.122 71.139 28 101c1-24 13-48 28-66 -11 26-19 53-20 81 6-39 35.469-88.265 58-96 6.9-2.369 15.467-1.286 17.615 6.42 1.188 1.846 1.794 4.125 1.385 6.58 1.407-1.126 2.791-1.964 4.165-2.536C120.504 27.823 124.108 27.904 127 29z" fill="#322c33" stroke-width="none" opacity="1"></path><path id="SvgjsPath4634" d="M113 33c1-6-5-11.6-10-11.6 -8.118 0-16.148 7.781-21.182 15.339 0.212-0.22 0.42-0.433 0.619-0.63 6.822-2.224 13.841-3.351 20.861-3.351 10.435 0 20.63 2.582 29.488 7.465l0.06 0.033 0.027 0.062c0.054 0.123 0.102 0.24 0.152 0.362 -0.271-3.492-4.157-7.681-6.063-9.05C121.964 28.63 117.881 28.408 113 33z" fill="#0c080c" stroke-width="none" opacity="1"></path><path id="SvgjsPath4635" d="M123.605 15.551c14.693 2.885 21.418 18.935 25.36 33.284C149.686 51.544 142.26 19.955 123.605 15.551zM167.8 60.71c-2.621-21.61-11.549-43.651-30.488-54.378C163.85 22.934 168.197 63.544 167.8 60.71zM91.438 18.545c1.918-0.426-12.385 1.221-23.378 15.036 -7.164 8.71-13.558 21.986-16.138 27.16C59.841 44.582 73.947 22.662 91.438 18.545zM75.803 6.583C59.858 11.72 49.913 23.31 44.498 37.629 55.194 12.346 80.312 5.185 75.803 6.583zM111.399 5.315C107.242-3.4 99.008-7.734 86.591-6.171c12.168-0.83 20.242 4.56 23.477 11.712 -6.828-7.43-19.214 1.181-18.223 0.847 0.978-0.692 13.933-4.741 18.745 0.193 2.196 4.651 3.396 10.396 3.765 16.96 0.41 8.729 0.354-4.552-0.186-8.375 -0.458-3.457-1.292-6.551-2.495-9.251 4.005-5.099 11.348-5.508 17.675-2.897l0.041-0.091C123.153-0.222 114.057-0.279 111.399 5.315z" fill="#2a232b" stroke-width="none" opacity="1"></path><path id="SvgjsPath4636" d="M114.04 32.379c5.321-4.434 12.993-3.73 18.039 6.7l0.61 1.32c31.857 72.917-2.776 93.617-0.28 132.88 -6.107 23.896 10.536 35.066-3.79 63.72 9.811-10.893 20.781-22.021 28.83-43.67 -0.429 4.271-0.652 5.762-1.42 9.75 38.854-51.466 30.84-240.344-52.29-206.77 -26.87-12.574-69.464 14.093-78.06 64.16 -7.504 43.708-3.863 86.184 5.83 133.16 0.025-0.661 0.53-14.811 0.53-14.811 3.785 26.906 18.251 36.949 40.54 56.49 -25.454-53.516-9.508-83.19-20.54-137.379 -0.9-4.38-1.64-8.8-1.94-13.26 8.343-18.843 25.079-41.048 32.4-48.37l1.21-1.21c0.099-0.095 5.39-5.147 5.63-5.37 8.201-3.25 17.274-4.018 22.341 3.593 -3.037-7.992-13.058-8.04-20.73-5.043 8.445-7.445 18.682-10.292 22.191 4.081 0.103 0.419 0.082 1.196 0.082 1.196S113.665 32.692 114.04 32.379zM175.077 118.061c-0.38 12.364-2.541 54.771-17.658 82.27 1.066-4.51 1.76-8.328 2.021-12.801 4.745-14.82 5.854-26.1 6.028-27.1 -5.55 27.37-15.529 51.351-34.619 73.569 13.535-29.831-2.641-35.97 1.67-59.33 0.967 11.022 4.291 21.701 7.739 32.05 0.49-9.871 2.533-21.996 7.271-30.71 -1.799 2.479-7.063 14.054-7.93 26.21 -14.464-50.55 5.344-49.98 8.17-108.66 2.604 21.148-0.119 28.44-0.119 28.44 5.72-19.17 0.543-32.426-0.826-43.12 -1.693-13.216-10.355-34.177-11.654-36.99 -4.865-10.169-12.197-16.503-21.13-10.39 -8.374-24.158-29.294-0.563-35.459 6.21 -8.888 9.765-22.52 28.087-29.211 44.29 0 0.01-0.01 0.02-0.01 0.03 -4.833 11.717-6.102 20.844-7.32 28.84 2.306-11.387 4.596-18.222 7.43-24.77 0.18 3.31 0.57 6.61 1.08 9.87 8.997 57.645-6.818 82.899 20.06 136.78 -34.449-32.043-38.365-41.664-39.7-80.58 -0.238 24.988 0.937 10.513-0.14 30.7 -5.768-39.082-10.682-67.553-2.5-118.52 9.267-57.727 52.276-77.212 75.43-67.42 30.296-12.349 48.97 5.949 61.2 35.04 2.775 6.604 10.469 37.291 5.6 62.41 0 0 2.195-6.328 3.66-18.7C175.565 89.307 175.505 104.127 175.077 118.061z" fill="#000000" stroke-width="none" opacity="1"></path></g><g id="svga-group-glasses-single" ><path id="SvgjsPath4783" d="M126.39 107.87c-15.66 0-21.19-17.14-21.19-21.52 0-8.59 6.99-15.59 15.59-15.59h18.09c6.52 0 11.83 5.3 11.83 11.82C150.7 97 140.25 107.87 126.39 107.87zM73.61 107.87c15.66 0 21.19-17.14 21.19-21.52 0-8.59-6.99-15.59-15.59-15.59h-18.1c-6.52 0-11.82 5.3-11.82 11.82C49.3 97 59.75 107.87 73.61 107.87z" fill="#130b3c" stroke-width="none" opacity="0.7"></path><path id="SvgjsPath4784" d="M150.31 87.31c-12.66-3.75-27.83-6.14-43.59-7.63 2.51-5.26 7.86-8.91 14.06-8.91h18.09c6.52 0 11.83 5.3 11.83 11.82C150.7 84.21 150.56 85.79 150.31 87.31zM92.71 78.58c-2.7-4.66-7.73-7.81-13.49-7.81h-18.1c-4.66 0-8.69 2.72-10.62 6.65C63.59 77.4 78.15 77.67 92.71 78.58z" fill="#5b1d0d" stroke-width="none" opacity="0.1"></path><path id="SvgjsPath4785" d="M138.88 70.29h-18.09c-5.72 0-10.74 2.99-13.58 7.49 -3.76 1.11-10.53 1.14-14.39 0 -2.85-4.5-7.87-7.49-13.58-7.49h-18.1c-6.79 0-12.3 5.51-12.3 12.3 0 14.25 9.98 25.39 24.23 25.75 15.9 0.41 22.23-16.43 22.23-21.99 0-1.27-0.15-2.5-0.43-3.69 1.73-1.13 8.53-1.15 10.29 0 -0.28 1.18-0.43 2.42-0.43 3.69 0 5.55 6.33 22.4 22.24 21.99 14.24-0.36 24.23-11.5 24.23-25.75C151.18 75.8 145.67 70.29 138.88 70.29zM73.61 107.4c-13.39 0-23.84-10.28-23.84-24.8 0-6.26 5.09-11.35 11.35-11.35h18.1c8.33 0 15.11 6.78 15.11 15.11C94.33 90.64 88.92 107.4 73.61 107.4zM126.39 107.4c-15.31 0-20.72-16.76-20.72-21.04 0-8.33 6.78-15.11 15.11-15.11h18.09c6.26 0 11.35 5.09 11.35 11.35C150.22 97.12 139.78 107.4 126.39 107.4z" fill="#1a1a1a" stroke-width="none" opacity="1"></path><path id="SvgjsPath4786" d="M104.36 79.25c1.67-6.81 10.16-10.06 20.78-11.12 12.62-1.26 21.46-0.12 29.13 4.46 0.45 0.27 0.73 0.76 0.73 1.28v3.87c0 0.51-0.21 0.99-0.58 1.34l-3.6 3.4c0.05-2.41-1.05-5.04-3.94-7.36 -2.64-2.11-11-2.97-20.31-2.8 -9.91 0.19-15.12 1.75-20.32 6.6L104.36 79.25zM95.64 79.25c-1.67-6.81-10.16-10.06-20.78-11.12C62.24 66.87 53.41 68 45.73 72.59 45.28 72.86 45 73.35 45 73.87v3.87c0 0.51 0.21 0.99 0.58 1.34l3.6 3.4c-0.05-2.41 1.05-5.04 3.94-7.36 2.64-2.11 11-2.97 20.31-2.8 9.91 0.19 15.12 1.75 20.32 6.6L95.64 79.25z" fill="#000000" stroke-width="none" opacity="1"></path><path id="SvgjsPath4787" d="M154.04 77.3c-0.14-3.26-0.6-3.52-1.98-4.41 0 0-1.23-0.83-2.92-1.57 -2.31-1.03-3.17-1.34-4.92-1.91 2.67 0.52 9.19 2.52 9.76 5.16C154.19 75.43 154.12 76.41 154.04 77.3zM125.95 68.67c-7.38 0.84-15.72 2.28-19.97 8.35C110.43 71.69 117.37 70.45 125.95 68.67zM47.93 72.88c1.24-0.83 2.92-1.57 2.92-1.57 2.95-1.32 4-1.61 4.92-1.91 -1.68 0.32-3.38 0.74-5.1 1.51 -4.97 2.2-4.98 3.34-4.71 6.38C46.1 73.84 46.7 73.69 47.93 72.88zM74.05 68.67c9.17 1.91 12.03 2.63 16.29 5.07 2.3 1.55 2.69 2.1 3.68 3.29C89.77 70.94 81.48 69.51 74.05 68.67z" fill="#4d4d4d" stroke-width="none" opacity="1"></path></g></g></g><rect id="SvgjsRect4447" width="200" height="15" x="0" y="185" fill="#ecf0f1" opacity="0.5" style="display:none;"></rect><text id="SvgjsText4448" font-family="&quot;Roboto&quot;, &quot;Helvetica Neue&quot;, Helvetica, Arial, sans-serif" style="font-size:0.84em;font-family:&quot;Roboto&quot;, &quot;Helvetica Neue&quot;, Helvetica, Arial, sans-serif;text-anchor:middle;font-weight:400;display:none;" font-size="0.84em" text-anchor="middle" font-weight="400" fill="#000000" x="100" y="185"><tspan id="SvgjsTspan4449" dy="1.2em" x="100" style="font-size:0.84em;font-family:&quot;Roboto&quot;, &quot;Helvetica Neue&quot;, Helvetica, Arial, sans-serif;text-anchor:middle;font-weight:400;">Created on todream.eu</tspan></text></g><defs id="SvgjsDefs4415"><radialGradient id="SvgjsRadialGradient4463" cx="100" cy="113" r="40" gradientUnits="userSpaceOnUse" class="svga-on-canvas-facehighlight-gradient-single-0"><stop id="SvgjsStop4464" stop-opacity="0.5" stop-color="#a27662" offset="0" ></stop><stop id="SvgjsStop4465" stop-opacity="0" stop-color="#93614a" offset="0.9" ></stop></radialGradient><radialGradient id="SvgjsRadialGradient4467" cx="100" cy="57" r="36" gradientUnits="userSpaceOnUse" class="svga-on-canvas-facehighlight-gradient-single-1"><stop id="SvgjsStop4468" stop-opacity="0.5" stop-color="#a27662" offset="0" ></stop><stop id="SvgjsStop4469" stop-opacity="0" stop-color="#93614a" offset="0.9" ></stop></radialGradient><radialGradient id="SvgjsRadialGradient4548" cx="-558.588" cy="-490.918" r="84.646" gradientTransform="matrix(0.096 -0.0248 0.0245 0.0961 140.5478 120.3577)" gradientUnits="userSpaceOnUse" class="svga-on-canvas-eyesiris-gradient-left-1"><stop id="SvgjsStop4549" stop-opacity="0.8" stop-color="#ffffff" offset="0" ></stop><stop id="SvgjsStop4550" stop-opacity="0" stop-color="#ffffff" offset="1" ></stop></radialGradient><radialGradient id="SvgjsRadialGradient4552" cx="-565.337" cy="-492.691" r="84.644" gradientTransform="matrix(0.0991 8.856325e-004 -0.0011 0.0991 130.3774 136.3533)" gradientUnits="userSpaceOnUse" class="svga-on-canvas-eyesiris-gradient-left-2"><stop id="SvgjsStop4553" stop-opacity="0.8" stop-color="#ffffff" offset="0" ></stop><stop id="SvgjsStop4554" stop-opacity="0" stop-color="#ffffff" offset="1" ></stop></radialGradient><linearGradient id="SvgjsLinearGradient4558" x1="122.283" y1="93.047" x2="123.61" y2="91.466" gradientTransform="matrix(1 0 0 1 -52 0)" gradientUnits="userSpaceOnUse" class="svga-on-canvas-eyesiris-gradient-left-5"><stop id="SvgjsStop4559" stop-opacity="1" stop-color="#ffffff" offset="0" ></stop><stop id="SvgjsStop4560" stop-opacity="0" stop-color="#ffffff" offset="1" ></stop></linearGradient><linearGradient id="SvgjsLinearGradient4562" x1="127" y1="85" x2="125" y2="87" gradientTransform="matrix(1 0 0 1 -50 0)" gradientUnits="userSpaceOnUse" class="svga-on-canvas-eyesiris-gradient-left-6"><stop id="SvgjsStop4563" stop-opacity="1" stop-color="#ffffff" offset="0" ></stop><stop id="SvgjsStop4564" stop-opacity="0" stop-color="#ffffff" offset="1" ></stop></linearGradient><linearGradient id="SvgjsLinearGradient4566" x1="130" y1="81" x2="126" y2="85" gradientTransform="matrix(1 0 0 1 -50 0)" gradientUnits="userSpaceOnUse" class="svga-on-canvas-eyesiris-gradient-left-7"><stop id="SvgjsStop4567" stop-opacity="1" stop-color="#ffffff" offset="0" ></stop><stop id="SvgjsStop4568" stop-opacity="0" stop-color="#ffffff" offset="1" ></stop></linearGradient><radialGradient id="SvgjsRadialGradient4571" cx="-578.76" cy="-490.73" r="84.646" gradientTransform="matrix(0.096 -0.0248 0.0245 0.0961 192.4794 119.8404)" gradientUnits="userSpaceOnUse" class="svga-on-canvas-eyesiris-gradient-right-1"><stop id="SvgjsStop4572" stop-opacity="0.8" stop-color="#ffffff" offset="0" ></stop><stop id="SvgjsStop4573" stop-opacity="0" stop-color="#ffffff" offset="1" ></stop></radialGradient><radialGradient id="SvgjsRadialGradient4575" cx="-584.778" cy="-487.329" r="84.644" gradientTransform="matrix(0.0991 8.856325e-004 -0.0011 0.0991 182.3104 135.839)" gradientUnits="userSpaceOnUse" class="svga-on-canvas-eyesiris-gradient-right-2"><stop id="SvgjsStop4576" stop-opacity="0.8" stop-color="#ffffff" offset="0" ></stop><stop id="SvgjsStop4577" stop-opacity="0" stop-color="#ffffff" offset="1" ></stop></radialGradient><linearGradient id="SvgjsLinearGradient4581" x1="120.284" y1="93.047" x2="121.611" y2="91.467" gradientUnits="userSpaceOnUse" class="svga-on-canvas-eyesiris-gradient-right-5"><stop id="SvgjsStop4582" stop-opacity="1" stop-color="#ffffff" offset="0" ></stop><stop id="SvgjsStop4583" stop-opacity="0" stop-color="#ffffff" offset="1" ></stop></linearGradient><linearGradient id="SvgjsLinearGradient4585" x1="127" y1="85" x2="125" y2="87" gradientUnits="userSpaceOnUse" class="svga-on-canvas-eyesiris-gradient-right-6"><stop id="SvgjsStop4586" stop-opacity="1" stop-color="#ffffff" offset="0" ></stop><stop id="SvgjsStop4587" stop-opacity="0" stop-color="#ffffff" offset="1" ></stop></linearGradient><linearGradient id="SvgjsLinearGradient4589" x1="130" y1="81" x2="126" y2="85" gradientUnits="userSpaceOnUse" class="svga-on-canvas-eyesiris-gradient-right-7"><stop id="SvgjsStop4590" stop-opacity="1" stop-color="#ffffff" offset="0" ></stop><stop id="SvgjsStop4591" stop-opacity="0" stop-color="#ffffff" offset="1" ></stop></linearGradient><radialGradient id="SvgjsRadialGradient4654" cx="125.187" cy="87.442" r="12.841" gradientTransform="matrix(-1.0592 3.999999e-004 -4.000000e-004 1.0589 206.5114 -6.1261)" gradientUnits="userSpaceOnUse" class="svga-on-canvas-eyesback-gradient-left-0"><stop id="SvgjsStop4655" stop-opacity="1" stop-color="#ffffff" offset="0" ></stop><stop id="SvgjsStop4656" stop-opacity="1" stop-color="#fdfefe" offset="0.544" ></stop><stop id="SvgjsStop4657" stop-opacity="1" stop-color="#f6f8f9" offset="0.74" ></stop><stop id="SvgjsStop4658" stop-opacity="1" stop-color="#eaeff2" offset="0.879" ></stop><stop id="SvgjsStop4659" stop-opacity="1" stop-color="#d9e3e8" offset="0.992" ></stop><stop id="SvgjsStop4660" stop-opacity="1" stop-color="#d8e2e7" offset="1" ></stop></radialGradient><radialGradient id="SvgjsRadialGradient4662" cx="125.187" cy="87.442" r="12.841" gradientTransform="matrix(1.0592 4.000000e-004 4.000000e-004 1.0589 -6.5114 -6.1261)" gradientUnits="userSpaceOnUse" class="svga-on-canvas-eyesback-gradient-right-0"><stop id="SvgjsStop4663" stop-opacity="1" stop-color="#ffffff" offset="0" ></stop><stop id="SvgjsStop4664" stop-opacity="1" stop-color="#fdfefe" offset="0.544" ></stop><stop id="SvgjsStop4665" stop-opacity="1" stop-color="#f6f8f9" offset="0.74" ></stop><stop id="SvgjsStop4666" stop-opacity="1" stop-color="#eaeff2" offset="0.879" ></stop><stop id="SvgjsStop4667" stop-opacity="1" stop-color="#d9e3e8" offset="0.992" ></stop><stop id="SvgjsStop4668" stop-opacity="1" stop-color="#d8e2e7" offset="1" ></stop></radialGradient><radialGradient id="SvgjsRadialGradient4670" cx="125.187" cy="87.442" r="12.841" gradientTransform="matrix(-1.0592 3.999999e-004 -4.000000e-004 1.0589 206.5114 -6.1261)" gradientUnits="userSpaceOnUse" class="svga-on-canvas-eyesfront-gradient-left-0"><stop id="SvgjsStop4671" stop-opacity="1" stop-color="#ffffff" offset="0" ></stop><stop id="SvgjsStop4672" stop-opacity="1" stop-color="#fdfefe" offset="0.544" ></stop><stop id="SvgjsStop4673" stop-opacity="1" stop-color="#f6f8f9" offset="0.74" ></stop><stop id="SvgjsStop4674" stop-opacity="1" stop-color="#eaeff2" offset="0.879" ></stop><stop id="SvgjsStop4675" stop-opacity="1" stop-color="#d9e3e8" offset="0.992" ></stop><stop id="SvgjsStop4676" stop-opacity="1" stop-color="#d8e2e7" offset="1" ></stop></radialGradient><radialGradient id="SvgjsRadialGradient4680" cx="123.519" cy="84.391" fx="136.103" fy="84.426" r="17.898" gradientTransform="matrix(0.9998 0.0208 0.0166 -0.7998 -48.4152 149.3183)" gradientUnits="userSpaceOnUse" class="svga-on-canvas-eyesfront-gradient-left-3"><stop id="SvgjsStop4681" stop-opacity="1" stop-color="#844e35" offset="0" ></stop><stop id="SvgjsStop4682" stop-opacity="0.3" stop-color="#844e35" offset="0.7" ></stop><stop id="SvgjsStop4683" stop-opacity="0" stop-color="#93614a" offset="1" ></stop></radialGradient><radialGradient id="SvgjsRadialGradient4685" cx="81.644" cy="80.739" r="21.259" gradientTransform="matrix(0.6987 -0.0371 0.0367 0.7092 13.8647 40.0943)" gradientUnits="userSpaceOnUse" class="svga-on-canvas-eyesfront-gradient-left-4"><stop id="SvgjsStop4686" stop-opacity="0" stop-color="#000000" offset="0.9" ></stop><stop id="SvgjsStop4687" stop-opacity="0.3" stop-color="#000000" offset="1" ></stop></radialGradient><radialGradient id="SvgjsRadialGradient4691" cx="125.187" cy="87.442" r="12.841" gradientTransform="matrix(1.0592 4.000000e-004 4.000000e-004 1.0589 -6.5114 -6.1261)" gradientUnits="userSpaceOnUse" class="svga-on-canvas-eyesfront-gradient-right-0"><stop id="SvgjsStop4692" stop-opacity="1" stop-color="#ffffff" offset="0" ></stop><stop id="SvgjsStop4693" stop-opacity="1" stop-color="#fdfefe" offset="0.544" ></stop><stop id="SvgjsStop4694" stop-opacity="1" stop-color="#f6f8f9" offset="0.74" ></stop><stop id="SvgjsStop4695" stop-opacity="1" stop-color="#eaeff2" offset="0.879" ></stop><stop id="SvgjsStop4696" stop-opacity="1" stop-color="#d9e3e8" offset="0.992" ></stop><stop id="SvgjsStop4697" stop-opacity="1" stop-color="#d8e2e7" offset="1" ></stop></radialGradient><radialGradient id="SvgjsRadialGradient4701" cx="123.519" cy="84.391" fx="136.103" fy="84.426" r="17.898" gradientTransform="matrix(-0.9998 0.0208 -0.0166 -0.7998 248.4152 149.3183)" gradientUnits="userSpaceOnUse" class="svga-on-canvas-eyesfront-gradient-right-3"><stop id="SvgjsStop4702" stop-opacity="1" stop-color="#844e35" offset="0" ></stop><stop id="SvgjsStop4703" stop-opacity="0.3" stop-color="#844e35" offset="0.7" ></stop><stop id="SvgjsStop4704" stop-opacity="0" stop-color="#93614a" offset="1" ></stop></radialGradient><radialGradient id="SvgjsRadialGradient4706" cx="81.644" cy="80.739" r="21.259" gradientTransform="matrix(-0.6987 -0.0371 -0.0367 0.7092 186.1353 40.0943)" gradientUnits="userSpaceOnUse" class="svga-on-canvas-eyesfront-gradient-right-4"><stop id="SvgjsStop4707" stop-opacity="0" stop-color="#000000" offset="0.9" ></stop><stop id="SvgjsStop4708" stop-opacity="0.3" stop-color="#000000" offset="1" ></stop></radialGradient><linearGradient id="SvgjsLinearGradient4728" x1="100" y1="143" x2="100" y2="140" gradientUnits="userSpaceOnUse" class="svga-on-canvas-mouth-gradient-single-0"><stop id="SvgjsStop4729" stop-opacity="1" stop-color="#8b573f" offset="0.1" ></stop><stop id="SvgjsStop4730" stop-opacity="1" stop-color="#844e35" offset="1" ></stop></linearGradient><linearGradient id="SvgjsLinearGradient4757" x1="99.98" y1="171.27" x2="99.98" y2="136.351" gradientUnits="userSpaceOnUse" class="svga-on-canvas-chinshadow-gradient-single-0"><stop id="SvgjsStop4758" stop-opacity="0.8" stop-color="#844e35" offset="0" ></stop><stop id="SvgjsStop4759" stop-opacity="1" stop-color="#652e15" offset="0.7" ></stop></linearGradient><linearGradient id="SvgjsLinearGradient4775" x1="100" y1="110" x2="100" y2="73" gradientUnits="userSpaceOnUse" class="svga-on-canvas-glasses-gradient-single-0"><stop id="SvgjsStop4776" stop-opacity="0.6" stop-color="#151124" offset="0" ></stop><stop id="SvgjsStop4777" stop-opacity="1" stop-color="#151124" offset="1" ></stop></linearGradient></defs></svg>