<svg xmlns="http://www.w3.org/2000/svg" version="1.1" width="600px" height="600px" xlink="http://www.w3.org/1999/xlink" style="overflow:hidden!important;"><g id="svga-group-wrapper" transform="scale(3 3)"><g id="svga-group-backs-single"></g><g id="svga-group-subwrapper" ><g id="svga-group-hair-back" ><path id="SvgjsPath17293" d="M41.279 215.266c-0.033-0.044-0.063-0.094-0.095-0.14 3.872-1.418 107.984 7.4 115.031 6.323 -0.001 0.108-0.007 0.217-0.007 0.325 0.282-0.064 0.24-0.075 0.254-0.359 0.259-0.032 1.051-0.167 0.027-0.457 3.485-63.467 43.554-53.333 20.529-111.343 -5.448-13.536-5.042-26.26-6.357-42.117 -1.84 1.797-1.238 11.106-3.489 28.325 17.078 53.526 2.414 51.246-11.503 76.872 -4.604 8.467-8.295 17.095-9.091 26.65 -22.673-39.208-16.05-38.328-6.981-62.078 -1.56 2.201-7.898 6.916-13.709 8.025 14.211-10.797 22.683-10.831 22.98-76.708 -13.031-6.03-24.886-17.239-32.2-29.8 -9.476 19.65-26.281 27.875-47.75 31.14 -5.35 2.72-10.92 5-16.55 7.08 -0.476 27.679 6.753 46.579 21.26 66.64 -5.091-3.645-10.294-9.649-13.96-14.758 4.4 8.811 10.944 16.104 9.16 31.867 -1.972 17.313-18.629 29.105-18.629 51.372 -16.264-25.388-21.752-14.633-17.979-42.312 -6.177-10.806-9.18-18.142-11.68-25.979 -0.605-0.005-1.578 0.138-2.133 0.204C11.333 170.695 21.465 190.498 41.279 215.266z" fill="#cfb89a" stroke-width="none" opacity="1" stroke="none"></path><path id="SvgjsPath17294" d="M142.489 227.847h-90V97.24h90V227.847z" fill="#bfa27c" stroke-width="none" opacity="1" stroke="none"></path><path id="SvgjsPath17295" d="M156.49 220.958c3.485-63.467 43.554-53.333 20.529-111.343 -4.317-10.726-4.958-20.946-5.692-32.615 -0.213 0-0.427 0-0.641 0 0.342 11.384 0.54 21.512 3.883 31.266 20.946 61.4-17.667 48.849-18.343 112.635 -4.423-0.602-111.114-7.244-115.042-5.775 -14.061-20.667-24.449-40.831-22.283-63.372 -0.668-0.594-1.228-1.297-1.759-2.028 -4.286 23.862 5.757 42.566 24.137 65.541 -0.033-0.044-0.063-0.094-0.095-0.14 3.872-1.418 107.984 7.4 115.031 6.323 -0.001 0.108-0.007 0.217-0.007 0.325 0.282-0.064 0.24-0.075 0.254-0.359C156.722 221.383 157.514 221.248 156.49 220.958z" fill="#b08d60" stroke-width="none" opacity="1" stroke="none"></path></g><g id="svga-group-humanbody-single"><path id="SvgjsPath17135" d="M190.858 199.866c-6.008-10.158-13.474-11.973-19.628-13.936 -6.323-2.016-19.346-3.178-26.449-4.6 -6.86-1.373-23.153-5.789-23.339-13.488 -0.192-8.066 4.291-40.09 4.291-40.09H74.005c0 0 4.487 32.023 4.294 40.09 -0.184 7.699-16.48 12.115-23.341 13.488 -7.104 1.422-20.125 2.584-26.448 4.6 -6.156 1.963-13.624 3.777-19.632 13.936 -3.644 6.16-6.008 16.133-6.008 27.133h194C196.869 215.999 194.509 206.026 190.858 199.866z" fill="#f5af95" stroke-width="none" opacity="1" stroke="none"></path><path id="SvgjsPath17136" d="M121.442 167.843c2.495 10.929 18.165 13.698 26.293 15.325 21.909 4.379 33.772 5.134 42.297 19.539 2.903 4.916 5.459 15.864 5.962 24.153 1.835 0.291 0.531-17.432-5.136-26.994 -9.742-16.472-29.089-15.135-46.077-18.535C137.921 179.958 121.628 175.542 121.442 167.843L121.442 167.843zM78.558 167.843c-0.186 7.699-16.479 12.115-23.339 13.488 -16.988 3.4-36.335 2.063-46.077 18.535 -5.667 9.563-6.971 27.285-5.136 26.994 0.503-8.289 3.059-19.237 5.962-24.153 8.524-14.405 20.388-15.16 42.297-19.539C60.393 181.541 76.063 178.771 78.558 167.843L78.558 167.843z" fill="#ffc9b5" stroke-width="none" opacity="1" stroke="none"></path><path id="SvgjsPath17137" d="M51.206 189.513c0 0 28.641 0.299 33.473 1.885 2.314 0.758 8.372 5.633 8.372 5.633s-6.556-3.17-8.658-3.758C79.51 191.909 51.206 189.513 51.206 189.513zM99.795 199.999c2.053-0.041 7.887-3.799 7.887-3.799s-5.574 2.059-7.342 2.16c-1.491 0.086-6.366-1.238-6.366-1.238S98.112 200.032 99.795 199.999zM117.008 192.757c6.75-1.818 29.786-3.23 29.786-3.23s-23.791-0.516-30.51 1.725c-2.252 0.752-7.562 5.16-7.562 5.16S114.786 193.354 117.008 192.757z" fill="#e69375" stroke-width="none" opacity="1" stroke="none"></path><path id="SvgjsPath17138" d="M190.858 199.866c-9.741-16.471-29.122-15.142-46.077-18.535 -6.86-1.373-23.153-5.789-23.339-13.488 -0.192-8.066 4.291-40.09 4.291-40.09H74.005c0 0 4.487 32.023 4.294 40.09 -0.184 7.699-16.48 12.115-23.341 13.488 -7.104 1.422-20.125 2.584-26.448 4.6 -6.156 1.963-13.624 3.777-19.632 13.936 -3.644 6.16-6.008 16.133-6.008 27.133h194C196.869 215.999 194.509 206.026 190.858 199.866z" fill="none" stroke="#c7633d" stroke-width="1.5" opacity="1"></path></g><g id="svga-group-chinshadow-single"><path id="SvgjsPath17411" d="M90.469 169.769c4.474 1.646 14.594 1.646 19.067 0 3.511-1.291 7.479-4.019 11.489-7.484 0.785-10.522 3.279-28.936 3.919-33.578 -1.113-0.109-2.256-0.21-3.428-0.303H78.609c-1.305 0.103-2.578 0.216-3.811 0.339 0.643 4.663 3.096 22.765 3.899 33.297C82.804 165.622 86.875 168.447 90.469 169.769z" fill="url(#SvgjsLinearGradient17412)" opacity="1"></path></g><g id="svga-group-clothes-single" ><path id="SvgjsPath17396" d="M-4.807 234.6c1.472-10.806-0.208-11.777 4.116-33.015 1.228-7.384 2.66-13.32 8.141-10.607 4.045-6.008 15.513-6.566 57.339-20.658v-0.258c0.278-1.001 2.706-4.267 3.099-9.897 0.383-5.449 2.718-9.56 5.614-11.604 -6.746 23.685 23.144 14.953 24.208 31.108 0.084 1.273-0.974 10.149-0.813 10.969 3.355-0.679 6.721-0.684 10.359-0.645 -3.928-15.24-0.545-16.872 7.344-19.838 9.564-3.591 12.873-7.169 12.01-20.697 4.57 4.109 1.516 9.7 7.174 17.534 36.249 13.159 50.02 16.863 56.963 21.507 5.981-4.517 9.697 2.65 17.292 46.103C136.218 235.212 54.269 235.12-4.807 234.6z" fill="#335529" stroke-width="none" opacity="1" stroke="none"></path><path id="SvgjsPath17397" d="M92.119 197.235c0.304-0.029 3.375-5.505 3.375-5.505 5.764-2.145 18.375 2.005 34.019-10.176C117.994 199.61 97.143 186.737 92.119 197.235zM70.115 179.378c8.754 10.018 23.629 13.732 26.773 10.686C96.885 190.135 79.619 189.396 70.115 179.378z" fill="#24461b" stroke-width="none" opacity="1" stroke="none"></path><path id="SvgjsPath17398" d="M73.607 149.423c0 0 0.705 6.944 0.82 11.739C72.326 156.482 71.897 155.232 73.607 149.423z" fill="#18360f" stroke-width="none" opacity="1" stroke="none"></path><path id="SvgjsPath17399" d="M4.781 194.15C0 207.902-0.398 222.744-3.298 234.612c-0.693-0.006-0.823 0.293-1.509 0.287 1.472-10.806-0.208-12.355 4.116-33.593 1.228-7.384 2.66-13.32 8.141-10.607 4.045-6.008 15.513-6.566 57.339-20.658v-0.258c0.278-1.001 2.706-4.267 3.099-9.897 0.345-4.904 2.622-9.431 5.25-11.325 -5.936 6.453-1.918 18.345-8.092 22.976C53.103 178.967 18.588 187.846 4.781 194.15zM190.747 188.499c-6.943-4.644-20.714-8.348-56.963-21.507 -5.658-7.834-2.604-13.425-7.174-17.534 0.063 1.001-0.018 0.613 0 1.51 2.161-0.43 2.695 15.819 7.443 18.193 19 9 45.261 17.317 59.521 22.632 6.636 10.021 8.157 26.964 13.401 42.817 1.067-0.009 0 0 1.063-0.009C200.444 191.149 196.729 183.982 190.747 188.499zM125.992 162.465c-7.33 12.798-21.646 4.662-20.242 19.81C108.488 167.635 121.171 175.921 125.992 162.465zM97.372 184.295c2.628-16.491-15.517-13.785-23.633-23.296C78.812 171.409 95.553 168.227 97.372 184.295z" fill="#44643a" stroke-width="none" opacity="1" stroke="none"></path><path id="SvgjsPath17400" d="M196.139 187.915c-1.581-1.609-3.779-1.259-5.409-0.029 -7.133-4.756-26.235-9.496-56.63-21.609 0 0-2.289-2.963-3.469-8.017 -0.783-3.353-0.308-7.087-4.192-9.838 -0.749 9.286-0.411 16.736-9.51 20.304 -8.959 3.582-14.71 3.744-10.319 20.76 -2.301-0.026-6.457-0.018-9.318 0.563 -0.058-0.295 1.027-8.769 0.918-10.412 -1.014-15.376-28.515-9.625-24.93-27.551 0.33-1.649 0.454-2.542 0.187-3.81 -3.67 1.92-5.337 6.074-5.847 9.51 -0.556 3.889 0.319 4.852-3.32 12.13 0 0.011-0.01 0.021-0.01 0.03 -0.17 0.05-0.35 0.11-0.53 0.17 -41.434 13.791-52.827 14.785-56.48 20.22 -5.931-2.941-7.458 5.121-8.46 11.15 -4.398 21.597-2.602 22.344-4.2 33.61 1 0 109.661 0.96 212.96 0.01 0.36 0 0.71-0.01 1.06-0.01C208.319 233.75 202.222 193.853 196.139 187.915zM117.52 170.155c9.877-4.015 9.506-9.654 9.367-19.766 3.437 1.52 0.914 8.914 6.792 16.516 0 4.854-1.267 9.955-4.229 13.46 -5.51 6.101-14.719 9.317-22.23 9.13C104.685 173.337 107.914 174.091 117.52 170.155zM68.349 159.005c0.062-2.714 2.16-8.263 4.9-10.1 -8.723 23.076 22.427 15.489 23.73 31.92 0.027 0.457-0.38 8.333-0.39 8.84 -16.104-1.896-23.674-5.555-31.64-19.189 0.02-0.04 0.04-0.08 0.06-0.12 0.01 0.01 0.01 0 0.01 0C67.547 165.299 68.017 164.151 68.349 159.005zM-4.591 234.455c1.436-5.179 1.375-14.908 4.04-28.63 1.58-7.847 1.629-17.345 7.48-15.03 0.02 0 0.03 0.011 0.04 0.011 3.516 8.49 11.016 31.499 11.33 32.5 0.155 0.456 2.074 8.248 2.56 9.89 -2.124-16.99-11.493-39.731-12.99-42.14 4.051-4.15 3.094-2.325 35.92-12.7 7.099-2.245 19.409-7.106 20.27-7.601 9.185 19.855 28.548 19.105 32.33 19.521 -11.02 3.397-4.729 31.249-3.77 40.96 -0.163-7.896-3.465-29.31 1.25-36.84 0 0 0.648-1.301 3.14-2.38 6.946-2.627 15.325 2.951 29.95-7.34 4.758-4.518 7.13-7.39 7.13-17.53 24.029 11.337 46.962 16.747 56.11 21.7 -0.013 0.081-0.05 0.414-0.05 0.42 -1.544 13.248 1.243-1.169-4.4 28.689 -1.47 8.541-0.406 5.667-1.13 13.28 1.481-7.851-0.067-3.756 2.12-13.12 4.586-19.338 3.858-22.946 4.16-29.39 3.326-2.396 5.107 0.213 6.399 3.96 4.836 14.695 7.982 34.133 10.09 41.76C141.558 233.843 61.242 233.874-4.591 234.455zM107.847 202.681c-3.239 1.259-7.306 0.944-10.905 0.433C103.167 202.238 107.208 202.645 107.847 202.681z" fill="#0e2707" stroke-width="none" opacity="1" stroke="none"></path></g><g id="svga-group-head" ><g id="svga-group-ears-left" style="display:none;"><path id="SvgjsPath17391" d="M47.69 82.611c-1.588-2.324-8.025-7.659-11.703-6.839 -4.355 0.971-5.708 4.275-5.603 6.332 0.606 11.758 4.426 11.749 6.71 16.271 1.709 3.383 3.126 4.933 4.172 11.692 0.598 3.866 4.427 6.83 7.217 6.684 3.908-0.205 6.994-3.634 8.291-7.014C59.463 102.718 51.823 88.658 47.69 82.611z" fill="#f5af95" stroke="#c7633d" stroke-width="1.5" opacity="1"></path><path id="SvgjsPath17392" d="M43.274 99.484c-0.15-0.542-0.062-1.474 0.024-2.376 0.077-0.821 1.438-3.801 1.348-4.341 -0.344-2.022-1.931-5.809-2.949-7.853 -1.169-2.35-3.604-5.289-5.79-5.943 -0.904-0.271-3.479 0.039-3.781 0.625 -1.131 2.191-0.615 4.313 1.1 9.984 0.85 2.809 3.915 6.069 3.998 6.395 1.067 4.247 5.099 11.032 6.488 12.554 0.256 0.281 0.519 0.442 0.579 0.367 0.059-0.075-0.104-0.359-0.361-0.642 -1.372-1.513-5.367-8.282-6.396-12.38 -1.092-4.347 2.313-11.094 2.93-12.516 0.379 0.627 0.703 1.233 0.954 1.738 0.198 0.397 0.417 0.861 0.645 1.364 -0.367 0.744-4.245 6.226-3.026 10.371 0.451 1.528 2.054 4.491 3.432 6.049 0.483 0.546 0.893 0.702 1.19 1.207 0.341 0.586 0.732 1.251 1.792 1.687 0.215 0.089 0.408 0.118 0.577 0.108 0.293-0.019 0.51-0.157 0.667-0.318 0.029 0.265 0.044 0.604 0.051 0.919 0.007 0.404 0.073 0.735 0.162 0.738s0.168-0.325 0.161-0.729c-0.009-0.497-0.04-1.113-0.132-1.403 -0.273-0.854-1.028-1.791-1.829-2.781C44.319 101.332 43.505 100.323 43.274 99.484zM36.96 93.913c-2.347-6.628-1.518-13.365-1.103-14.318 1.345 0 3.778 2.439 4.397 3.42C39.874 83.854 36.837 89.368 36.96 93.913zM45.559 105.428c-0.961-0.395-1.303-0.979-1.635-1.545 -0.299-0.513-1.018-1-1.346-1.348 -0.191-0.204-0.531-0.75-0.715-0.872 -1.762-7.438 1.345-10.152 1.967-10.722 0.231 0.712 0.411 1.368 0.5 1.896 0.082 0.485-1.28 3.474-1.352 4.231 -0.089 0.939-0.182 1.911-0.012 2.526 0.253 0.917 1.093 1.955 1.904 2.96 0.72 0.892 1.459 1.811 1.732 2.581C46.509 105.299 46.204 105.692 45.559 105.428z" fill="#c7633d" stroke-width="none" opacity="1" stroke="none"></path></g><g id="svga-group-ears-right" style="display:none;"><path id="SvgjsPath17393" d="M152.049 82.611c1.588-2.324 8.025-7.659 11.701-6.839 4.357 0.971 5.709 4.275 5.604 6.332 -0.605 11.758-4.426 11.749-6.709 16.271 -1.711 3.383-3.127 4.933-4.174 11.692 -0.598 3.866-4.428 6.83-7.217 6.684 -3.908-0.205-6.994-3.634-8.291-7.014C140.275 102.718 147.916 88.658 152.049 82.611z" fill="#f5af95" stroke="#c7633d" stroke-width="1.5" opacity="1"></path><path id="SvgjsPath17394" d="M154.633 102.307c-0.801 0.99-1.557 1.928-1.83 2.781 -0.092 0.29-0.123 0.906-0.131 1.403 -0.008 0.404 0.072 0.732 0.16 0.729 0.09-0.003 0.154-0.334 0.162-0.738 0.008-0.315 0.021-0.654 0.051-0.919 0.156 0.161 0.373 0.3 0.666 0.318 0.17 0.01 0.361-0.02 0.578-0.108 1.061-0.436 1.449-1.101 1.791-1.687 0.297-0.505 0.709-0.66 1.191-1.207 1.377-1.559 2.98-4.521 3.432-6.049 1.219-4.145-2.66-9.627-3.027-10.371 0.229-0.503 0.447-0.967 0.645-1.364 0.252-0.505 0.576-1.111 0.955-1.738 0.617 1.421 4.021 8.168 2.93 12.516 -1.029 4.098-5.025 10.868-6.396 12.38 -0.256 0.282-0.42 0.566-0.361 0.642 0.061 0.075 0.322-0.086 0.578-0.367 1.391-1.521 5.422-8.307 6.49-12.554 0.082-0.326 3.146-3.586 3.996-6.395 1.715-5.671 2.232-7.793 1.102-9.984 -0.303-0.586-2.877-0.896-3.783-0.625 -2.186 0.655-4.619 3.594-5.789 5.943 -1.018 2.044-2.605 5.831-2.949 7.853 -0.09 0.54 1.271 3.52 1.348 4.341 0.086 0.902 0.176 1.834 0.025 2.376C156.232 100.323 155.42 101.332 154.633 102.307zM159.484 83.016c0.619-0.981 3.053-3.42 4.396-3.42 0.416 0.953 1.244 7.689-1.104 14.318C162.902 89.368 159.863 83.854 159.484 83.016zM153.137 105.137c0.273-0.771 1.012-1.689 1.732-2.581 0.811-1.005 1.65-2.044 1.904-2.96 0.168-0.616 0.076-1.587-0.014-2.526 -0.07-0.758-1.434-3.746-1.352-4.231 0.09-0.528 0.27-1.184 0.5-1.896 0.623 0.569 3.729 3.284 1.967 10.722 -0.184 0.122-0.523 0.668-0.715 0.872 -0.328 0.348-1.047 0.834-1.346 1.348 -0.332 0.565-0.674 1.15-1.635 1.545C153.533 105.692 153.23 105.299 153.137 105.137z" fill="#c7633d" stroke-width="none" opacity="1" stroke="none"></path></g><g id="svga-group-faceshape-wrap" ><g id="svga-group-faceshape-single" ><path id="SvgjsPath17408" d="M144.004 125.052c-6.87 10.737-23.072 30.026-34.468 34.218 -4.474 1.646-14.594 1.646-19.067 0 -11.396-4.192-27.596-23.481-34.467-34.218 -6.753-10.551-14.852-47.803-14.863-47.856 -1.3-4.912-1.996-10.066-2.004-15.382C39.082 28.339 66.289 1.168 99.907 1.116c33.621-0.052 60.913 27.032 60.963 60.506 0.009 5.316-0.669 10.473-1.952 15.389C158.901 77.063 150.78 114.46 144.004 125.052z" fill="#f5af95" stroke-width="none" opacity="1"></path><path id="SvgjsPath17409" d="M110.152 1.969c26.994 6.24 47.097 30.337 47.052 59.111 -0.009 5.315-0.704 10.471-2.004 15.382 -0.012 0.053-7.377 37.307-14.13 47.856 -6.872 10.735-22.339 29.292-33.734 33.484 -1.476 0.544-5.027 1.092-7.334 1.092 -2.307 0-5.857-0.548-7.333-1.092 -11.396-4.192-26.863-22.749-33.734-33.484 -6.753-10.55-14.119-47.803-14.13-47.856 -1.3-4.911-1.996-10.066-2.004-15.382C42.756 32.307 62.857 8.209 89.853 1.969 61.03 6.788 39.087 31.751 39.134 61.813c0.008 5.315 0.704 10.47 2.004 15.382 0.012 0.053 8.11 37.306 14.863 47.856 6.871 10.736 23.072 30.025 34.467 34.218 2.239 0.824 5.889 1.235 9.537 1.232 3.646 0.001 7.292-0.408 9.53-1.232 11.396-4.192 27.596-23.481 34.468-34.218 6.753-10.551 14.852-47.803 14.862-47.856 1.3-4.912 1.996-10.066 2.004-15.382C160.918 31.751 138.975 6.788 110.152 1.969z" fill="#eda184" stroke-width="none" opacity="1"></path><path id="SvgjsPath17410" d="M144.004 125.052c-6.87 10.737-23.072 30.026-34.468 34.218 -4.474 1.646-14.594 1.646-19.067 0 -11.396-4.192-27.596-23.481-34.467-34.218 -6.753-10.551-14.852-47.803-14.863-47.856 -1.3-4.912-1.996-10.066-2.004-15.382C39.082 28.339 66.289 1.168 99.907 1.116c33.621-0.052 60.913 27.032 60.963 60.506 0.009 5.316-0.669 10.473-1.952 15.389C158.901 77.063 150.78 114.46 144.004 125.052z" fill="none" stroke="#c7633d" stroke-width="1.5" opacity="1"></path></g></g><g id="svga-group-mouth-single" ><path id="SvgjsPath17381" d="M99.867 142.685c-4.159 0-7.651-3.162-7.651-3.162 7.261 1.131 16.154-0.671 16.154-0.671S105.119 142.685 99.867 142.685z" fill="#e69375" stroke-width="none" opacity="1" stroke="none"></path><path id="SvgjsPath17382" d="M99.869 138.507c-2.691 0.025-8.86-1.635-11.18-2.938 -1.374-0.769-3.749-3.433-5.4-4.788 -0.635-0.521-0.371-1.528 0.466-1.569 2.036-0.099 4.65 0.979 5.876 1.169 2.565 0.389 5.805 1.835 10.195 1.835 3.262 0 6.828-1.15 9.101-1.574 1.367-0.254 4.529-1.376 6.755-1.501 0.838-0.05 1.18 0.777 0.56 1.316 -1.739 1.526-4.526 4.328-6.028 5.112C107.783 136.837 102.294 138.485 99.869 138.507z" fill="#000000" stroke-width="none" opacity="0.5"></path><path id="SvgjsPath17383" d="M86.859 129.328c0 0 0.286 2.427 0.722 3.12 0.6 0.954 4.257 2.914 5.717 3.188 0.993 0.184 2.814 0.476 3.816 0.613 1.085 0.148 1.695 0.015 2.791-0.021 1.179-0.038 2.186 0.132 3.336-0.135 0.819-0.19 3.215-0.834 3.997-1.145 0.604-0.242 1.814-0.643 2.364-0.992 0.456-0.288 1.866-1.333 2.146-1.795 0.366-0.605 0.709-2.752 0.709-2.752L86.859 129.328z" fill="#ffffff" stroke-width="none" opacity="1"></path><path id="SvgjsPath17384" d="M92.17 129.748c0 0-0.522 5.283-0.568 5.375 -0.047 0.092-0.179-5.375-0.179-5.375H92.17zM94.364 130.335l0.464 5.601 0.298-5.601H94.364zM99.485 131.161l0.579 5.088 0.375-5.176L99.485 131.161zM103.978 130.093c0.973 0.088 1.298 5.446 1.298 5.446l0.134-5.446H103.978zM107.705 129.438c0 0 0.386 5.114 0.44 5.018 0.053-0.097 0.153-5.018 0.153-5.018H107.705zM88.876 129.436l0.283 4.181 0.283-4.181H88.876zM110.375 129.011l0.086 4.38 0.432-4.413L110.375 129.011z" fill="#000000" stroke-width="none" opacity="0.1"></path><path id="SvgjsPath17385" d="M116.764 129.126c-1.218-0.406-3.771-0.125-5.061-0.294 -1.83-0.239-5.542-0.409-7.392-0.356 -1.161 0.034-3.449 0.457-4.608 0.484 -1.191 0.027-3.562-0.461-4.751-0.471 -1.888-0.012-5.689 0.214-7.54 0.534 -1.279 0.222-3.89-0.113-4.914 0.475 -0.237 0.137-0.095 0.75 0 0.981 0.862 2.089 4.188 5.489 7.067 7.497 3.698 2.579 7.586 3.38 10.643 3.381 4.035 0.003 8.785-2.247 12.762-5.639 1.758-1.5 3.982-4.091 4.353-5.537C117.512 129.451 117.079 129.231 116.764 129.126zM99.816 136.352c-2.488 0.019-8.26-1.229-10.697-2.494 -1.461-0.759-3.7-2.577-5.226-3.708 -0.588-0.435-0.454-0.789 0.321-0.822 1.882-0.084 5.042 0.944 6.177 1.1 2.371 0.324 5.366 1.531 9.425 1.531 3.013 0 6.312-0.959 8.414-1.311 1.264-0.213 4.833-1.278 6.89-1.384 0.775-0.04 0.926 0.276 0.354 0.727 -1.61 1.271-4.326 3.216-6.055 4.066C107.224 135.139 102.057 136.328 99.816 136.352z" fill="#e50202" stroke="#d60000" stroke-width="0.75" opacity="1"></path><path id="SvgjsPath17386" d="M86.869 134.124c2.588 0.523 8.417 3.611 13.315 3.444 5.105-0.175 12.685-4.745 13.685-4.244 0.373 1.199-9.853 6.985-13.685 7.077C96.747 140.482 85.786 135.485 86.869 134.124zM99.485 131.161c3.109-0.042 6.909-0.442 9.469-1.672 -2.918-1.013-6.938 0.115-9.251 0.168 -3 0.07-5.51-0.934-8.289 0.058C94.069 130.622 96.798 131.198 99.485 131.161z" fill="#f41b1b" stroke-width="none" opacity="1" stroke="none"></path><path id="SvgjsPath17387" d="M97.732 139.024c-1.881-0.424-1.945-0.596-0.162-0.42 1.09 0.106 2.18 0.132 3.238 0.03 0.141-0.015 0.281-0.029 0.419-0.049 1.195-0.157 2.479-0.546 3.768-1.051 2.015-0.792 2.051-0.6 0.053 0.446 -1.467 0.767-2.831 1.324-3.798 1.44l-0.062 0.007C100.364 139.509 99.123 139.34 97.732 139.024z" fill="#ff3535" stroke-width="none" opacity="1" stroke="none"></path><path id="SvgjsPath17388" d="M79.599 130.722c0 0-0.561-1.256-0.482-1.724 0.11-0.657 1.521-1.958 1.521-1.958s-0.854 1.498-0.986 1.971C79.523 129.468 79.599 130.722 79.599 130.722zM120.163 130.881c0 0 0.609-1.364 0.523-1.873 -0.119-0.714-1.652-2.127-1.652-2.127s0.929 1.628 1.072 2.142C120.245 129.519 120.163 130.881 120.163 130.881z" fill="#c7633d" stroke-width="none" opacity="1" stroke="none"></path></g><g id="svga-group-eyes-left" ><g id="svga-group-eyesback-left"><path id="SvgjsPath17318" d="M80.854 79.416c2.436 1.371 4.469 3.053 6.65 5.942 0.047 0.184 0.088 0.364 0.1 0.534 0.218 3.267-1.324 6.223-3.851 8.345 -2.66 1.242-9.155 4.42-18.706-0.284 -1.653-1.546-2.925-3.497-3.748-5.672 0.075 0.106 0.168 0.208 0.236 0.317 -0.439-0.952-0.988-2.855-0.988-4.983C69.383 80.367 73.652 78.675 80.854 79.416z" fill="url(#SvgjsRadialGradient17319)" opacity="1"></path></g><g id="svga-group-eyesiriswrapper-left" transform="translate(0 0.5)"><g id="svga-group-eyesiriscontrol-left" ><g id="svga-group-eyesiris-left" ><path id="SvgjsPath17211" d="M83.5 87c0 4.694-3.806 8.5-8.499 8.5 -4.694 0-8.501-3.806-8.501-8.5l0 0c0-4.694 3.807-8.5 8.501-8.5C79.694 78.499 83.5 82.305 83.5 87L83.5 87z" fill="#4e60a3" stroke-width="none" opacity="1"></path><path id="SvgjsPath17212" d="M74.048 78.595c-0.033 0.004-0.066 0.008-0.101 0.012 0.041 0.191 0.081 0.384 0.12 0.575C74.06 78.987 74.055 78.789 74.048 78.595zM74.066 79.18c0.099 2.793 0.262 5.282 0.732 6.183C75.047 84.377 74.625 81.92 74.066 79.18zM74.8 85.365c-0.061 0.236-0.153 0.397-0.294 0.452 -0.142 0.053-0.319-0.008-0.521-0.146 0.058 0.236 0.052 0.422-0.051 0.537 -0.102 0.114-0.285 0.142-0.527 0.11 0.16 0.184 0.242 0.353 0.206 0.5 -0.039 0.148-0.189 0.258-0.415 0.343 0.225 0.088 0.376 0.199 0.411 0.347 0.036 0.148-0.046 0.315-0.205 0.498 0.241-0.029 0.426 0.001 0.525 0.115 0.101 0.114 0.106 0.301 0.05 0.537 0.199-0.137 0.376-0.197 0.518-0.142 0.143 0.053 0.234 0.216 0.291 0.454 0.114-0.215 0.243-0.353 0.396-0.368 0.148-0.02 0.307 0.084 0.466 0.267 0.002-0.244 0.053-0.423 0.181-0.51 0.124-0.086 0.311-0.069 0.537 0.018 -0.11-0.216-0.148-0.398-0.078-0.534 0.071-0.135 0.245-0.207 0.487-0.235 -0.199-0.14-0.321-0.283-0.318-0.436 -0.001-0.153 0.119-0.296 0.321-0.434 -0.241-0.03-0.412-0.103-0.484-0.237 -0.07-0.135-0.031-0.319 0.081-0.535 -0.229 0.085-0.413 0.102-0.538 0.016 -0.126-0.086-0.177-0.267-0.178-0.51 -0.158 0.182-0.316 0.282-0.468 0.262C75.041 85.714 74.911 85.58 74.8 85.365zM75.66 85.471c0.679-0.758 1.446-3.13 2.224-5.813C76.674 82.174 75.662 84.453 75.66 85.471zM77.883 79.657c0.085-0.172 0.172-0.348 0.253-0.524 -0.03-0.011-0.06-0.024-0.09-0.037C77.992 79.284 77.938 79.472 77.883 79.657zM76.377 85.965c0.953-0.357 2.736-2.101 4.671-4.115C78.808 83.517 76.851 85.065 76.377 85.965zM81.048 81.851c0.142-0.106 0.287-0.213 0.433-0.318 -0.021-0.025-0.043-0.047-0.06-0.07C81.297 81.59 81.174 81.722 81.048 81.851zM76.777 86.738c1.01 0.125 3.399-0.591 6.052-1.475C80.068 85.698 77.617 86.159 76.777 86.738zM82.829 85.263c0.156-0.022 0.318-0.048 0.478-0.073 -0.007-0.026-0.013-0.054-0.02-0.081C83.135 85.16 82.979 85.212 82.829 85.263zM76.775 87.606c0.836 0.583 3.284 1.057 6.038 1.505C80.171 88.214 77.786 87.484 76.775 87.606zM82.813 89.111c0.135 0.047 0.271 0.095 0.404 0.138 0.007-0.024 0.013-0.047 0.018-0.071C83.098 89.158 82.954 89.135 82.813 89.111zM76.367 88.375c0.471 0.902 2.42 2.462 4.649 4.142C79.092 90.492 77.32 88.737 76.367 88.375zM81.018 92.514c0.083 0.087 0.17 0.179 0.253 0.268 0.014-0.017 0.027-0.031 0.043-0.046C81.215 92.662 81.113 92.587 81.018 92.514zM75.652 88.867c-0.004 1.019 0.995 3.302 2.191 5.827C77.079 92.006 76.327 89.628 75.652 88.867zM77.844 94.694c0.03 0.106 0.062 0.215 0.09 0.324 0.021-0.008 0.036-0.015 0.055-0.02C77.941 94.896 77.892 94.793 77.844 94.694zM74.788 88.968c-0.476 0.902-0.653 3.386-0.768 6.178C74.594 92.413 75.031 89.958 74.788 88.968zM74.021 95.146c-0.023 0.106-0.044 0.214-0.066 0.323 0.02 0.004 0.035 0.005 0.055 0.007C74.013 95.368 74.018 95.254 74.021 95.146zM73.979 88.657c-0.844 0.576-2.154 2.697-3.553 5.114C72.204 91.617 73.733 89.645 73.979 88.657zM70.427 93.771c-0.074 0.09-0.152 0.185-0.229 0.274 0.018 0.012 0.034 0.02 0.053 0.034C70.309 93.976 70.369 93.873 70.427 93.771zM73.405 88.006c-1.015 0.119-3.16 1.385-5.522 2.875C70.46 89.801 72.726 88.768 73.405 88.006zM67.883 90.884c-0.122 0.051-0.247 0.102-0.372 0.156 0.009 0.019 0.021 0.038 0.033 0.057C67.658 91.027 67.771 90.954 67.883 90.884zM73.198 87.161c-0.951-0.365-3.441-0.238-6.227-0.016C69.755 87.383 72.244 87.521 73.198 87.161zM66.972 87.145c-0.151-0.014-0.308-0.028-0.457-0.041 -0.001 0.027-0.003 0.053-0.001 0.08C66.669 87.169 66.822 87.156 66.972 87.145zM73.407 86.318c-0.67-0.763-2.932-1.809-5.499-2.905C70.259 84.915 72.397 86.196 73.407 86.318zM67.908 83.413c-0.147-0.095-0.297-0.189-0.446-0.285 -0.013 0.026-0.026 0.053-0.041 0.078C67.585 83.276 67.75 83.344 67.908 83.413zM73.985 85.67c-0.239-0.989-1.758-2.967-3.521-5.132C71.849 82.963 73.147 85.09 73.985 85.67zM70.465 80.538c-0.095-0.163-0.188-0.329-0.281-0.494 -0.026 0.018-0.055 0.037-0.079 0.054C70.224 80.245 70.348 80.393 70.465 80.538z" fill="url(#SvgjsRadialGradient17213)" opacity="1"></path><path id="SvgjsPath17216" d="M76.255 78.622c-0.034-0.004-0.066-0.01-0.1-0.014 -0.011 0.196-0.022 0.393-0.034 0.586C76.164 79.004 76.211 78.812 76.255 78.622zM76.12 79.193c-0.627 2.724-1.114 5.17-0.892 6.162C75.724 84.467 75.95 81.984 76.12 79.193zM75.229 85.356c-0.119 0.212-0.25 0.344-0.401 0.36 -0.15 0.014-0.306-0.091-0.464-0.276 -0.006 0.243-0.06 0.421-0.188 0.505 -0.128 0.083-0.313 0.063-0.539-0.03 0.107 0.219 0.143 0.403 0.069 0.536 -0.075 0.133-0.249 0.201-0.489 0.224 0.194 0.144 0.312 0.289 0.308 0.441 -0.003 0.152-0.126 0.292-0.327 0.428 0.24 0.034 0.41 0.111 0.478 0.247 0.067 0.136 0.025 0.318-0.091 0.532 0.229-0.081 0.414-0.093 0.537-0.003 0.123 0.088 0.17 0.27 0.164 0.514 0.166-0.177 0.325-0.278 0.478-0.253 0.148 0.02 0.274 0.16 0.382 0.379 0.064-0.236 0.16-0.396 0.306-0.447 0.143-0.051 0.318 0.014 0.515 0.157 -0.051-0.237-0.041-0.423 0.063-0.536s0.29-0.136 0.532-0.102c-0.157-0.187-0.238-0.356-0.195-0.504 0.039-0.148 0.192-0.255 0.423-0.336 -0.226-0.091-0.372-0.206-0.407-0.354 -0.032-0.149 0.053-0.316 0.218-0.495 -0.243 0.023-0.427-0.009-0.524-0.125 -0.099-0.115-0.102-0.303-0.039-0.538 -0.201 0.134-0.38 0.19-0.521 0.132C75.37 85.756 75.281 85.593 75.229 85.356zM76.033 85.683c0.852-0.558 2.206-2.65 3.652-5.04C77.865 82.76 76.298 84.699 76.033 85.683zM79.685 80.641c0.126-0.145 0.255-0.292 0.38-0.44 -0.027-0.019-0.052-0.04-0.078-0.06C79.886 80.31 79.785 80.477 79.685 80.641zM76.597 86.345c1.013-0.099 3.187-1.322 5.577-2.767C79.578 84.609 77.287 85.598 76.597 86.345zM82.173 83.579c0.165-0.065 0.333-0.131 0.501-0.195 -0.014-0.029-0.029-0.056-0.04-0.083C82.481 83.392 82.328 83.487 82.173 83.579zM76.783 87.194c0.943 0.382 3.437 0.309 6.227 0.142C80.231 87.042 77.745 86.853 76.783 87.194zM83.01 87.336c0.158 0.019 0.32 0.036 0.48 0.053 0.001-0.027 0.002-0.055 0.003-0.083C83.332 87.316 83.168 87.326 83.01 87.336zM76.558 88.033c0.655 0.78 2.898 1.871 5.442 3.017C79.679 89.499 77.565 88.177 76.558 88.033zM82 91.049c0.117 0.08 0.236 0.161 0.354 0.238 0.013-0.021 0.024-0.042 0.035-0.063C82.262 91.168 82.129 91.109 82 91.049zM75.964 88.67c0.221 0.993 1.699 3.004 3.419 5.205C78.048 91.419 76.791 89.266 75.964 88.67zM79.384 93.872c0.059 0.106 0.117 0.217 0.176 0.325 0.018-0.013 0.034-0.023 0.053-0.034C79.536 94.065 79.458 93.967 79.384 93.872zM75.146 88.96c-0.267 0.982 0.107 3.447 0.608 6.195C75.711 92.361 75.601 89.87 75.146 88.96zM75.754 95.155c0.002 0.11 0.004 0.224 0.004 0.337 0.021-0.003 0.038-0.005 0.058-0.005C75.796 95.376 75.775 95.264 75.754 95.155zM74.285 88.834c-0.693 0.748-1.508 3.102-2.341 5.769C73.205 92.11 74.265 89.853 74.285 88.834zM71.944 94.603c-0.05 0.096-0.099 0.195-0.147 0.295 0.017 0.008 0.032 0.013 0.051 0.021C71.879 94.815 71.913 94.707 71.944 94.603zM73.584 88.324c-0.964 0.338-2.779 2.048-4.756 4.021C71.104 90.724 73.091 89.215 73.584 88.324zM68.828 92.345c-0.095 0.067-0.194 0.138-0.29 0.206 0.014 0.016 0.027 0.028 0.041 0.045C68.661 92.511 68.746 92.428 68.828 92.345zM73.197 87.546c-1.01-0.148-3.409 0.521-6.078 1.349C69.889 88.518 72.345 88.106 73.197 87.546zM67.119 88.897c-0.131 0.018-0.265 0.034-0.4 0.054 0.005 0.021 0.011 0.042 0.018 0.063C66.865 88.977 66.993 88.936 67.119 88.897zM73.217 86.677c-0.824-0.599-3.263-1.121-6.01-1.627C69.833 86 72.202 86.777 73.217 86.677zM67.207 85.05c-0.143-0.052-0.29-0.106-0.432-0.158 -0.008 0.026-0.016 0.051-0.021 0.077C66.907 84.995 67.06 85.022 67.207 85.05zM73.637 85.917c-0.45-0.911-2.363-2.506-4.561-4.23C70.959 83.747 72.693 85.538 73.637 85.917zM69.076 81.688c-0.118-0.13-0.236-0.26-0.355-0.391 -0.021 0.022-0.041 0.044-0.061 0.065C68.8 81.471 68.941 81.58 69.076 81.688zM74.363 85.44c0.024-1.017-0.93-3.321-2.073-5.868C72.999 82.273 73.704 84.663 74.363 85.44zM72.29 79.572c-0.049-0.182-0.096-0.366-0.144-0.55 -0.029 0.01-0.062 0.021-0.09 0.032C72.134 79.227 72.214 79.401 72.29 79.572z" fill="url(#SvgjsRadialGradient17217)" opacity="1"></path><path id="SvgjsPath17220" d="M78.334 87c0 1.842-1.492 3.333-3.333 3.333S71.666 88.841 71.666 87c0-1.841 1.494-3.334 3.335-3.334C76.844 83.666 78.334 85.159 78.334 87z" fill="#4e60a3" stroke-width="none" opacity="1"></path><path id="SvgjsPath17221" d="M78.334 87c0 1.842-1.492 3.333-3.333 3.333S71.666 88.841 71.666 87c0-1.841 1.494-3.334 3.335-3.334C76.844 83.666 78.334 85.159 78.334 87z" fill="#000000" stroke-width="none" opacity="0.9"></path><path id="SvgjsPath17222" d="M70.35 90.893c0.636-0.427 1.5-0.255 1.927 0.38 0.427 0.637 0.258 1.5-0.379 1.927 -0.638 0.429-1.5 0.258-1.927-0.378C69.544 92.185 69.713 91.32 70.35 90.893L70.35 90.893z" fill="url(#SvgjsLinearGradient17223)" opacity="0.5"></path><path id="SvgjsPath17226" d="M77.635 86.536c-0.356 0.53-1.373 0.468-2.275-0.136 -0.903-0.605-1.346-1.526-0.991-2.055l0.001-0.001c0.354-0.53 1.372-0.469 2.274 0.137 0.903 0.604 1.346 1.524 0.992 2.054C77.635 86.536 77.635 86.536 77.635 86.536z" fill="url(#SvgjsLinearGradient17227)" opacity="0.5"></path><path id="SvgjsPath17230" d="M81.682 85.121c-0.806 1.237-2.884 1.31-4.641 0.166 -1.756-1.145-2.527-3.075-1.722-4.311 0.806-1.235 2.884-1.31 4.641-0.166C81.715 81.956 82.485 83.887 81.682 85.121L81.682 85.121z" fill="url(#SvgjsLinearGradient17231)" opacity="0.75"></path></g></g></g><g id="svga-group-eyesfront-left"><path id="SvgjsPath17343" d="M56 88c0 13.808 8.06 24.999 18 24.999S92 101.808 92 88c0-13.809-8.06-25.001-18-25.001S56 74.191 56 88zM61.299 88.281c0.075 0.106 0.168 0.208 0.236 0.317 -0.439-0.952-0.988-2.855-0.988-4.983 8.836-3.248 13.105-4.939 20.307-4.199 2.436 1.371 4.469 3.053 6.65 5.942 0.047 0.184 0.088 0.364 0.1 0.534 0.218 3.267-1.324 6.223-3.851 8.345 -2.66 1.242-9.155 4.42-18.706-0.284C63.394 92.407 62.122 90.456 61.299 88.281z" fill="#f5af95" stroke-width="none" opacity="1" stroke="none"></path><path id="SvgjsPath17344" d="M59.401 85.081c0.024 8.284 7.916 14.961 17.639 14.918 9.72-0.048 17.583-6.796 17.559-15.08 -0.024-8.286-7.918-14.964-17.641-14.92C67.236 70.047 59.377 76.795 59.401 85.081zM61.299 88.281c0.075 0.106 0.168 0.208 0.236 0.317 -0.439-0.952-0.988-2.855-0.988-4.983 8.836-3.248 13.105-4.939 20.307-4.199 2.436 1.371 4.469 3.053 6.65 5.942 0.047 0.184 0.088 0.364 0.1 0.534 0.218 3.267-1.324 6.223-3.851 8.345 -2.66 1.242-9.155 4.42-18.706-0.284C63.394 92.407 62.122 90.456 61.299 88.281z" fill="url(#SvgjsRadialGradient17345)" opacity="1"></path><path id="SvgjsPath17349" d="M65.047 93.953c-1.653-1.546-2.925-3.497-3.748-5.672 0.075 0.106 0.168 0.208 0.236 0.317 -0.439-0.952-0.988-2.855-0.988-4.983 8.836-3.248 13.105-4.939 20.307-4.199 2.436 1.371 4.469 3.053 6.65 5.942 0.047 0.184 0.088 0.364 0.1 0.534 0.218 3.267-1.324 6.223-3.851 8.345C81.093 95.479 74.598 98.657 65.047 93.953z" fill="url(#SvgjsRadialGradient17350)" opacity="1"></path><path id="SvgjsPath17353" d="M66.338 77.989c3.414-1.34 14.297-4.254 19.581-1.339C78.348 74.293 70.782 76.817 66.338 77.989z" fill="#c7633d" stroke-width="none" opacity="1" stroke="none"></path><path id="SvgjsPath17354" d="M84.036 93.981c-2.524 1.13-9.385 4.81-19.647-0.458C69.603 98.517 79.131 98.235 84.036 93.981zM83.049 78.924c2.323 1.77 3.414 3.542 4.665 6.75 -2.263-3.004-4.346-4.705-6.86-6.092 -7.201-0.726-11.471 0.933-20.307 4.116 0 2.086 0.549 3.952 0.988 4.885 -1.601-2.492-5.104-4.364-10.209-6.147 2.632 0.313 6.078 0.089 7.684-0.439 -0.786-0.515-1.213-1.037-1.646-1.701 2.461 0.715 4.014 0.617 6.586-0.055 -1.376-0.106-2.349-0.687-3.622-1.701 0 0 4.934 0.549 6.586 0.549 2.305 0 4.83-1.976 15.313-1.701 1.563 0.041 6.146 1.152 6.146 1.152L83.049 78.924z" fill="#1b2a40" stroke-width="none" opacity="1" stroke="none"></path></g></g><g id="svga-group-eyes-right" ><g id="svga-group-eyesback-right"><path id="SvgjsPath17326" d="M119.146 79.416c-2.436 1.371-4.469 3.053-6.65 5.942 -0.047 0.184-0.088 0.364-0.1 0.534 -0.218 3.267 1.324 6.223 3.851 8.345 2.66 1.242 9.155 4.42 18.706-0.284 1.653-1.546 2.925-3.497 3.748-5.672 -0.075 0.106-0.168 0.208-0.236 0.317 0.439-0.952 0.988-2.855 0.988-4.983C130.617 80.367 126.348 78.675 119.146 79.416z" fill="url(#SvgjsRadialGradient17327)" opacity="1"></path></g><g id="svga-group-eyesiriswrapper-right" transform="translate(0 0.5)"><g id="svga-group-eyesiriscontrol-right" ><g id="svga-group-eyesiris-right" ><path id="SvgjsPath17234" d="M133.5 87c0 4.694-3.806 8.5-8.499 8.5 -4.694 0-8.501-3.806-8.501-8.5l0 0c0-4.694 3.807-8.5 8.501-8.5C129.694 78.499 133.5 82.305 133.5 87L133.5 87z" fill="#4e60a3" stroke-width="none" opacity="1"></path><path id="SvgjsPath17235" d="M124.048 78.595c-0.033 0.004-0.066 0.008-0.101 0.012 0.041 0.191 0.081 0.384 0.12 0.575C124.06 78.987 124.055 78.789 124.048 78.595zM124.066 79.18c0.099 2.793 0.262 5.282 0.732 6.183C125.047 84.377 124.625 81.92 124.066 79.18zM124.8 85.365c-0.061 0.236-0.153 0.397-0.294 0.452 -0.142 0.053-0.319-0.008-0.521-0.146 0.058 0.236 0.052 0.422-0.051 0.537 -0.102 0.114-0.285 0.142-0.527 0.11 0.16 0.184 0.242 0.353 0.206 0.5 -0.039 0.148-0.189 0.258-0.415 0.343 0.225 0.088 0.376 0.199 0.411 0.347 0.036 0.148-0.046 0.315-0.205 0.498 0.241-0.029 0.426 0.001 0.525 0.115 0.101 0.114 0.106 0.301 0.05 0.537 0.199-0.137 0.376-0.197 0.518-0.142 0.143 0.053 0.234 0.216 0.291 0.454 0.114-0.215 0.243-0.353 0.396-0.368 0.148-0.02 0.307 0.084 0.466 0.267 0.002-0.244 0.053-0.423 0.181-0.51 0.124-0.086 0.311-0.069 0.537 0.018 -0.11-0.216-0.148-0.398-0.078-0.534 0.071-0.135 0.245-0.207 0.487-0.235 -0.199-0.14-0.321-0.283-0.318-0.436 -0.001-0.153 0.119-0.296 0.321-0.434 -0.241-0.03-0.412-0.103-0.484-0.237 -0.07-0.135-0.031-0.319 0.081-0.535 -0.229 0.085-0.413 0.102-0.538 0.016 -0.126-0.086-0.177-0.267-0.178-0.51 -0.158 0.182-0.316 0.282-0.468 0.262C125.041 85.714 124.911 85.58 124.8 85.365zM125.66 85.471c0.679-0.758 1.446-3.13 2.224-5.813C126.674 82.174 125.662 84.453 125.66 85.471zM127.883 79.657c0.085-0.172 0.172-0.348 0.253-0.524 -0.03-0.011-0.06-0.024-0.09-0.037C127.992 79.284 127.938 79.472 127.883 79.657zM126.377 85.965c0.953-0.357 2.736-2.101 4.671-4.115C128.808 83.517 126.851 85.065 126.377 85.965zM131.048 81.851c0.142-0.106 0.287-0.213 0.433-0.318 -0.021-0.025-0.043-0.047-0.06-0.07C131.297 81.59 131.174 81.722 131.048 81.851zM126.777 86.738c1.01 0.125 3.399-0.591 6.052-1.475C130.068 85.698 127.617 86.159 126.777 86.738zM132.829 85.263c0.156-0.022 0.318-0.048 0.478-0.073 -0.007-0.026-0.013-0.054-0.02-0.081C133.135 85.16 132.979 85.212 132.829 85.263zM126.775 87.606c0.836 0.583 3.284 1.057 6.038 1.505C130.171 88.214 127.786 87.484 126.775 87.606zM132.813 89.111c0.135 0.047 0.271 0.095 0.404 0.138 0.007-0.024 0.013-0.047 0.018-0.071C133.098 89.158 132.954 89.135 132.813 89.111zM126.367 88.375c0.471 0.902 2.42 2.462 4.649 4.142C129.092 90.492 127.32 88.737 126.367 88.375zM131.018 92.514c0.083 0.087 0.17 0.179 0.253 0.268 0.014-0.017 0.027-0.031 0.043-0.046C131.215 92.662 131.113 92.587 131.018 92.514zM125.652 88.867c-0.004 1.019 0.995 3.302 2.191 5.827C127.079 92.006 126.327 89.628 125.652 88.867zM127.844 94.694c0.03 0.106 0.062 0.215 0.09 0.324 0.021-0.008 0.036-0.015 0.055-0.02C127.941 94.896 127.892 94.793 127.844 94.694zM124.788 88.968c-0.476 0.902-0.653 3.386-0.768 6.178C124.594 92.413 125.031 89.958 124.788 88.968zM124.021 95.146c-0.023 0.106-0.044 0.214-0.066 0.323 0.02 0.004 0.035 0.005 0.055 0.007C124.013 95.368 124.018 95.254 124.021 95.146zM123.979 88.657c-0.844 0.576-2.154 2.697-3.553 5.114C122.204 91.617 123.733 89.645 123.979 88.657zM120.427 93.771c-0.074 0.09-0.152 0.185-0.229 0.274 0.018 0.012 0.034 0.02 0.053 0.034C120.309 93.976 120.369 93.873 120.427 93.771zM123.405 88.006c-1.015 0.119-3.16 1.385-5.522 2.875C120.46 89.801 122.726 88.768 123.405 88.006zM117.883 90.884c-0.122 0.051-0.247 0.102-0.372 0.156 0.009 0.019 0.021 0.038 0.033 0.057C117.658 91.027 117.771 90.954 117.883 90.884zM123.198 87.161c-0.951-0.365-3.441-0.238-6.227-0.016C119.755 87.383 122.244 87.521 123.198 87.161zM116.972 87.145c-0.151-0.014-0.308-0.028-0.457-0.041 -0.001 0.027-0.003 0.053-0.001 0.08C116.669 87.169 116.822 87.156 116.972 87.145zM123.407 86.318c-0.67-0.763-2.932-1.809-5.499-2.905C120.259 84.915 122.397 86.196 123.407 86.318zM117.908 83.413c-0.147-0.095-0.297-0.189-0.446-0.285 -0.013 0.026-0.026 0.053-0.041 0.078C117.585 83.276 117.75 83.344 117.908 83.413zM123.985 85.67c-0.239-0.989-1.758-2.967-3.521-5.132C121.849 82.963 123.147 85.09 123.985 85.67zM120.465 80.538c-0.095-0.163-0.188-0.329-0.281-0.494 -0.026 0.018-0.055 0.037-0.079 0.054C120.224 80.245 120.348 80.393 120.465 80.538z" fill="url(#SvgjsRadialGradient17236)" opacity="1"></path><path id="SvgjsPath17239" d="M126.255 78.622c-0.034-0.004-0.066-0.01-0.1-0.014 -0.011 0.196-0.022 0.393-0.034 0.586C126.164 79.004 126.211 78.812 126.255 78.622zM126.12 79.193c-0.627 2.724-1.114 5.17-0.892 6.162C125.724 84.467 125.95 81.984 126.12 79.193zM125.229 85.356c-0.119 0.212-0.25 0.344-0.401 0.36 -0.15 0.014-0.306-0.091-0.464-0.276 -0.006 0.243-0.06 0.421-0.188 0.505 -0.128 0.083-0.313 0.063-0.539-0.03 0.107 0.219 0.143 0.403 0.069 0.536 -0.075 0.133-0.249 0.201-0.489 0.224 0.194 0.144 0.312 0.289 0.308 0.441 -0.003 0.152-0.126 0.292-0.327 0.428 0.24 0.034 0.41 0.111 0.478 0.247 0.067 0.136 0.025 0.318-0.091 0.532 0.229-0.081 0.414-0.093 0.537-0.003 0.123 0.088 0.17 0.27 0.164 0.514 0.166-0.177 0.325-0.278 0.478-0.253 0.148 0.02 0.274 0.16 0.382 0.379 0.064-0.236 0.16-0.396 0.306-0.447 0.143-0.051 0.318 0.014 0.515 0.157 -0.051-0.237-0.041-0.423 0.063-0.536s0.29-0.136 0.532-0.102c-0.157-0.187-0.238-0.356-0.195-0.504 0.039-0.148 0.192-0.255 0.423-0.336 -0.226-0.091-0.372-0.206-0.407-0.354 -0.032-0.149 0.053-0.316 0.218-0.495 -0.243 0.023-0.427-0.009-0.524-0.125 -0.099-0.115-0.102-0.303-0.039-0.538 -0.201 0.134-0.38 0.19-0.521 0.132C125.37 85.756 125.281 85.593 125.229 85.356zM126.033 85.683c0.852-0.558 2.206-2.65 3.652-5.04C127.865 82.76 126.298 84.699 126.033 85.683zM129.685 80.641c0.126-0.145 0.255-0.292 0.38-0.44 -0.027-0.019-0.052-0.04-0.078-0.06C129.886 80.31 129.785 80.477 129.685 80.641zM126.597 86.345c1.013-0.099 3.187-1.322 5.577-2.767C129.578 84.609 127.287 85.598 126.597 86.345zM132.173 83.579c0.165-0.065 0.333-0.131 0.501-0.195 -0.014-0.029-0.029-0.056-0.04-0.083C132.481 83.392 132.328 83.487 132.173 83.579zM126.783 87.194c0.943 0.382 3.437 0.309 6.227 0.142C130.231 87.042 127.745 86.853 126.783 87.194zM133.01 87.336c0.158 0.019 0.32 0.036 0.48 0.053 0.001-0.027 0.002-0.055 0.003-0.083C133.332 87.316 133.168 87.326 133.01 87.336zM126.558 88.033c0.655 0.78 2.898 1.871 5.442 3.017C129.679 89.499 127.565 88.177 126.558 88.033zM132 91.049c0.117 0.08 0.236 0.161 0.354 0.238 0.013-0.021 0.024-0.042 0.035-0.063C132.262 91.168 132.129 91.109 132 91.049zM125.964 88.67c0.221 0.993 1.699 3.004 3.419 5.205C128.048 91.419 126.791 89.266 125.964 88.67zM129.384 93.872c0.059 0.106 0.117 0.217 0.176 0.325 0.018-0.013 0.034-0.023 0.053-0.034C129.536 94.065 129.458 93.967 129.384 93.872zM125.146 88.96c-0.267 0.982 0.107 3.447 0.608 6.195C125.711 92.361 125.601 89.87 125.146 88.96zM125.754 95.155c0.002 0.11 0.004 0.224 0.004 0.337 0.021-0.003 0.038-0.005 0.058-0.005C125.796 95.376 125.775 95.264 125.754 95.155zM124.285 88.834c-0.693 0.748-1.508 3.102-2.341 5.769C123.205 92.11 124.265 89.853 124.285 88.834zM121.944 94.603c-0.05 0.096-0.099 0.195-0.147 0.295 0.017 0.008 0.032 0.013 0.051 0.021C121.879 94.815 121.913 94.707 121.944 94.603zM123.584 88.324c-0.964 0.338-2.779 2.048-4.756 4.021C121.104 90.724 123.091 89.215 123.584 88.324zM118.828 92.345c-0.095 0.067-0.194 0.138-0.29 0.206 0.014 0.016 0.027 0.028 0.041 0.045C118.661 92.511 118.746 92.428 118.828 92.345zM123.197 87.546c-1.01-0.148-3.409 0.521-6.078 1.349C119.889 88.518 122.345 88.106 123.197 87.546zM117.119 88.897c-0.131 0.018-0.265 0.034-0.4 0.054 0.005 0.021 0.011 0.042 0.018 0.063C116.865 88.977 116.993 88.936 117.119 88.897zM123.217 86.677c-0.824-0.599-3.263-1.121-6.01-1.627C119.833 86 122.202 86.777 123.217 86.677zM117.207 85.05c-0.143-0.052-0.29-0.106-0.432-0.158 -0.008 0.026-0.016 0.051-0.021 0.077C116.907 84.995 117.06 85.022 117.207 85.05zM123.637 85.917c-0.45-0.911-2.363-2.506-4.561-4.23C120.959 83.747 122.693 85.538 123.637 85.917zM119.076 81.688c-0.118-0.13-0.236-0.26-0.355-0.391 -0.021 0.022-0.041 0.044-0.061 0.065C118.8 81.471 118.941 81.58 119.076 81.688zM124.363 85.44c0.024-1.017-0.93-3.321-2.073-5.868C122.999 82.273 123.704 84.663 124.363 85.44zM122.29 79.572c-0.049-0.182-0.096-0.366-0.144-0.55 -0.029 0.01-0.062 0.021-0.09 0.032C122.134 79.227 122.214 79.401 122.29 79.572z" fill="url(#SvgjsRadialGradient17240)" opacity="1"></path><path id="SvgjsPath17243" d="M128.334 87c0 1.842-1.492 3.333-3.333 3.333s-3.335-1.492-3.335-3.333c0-1.841 1.494-3.334 3.335-3.334C126.844 83.666 128.334 85.159 128.334 87z" fill="#4e60a3" stroke-width="none" opacity="1"></path><path id="SvgjsPath17244" d="M128.334 87c0 1.842-1.492 3.333-3.333 3.333s-3.335-1.492-3.335-3.333c0-1.841 1.494-3.334 3.335-3.334C126.844 83.666 128.334 85.159 128.334 87z" fill="#000000" stroke-width="none" opacity="0.9"></path><path id="SvgjsPath17245" d="M120.35 90.893c0.636-0.427 1.5-0.255 1.927 0.38 0.427 0.637 0.258 1.5-0.379 1.927 -0.638 0.429-1.5 0.258-1.927-0.378C119.544 92.185 119.713 91.32 120.35 90.893L120.35 90.893z" fill="url(#SvgjsLinearGradient17246)" opacity="0.5"></path><path id="SvgjsPath17249" d="M127.635 86.536c-0.356 0.53-1.373 0.468-2.275-0.136 -0.903-0.605-1.346-1.526-0.991-2.055l0.001-0.001c0.354-0.53 1.372-0.469 2.274 0.137 0.903 0.604 1.346 1.524 0.992 2.054C127.635 86.536 127.635 86.536 127.635 86.536z" fill="url(#SvgjsLinearGradient17250)" opacity="0.5"></path><path id="SvgjsPath17253" d="M131.682 85.121c-0.806 1.237-2.884 1.31-4.641 0.166 -1.756-1.145-2.527-3.075-1.722-4.311 0.806-1.235 2.884-1.31 4.641-0.166C131.715 81.956 132.485 83.887 131.682 85.121L131.682 85.121z" fill="url(#SvgjsLinearGradient17254)" opacity="0.75"></path></g></g></g><g id="svga-group-eyesfront-right"><path id="SvgjsPath17364" d="M126 62.999c-9.94 0-18 11.193-18 25.001 0 13.808 8.06 24.999 18 24.999S144 101.808 144 88C144 74.191 135.94 62.999 126 62.999zM134.953 93.953c-9.551 4.704-16.046 1.526-18.706 0.284 -2.526-2.122-4.068-5.078-3.851-8.345 0.012-0.17 0.053-0.351 0.1-0.534 2.182-2.889 4.215-4.572 6.65-5.942 7.201-0.74 11.471 0.952 20.307 4.199 0 2.128-0.549 4.031-0.988 4.983 0.068-0.109 0.161-0.211 0.236-0.317C137.878 90.456 136.606 92.407 134.953 93.953z" fill="#f5af95" stroke-width="none" opacity="1" stroke="none"></path><path id="SvgjsPath17365" d="M123.042 69.999c-9.723-0.044-17.616 6.635-17.641 14.92 -0.024 8.284 7.839 15.032 17.559 15.08 9.723 0.042 17.614-6.635 17.639-14.918C140.623 76.795 132.764 70.047 123.042 69.999zM134.953 93.953c-9.551 4.704-16.046 1.526-18.706 0.284 -2.526-2.122-4.068-5.078-3.851-8.345 0.012-0.17 0.053-0.351 0.1-0.534 2.182-2.889 4.215-4.572 6.65-5.942 7.201-0.74 11.471 0.952 20.307 4.199 0 2.128-0.549 4.031-0.988 4.983 0.068-0.109 0.161-0.211 0.236-0.317C137.878 90.456 136.606 92.407 134.953 93.953z" fill="url(#SvgjsRadialGradient17366)" opacity="1"></path><path id="SvgjsPath17370" d="M134.953 93.953c1.653-1.546 2.925-3.497 3.748-5.672 -0.075 0.106-0.168 0.208-0.236 0.317 0.439-0.952 0.988-2.855 0.988-4.983 -8.836-3.248-13.105-4.939-20.307-4.199 -2.436 1.371-4.469 3.053-6.65 5.942 -0.047 0.184-0.088 0.364-0.1 0.534 -0.218 3.267 1.324 6.223 3.851 8.345C118.907 95.479 125.402 98.657 134.953 93.953z" fill="url(#SvgjsRadialGradient17371)" opacity="1"></path><path id="SvgjsPath17374" d="M114.081 76.65c5.284-2.915 16.167-0.001 19.581 1.339C129.218 76.817 121.652 74.293 114.081 76.65z" fill="#c7633d" stroke-width="none" opacity="1" stroke="none"></path><path id="SvgjsPath17375" d="M135.611 93.522c-10.263 5.269-17.123 1.588-19.647 0.458C120.869 98.235 130.397 98.517 135.611 93.522zM111.628 78.54c0 0 4.584-1.111 6.146-1.152 10.482-0.274 13.008 1.701 15.313 1.701 1.652 0 6.586-0.549 6.586-0.549 -1.273 1.015-2.246 1.595-3.622 1.701 2.572 0.672 4.125 0.77 6.586 0.055 -0.434 0.665-0.86 1.186-1.646 1.701 1.605 0.528 5.052 0.751 7.684 0.439 -5.105 1.783-8.608 3.655-10.209 6.147 0.439-0.933 0.988-2.799 0.988-4.885 -8.836-3.183-13.105-4.842-20.307-4.116 -2.515 1.387-4.598 3.088-6.86 6.092 1.251-3.208 2.342-4.98 4.665-6.75L111.628 78.54z" fill="#1b2a40" stroke-width="none" opacity="1" stroke="none"></path></g></g><g id="svga-group-facehighlight-single" ><path id="SvgjsPath17127" d="M140.204 113.007c0.035 22.275-17.995 40.365-40.273 40.396 -22.274 0.036-40.361-17.993-40.396-40.272C59.501 90.857 77.53 72.77 99.808 72.735 122.083 72.701 140.171 90.73 140.204 113.007z" fill="url(#SvgjsRadialGradient17128)" opacity="1"></path><path id="SvgjsPath17131" d="M135,55.999c0,19.329-15.671,35-35,35c-19.329,0-35-15.671-35-35s15.671-35,35-35C119.329,20.999,135,36.67,135,55.999z" fill="url(#SvgjsRadialGradient17132)" opacity="1"></path></g><g id="svga-group-eyebrows-left" ><path id="SvgjsPath17376" d="M54.351 74.996c9.743-15.115 36.491 5.148 38.018-1.191 0.299-1.271-0.407-2.015-1.564-2.492C77.184 65.807 59.156 61.18 54.351 74.996z" fill="#decfbc" stroke-width="none" opacity="1" stroke="none"></path></g><g id="svga-group-eyebrows-right" ><path id="SvgjsPath17377" d="M145.649 74.996c-9.743-15.115-36.491 5.148-38.018-1.191 -0.299-1.271 0.407-2.015 1.564-2.492C122.816 65.807 140.844 61.18 145.649 74.996z" fill="#decfbc" stroke-width="none" opacity="1" stroke="none"></path></g><g id="svga-group-nose-single" ><path id="SvgjsPath17389" d="M100.809 118.607c-0.345 0.375-0.628 0.33-0.954-0.059l-3.63-4.392h8.911L100.809 118.607z" fill="#e69375" stroke-width="none" opacity="1" stroke="none"></path><path id="SvgjsPath17390" d="M95.208 114.839l4.719 3.839c0.394 0.32 0.545 0.199 0.34-0.27l-1.683-3.813c-0.082-0.185-0.107-0.495-0.057-0.691l1.001-6.771 -4.453 6.41C94.755 113.937 94.814 114.52 95.208 114.839z" fill="#c7633d" stroke-width="none" opacity="1" stroke="none"></path></g><g id="svga-group-hair-front" ><path id="SvgjsPath17297" d="M51.396 214.38c-15.723-25.105-21.321-14.91-17.672-42.457 -5.209-9.411-9.375-18.77-12.191-28.824 -5.598-21.481 0.132-35.265 5.142-50.948C21.889 26.813 59.341-9.001 100.71-9.001c32.28 0 67.16 23.47 67.471 75.221 -0.514 9.459-1.932 25.343-3.003 32.165 17.769 55.029 2.501 50.649-11.07 76.357 -3.681 6.968-8.012 17.267-8.919 27.573 -18.66-33.246-16.96-38.325-10.676-53.39 7.504-17.985 4.547-4.07-10.03-2.422 13.563-10.49 22.717-10.462 23.003-75.823 0.001-0.039-0.021-0.075-0.054-0.091 -12.352-5.881-24.037-17.006-31.256-29.76 -0.018-0.031-0.047-0.05-0.082-0.05 -0.001 0-0.003 0-0.003 0 -0.037 0.001-0.07 0.023-0.085 0.057 -8.335 17.787-22.626 27.374-46.336 31.084 -4.629 2.417-9.738 4.666-16.104 7.085 -0.037 0.014-0.063 0.051-0.063 0.092 -0.428 25.658 5.466 43.881 20.327 65.193 -7.085-3.254-12.746-12.711-12.746-12.711 -0.355 0 2.484 4.965 2.662 5.281C83.555 172.154 51.627 183.483 51.396 214.38z" fill="#decfbc" stroke-width="none" opacity="0.1" stroke="none"></path><path id="SvgjsPath17298" d="M50.101 212.286c-16.177-25.105-21.937-14.91-18.182-42.457 -5.36-9.411-9.647-18.77-12.543-28.824 -5.76-21.481 0.135-35.265 5.29-50.948C19.741 24.72 58.275-11.095 100.841-11.095c33.21 0 69.099 23.47 69.419 75.221 -0.527 9.459-1.984 25.343-3.089 32.165 18.283 55.029 2.573 50.649-11.39 76.357 -3.789 6.968-8.242 17.267-9.175 27.573 -19.202-33.246-17.451-38.325-10.984-53.39 7.718-17.985 2.953-4.116-10.321-1.223 13.954-10.49 23.373-11.661 23.668-77.022 0.001-0.039-0.022-0.075-0.058-0.091 -12.709-5.881-24.729-17.006-32.156-29.76 -0.018-0.031-0.051-0.05-0.086-0.05 -0.001 0-0.003 0-0.004 0 -0.037 0.001-0.07 0.023-0.086 0.057 -8.577 17.787-23.281 27.374-47.675 31.084 -4.764 2.417-10.02 4.666-16.569 7.085 -0.039 0.014-0.064 0.051-0.065 0.092 -0.441 25.657 5.624 44.881 20.914 66.193 -7.322-5.419-13.113-13.711-13.113-13.711 -0.366 0 2.556 4.965 2.738 5.281C83.189 170.061 50.338 181.39 50.101 212.286z" fill="#decfbc" stroke-width="none" opacity="1" stroke="none"></path><path id="SvgjsPath17299" d="M27.34 109.853c-0.751-7.729-12.676-57.451 16.781-93.862C30.129 43.148 26.056 79.801 27.34 109.853zM167.521 94.041c4.414-30.432 5.609-63.063-19.443-86.74C160.453 31.492 169.091 49.191 167.521 94.041zM143.14 22.856c-2.382 11.089 1.711 25.652 3.052 35.713C139.202 52.934 135.036 45 130.23 33.973c1.055 6.228 3.485 17.428 16.972 31.263 -21.798-19.468-26.475-29.291-22.914-52.455 -0.198 0.877-0.389 1.705-0.573 2.49C124.192 12.729 124.628 9.983 125 7c-3.201 18-27.117 50.049-47.061 56.902 -3.01 3.013-5.737 3.154-8.993 5.917 27.231-4.152 44.396-19.706 48.078-30.866 7.436 12.238 20.931 23.546 33.167 29.331C152.039 52.092 146.191 42.142 143.14 22.856zM101.536 23.569c-9 15-14.354 24.5-28.354 33.5 4.545-3.637 7.687-9.667 9.531-14.927C77.203 50.297 68.565 55.381 61 62c7.516-8.268 17.645-19.858 24.036-30.931 -6.442 8.582-16.813 15.337-26.036 23 7.256-6.029 13-13.667 17-21.667 -2.775 3.7-7.862 6.459-14 12.598 8.972-11.966 9.88-17.484 12.419-22.405 -6.216 10.474-11.655 14.106-17.794 19.295 -4.221 17.702-4.461 25.388-5.256 35.113 -0.039 0.469 17.113-6.963 17.535-7.177 0.014-0.002 0.028-0.005 0.042-0.007C84.938 56.249 91.502 42.094 101.536 23.569zM60 137c2.788 11.151 1.226 21.095-2.464 32.735 -0.488-10.761-8.475-21.806-14.417-31.462 1.364 20.726 3.566 30.364 0.083 46.129 -1.866-28.597-7.833-38.269-16.583-59.417 -3.527 13.393-2.659 30.866 5.299 44.844 -3.755 27.547 2.005 17.352 18.182 42.457 0.238-30.896 33.088-42.226 12.707-77.52 -0.183-0.316-3.104-5.281-2.738-5.281 0 0 5.792 8.292 13.113 13.711 -22.233-24.211-28.063-54.711-28.7-87.711C39.495 95.233 54 117 60 137zM169.126 101.456c0.865 16.928 5.439 38.169-9.257 51.947 6-10 3.131-23.403 0.131-33.403 0.376 26.762-10.812 42.834-13.809 60.402 -0.456-8.086-2.304-17.859 1.473-31.015 -3.663 6.402-7.795 13.848-9.388 22.723 -5.241-9.827-2.367-17.266-0.533-26.834 7.778-8.19 13.157-23.839 14.294-33.894 -0.935 8.266-6.287 20.703-12.478 25.897 -0.001 0.009-0.536 1.809-1.124 3.782 0.044-0.333 0.086-0.668 0.125-1.008 -8.928 21.01-13.345 23.131 8.046 60.166 0.845-9.357 4.724-19.388 9.175-27.573C169.236 147.874 184.401 150.477 169.126 101.456z" fill="#cfb89a" stroke-width="none" opacity="1" stroke="none"></path><path id="SvgjsPath17300" d="M155.339 79.777c4.269-17.414-2.295-44.215-5.664-49.444C154.928 38.481 161.974 60.465 155.339 79.777zM159.441 87.699c0.458-2.363 14.095-28.735-8.994-65.914C171.332 59.802 159.905 85.303 159.441 87.699zM34.086 55.382c1-0.447 7.361-47.259 48.429-56.088C39.446 6.883 35.086 54.937 34.086 55.382zM39.756 99.767c-0.024-1.003-8.152-47.383 14.691-77.104C27.996 53.967 39.732 98.767 39.756 99.767zM43.013 131.156c-1.428-1.897-13.106-33.317-7.671-69.134C25.286 99.584 42.261 130.156 43.013 131.156zM153.395 30.807c-1-0.295-13.057-35.017-37.847-31.593C137.232-2.015 152.395 30.509 153.395 30.807zM132.763 48.797c0 0-9.419-14.771-6.004-39.082C123.607 24.555 123.938 34.813 132.763 48.797zM135.424 37.302c2.568 7.16 8.104 14.888 9.026 15.499 -1.001-0.663-9.66-13.341-11.684-34.227C132.946 24.843 133.284 31.334 135.424 37.302zM88.142 57.415c7.993-7.77 25.836-15.403 35.973-52.374C113.238 39.193 96.597 49.196 88.142 57.415zM88.167 27.009c6.991-6.677 9.494-13.522 9.407-19.946C96.858 13.51 93.367 22.043 88.167 27.009zM78.146 30.338c0.377-0.013 1.333-1.137 1.603-1.373 7.977-6.959 11.625-12.581 12.388-22.236C90.966 17.738 79.148 30.304 78.146 30.338zM76.803 28.359c0 0 8.23-9.662 11.186-23.308C84.859 15.938 76.803 28.359 76.803 28.359zM56.403 153.735c0.581-1 1.925-20.274-7.62-28.24C54.788 131.589 56.983 152.734 56.403 153.735zM56.42 153.725c-0.46-7.765-7.55-13.918-8.99-23.647C47.966 142.486 55.625 146.906 56.42 153.725zM41.095 160.402c-0.959-2.241 3.723-12.528-10.313-34.283C42.215 146.698 40.633 159.322 41.095 160.402zM41.115 159.081c-1.186-4.379 0.906-13.748-4.325-28.989C39.524 140.203 39.581 153.409 41.115 159.081zM150.024 131.289c-4.108 8.074-12.523 13.667-10.338 33.775 -0.201-1.853 0.16-3.941 0.305-5.79 1.957-24.953 8.672-5.729 16.046-52.242C154.253 114.17 152.895 125.648 150.024 131.289zM147.729 167.729c0.371-1.456 0.345-3.097 0.603-4.586 2.182-12.614 6.991-19.381 7.411-39.744C154.781 139.88 147.521 153.505 147.729 167.729zM165.107 141.027c0.469-3.128 6.825-7.942 1.996-32.945C169.849 133.741 165.568 137.951 165.107 141.027zM165.108 141.058c0.438-1 3.109-17.928-3.651-30.616C166.176 120.715 165.547 140.058 165.108 141.058z" fill="#ede8e1" stroke-width="none" opacity="1" stroke="none"></path><path id="SvgjsPath17301" d="M18.901 151.753c0.248-2.574 0.649-5.177 1.238-7.817 2.5 7.838 5.503 15.074 11.68 25.88 -3.773 27.679 2.116 17.422 18.38 42.81 0-22.267 17.058-34.558 19.03-51.87 1.784-15.764-4.759-22.359-9.16-31.17 3.666 5.108 8.469 10.416 13.56 14.061 -14.507-20.062-21.735-38.961-21.26-66.64 5.63-2.08 11.2-4.36 16.55-7.08 21.469-3.266 38.274-11.49 47.75-31.14 7.314 12.562 19.169 23.77 32.2 29.8 -0.298 65.876-9.77 66.413-23.98 77.209 5.811-1.109 12.751-5.729 14.311-7.93 -9.068 23.75-15.193 23.472 7.479 62.68 0.796-9.556 4.586-19.383 9.19-27.85 13.917-25.626 29.741-22.284 11.45-77.29 1.544-9.539 2.827-18.686 3-27.83 0.175 3.245 0.276 6.377 0.367 9.425 0.214 0 0.428 0 0.641 0 -0.257-4.086-0.525-8.347-0.968-12.875 -0.657-106.408-155.465-102.179-145.79 25.9 -5.227 15.913-11.063 29.484-5.29 50.95 -0.926 3.002-1.626 5.909-2.137 8.749C17.674 150.456 18.233 151.159 18.901 151.753zM24.959 94.285c0.095 1 3.72 27.654 1.32 8.13C8.536-41.931 192.536-51.931 166.139 101.896c-1.794 10.454-0.768 5.549 0.961-5.12 17.259 58.25-3.75 45.563-18.32 87.37 -1.37 3.939-2.34 9-2.74 13.13 -21.623-38.089-11.207-41.533-5.64-60.7 6.599-7.292 10.615-15.871 11.71-26.52 -2.591 17.989-14.384 30.05-24.181 34.06 5.116-3.371 10.438-6.975 13.601-12.39 2.034-2.136 11.762-26.173 8.12-72.03 -1.673-20.141-8.437-26.107-6.931-34.66 -1.396 6.717 2.429 11.257 4.71 25.08 1.055 6.458 1.431 15.847 1.431 17.57 -10.923-5.965-24.91-18.89-31.76-29.79 4.461-9.145 6.782-23.075 8.6-31.87 -5.416 22.088-9.213 52.515-53.76 62.3 7.232-3.953 22.987-12.243 39.25-45.36 0.02-0.01 0.029-0.02 0.029-0.04 8.711-17.095 0.602-2.034-0.09-0.8 -0.013-0.026-0.01-0.103-0.01 0.01 -20.156 36.093-36.387 45.333-58.75 54.6 0.01-0.68 0.02-1.36 0.05-2.04 27.481-8.941 44.618-41.674 39.07-33.58 -8.877 13.02-24.155 28.015-39.06 33.34 0.017-1 0.183-4.32 0.46-7.14 19.215-13.644 23.448-20.838 30.89-33.8 0.556-0.979 1.037-1.813 1.454-2.526C80.75 37.814 68.93 54.19 52.939 66.715c0.44-4.62 1.1-9.22 1.89-13.79 0.921-1.218 8.834-7.552 15.32-20.74 3.094-6.249 4.27-9.59 4.27-9.59 -0.871 1.578-6.035 13.404-19.31 28.78 2.19-12.138 5.188-23.076 8.57-35.03 -5.756 17.895-11.357 37.272-13.01 56.8 -0.488 1-1.416 37.987 17.235 63.969 -28.77-30.95-24.066-68.987-23.885-81.719 -0.09 0-0.75 10.35-0.8 11.05 -3.867 51.415 25.597 63.853 24 90.61 -1.172 19.548-17.347 30.422-17.49 53.89 -12.637-21.956-19.809-15.55-16.85-39.3 0.077-1 1.134-8.253 0.08-15.33 -1.696-11.256-4.121-14.498-3.766-16.86 -0.269 1.428 0.351 2.886 1.417 6.7 1.909 6.668 2.163 15.704 1.33 22.73C15.417 136.337 17.729 119.042 24.959 94.285z" fill="#b08d60" stroke-width="none" opacity="1" stroke="none"></path></g><g id="svga-group-glasses-single" ><path id="SvgjsPath17378" d="M142.29 97.41c-4.18 2.89-9.99 4.5-16.48 3.86 -10.05-0.98-16.01-7.51-18.24-13.28 -1.93-4.85-1.14-8.25 2.64-11.36 2.87-2.36 8.27-4.17 14.16-4.76C135.43 75.65 145.22 86.87 142.29 97.41zM67.01 71.94c-6.66 0.84-12.69 3.67-15.12 9.47 -4.22 10.71 7.21 21.33 22.29 19.86 4.2-0.41 7.68-1.8 10.48-3.69C87.73 87.06 78.04 75.82 67.01 71.94z" fill="#ffffff" stroke-width="none" opacity="0.2"></path><path id="SvgjsPath17379" d="M142.29 97.41c2.93-10.54-6.86-21.75-17.91-25.54 9.5-0.95 20.27 1.28 23.73 9.54C150.51 87.51 147.83 93.58 142.29 97.41zM89.78 76.62c-4.25-3.5-14.06-5.79-22.77-4.68 11.03 3.88 20.72 15.12 17.65 25.64 3.89-2.63 6.46-6.23 7.76-9.6C94.36 83.14 93.57 79.74 89.78 76.62z" fill="#ffffff" stroke-width="none" opacity="0.4"></path><path id="SvgjsPath17380" d="M153.71 83.76c-0.2-0.95-0.69-2.01-1.04-2.35 -0.7-0.7-2.57-1.14-3.87-1.19 -6.82-14.51-37.85-11.21-42.69-0.22 -3.34-1.97-8.87-1.98-12.23 0 -4.85-11-35.88-14.29-42.69 0.22 -1.3 0.05-3.17 0.49-3.87 1.19 -0.34 0.34-0.84 1.4-1.04 2.35 -0.13 0.63-0.6 1.16-0.44 1.53 0.44 1 1.33 0.38 1.71 0.13 0.29-0.1 1.55 0.06 2.36 0.69 0.08 9.47 10.7 17.59 24.38 16.25 13.97-1.36 21.1-13.38 20.15-20.44 1.91-1.42 9.19-1.43 11.11 0 -0.95 7.05 6.18 19.07 20.15 20.44 13.67 1.34 24.3-6.78 24.38-16.25 0.81-0.63 2.06-0.79 2.36-0.69 0.38 0.25 1.28 0.87 1.72-0.13C154.31 84.92 153.84 84.39 153.71 83.76zM50.03 84.34c-0.7-0.33-1.46-0.53-2.11-0.53 0.14-0.52 0.37-1.11 0.53-1.27 0.26-0.26 1.12-0.64 2.07-0.61C50.28 82.71 50.12 83.52 50.03 84.34zM91.98 87.81c-2.16 5.6-7.98 12.01-17.83 12.98 -14.85 1.45-25.84-8.92-21.8-19.2 0.1-0.24 0.15-0.35 0.22-0.54C58.11 68.82 82.13 70.96 89.48 77 92.8 79.73 93.99 82.75 91.98 87.81zM125.86 100.79c-9.85-0.96-15.68-7.38-17.84-12.98 -2.02-5.06-0.82-8.08 2.5-10.81 7.35-6.04 31.36-8.17 36.91 4.04 0.07 0.2 0.13 0.3 0.22 0.54C151.7 91.86 140.7 102.24 125.86 100.79zM149.97 84.34c-0.1-0.82-0.25-1.63-0.49-2.41 0.95-0.03 1.81 0.34 2.07 0.61 0.16 0.17 0.39 0.75 0.53 1.27C151.43 83.82 150.67 84.01 149.97 84.34z" fill="#210d34" stroke-width="none" opacity="1" stroke="none"></path></g></g></g><rect id="SvgjsRect17112" width="200" height="15" x="0" y="185" fill="#ecf0f1" opacity="0.5" style="display:none;"></rect><text id="SvgjsText17113" font-family="&quot;Roboto&quot;, &quot;Helvetica Neue&quot;, Helvetica, Arial, sans-serif" style="font-size:0.84em;font-family:&quot;Roboto&quot;, &quot;Helvetica Neue&quot;, Helvetica, Arial, sans-serif;text-anchor:middle;font-weight:400;display:none;" font-size="0.84em" text-anchor="middle" font-weight="400" fill="#000000" x="100" y="185"><tspan id="SvgjsTspan17114" dy="1.2em" x="100" style="font-size:0.84em;font-family:&quot;Roboto&quot;, &quot;Helvetica Neue&quot;, Helvetica, Arial, sans-serif;text-anchor:middle;font-weight:400;">Created on todream.eu</tspan></text></g><defs id="SvgjsDefs17080"><radialGradient id="SvgjsRadialGradient17128" cx="100" cy="113" r="40" gradientUnits="userSpaceOnUse" class="svga-on-canvas-facehighlight-gradient-single-0"><stop id="SvgjsStop17129" stop-opacity="0.5" stop-color="#ffc9b5" offset="0" ></stop><stop id="SvgjsStop17130" stop-opacity="0" stop-color="#f5af95" offset="0.9" ></stop></radialGradient><radialGradient id="SvgjsRadialGradient17132" cx="100" cy="57" r="36" gradientUnits="userSpaceOnUse" class="svga-on-canvas-facehighlight-gradient-single-1"><stop id="SvgjsStop17133" stop-opacity="0.5" stop-color="#ffc9b5" offset="0" ></stop><stop id="SvgjsStop17134" stop-opacity="0" stop-color="#f5af95" offset="0.9" ></stop></radialGradient><radialGradient id="SvgjsRadialGradient17213" cx="-558.588" cy="-490.918" r="84.646" gradientTransform="matrix(0.096 -0.0248 0.0245 0.0961 140.5478 120.3577)" gradientUnits="userSpaceOnUse" class="svga-on-canvas-eyesiris-gradient-left-1"><stop id="SvgjsStop17214" stop-opacity="0.8" stop-color="#ffffff" offset="0" ></stop><stop id="SvgjsStop17215" stop-opacity="0" stop-color="#ffffff" offset="1" ></stop></radialGradient><radialGradient id="SvgjsRadialGradient17217" cx="-565.337" cy="-492.691" r="84.644" gradientTransform="matrix(0.0991 8.856325e-004 -0.0011 0.0991 130.3774 136.3533)" gradientUnits="userSpaceOnUse" class="svga-on-canvas-eyesiris-gradient-left-2"><stop id="SvgjsStop17218" stop-opacity="0.8" stop-color="#ffffff" offset="0" ></stop><stop id="SvgjsStop17219" stop-opacity="0" stop-color="#ffffff" offset="1" ></stop></radialGradient><linearGradient id="SvgjsLinearGradient17223" x1="122.283" y1="93.047" x2="123.61" y2="91.466" gradientTransform="matrix(1 0 0 1 -52 0)" gradientUnits="userSpaceOnUse" class="svga-on-canvas-eyesiris-gradient-left-5"><stop id="SvgjsStop17224" stop-opacity="1" stop-color="#ffffff" offset="0" ></stop><stop id="SvgjsStop17225" stop-opacity="0" stop-color="#ffffff" offset="1" ></stop></linearGradient><linearGradient id="SvgjsLinearGradient17227" x1="127" y1="85" x2="125" y2="87" gradientTransform="matrix(1 0 0 1 -50 0)" gradientUnits="userSpaceOnUse" class="svga-on-canvas-eyesiris-gradient-left-6"><stop id="SvgjsStop17228" stop-opacity="1" stop-color="#ffffff" offset="0" ></stop><stop id="SvgjsStop17229" stop-opacity="0" stop-color="#ffffff" offset="1" ></stop></linearGradient><linearGradient id="SvgjsLinearGradient17231" x1="130" y1="81" x2="126" y2="85" gradientTransform="matrix(1 0 0 1 -50 0)" gradientUnits="userSpaceOnUse" class="svga-on-canvas-eyesiris-gradient-left-7"><stop id="SvgjsStop17232" stop-opacity="1" stop-color="#ffffff" offset="0" ></stop><stop id="SvgjsStop17233" stop-opacity="0" stop-color="#ffffff" offset="1" ></stop></linearGradient><radialGradient id="SvgjsRadialGradient17236" cx="-578.76" cy="-490.73" r="84.646" gradientTransform="matrix(0.096 -0.0248 0.0245 0.0961 192.4794 119.8404)" gradientUnits="userSpaceOnUse" class="svga-on-canvas-eyesiris-gradient-right-1"><stop id="SvgjsStop17237" stop-opacity="0.8" stop-color="#ffffff" offset="0" ></stop><stop id="SvgjsStop17238" stop-opacity="0" stop-color="#ffffff" offset="1" ></stop></radialGradient><radialGradient id="SvgjsRadialGradient17240" cx="-584.778" cy="-487.329" r="84.644" gradientTransform="matrix(0.0991 8.856325e-004 -0.0011 0.0991 182.3104 135.839)" gradientUnits="userSpaceOnUse" class="svga-on-canvas-eyesiris-gradient-right-2"><stop id="SvgjsStop17241" stop-opacity="0.8" stop-color="#ffffff" offset="0" ></stop><stop id="SvgjsStop17242" stop-opacity="0" stop-color="#ffffff" offset="1" ></stop></radialGradient><linearGradient id="SvgjsLinearGradient17246" x1="120.284" y1="93.047" x2="121.611" y2="91.467" gradientUnits="userSpaceOnUse" class="svga-on-canvas-eyesiris-gradient-right-5"><stop id="SvgjsStop17247" stop-opacity="1" stop-color="#ffffff" offset="0" ></stop><stop id="SvgjsStop17248" stop-opacity="0" stop-color="#ffffff" offset="1" ></stop></linearGradient><linearGradient id="SvgjsLinearGradient17250" x1="127" y1="85" x2="125" y2="87" gradientUnits="userSpaceOnUse" class="svga-on-canvas-eyesiris-gradient-right-6"><stop id="SvgjsStop17251" stop-opacity="1" stop-color="#ffffff" offset="0" ></stop><stop id="SvgjsStop17252" stop-opacity="0" stop-color="#ffffff" offset="1" ></stop></linearGradient><linearGradient id="SvgjsLinearGradient17254" x1="130" y1="81" x2="126" y2="85" gradientUnits="userSpaceOnUse" class="svga-on-canvas-eyesiris-gradient-right-7"><stop id="SvgjsStop17255" stop-opacity="1" stop-color="#ffffff" offset="0" ></stop><stop id="SvgjsStop17256" stop-opacity="0" stop-color="#ffffff" offset="1" ></stop></linearGradient><linearGradient id="SvgjsLinearGradient17262" x1="100" y1="141" x2="100" y2="138" gradientUnits="userSpaceOnUse" class="svga-on-canvas-mouth-gradient-single-0"><stop id="SvgjsStop17263" stop-opacity="1" stop-color="#eda184" offset="0.1" ></stop><stop id="SvgjsStop17264" stop-opacity="1" stop-color="#e69375" offset="1" ></stop></linearGradient><radialGradient id="SvgjsRadialGradient17319" cx="126.391" cy="85.989" r="13.763" gradientTransform="matrix(-1.0172 0 0 1.0172 202.565 -1.469)" gradientUnits="userSpaceOnUse" class="svga-on-canvas-eyesback-gradient-left-0"><stop id="SvgjsStop17320" stop-opacity="1" stop-color="#ffffff" offset="0" ></stop><stop id="SvgjsStop17321" stop-opacity="1" stop-color="#fdfefe" offset="0.544" ></stop><stop id="SvgjsStop17322" stop-opacity="1" stop-color="#f6f8f9" offset="0.74" ></stop><stop id="SvgjsStop17323" stop-opacity="1" stop-color="#eaeff2" offset="0.879" ></stop><stop id="SvgjsStop17324" stop-opacity="1" stop-color="#d9e3e8" offset="0.992" ></stop><stop id="SvgjsStop17325" stop-opacity="1" stop-color="#d8e2e7" offset="1" ></stop></radialGradient><radialGradient id="SvgjsRadialGradient17327" cx="126.391" cy="85.989" r="13.763" gradientTransform="matrix(1.0172 0 0 1.0172 -2.565 -1.469)" gradientUnits="userSpaceOnUse" class="svga-on-canvas-eyesback-gradient-right-0"><stop id="SvgjsStop17328" stop-opacity="1" stop-color="#ffffff" offset="0" ></stop><stop id="SvgjsStop17329" stop-opacity="1" stop-color="#fdfefe" offset="0.544" ></stop><stop id="SvgjsStop17330" stop-opacity="1" stop-color="#f6f8f9" offset="0.74" ></stop><stop id="SvgjsStop17331" stop-opacity="1" stop-color="#eaeff2" offset="0.879" ></stop><stop id="SvgjsStop17332" stop-opacity="1" stop-color="#d9e3e8" offset="0.992" ></stop><stop id="SvgjsStop17333" stop-opacity="1" stop-color="#d8e2e7" offset="1" ></stop></radialGradient><radialGradient id="SvgjsRadialGradient17335" cx="126.391" cy="85.989" r="13.763" gradientTransform="matrix(-1.0172 0 0 1.0172 202.565 -1.469)" gradientUnits="userSpaceOnUse" class="svga-on-canvas-eyesfront-gradient-left-0"><stop id="SvgjsStop17336" stop-opacity="1" stop-color="#ffffff" offset="0" ></stop><stop id="SvgjsStop17337" stop-opacity="1" stop-color="#fdfefe" offset="0.544" ></stop><stop id="SvgjsStop17338" stop-opacity="1" stop-color="#f6f8f9" offset="0.74" ></stop><stop id="SvgjsStop17339" stop-opacity="1" stop-color="#eaeff2" offset="0.879" ></stop><stop id="SvgjsStop17340" stop-opacity="1" stop-color="#d9e3e8" offset="0.992" ></stop><stop id="SvgjsStop17341" stop-opacity="1" stop-color="#d8e2e7" offset="1" ></stop></radialGradient><radialGradient id="SvgjsRadialGradient17345" cx="123.411" cy="85.41" fx="136.047" fy="85.446" r="17.971" gradientTransform="matrix(0.9998 0.0208 0.0166 -0.7998 -48.2173 151.1555)" gradientUnits="userSpaceOnUse" class="svga-on-canvas-eyesfront-gradient-left-3"><stop id="SvgjsStop17346" stop-opacity="1" stop-color="#e69375" offset="0" ></stop><stop id="SvgjsStop17347" stop-opacity="0.3" stop-color="#e69375" offset="0.7" ></stop><stop id="SvgjsStop17348" stop-opacity="0" stop-color="#f5af95" offset="1" ></stop></radialGradient><radialGradient id="SvgjsRadialGradient17350" cx="78.542" cy="109.585" r="29.473" gradientTransform="matrix(0.9362 -0.0488 0.049 0.9315 -2.5399 10.6886)" gradientUnits="userSpaceOnUse" class="svga-on-canvas-eyesfront-gradient-left-4"><stop id="SvgjsStop17351" stop-opacity="0" stop-color="#000000" offset="0.95" ></stop><stop id="SvgjsStop17352" stop-opacity="0.3" stop-color="#000000" offset="1" ></stop></radialGradient><radialGradient id="SvgjsRadialGradient17356" cx="126.391" cy="85.989" r="13.763" gradientTransform="matrix(1.0172 0 0 1.0172 -2.565 -1.469)" gradientUnits="userSpaceOnUse" class="svga-on-canvas-eyesfront-gradient-right-0"><stop id="SvgjsStop17357" stop-opacity="1" stop-color="#ffffff" offset="0" ></stop><stop id="SvgjsStop17358" stop-opacity="1" stop-color="#fdfefe" offset="0.544" ></stop><stop id="SvgjsStop17359" stop-opacity="1" stop-color="#f6f8f9" offset="0.74" ></stop><stop id="SvgjsStop17360" stop-opacity="1" stop-color="#eaeff2" offset="0.879" ></stop><stop id="SvgjsStop17361" stop-opacity="1" stop-color="#d9e3e8" offset="0.992" ></stop><stop id="SvgjsStop17362" stop-opacity="1" stop-color="#d8e2e7" offset="1" ></stop></radialGradient><radialGradient id="SvgjsRadialGradient17366" cx="123.411" cy="85.41" fx="136.047" fy="85.446" r="17.971" gradientTransform="matrix(-0.9998 0.0208 -0.0166 -0.7998 248.2173 151.1555)" gradientUnits="userSpaceOnUse" class="svga-on-canvas-eyesfront-gradient-right-3"><stop id="SvgjsStop17367" stop-opacity="1" stop-color="#e69375" offset="0" ></stop><stop id="SvgjsStop17368" stop-opacity="0.3" stop-color="#e69375" offset="0.7" ></stop><stop id="SvgjsStop17369" stop-opacity="0" stop-color="#f5af95" offset="1" ></stop></radialGradient><radialGradient id="SvgjsRadialGradient17371" cx="78.542" cy="109.585" r="29.473" gradientTransform="matrix(-0.9362 -0.0488 -0.049 0.9315 202.5399 10.6886)" gradientUnits="userSpaceOnUse" class="svga-on-canvas-eyesfront-gradient-right-4"><stop id="SvgjsStop17372" stop-opacity="0" stop-color="#000000" offset="0.95" ></stop><stop id="SvgjsStop17373" stop-opacity="0.3" stop-color="#000000" offset="1" ></stop></radialGradient><linearGradient id="SvgjsLinearGradient17412" x1="99.98" y1="171.27" x2="99.98" y2="136.351" gradientUnits="userSpaceOnUse" class="svga-on-canvas-chinshadow-gradient-single-0"><stop id="SvgjsStop17413" stop-opacity="0.8" stop-color="#e69375" offset="0" ></stop><stop id="SvgjsStop17414" stop-opacity="1" stop-color="#c7633d" offset="0.7" ></stop></linearGradient></defs></svg>